<?xml version="1.0" encoding="utf-8" standalone="no"?>
<!DOCTYPE svg PUBLIC "-//W3C//DTD SVG 1.1//EN"
  "http://www.w3.org/Graphics/SVG/1.1/DTD/svg11.dtd">
<svg xmlns:xlink="http://www.w3.org/1999/xlink" width="1140.929375pt" height="420.960469pt" viewBox="0 0 1140.929375 420.960469" xmlns="http://www.w3.org/2000/svg" version="1.1">
 <metadata>
  <rdf:RDF xmlns:dc="http://purl.org/dc/elements/1.1/" xmlns:cc="http://creativecommons.org/ns#" xmlns:rdf="http://www.w3.org/1999/02/22-rdf-syntax-ns#">
   <cc:Work>
    <dc:type rdf:resource="http://purl.org/dc/dcmitype/StillImage"/>
    <dc:date>2025-11-27T16:04:45.683490</dc:date>
    <dc:format>image/svg+xml</dc:format>
    <dc:creator>
     <cc:Agent>
      <dc:title>Matplotlib v3.10.7, https://matplotlib.org/</dc:title>
     </cc:Agent>
    </dc:creator>
   </cc:Work>
  </rdf:RDF>
 </metadata>
 <defs>
  <style type="text/css">*{stroke-linejoin: round; stroke-linecap: butt}</style>
 </defs>
 <g id="figure_1">
  <g id="patch_1">
   <path d="M 0 420.960469 
L 1140.929375 420.960469 
L 1140.929375 0 
L 0 0 
z
" style="fill: #ffffff"/>
  </g>
  <g id="axes_1">
   <g id="patch_2">
    <path d="M 56.429375 378.939375 
L 588.599375 378.939375 
L 588.599375 21.935625 
L 56.429375 21.935625 
z
" style="fill: #ffffff"/>
   </g>
   <g id="matplotlib.axis_1">
    <g id="xtick_1">
     <g id="line2d_1">
      <path d="M 80.61892 378.939375 
L 80.61892 21.935625 
" clip-path="url(#p1ad6a673d2)" style="fill: none; stroke: #cccccc; stroke-opacity: 0.2; stroke-linecap: round"/>
     </g>
     <g id="text_1">
      <!-- 0.6 -->
      <g style="fill: #262626" transform="translate(72.97392 396.312969) scale(0.11 -0.11)">
       <defs>
        <path id="ArialMT-30" d="M 266 2259 
Q 266 3072 433 3567 
Q 600 4063 929 4331 
Q 1259 4600 1759 4600 
Q 2128 4600 2406 4451 
Q 2684 4303 2865 4023 
Q 3047 3744 3150 3342 
Q 3253 2941 3253 2259 
Q 3253 1453 3087 958 
Q 2922 463 2592 192 
Q 2263 -78 1759 -78 
Q 1097 -78 719 397 
Q 266 969 266 2259 
z
M 844 2259 
Q 844 1131 1108 757 
Q 1372 384 1759 384 
Q 2147 384 2411 759 
Q 2675 1134 2675 2259 
Q 2675 3391 2411 3762 
Q 2147 4134 1753 4134 
Q 1366 4134 1134 3806 
Q 844 3388 844 2259 
z
" transform="scale(0.015625)"/>
        <path id="ArialMT-2e" d="M 581 0 
L 581 641 
L 1222 641 
L 1222 0 
L 581 0 
z
" transform="scale(0.015625)"/>
        <path id="ArialMT-36" d="M 3184 3459 
L 2625 3416 
Q 2550 3747 2413 3897 
Q 2184 4138 1850 4138 
Q 1581 4138 1378 3988 
Q 1113 3794 959 3422 
Q 806 3050 800 2363 
Q 1003 2672 1297 2822 
Q 1591 2972 1913 2972 
Q 2475 2972 2870 2558 
Q 3266 2144 3266 1488 
Q 3266 1056 3080 686 
Q 2894 316 2569 119 
Q 2244 -78 1831 -78 
Q 1128 -78 684 439 
Q 241 956 241 2144 
Q 241 3472 731 4075 
Q 1159 4600 1884 4600 
Q 2425 4600 2770 4297 
Q 3116 3994 3184 3459 
z
M 888 1484 
Q 888 1194 1011 928 
Q 1134 663 1356 523 
Q 1578 384 1822 384 
Q 2178 384 2434 671 
Q 2691 959 2691 1453 
Q 2691 1928 2437 2201 
Q 2184 2475 1800 2475 
Q 1419 2475 1153 2201 
Q 888 1928 888 1484 
z
" transform="scale(0.015625)"/>
       </defs>
       <use xlink:href="#ArialMT-30"/>
       <use xlink:href="#ArialMT-2e" transform="translate(55.615234 0)"/>
       <use xlink:href="#ArialMT-36" transform="translate(83.398438 0)"/>
      </g>
     </g>
    </g>
    <g id="xtick_2">
     <g id="line2d_2">
      <path d="M 177.377102 378.939375 
L 177.377102 21.935625 
" clip-path="url(#p1ad6a673d2)" style="fill: none; stroke: #cccccc; stroke-opacity: 0.2; stroke-linecap: round"/>
     </g>
     <g id="text_2">
      <!-- 1.7 -->
      <g style="fill: #262626" transform="translate(169.732102 396.312969) scale(0.11 -0.11)">
       <defs>
        <path id="ArialMT-31" d="M 2384 0 
L 1822 0 
L 1822 3584 
Q 1619 3391 1289 3197 
Q 959 3003 697 2906 
L 697 3450 
Q 1169 3672 1522 3987 
Q 1875 4303 2022 4600 
L 2384 4600 
L 2384 0 
z
" transform="scale(0.015625)"/>
        <path id="ArialMT-37" d="M 303 3981 
L 303 4522 
L 3269 4522 
L 3269 4084 
Q 2831 3619 2401 2847 
Q 1972 2075 1738 1259 
Q 1569 684 1522 0 
L 944 0 
Q 953 541 1156 1306 
Q 1359 2072 1739 2783 
Q 2119 3494 2547 3981 
L 303 3981 
z
" transform="scale(0.015625)"/>
       </defs>
       <use xlink:href="#ArialMT-31"/>
       <use xlink:href="#ArialMT-2e" transform="translate(55.615234 0)"/>
       <use xlink:href="#ArialMT-37" transform="translate(83.398438 0)"/>
      </g>
     </g>
    </g>
    <g id="xtick_3">
     <g id="line2d_3">
      <path d="M 274.135284 378.939375 
L 274.135284 21.935625 
" clip-path="url(#p1ad6a673d2)" style="fill: none; stroke: #cccccc; stroke-opacity: 0.2; stroke-linecap: round"/>
     </g>
     <g id="text_3">
      <!-- 4.0 -->
      <g style="fill: #262626" transform="translate(266.490284 396.312969) scale(0.11 -0.11)">
       <defs>
        <path id="ArialMT-34" d="M 2069 0 
L 2069 1097 
L 81 1097 
L 81 1613 
L 2172 4581 
L 2631 4581 
L 2631 1613 
L 3250 1613 
L 3250 1097 
L 2631 1097 
L 2631 0 
L 2069 0 
z
M 2069 1613 
L 2069 3678 
L 634 1613 
L 2069 1613 
z
" transform="scale(0.015625)"/>
       </defs>
       <use xlink:href="#ArialMT-34"/>
       <use xlink:href="#ArialMT-2e" transform="translate(55.615234 0)"/>
       <use xlink:href="#ArialMT-30" transform="translate(83.398438 0)"/>
      </g>
     </g>
    </g>
    <g id="xtick_4">
     <g id="line2d_4">
      <path d="M 370.893466 378.939375 
L 370.893466 21.935625 
" clip-path="url(#p1ad6a673d2)" style="fill: none; stroke: #cccccc; stroke-opacity: 0.2; stroke-linecap: round"/>
     </g>
     <g id="text_4">
      <!-- 8.0 -->
      <g style="fill: #262626" transform="translate(363.248466 396.312969) scale(0.11 -0.11)">
       <defs>
        <path id="ArialMT-38" d="M 1131 2484 
Q 781 2613 612 2850 
Q 444 3088 444 3419 
Q 444 3919 803 4259 
Q 1163 4600 1759 4600 
Q 2359 4600 2725 4251 
Q 3091 3903 3091 3403 
Q 3091 3084 2923 2848 
Q 2756 2613 2416 2484 
Q 2838 2347 3058 2040 
Q 3278 1734 3278 1309 
Q 3278 722 2862 322 
Q 2447 -78 1769 -78 
Q 1091 -78 675 323 
Q 259 725 259 1325 
Q 259 1772 486 2073 
Q 713 2375 1131 2484 
z
M 1019 3438 
Q 1019 3113 1228 2906 
Q 1438 2700 1772 2700 
Q 2097 2700 2305 2904 
Q 2513 3109 2513 3406 
Q 2513 3716 2298 3927 
Q 2084 4138 1766 4138 
Q 1444 4138 1231 3931 
Q 1019 3725 1019 3438 
z
M 838 1322 
Q 838 1081 952 856 
Q 1066 631 1291 507 
Q 1516 384 1775 384 
Q 2178 384 2440 643 
Q 2703 903 2703 1303 
Q 2703 1709 2433 1975 
Q 2163 2241 1756 2241 
Q 1359 2241 1098 1978 
Q 838 1716 838 1322 
z
" transform="scale(0.015625)"/>
       </defs>
       <use xlink:href="#ArialMT-38"/>
       <use xlink:href="#ArialMT-2e" transform="translate(55.615234 0)"/>
       <use xlink:href="#ArialMT-30" transform="translate(83.398438 0)"/>
      </g>
     </g>
    </g>
    <g id="xtick_5">
     <g id="line2d_5">
      <path d="M 467.651648 378.939375 
L 467.651648 21.935625 
" clip-path="url(#p1ad6a673d2)" style="fill: none; stroke: #cccccc; stroke-opacity: 0.2; stroke-linecap: round"/>
     </g>
     <g id="text_5">
      <!-- 14.0 -->
      <g style="fill: #262626" transform="translate(456.948132 396.312969) scale(0.11 -0.11)">
       <use xlink:href="#ArialMT-31"/>
       <use xlink:href="#ArialMT-34" transform="translate(55.615234 0)"/>
       <use xlink:href="#ArialMT-2e" transform="translate(111.230469 0)"/>
       <use xlink:href="#ArialMT-30" transform="translate(139.013672 0)"/>
      </g>
     </g>
    </g>
    <g id="xtick_6">
     <g id="line2d_6">
      <path d="M 564.40983 378.939375 
L 564.40983 21.935625 
" clip-path="url(#p1ad6a673d2)" style="fill: none; stroke: #cccccc; stroke-opacity: 0.2; stroke-linecap: round"/>
     </g>
     <g id="text_6">
      <!-- 32.0 -->
      <g style="fill: #262626" transform="translate(553.706314 396.312969) scale(0.11 -0.11)">
       <defs>
        <path id="ArialMT-33" d="M 269 1209 
L 831 1284 
Q 928 806 1161 595 
Q 1394 384 1728 384 
Q 2125 384 2398 659 
Q 2672 934 2672 1341 
Q 2672 1728 2419 1979 
Q 2166 2231 1775 2231 
Q 1616 2231 1378 2169 
L 1441 2663 
Q 1497 2656 1531 2656 
Q 1891 2656 2178 2843 
Q 2466 3031 2466 3422 
Q 2466 3731 2256 3934 
Q 2047 4138 1716 4138 
Q 1388 4138 1169 3931 
Q 950 3725 888 3313 
L 325 3413 
Q 428 3978 793 4289 
Q 1159 4600 1703 4600 
Q 2078 4600 2393 4439 
Q 2709 4278 2876 4000 
Q 3044 3722 3044 3409 
Q 3044 3113 2884 2869 
Q 2725 2625 2413 2481 
Q 2819 2388 3044 2092 
Q 3269 1797 3269 1353 
Q 3269 753 2831 336 
Q 2394 -81 1725 -81 
Q 1122 -81 723 278 
Q 325 638 269 1209 
z
" transform="scale(0.015625)"/>
        <path id="ArialMT-32" d="M 3222 541 
L 3222 0 
L 194 0 
Q 188 203 259 391 
Q 375 700 629 1000 
Q 884 1300 1366 1694 
Q 2113 2306 2375 2664 
Q 2638 3022 2638 3341 
Q 2638 3675 2398 3904 
Q 2159 4134 1775 4134 
Q 1369 4134 1125 3890 
Q 881 3647 878 3216 
L 300 3275 
Q 359 3922 746 4261 
Q 1134 4600 1788 4600 
Q 2447 4600 2831 4234 
Q 3216 3869 3216 3328 
Q 3216 3053 3103 2787 
Q 2991 2522 2730 2228 
Q 2469 1934 1863 1422 
Q 1356 997 1212 845 
Q 1069 694 975 541 
L 3222 541 
z
" transform="scale(0.015625)"/>
       </defs>
       <use xlink:href="#ArialMT-33"/>
       <use xlink:href="#ArialMT-32" transform="translate(55.615234 0)"/>
       <use xlink:href="#ArialMT-2e" transform="translate(111.230469 0)"/>
       <use xlink:href="#ArialMT-30" transform="translate(139.013672 0)"/>
      </g>
     </g>
    </g>
    <g id="text_7">
     <!-- Model Parameters (Billions) -->
     <g style="fill: #262626" transform="translate(248.827813 411.234844) scale(0.12 -0.12)">
      <defs>
       <path id="ArialMT-4d" d="M 475 0 
L 475 4581 
L 1388 4581 
L 2472 1338 
Q 2622 884 2691 659 
Q 2769 909 2934 1394 
L 4031 4581 
L 4847 4581 
L 4847 0 
L 4263 0 
L 4263 3834 
L 2931 0 
L 2384 0 
L 1059 3900 
L 1059 0 
L 475 0 
z
" transform="scale(0.015625)"/>
       <path id="ArialMT-6f" d="M 213 1659 
Q 213 2581 725 3025 
Q 1153 3394 1769 3394 
Q 2453 3394 2887 2945 
Q 3322 2497 3322 1706 
Q 3322 1066 3130 698 
Q 2938 331 2570 128 
Q 2203 -75 1769 -75 
Q 1072 -75 642 372 
Q 213 819 213 1659 
z
M 791 1659 
Q 791 1022 1069 705 
Q 1347 388 1769 388 
Q 2188 388 2466 706 
Q 2744 1025 2744 1678 
Q 2744 2294 2464 2611 
Q 2184 2928 1769 2928 
Q 1347 2928 1069 2612 
Q 791 2297 791 1659 
z
" transform="scale(0.015625)"/>
       <path id="ArialMT-64" d="M 2575 0 
L 2575 419 
Q 2259 -75 1647 -75 
Q 1250 -75 917 144 
Q 584 363 401 755 
Q 219 1147 219 1656 
Q 219 2153 384 2558 
Q 550 2963 881 3178 
Q 1213 3394 1622 3394 
Q 1922 3394 2156 3267 
Q 2391 3141 2538 2938 
L 2538 4581 
L 3097 4581 
L 3097 0 
L 2575 0 
z
M 797 1656 
Q 797 1019 1065 703 
Q 1334 388 1700 388 
Q 2069 388 2326 689 
Q 2584 991 2584 1609 
Q 2584 2291 2321 2609 
Q 2059 2928 1675 2928 
Q 1300 2928 1048 2622 
Q 797 2316 797 1656 
z
" transform="scale(0.015625)"/>
       <path id="ArialMT-65" d="M 2694 1069 
L 3275 997 
Q 3138 488 2766 206 
Q 2394 -75 1816 -75 
Q 1088 -75 661 373 
Q 234 822 234 1631 
Q 234 2469 665 2931 
Q 1097 3394 1784 3394 
Q 2450 3394 2872 2941 
Q 3294 2488 3294 1666 
Q 3294 1616 3291 1516 
L 816 1516 
Q 847 969 1125 678 
Q 1403 388 1819 388 
Q 2128 388 2347 550 
Q 2566 713 2694 1069 
z
M 847 1978 
L 2700 1978 
Q 2663 2397 2488 2606 
Q 2219 2931 1791 2931 
Q 1403 2931 1139 2672 
Q 875 2413 847 1978 
z
" transform="scale(0.015625)"/>
       <path id="ArialMT-6c" d="M 409 0 
L 409 4581 
L 972 4581 
L 972 0 
L 409 0 
z
" transform="scale(0.015625)"/>
       <path id="ArialMT-20" transform="scale(0.015625)"/>
       <path id="ArialMT-50" d="M 494 0 
L 494 4581 
L 2222 4581 
Q 2678 4581 2919 4538 
Q 3256 4481 3484 4323 
Q 3713 4166 3852 3881 
Q 3991 3597 3991 3256 
Q 3991 2672 3619 2267 
Q 3247 1863 2275 1863 
L 1100 1863 
L 1100 0 
L 494 0 
z
M 1100 2403 
L 2284 2403 
Q 2872 2403 3119 2622 
Q 3366 2841 3366 3238 
Q 3366 3525 3220 3729 
Q 3075 3934 2838 4000 
Q 2684 4041 2272 4041 
L 1100 4041 
L 1100 2403 
z
" transform="scale(0.015625)"/>
       <path id="ArialMT-61" d="M 2588 409 
Q 2275 144 1986 34 
Q 1697 -75 1366 -75 
Q 819 -75 525 192 
Q 231 459 231 875 
Q 231 1119 342 1320 
Q 453 1522 633 1644 
Q 813 1766 1038 1828 
Q 1203 1872 1538 1913 
Q 2219 1994 2541 2106 
Q 2544 2222 2544 2253 
Q 2544 2597 2384 2738 
Q 2169 2928 1744 2928 
Q 1347 2928 1158 2789 
Q 969 2650 878 2297 
L 328 2372 
Q 403 2725 575 2942 
Q 747 3159 1072 3276 
Q 1397 3394 1825 3394 
Q 2250 3394 2515 3294 
Q 2781 3194 2906 3042 
Q 3031 2891 3081 2659 
Q 3109 2516 3109 2141 
L 3109 1391 
Q 3109 606 3145 398 
Q 3181 191 3288 0 
L 2700 0 
Q 2613 175 2588 409 
z
M 2541 1666 
Q 2234 1541 1622 1453 
Q 1275 1403 1131 1340 
Q 988 1278 909 1158 
Q 831 1038 831 891 
Q 831 666 1001 516 
Q 1172 366 1500 366 
Q 1825 366 2078 508 
Q 2331 650 2450 897 
Q 2541 1088 2541 1459 
L 2541 1666 
z
" transform="scale(0.015625)"/>
       <path id="ArialMT-72" d="M 416 0 
L 416 3319 
L 922 3319 
L 922 2816 
Q 1116 3169 1280 3281 
Q 1444 3394 1641 3394 
Q 1925 3394 2219 3213 
L 2025 2691 
Q 1819 2813 1613 2813 
Q 1428 2813 1281 2702 
Q 1134 2591 1072 2394 
Q 978 2094 978 1738 
L 978 0 
L 416 0 
z
" transform="scale(0.015625)"/>
       <path id="ArialMT-6d" d="M 422 0 
L 422 3319 
L 925 3319 
L 925 2853 
Q 1081 3097 1340 3245 
Q 1600 3394 1931 3394 
Q 2300 3394 2536 3241 
Q 2772 3088 2869 2813 
Q 3263 3394 3894 3394 
Q 4388 3394 4653 3120 
Q 4919 2847 4919 2278 
L 4919 0 
L 4359 0 
L 4359 2091 
Q 4359 2428 4304 2576 
Q 4250 2725 4106 2815 
Q 3963 2906 3769 2906 
Q 3419 2906 3187 2673 
Q 2956 2441 2956 1928 
L 2956 0 
L 2394 0 
L 2394 2156 
Q 2394 2531 2256 2718 
Q 2119 2906 1806 2906 
Q 1569 2906 1367 2781 
Q 1166 2656 1075 2415 
Q 984 2175 984 1722 
L 984 0 
L 422 0 
z
" transform="scale(0.015625)"/>
       <path id="ArialMT-74" d="M 1650 503 
L 1731 6 
Q 1494 -44 1306 -44 
Q 1000 -44 831 53 
Q 663 150 594 308 
Q 525 466 525 972 
L 525 2881 
L 113 2881 
L 113 3319 
L 525 3319 
L 525 4141 
L 1084 4478 
L 1084 3319 
L 1650 3319 
L 1650 2881 
L 1084 2881 
L 1084 941 
Q 1084 700 1114 631 
Q 1144 563 1211 522 
Q 1278 481 1403 481 
Q 1497 481 1650 503 
z
" transform="scale(0.015625)"/>
       <path id="ArialMT-73" d="M 197 991 
L 753 1078 
Q 800 744 1014 566 
Q 1228 388 1613 388 
Q 2000 388 2187 545 
Q 2375 703 2375 916 
Q 2375 1106 2209 1216 
Q 2094 1291 1634 1406 
Q 1016 1563 777 1677 
Q 538 1791 414 1992 
Q 291 2194 291 2438 
Q 291 2659 392 2848 
Q 494 3038 669 3163 
Q 800 3259 1026 3326 
Q 1253 3394 1513 3394 
Q 1903 3394 2198 3281 
Q 2494 3169 2634 2976 
Q 2775 2784 2828 2463 
L 2278 2388 
Q 2241 2644 2061 2787 
Q 1881 2931 1553 2931 
Q 1166 2931 1000 2803 
Q 834 2675 834 2503 
Q 834 2394 903 2306 
Q 972 2216 1119 2156 
Q 1203 2125 1616 2013 
Q 2213 1853 2448 1751 
Q 2684 1650 2818 1456 
Q 2953 1263 2953 975 
Q 2953 694 2789 445 
Q 2625 197 2315 61 
Q 2006 -75 1616 -75 
Q 969 -75 630 194 
Q 291 463 197 991 
z
" transform="scale(0.015625)"/>
       <path id="ArialMT-28" d="M 1497 -1347 
Q 1031 -759 709 28 
Q 388 816 388 1659 
Q 388 2403 628 3084 
Q 909 3875 1497 4659 
L 1900 4659 
Q 1522 4009 1400 3731 
Q 1209 3300 1100 2831 
Q 966 2247 966 1656 
Q 966 153 1900 -1347 
L 1497 -1347 
z
" transform="scale(0.015625)"/>
       <path id="ArialMT-42" d="M 469 0 
L 469 4581 
L 2188 4581 
Q 2713 4581 3030 4442 
Q 3347 4303 3526 4014 
Q 3706 3725 3706 3409 
Q 3706 3116 3547 2856 
Q 3388 2597 3066 2438 
Q 3481 2316 3704 2022 
Q 3928 1728 3928 1328 
Q 3928 1006 3792 729 
Q 3656 453 3456 303 
Q 3256 153 2954 76 
Q 2653 0 2216 0 
L 469 0 
z
M 1075 2656 
L 2066 2656 
Q 2469 2656 2644 2709 
Q 2875 2778 2992 2937 
Q 3109 3097 3109 3338 
Q 3109 3566 3000 3739 
Q 2891 3913 2687 3977 
Q 2484 4041 1991 4041 
L 1075 4041 
L 1075 2656 
z
M 1075 541 
L 2216 541 
Q 2509 541 2628 563 
Q 2838 600 2978 687 
Q 3119 775 3209 942 
Q 3300 1109 3300 1328 
Q 3300 1584 3169 1773 
Q 3038 1963 2805 2039 
Q 2572 2116 2134 2116 
L 1075 2116 
L 1075 541 
z
" transform="scale(0.015625)"/>
       <path id="ArialMT-69" d="M 425 3934 
L 425 4581 
L 988 4581 
L 988 3934 
L 425 3934 
z
M 425 0 
L 425 3319 
L 988 3319 
L 988 0 
L 425 0 
z
" transform="scale(0.015625)"/>
       <path id="ArialMT-6e" d="M 422 0 
L 422 3319 
L 928 3319 
L 928 2847 
Q 1294 3394 1984 3394 
Q 2284 3394 2536 3286 
Q 2788 3178 2913 3003 
Q 3038 2828 3088 2588 
Q 3119 2431 3119 2041 
L 3119 0 
L 2556 0 
L 2556 2019 
Q 2556 2363 2490 2533 
Q 2425 2703 2258 2804 
Q 2091 2906 1866 2906 
Q 1506 2906 1245 2678 
Q 984 2450 984 1813 
L 984 0 
L 422 0 
z
" transform="scale(0.015625)"/>
       <path id="ArialMT-29" d="M 791 -1347 
L 388 -1347 
Q 1322 153 1322 1656 
Q 1322 2244 1188 2822 
Q 1081 3291 891 3722 
Q 769 4003 388 4659 
L 791 4659 
Q 1378 3875 1659 3084 
Q 1900 2403 1900 1659 
Q 1900 816 1576 28 
Q 1253 -759 791 -1347 
z
" transform="scale(0.015625)"/>
      </defs>
      <use xlink:href="#ArialMT-4d"/>
      <use xlink:href="#ArialMT-6f" transform="translate(83.300781 0)"/>
      <use xlink:href="#ArialMT-64" transform="translate(138.916016 0)"/>
      <use xlink:href="#ArialMT-65" transform="translate(194.53125 0)"/>
      <use xlink:href="#ArialMT-6c" transform="translate(250.146484 0)"/>
      <use xlink:href="#ArialMT-20" transform="translate(272.363281 0)"/>
      <use xlink:href="#ArialMT-50" transform="translate(300.146484 0)"/>
      <use xlink:href="#ArialMT-61" transform="translate(366.845703 0)"/>
      <use xlink:href="#ArialMT-72" transform="translate(422.460938 0)"/>
      <use xlink:href="#ArialMT-61" transform="translate(455.761719 0)"/>
      <use xlink:href="#ArialMT-6d" transform="translate(511.376953 0)"/>
      <use xlink:href="#ArialMT-65" transform="translate(594.677734 0)"/>
      <use xlink:href="#ArialMT-74" transform="translate(650.292969 0)"/>
      <use xlink:href="#ArialMT-65" transform="translate(678.076172 0)"/>
      <use xlink:href="#ArialMT-72" transform="translate(733.691406 0)"/>
      <use xlink:href="#ArialMT-73" transform="translate(766.992188 0)"/>
      <use xlink:href="#ArialMT-20" transform="translate(816.992188 0)"/>
      <use xlink:href="#ArialMT-28" transform="translate(844.775391 0)"/>
      <use xlink:href="#ArialMT-42" transform="translate(878.076172 0)"/>
      <use xlink:href="#ArialMT-69" transform="translate(944.775391 0)"/>
      <use xlink:href="#ArialMT-6c" transform="translate(966.992188 0)"/>
      <use xlink:href="#ArialMT-6c" transform="translate(989.208984 0)"/>
      <use xlink:href="#ArialMT-69" transform="translate(1011.425781 0)"/>
      <use xlink:href="#ArialMT-6f" transform="translate(1033.642578 0)"/>
      <use xlink:href="#ArialMT-6e" transform="translate(1089.257812 0)"/>
      <use xlink:href="#ArialMT-73" transform="translate(1144.873047 0)"/>
      <use xlink:href="#ArialMT-29" transform="translate(1194.873047 0)"/>
     </g>
    </g>
   </g>
   <g id="matplotlib.axis_2">
    <g id="ytick_1">
     <g id="line2d_7">
      <path d="M 56.429375 364.212133 
L 588.599375 364.212133 
" clip-path="url(#p1ad6a673d2)" style="fill: none; stroke: #cccccc; stroke-opacity: 0.2; stroke-linecap: round"/>
     </g>
     <g id="text_8">
      <!-- 0 -->
      <g style="fill: #262626" transform="translate(40.812344 368.148929) scale(0.11 -0.11)">
       <use xlink:href="#ArialMT-30"/>
      </g>
     </g>
    </g>
    <g id="ytick_2">
     <g id="line2d_8">
      <path d="M 56.429375 296.424387 
L 588.599375 296.424387 
" clip-path="url(#p1ad6a673d2)" style="fill: none; stroke: #cccccc; stroke-opacity: 0.2; stroke-linecap: round"/>
     </g>
     <g id="text_9">
      <!-- 1000 -->
      <g style="fill: #262626" transform="translate(22.46125 300.361184) scale(0.11 -0.11)">
       <use xlink:href="#ArialMT-31"/>
       <use xlink:href="#ArialMT-30" transform="translate(55.615234 0)"/>
       <use xlink:href="#ArialMT-30" transform="translate(111.230469 0)"/>
       <use xlink:href="#ArialMT-30" transform="translate(166.845703 0)"/>
      </g>
     </g>
    </g>
    <g id="ytick_3">
     <g id="line2d_9">
      <path d="M 56.429375 228.636642 
L 588.599375 228.636642 
" clip-path="url(#p1ad6a673d2)" style="fill: none; stroke: #cccccc; stroke-opacity: 0.2; stroke-linecap: round"/>
     </g>
     <g id="text_10">
      <!-- 2000 -->
      <g style="fill: #262626" transform="translate(22.46125 232.573439) scale(0.11 -0.11)">
       <use xlink:href="#ArialMT-32"/>
       <use xlink:href="#ArialMT-30" transform="translate(55.615234 0)"/>
       <use xlink:href="#ArialMT-30" transform="translate(111.230469 0)"/>
       <use xlink:href="#ArialMT-30" transform="translate(166.845703 0)"/>
      </g>
     </g>
    </g>
    <g id="ytick_4">
     <g id="line2d_10">
      <path d="M 56.429375 160.848897 
L 588.599375 160.848897 
" clip-path="url(#p1ad6a673d2)" style="fill: none; stroke: #cccccc; stroke-opacity: 0.2; stroke-linecap: round"/>
     </g>
     <g id="text_11">
      <!-- 3000 -->
      <g style="fill: #262626" transform="translate(22.46125 164.785694) scale(0.11 -0.11)">
       <use xlink:href="#ArialMT-33"/>
       <use xlink:href="#ArialMT-30" transform="translate(55.615234 0)"/>
       <use xlink:href="#ArialMT-30" transform="translate(111.230469 0)"/>
       <use xlink:href="#ArialMT-30" transform="translate(166.845703 0)"/>
      </g>
     </g>
    </g>
    <g id="ytick_5">
     <g id="line2d_11">
      <path d="M 56.429375 93.061152 
L 588.599375 93.061152 
" clip-path="url(#p1ad6a673d2)" style="fill: none; stroke: #cccccc; stroke-opacity: 0.2; stroke-linecap: round"/>
     </g>
     <g id="text_12">
      <!-- 4000 -->
      <g style="fill: #262626" transform="translate(22.46125 96.997949) scale(0.11 -0.11)">
       <use xlink:href="#ArialMT-34"/>
       <use xlink:href="#ArialMT-30" transform="translate(55.615234 0)"/>
       <use xlink:href="#ArialMT-30" transform="translate(111.230469 0)"/>
       <use xlink:href="#ArialMT-30" transform="translate(166.845703 0)"/>
      </g>
     </g>
    </g>
    <g id="ytick_6">
     <g id="line2d_12">
      <path d="M 56.429375 25.273407 
L 588.599375 25.273407 
" clip-path="url(#p1ad6a673d2)" style="fill: none; stroke: #cccccc; stroke-opacity: 0.2; stroke-linecap: round"/>
     </g>
     <g id="text_13">
      <!-- 5000 -->
      <g style="fill: #262626" transform="translate(22.46125 29.210204) scale(0.11 -0.11)">
       <defs>
        <path id="ArialMT-35" d="M 266 1200 
L 856 1250 
Q 922 819 1161 601 
Q 1400 384 1738 384 
Q 2144 384 2425 690 
Q 2706 997 2706 1503 
Q 2706 1984 2436 2262 
Q 2166 2541 1728 2541 
Q 1456 2541 1237 2417 
Q 1019 2294 894 2097 
L 366 2166 
L 809 4519 
L 3088 4519 
L 3088 3981 
L 1259 3981 
L 1013 2750 
Q 1425 3038 1878 3038 
Q 2478 3038 2890 2622 
Q 3303 2206 3303 1553 
Q 3303 931 2941 478 
Q 2500 -78 1738 -78 
Q 1113 -78 717 272 
Q 322 622 266 1200 
z
" transform="scale(0.015625)"/>
       </defs>
       <use xlink:href="#ArialMT-35"/>
       <use xlink:href="#ArialMT-30" transform="translate(55.615234 0)"/>
       <use xlink:href="#ArialMT-30" transform="translate(111.230469 0)"/>
       <use xlink:href="#ArialMT-30" transform="translate(166.845703 0)"/>
      </g>
     </g>
    </g>
    <g id="text_14">
     <!-- Efficiency (F1 / kWh) -->
     <g style="fill: #262626" transform="translate(15.935625 255.672187) rotate(-90) scale(0.12 -0.12)">
      <defs>
       <path id="ArialMT-45" d="M 506 0 
L 506 4581 
L 3819 4581 
L 3819 4041 
L 1113 4041 
L 1113 2638 
L 3647 2638 
L 3647 2100 
L 1113 2100 
L 1113 541 
L 3925 541 
L 3925 0 
L 506 0 
z
" transform="scale(0.015625)"/>
       <path id="ArialMT-66" d="M 556 0 
L 556 2881 
L 59 2881 
L 59 3319 
L 556 3319 
L 556 3672 
Q 556 4006 616 4169 
Q 697 4388 901 4523 
Q 1106 4659 1475 4659 
Q 1713 4659 2000 4603 
L 1916 4113 
Q 1741 4144 1584 4144 
Q 1328 4144 1222 4034 
Q 1116 3925 1116 3625 
L 1116 3319 
L 1763 3319 
L 1763 2881 
L 1116 2881 
L 1116 0 
L 556 0 
z
" transform="scale(0.015625)"/>
       <path id="ArialMT-63" d="M 2588 1216 
L 3141 1144 
Q 3050 572 2676 248 
Q 2303 -75 1759 -75 
Q 1078 -75 664 370 
Q 250 816 250 1647 
Q 250 2184 428 2587 
Q 606 2991 970 3192 
Q 1334 3394 1763 3394 
Q 2303 3394 2647 3120 
Q 2991 2847 3088 2344 
L 2541 2259 
Q 2463 2594 2264 2762 
Q 2066 2931 1784 2931 
Q 1359 2931 1093 2626 
Q 828 2322 828 1663 
Q 828 994 1084 691 
Q 1341 388 1753 388 
Q 2084 388 2306 591 
Q 2528 794 2588 1216 
z
" transform="scale(0.015625)"/>
       <path id="ArialMT-79" d="M 397 -1278 
L 334 -750 
Q 519 -800 656 -800 
Q 844 -800 956 -737 
Q 1069 -675 1141 -563 
Q 1194 -478 1313 -144 
Q 1328 -97 1363 -6 
L 103 3319 
L 709 3319 
L 1400 1397 
Q 1534 1031 1641 628 
Q 1738 1016 1872 1384 
L 2581 3319 
L 3144 3319 
L 1881 -56 
Q 1678 -603 1566 -809 
Q 1416 -1088 1222 -1217 
Q 1028 -1347 759 -1347 
Q 597 -1347 397 -1278 
z
" transform="scale(0.015625)"/>
       <path id="ArialMT-46" d="M 525 0 
L 525 4581 
L 3616 4581 
L 3616 4041 
L 1131 4041 
L 1131 2622 
L 3281 2622 
L 3281 2081 
L 1131 2081 
L 1131 0 
L 525 0 
z
" transform="scale(0.015625)"/>
       <path id="ArialMT-2f" d="M 0 -78 
L 1328 4659 
L 1778 4659 
L 453 -78 
L 0 -78 
z
" transform="scale(0.015625)"/>
       <path id="ArialMT-6b" d="M 425 0 
L 425 4581 
L 988 4581 
L 988 1969 
L 2319 3319 
L 3047 3319 
L 1778 2088 
L 3175 0 
L 2481 0 
L 1384 1697 
L 988 1316 
L 988 0 
L 425 0 
z
" transform="scale(0.015625)"/>
       <path id="ArialMT-57" d="M 1294 0 
L 78 4581 
L 700 4581 
L 1397 1578 
Q 1509 1106 1591 641 
Q 1766 1375 1797 1488 
L 2669 4581 
L 3400 4581 
L 4056 2263 
Q 4303 1400 4413 641 
Q 4500 1075 4641 1638 
L 5359 4581 
L 5969 4581 
L 4713 0 
L 4128 0 
L 3163 3491 
Q 3041 3928 3019 4028 
Q 2947 3713 2884 3491 
L 1913 0 
L 1294 0 
z
" transform="scale(0.015625)"/>
       <path id="ArialMT-68" d="M 422 0 
L 422 4581 
L 984 4581 
L 984 2938 
Q 1378 3394 1978 3394 
Q 2347 3394 2619 3248 
Q 2891 3103 3008 2847 
Q 3125 2591 3125 2103 
L 3125 0 
L 2563 0 
L 2563 2103 
Q 2563 2525 2380 2717 
Q 2197 2909 1863 2909 
Q 1613 2909 1392 2779 
Q 1172 2650 1078 2428 
Q 984 2206 984 1816 
L 984 0 
L 422 0 
z
" transform="scale(0.015625)"/>
      </defs>
      <use xlink:href="#ArialMT-45"/>
      <use xlink:href="#ArialMT-66" transform="translate(66.699219 0)"/>
      <use xlink:href="#ArialMT-66" transform="translate(92.732422 0)"/>
      <use xlink:href="#ArialMT-69" transform="translate(120.515625 0)"/>
      <use xlink:href="#ArialMT-63" transform="translate(142.732422 0)"/>
      <use xlink:href="#ArialMT-69" transform="translate(192.732422 0)"/>
      <use xlink:href="#ArialMT-65" transform="translate(214.949219 0)"/>
      <use xlink:href="#ArialMT-6e" transform="translate(270.564453 0)"/>
      <use xlink:href="#ArialMT-63" transform="translate(326.179688 0)"/>
      <use xlink:href="#ArialMT-79" transform="translate(376.179688 0)"/>
      <use xlink:href="#ArialMT-20" transform="translate(426.179688 0)"/>
      <use xlink:href="#ArialMT-28" transform="translate(453.962891 0)"/>
      <use xlink:href="#ArialMT-46" transform="translate(487.263672 0)"/>
      <use xlink:href="#ArialMT-31" transform="translate(548.347656 0)"/>
      <use xlink:href="#ArialMT-20" transform="translate(603.962891 0)"/>
      <use xlink:href="#ArialMT-2f" transform="translate(631.746094 0)"/>
      <use xlink:href="#ArialMT-20" transform="translate(659.529297 0)"/>
      <use xlink:href="#ArialMT-6b" transform="translate(687.3125 0)"/>
      <use xlink:href="#ArialMT-57" transform="translate(737.3125 0)"/>
      <use xlink:href="#ArialMT-68" transform="translate(831.697266 0)"/>
      <use xlink:href="#ArialMT-29" transform="translate(887.3125 0)"/>
     </g>
    </g>
   </g>
   <g id="FillBetweenPolyCollection_1"/>
   <g id="FillBetweenPolyCollection_2"/>
   <g id="FillBetweenPolyCollection_3"/>
   <g id="PathCollection_1">
    <path d="M 80.61892 340.476291 
C 81.944936 340.476291 83.21682 339.94946 84.154454 339.011825 
C 85.092089 338.07419 85.61892 336.802307 85.61892 335.476291 
C 85.61892 334.150276 85.092089 332.878392 84.154454 331.940757 
C 83.21682 331.003123 81.944936 330.476291 80.61892 330.476291 
C 79.292905 330.476291 78.021021 331.003123 77.083387 331.940757 
C 76.145752 332.878392 75.61892 334.150276 75.61892 335.476291 
C 75.61892 336.802307 76.145752 338.07419 77.083387 339.011825 
C 78.021021 339.94946 79.292905 340.476291 80.61892 340.476291 
z
" clip-path="url(#p1ad6a673d2)" style="fill: #2ecc71; stroke: #ffffff; stroke-width: 0.8"/>
    <path d="M 75.61892 248.169374 
L 85.61892 248.169374 
L 85.61892 238.169374 
L 75.61892 238.169374 
z
" clip-path="url(#p1ad6a673d2)" style="fill: #f1c40f; stroke: #ffffff; stroke-width: 0.8"/>
    <path d="M 80.61892 81.781909 
L 75.61892 91.781909 
L 85.61892 91.781909 
z
" clip-path="url(#p1ad6a673d2)" style="fill: #9b59b6; stroke: #ffffff; stroke-width: 0.8"/>
    <path d="M 177.377102 273.172715 
C 178.703118 273.172715 179.975002 272.645883 180.912636 271.708249 
C 181.850271 270.770614 182.377102 269.49873 182.377102 268.172715 
C 182.377102 266.846699 181.850271 265.574815 180.912636 264.637181 
C 179.975002 263.699546 178.703118 263.172715 177.377102 263.172715 
C 176.051087 263.172715 174.779203 263.699546 173.841568 264.637181 
C 172.903934 265.574815 172.377102 266.846699 172.377102 268.172715 
C 172.377102 269.49873 172.903934 270.770614 173.841568 271.708249 
C 174.779203 272.645883 176.051087 273.172715 177.377102 273.172715 
z
" clip-path="url(#p1ad6a673d2)" style="fill: #2ecc71; stroke: #ffffff; stroke-width: 0.8"/>
    <path d="M 172.377102 264.93352 
L 182.377102 264.93352 
L 182.377102 254.93352 
L 172.377102 254.93352 
z
" clip-path="url(#p1ad6a673d2)" style="fill: #f1c40f; stroke: #ffffff; stroke-width: 0.8"/>
    <path d="M 177.377102 33.163068 
L 172.377102 43.163068 
L 182.377102 43.163068 
z
" clip-path="url(#p1ad6a673d2)" style="fill: #9b59b6; stroke: #ffffff; stroke-width: 0.8"/>
    <path d="M 274.135284 354.698716 
C 275.4613 354.698716 276.733183 354.171885 277.670818 353.23425 
C 278.608453 352.296616 279.135284 351.024732 279.135284 349.698716 
C 279.135284 348.372701 278.608453 347.100817 277.670818 346.163182 
C 276.733183 345.225548 275.4613 344.698716 274.135284 344.698716 
C 272.809269 344.698716 271.537385 345.225548 270.59975 346.163182 
C 269.662116 347.100817 269.135284 348.372701 269.135284 349.698716 
C 269.135284 351.024732 269.662116 352.296616 270.59975 353.23425 
C 271.537385 354.171885 272.809269 354.698716 274.135284 354.698716 
z
" clip-path="url(#p1ad6a673d2)" style="fill: #2ecc71; stroke: #ffffff; stroke-width: 0.8"/>
    <path d="M 269.135284 345.516697 
L 279.135284 345.516697 
L 279.135284 335.516697 
L 269.135284 335.516697 
z
" clip-path="url(#p1ad6a673d2)" style="fill: #f1c40f; stroke: #ffffff; stroke-width: 0.8"/>
    <path d="M 274.135284 332.688524 
L 269.135284 342.688524 
L 279.135284 342.688524 
z
" clip-path="url(#p1ad6a673d2)" style="fill: #9b59b6; stroke: #ffffff; stroke-width: 0.8"/>
    <path d="M 370.893466 292.750698 
C 372.219481 292.750698 373.491365 292.223867 374.429 291.286232 
C 375.366634 290.348598 375.893466 289.076714 375.893466 287.750698 
C 375.893466 286.424683 375.366634 285.152799 374.429 284.215165 
C 373.491365 283.27753 372.219481 282.750698 370.893466 282.750698 
C 369.56745 282.750698 368.295567 283.27753 367.357932 284.215165 
C 366.420297 285.152799 365.893466 286.424683 365.893466 287.750698 
C 365.893466 289.076714 366.420297 290.348598 367.357932 291.286232 
C 368.295567 292.223867 369.56745 292.750698 370.893466 292.750698 
z
" clip-path="url(#p1ad6a673d2)" style="fill: #2ecc71; stroke: #ffffff; stroke-width: 0.8"/>
    <path d="M 365.893466 189.897534 
L 375.893466 189.897534 
L 375.893466 179.897534 
L 365.893466 179.897534 
z
" clip-path="url(#p1ad6a673d2)" style="fill: #f1c40f; stroke: #ffffff; stroke-width: 0.8"/>
    <path d="M 370.893466 118.865698 
L 365.893466 128.865698 
L 375.893466 128.865698 
z
" clip-path="url(#p1ad6a673d2)" style="fill: #9b59b6; stroke: #ffffff; stroke-width: 0.8"/>
    <path d="M 467.651648 298.534305 
C 468.977663 298.534305 470.249547 298.007474 471.187182 297.069839 
C 472.124816 296.132205 472.651648 294.860321 472.651648 293.534305 
C 472.651648 292.20829 472.124816 290.936406 471.187182 289.998771 
C 470.249547 289.061137 468.977663 288.534305 467.651648 288.534305 
C 466.325632 288.534305 465.053748 289.061137 464.116114 289.998771 
C 463.178479 290.936406 462.651648 292.20829 462.651648 293.534305 
C 462.651648 294.860321 463.178479 296.132205 464.116114 297.069839 
C 465.053748 298.007474 466.325632 298.534305 467.651648 298.534305 
z
" clip-path="url(#p1ad6a673d2)" style="fill: #2ecc71; stroke: #ffffff; stroke-width: 0.8"/>
    <path d="M 462.651648 238.98791 
L 472.651648 238.98791 
L 472.651648 228.98791 
L 462.651648 228.98791 
z
" clip-path="url(#p1ad6a673d2)" style="fill: #f1c40f; stroke: #ffffff; stroke-width: 0.8"/>
    <path d="M 467.651648 196.973703 
L 462.651648 206.973703 
L 472.651648 206.973703 
z
" clip-path="url(#p1ad6a673d2)" style="fill: #9b59b6; stroke: #ffffff; stroke-width: 0.8"/>
    <path d="M 564.40983 329.473472 
C 565.735845 329.473472 567.007729 328.946641 567.945363 328.009006 
C 568.882998 327.071372 569.40983 325.799488 569.40983 324.473472 
C 569.40983 323.147457 568.882998 321.875573 567.945363 320.937938 
C 567.007729 320.000304 565.735845 319.473472 564.40983 319.473472 
C 563.083814 319.473472 561.81193 320.000304 560.874296 320.937938 
C 559.936661 321.875573 559.40983 323.147457 559.40983 324.473472 
C 559.40983 325.799488 559.936661 327.071372 560.874296 328.009006 
C 561.81193 328.946641 563.083814 329.473472 564.40983 329.473472 
z
" clip-path="url(#p1ad6a673d2)" style="fill: #2ecc71; stroke: #ffffff; stroke-width: 0.8"/>
   </g>
   <g id="line2d_13">
    <path d="M 80.61892 335.476291 
L 177.377102 268.172715 
L 274.135284 349.698716 
L 370.893466 287.750698 
L 467.651648 293.534305 
L 564.40983 324.473472 
" clip-path="url(#p1ad6a673d2)" style="fill: none; stroke: #2ecc71; stroke-width: 1.5; stroke-linecap: round"/>
   </g>
   <g id="line2d_14">
    <path d="M 80.61892 243.169374 
L 177.377102 259.93352 
L 274.135284 340.516697 
L 370.893466 184.897534 
L 467.651648 233.98791 
" clip-path="url(#p1ad6a673d2)" style="fill: none; stroke: #f1c40f; stroke-width: 1.5; stroke-linecap: round"/>
   </g>
   <g id="line2d_15">
    <path d="M 80.61892 86.781909 
L 177.377102 38.163068 
L 274.135284 337.688524 
L 370.893466 123.865698 
L 467.651648 201.973703 
" clip-path="url(#p1ad6a673d2)" style="fill: none; stroke: #9b59b6; stroke-width: 1.5; stroke-linecap: round"/>
   </g>
   <g id="line2d_16"/>
   <g id="line2d_17"/>
   <g id="line2d_18"/>
   <g id="patch_3">
    <path d="M 56.429375 378.939375 
L 56.429375 21.935625 
" style="fill: none; stroke: #cccccc; stroke-width: 1.25; stroke-linejoin: miter; stroke-linecap: square"/>
   </g>
   <g id="patch_4">
    <path d="M 588.599375 378.939375 
L 588.599375 21.935625 
" style="fill: none; stroke: #cccccc; stroke-width: 1.25; stroke-linejoin: miter; stroke-linecap: square"/>
   </g>
   <g id="patch_5">
    <path d="M 56.429375 378.939375 
L 588.599375 378.939375 
" style="fill: none; stroke: #cccccc; stroke-width: 1.25; stroke-linejoin: miter; stroke-linecap: square"/>
   </g>
   <g id="patch_6">
    <path d="M 56.429375 21.935625 
L 588.599375 21.935625 
" style="fill: none; stroke: #cccccc; stroke-width: 1.25; stroke-linejoin: miter; stroke-linecap: square"/>
   </g>
   <g id="text_15">
    <!-- Non-Thinking Models: Efficiency -->
    <g style="fill: #262626" transform="translate(236.921563 15.935625) scale(0.12 -0.12)">
     <defs>
      <path id="ArialMT-4e" d="M 488 0 
L 488 4581 
L 1109 4581 
L 3516 984 
L 3516 4581 
L 4097 4581 
L 4097 0 
L 3475 0 
L 1069 3600 
L 1069 0 
L 488 0 
z
" transform="scale(0.015625)"/>
      <path id="ArialMT-2d" d="M 203 1375 
L 203 1941 
L 1931 1941 
L 1931 1375 
L 203 1375 
z
" transform="scale(0.015625)"/>
      <path id="ArialMT-54" d="M 1659 0 
L 1659 4041 
L 150 4041 
L 150 4581 
L 3781 4581 
L 3781 4041 
L 2266 4041 
L 2266 0 
L 1659 0 
z
" transform="scale(0.015625)"/>
      <path id="ArialMT-67" d="M 319 -275 
L 866 -356 
Q 900 -609 1056 -725 
Q 1266 -881 1628 -881 
Q 2019 -881 2231 -725 
Q 2444 -569 2519 -288 
Q 2563 -116 2559 434 
Q 2191 0 1641 0 
Q 956 0 581 494 
Q 206 988 206 1678 
Q 206 2153 378 2554 
Q 550 2956 876 3175 
Q 1203 3394 1644 3394 
Q 2231 3394 2613 2919 
L 2613 3319 
L 3131 3319 
L 3131 450 
Q 3131 -325 2973 -648 
Q 2816 -972 2473 -1159 
Q 2131 -1347 1631 -1347 
Q 1038 -1347 672 -1080 
Q 306 -813 319 -275 
z
M 784 1719 
Q 784 1066 1043 766 
Q 1303 466 1694 466 
Q 2081 466 2343 764 
Q 2606 1063 2606 1700 
Q 2606 2309 2336 2618 
Q 2066 2928 1684 2928 
Q 1309 2928 1046 2623 
Q 784 2319 784 1719 
z
" transform="scale(0.015625)"/>
      <path id="ArialMT-3a" d="M 578 2678 
L 578 3319 
L 1219 3319 
L 1219 2678 
L 578 2678 
z
M 578 0 
L 578 641 
L 1219 641 
L 1219 0 
L 578 0 
z
" transform="scale(0.015625)"/>
     </defs>
     <use xlink:href="#ArialMT-4e"/>
     <use xlink:href="#ArialMT-6f" transform="translate(72.216797 0)"/>
     <use xlink:href="#ArialMT-6e" transform="translate(127.832031 0)"/>
     <use xlink:href="#ArialMT-2d" transform="translate(183.447266 0)"/>
     <use xlink:href="#ArialMT-54" transform="translate(216.748047 0)"/>
     <use xlink:href="#ArialMT-68" transform="translate(277.832031 0)"/>
     <use xlink:href="#ArialMT-69" transform="translate(333.447266 0)"/>
     <use xlink:href="#ArialMT-6e" transform="translate(355.664062 0)"/>
     <use xlink:href="#ArialMT-6b" transform="translate(411.279297 0)"/>
     <use xlink:href="#ArialMT-69" transform="translate(461.279297 0)"/>
     <use xlink:href="#ArialMT-6e" transform="translate(483.496094 0)"/>
     <use xlink:href="#ArialMT-67" transform="translate(539.111328 0)"/>
     <use xlink:href="#ArialMT-20" transform="translate(594.726562 0)"/>
     <use xlink:href="#ArialMT-4d" transform="translate(622.509766 0)"/>
     <use xlink:href="#ArialMT-6f" transform="translate(705.810547 0)"/>
     <use xlink:href="#ArialMT-64" transform="translate(761.425781 0)"/>
     <use xlink:href="#ArialMT-65" transform="translate(817.041016 0)"/>
     <use xlink:href="#ArialMT-6c" transform="translate(872.65625 0)"/>
     <use xlink:href="#ArialMT-73" transform="translate(894.873047 0)"/>
     <use xlink:href="#ArialMT-3a" transform="translate(944.873047 0)"/>
     <use xlink:href="#ArialMT-20" transform="translate(972.65625 0)"/>
     <use xlink:href="#ArialMT-45" transform="translate(1000.439453 0)"/>
     <use xlink:href="#ArialMT-66" transform="translate(1067.138672 0)"/>
     <use xlink:href="#ArialMT-66" transform="translate(1093.171875 0)"/>
     <use xlink:href="#ArialMT-69" transform="translate(1120.955078 0)"/>
     <use xlink:href="#ArialMT-63" transform="translate(1143.171875 0)"/>
     <use xlink:href="#ArialMT-69" transform="translate(1193.171875 0)"/>
     <use xlink:href="#ArialMT-65" transform="translate(1215.388672 0)"/>
     <use xlink:href="#ArialMT-6e" transform="translate(1271.003906 0)"/>
     <use xlink:href="#ArialMT-63" transform="translate(1326.619141 0)"/>
     <use xlink:href="#ArialMT-79" transform="translate(1376.619141 0)"/>
    </g>
   </g>
   <g id="legend_1">
    <g id="patch_7">
     <path d="M 520.627969 94.030156 
L 580.899375 94.030156 
Q 583.099375 94.030156 583.099375 91.830156 
L 583.099375 29.635625 
Q 583.099375 27.435625 580.899375 27.435625 
L 520.627969 27.435625 
Q 518.427969 27.435625 518.427969 29.635625 
L 518.427969 91.830156 
Q 518.427969 94.030156 520.627969 94.030156 
z
" style="fill: #ffffff; opacity: 0.8; stroke: #cccccc; stroke-linejoin: miter"/>
    </g>
    <g id="text_16">
     <!-- type -->
     <g style="fill: #262626" transform="translate(539.423672 40.425) scale(0.12 -0.12)">
      <defs>
       <path id="ArialMT-70" d="M 422 -1272 
L 422 3319 
L 934 3319 
L 934 2888 
Q 1116 3141 1344 3267 
Q 1572 3394 1897 3394 
Q 2322 3394 2647 3175 
Q 2972 2956 3137 2557 
Q 3303 2159 3303 1684 
Q 3303 1175 3120 767 
Q 2938 359 2589 142 
Q 2241 -75 1856 -75 
Q 1575 -75 1351 44 
Q 1128 163 984 344 
L 984 -1272 
L 422 -1272 
z
M 931 1641 
Q 931 1000 1190 694 
Q 1450 388 1819 388 
Q 2194 388 2461 705 
Q 2728 1022 2728 1688 
Q 2728 2322 2467 2637 
Q 2206 2953 1844 2953 
Q 1484 2953 1207 2617 
Q 931 2281 931 1641 
z
" transform="scale(0.015625)"/>
      </defs>
      <use xlink:href="#ArialMT-74"/>
      <use xlink:href="#ArialMT-79" transform="translate(27.783203 0)"/>
      <use xlink:href="#ArialMT-70" transform="translate(77.783203 0)"/>
      <use xlink:href="#ArialMT-65" transform="translate(133.398438 0)"/>
     </g>
    </g>
    <g id="line2d_19">
     <defs>
      <path id="me725751c80" d="M 0 5 
C 1.326016 5 2.597899 4.473168 3.535534 3.535534 
C 4.473168 2.597899 5 1.326016 5 0 
C 5 -1.326016 4.473168 -2.597899 3.535534 -3.535534 
C 2.597899 -4.473168 1.326016 -5 0 -5 
C -1.326016 -5 -2.597899 -4.473168 -3.535534 -3.535534 
C -4.473168 -2.597899 -5 -1.326016 -5 0 
C -5 1.326016 -4.473168 2.597899 -3.535534 3.535534 
C -2.597899 4.473168 -1.326016 5 0 5 
z
" style="stroke: #ffffff; stroke-width: 0.8"/>
     </defs>
     <g>
      <use xlink:href="#me725751c80" x="533.827969" y="52.474219" style="fill: #2ecc71; stroke: #ffffff; stroke-width: 0.8"/>
     </g>
    </g>
    <g id="text_17">
     <!-- Base -->
     <g style="fill: #262626" transform="translate(553.627969 56.324219) scale(0.11 -0.11)">
      <use xlink:href="#ArialMT-42"/>
      <use xlink:href="#ArialMT-61" transform="translate(66.699219 0)"/>
      <use xlink:href="#ArialMT-73" transform="translate(122.314453 0)"/>
      <use xlink:href="#ArialMT-65" transform="translate(172.314453 0)"/>
     </g>
    </g>
    <g id="line2d_20">
     <defs>
      <path id="md7a66bdb0e" d="M -5 5 
L 5 5 
L 5 -5 
L -5 -5 
z
" style="stroke: #ffffff; stroke-width: 0.8; stroke-linejoin: miter"/>
     </defs>
     <g>
      <use xlink:href="#md7a66bdb0e" x="533.827969" y="68.034062" style="fill: #f1c40f; stroke: #ffffff; stroke-width: 0.8; stroke-linejoin: miter"/>
     </g>
    </g>
    <g id="text_18">
     <!-- FPar -->
     <g style="fill: #262626" transform="translate(553.627969 71.884062) scale(0.11 -0.11)">
      <use xlink:href="#ArialMT-46"/>
      <use xlink:href="#ArialMT-50" transform="translate(61.083984 0)"/>
      <use xlink:href="#ArialMT-61" transform="translate(127.783203 0)"/>
      <use xlink:href="#ArialMT-72" transform="translate(183.398438 0)"/>
     </g>
    </g>
    <g id="line2d_21">
     <defs>
      <path id="m0bb35f1ac8" d="M 0 -5 
L -5 5 
L 5 5 
z
" style="stroke: #ffffff; stroke-width: 0.8; stroke-linejoin: miter"/>
     </defs>
     <g>
      <use xlink:href="#m0bb35f1ac8" x="533.827969" y="83.593906" style="fill: #9b59b6; stroke: #ffffff; stroke-width: 0.8; stroke-linejoin: miter"/>
     </g>
    </g>
    <g id="text_19">
     <!-- GS -->
     <g style="fill: #262626" transform="translate(553.627969 87.443906) scale(0.11 -0.11)">
      <defs>
       <path id="ArialMT-47" d="M 2638 1797 
L 2638 2334 
L 4578 2338 
L 4578 638 
Q 4131 281 3656 101 
Q 3181 -78 2681 -78 
Q 2006 -78 1454 211 
Q 903 500 622 1047 
Q 341 1594 341 2269 
Q 341 2938 620 3517 
Q 900 4097 1425 4378 
Q 1950 4659 2634 4659 
Q 3131 4659 3532 4498 
Q 3934 4338 4162 4050 
Q 4391 3763 4509 3300 
L 3963 3150 
Q 3859 3500 3706 3700 
Q 3553 3900 3268 4020 
Q 2984 4141 2638 4141 
Q 2222 4141 1919 4014 
Q 1616 3888 1430 3681 
Q 1244 3475 1141 3228 
Q 966 2803 966 2306 
Q 966 1694 1177 1281 
Q 1388 869 1791 669 
Q 2194 469 2647 469 
Q 3041 469 3416 620 
Q 3791 772 3984 944 
L 3984 1797 
L 2638 1797 
z
" transform="scale(0.015625)"/>
       <path id="ArialMT-53" d="M 288 1472 
L 859 1522 
Q 900 1178 1048 958 
Q 1197 738 1509 602 
Q 1822 466 2213 466 
Q 2559 466 2825 569 
Q 3091 672 3220 851 
Q 3350 1031 3350 1244 
Q 3350 1459 3225 1620 
Q 3100 1781 2813 1891 
Q 2628 1963 1997 2114 
Q 1366 2266 1113 2400 
Q 784 2572 623 2826 
Q 463 3081 463 3397 
Q 463 3744 659 4045 
Q 856 4347 1234 4503 
Q 1613 4659 2075 4659 
Q 2584 4659 2973 4495 
Q 3363 4331 3572 4012 
Q 3781 3694 3797 3291 
L 3216 3247 
Q 3169 3681 2898 3903 
Q 2628 4125 2100 4125 
Q 1550 4125 1298 3923 
Q 1047 3722 1047 3438 
Q 1047 3191 1225 3031 
Q 1400 2872 2139 2705 
Q 2878 2538 3153 2413 
Q 3553 2228 3743 1945 
Q 3934 1663 3934 1294 
Q 3934 928 3725 604 
Q 3516 281 3123 101 
Q 2731 -78 2241 -78 
Q 1619 -78 1198 103 
Q 778 284 539 648 
Q 300 1013 288 1472 
z
" transform="scale(0.015625)"/>
      </defs>
      <use xlink:href="#ArialMT-47"/>
      <use xlink:href="#ArialMT-53" transform="translate(77.783203 0)"/>
     </g>
    </g>
   </g>
  </g>
  <g id="axes_2">
   <g id="patch_8">
    <path d="M 601.559375 378.939375 
L 1133.729375 378.939375 
L 1133.729375 21.935625 
L 601.559375 21.935625 
z
" style="fill: #ffffff"/>
   </g>
   <g id="matplotlib.axis_3">
    <g id="xtick_7">
     <g id="line2d_22">
      <path d="M 625.74892 378.939375 
L 625.74892 21.935625 
" clip-path="url(#pc42fab2e41)" style="fill: none; stroke: #cccccc; stroke-opacity: 0.2; stroke-linecap: round"/>
     </g>
     <g id="text_20">
      <!-- 0.6 -->
      <g style="fill: #262626" transform="translate(618.10392 396.312969) scale(0.11 -0.11)">
       <use xlink:href="#ArialMT-30"/>
       <use xlink:href="#ArialMT-2e" transform="translate(55.615234 0)"/>
       <use xlink:href="#ArialMT-36" transform="translate(83.398438 0)"/>
      </g>
     </g>
    </g>
    <g id="xtick_8">
     <g id="line2d_23">
      <path d="M 722.507102 378.939375 
L 722.507102 21.935625 
" clip-path="url(#pc42fab2e41)" style="fill: none; stroke: #cccccc; stroke-opacity: 0.2; stroke-linecap: round"/>
     </g>
     <g id="text_21">
      <!-- 1.7 -->
      <g style="fill: #262626" transform="translate(714.862102 396.312969) scale(0.11 -0.11)">
       <use xlink:href="#ArialMT-31"/>
       <use xlink:href="#ArialMT-2e" transform="translate(55.615234 0)"/>
       <use xlink:href="#ArialMT-37" transform="translate(83.398438 0)"/>
      </g>
     </g>
    </g>
    <g id="xtick_9">
     <g id="line2d_24">
      <path d="M 819.265284 378.939375 
L 819.265284 21.935625 
" clip-path="url(#pc42fab2e41)" style="fill: none; stroke: #cccccc; stroke-opacity: 0.2; stroke-linecap: round"/>
     </g>
     <g id="text_22">
      <!-- 4.0 -->
      <g style="fill: #262626" transform="translate(811.620284 396.312969) scale(0.11 -0.11)">
       <use xlink:href="#ArialMT-34"/>
       <use xlink:href="#ArialMT-2e" transform="translate(55.615234 0)"/>
       <use xlink:href="#ArialMT-30" transform="translate(83.398438 0)"/>
      </g>
     </g>
    </g>
    <g id="xtick_10">
     <g id="line2d_25">
      <path d="M 916.023466 378.939375 
L 916.023466 21.935625 
" clip-path="url(#pc42fab2e41)" style="fill: none; stroke: #cccccc; stroke-opacity: 0.2; stroke-linecap: round"/>
     </g>
     <g id="text_23">
      <!-- 8.0 -->
      <g style="fill: #262626" transform="translate(908.378466 396.312969) scale(0.11 -0.11)">
       <use xlink:href="#ArialMT-38"/>
       <use xlink:href="#ArialMT-2e" transform="translate(55.615234 0)"/>
       <use xlink:href="#ArialMT-30" transform="translate(83.398438 0)"/>
      </g>
     </g>
    </g>
    <g id="xtick_11">
     <g id="line2d_26">
      <path d="M 1012.781648 378.939375 
L 1012.781648 21.935625 
" clip-path="url(#pc42fab2e41)" style="fill: none; stroke: #cccccc; stroke-opacity: 0.2; stroke-linecap: round"/>
     </g>
     <g id="text_24">
      <!-- 14.0 -->
      <g style="fill: #262626" transform="translate(1002.078132 396.312969) scale(0.11 -0.11)">
       <use xlink:href="#ArialMT-31"/>
       <use xlink:href="#ArialMT-34" transform="translate(55.615234 0)"/>
       <use xlink:href="#ArialMT-2e" transform="translate(111.230469 0)"/>
       <use xlink:href="#ArialMT-30" transform="translate(139.013672 0)"/>
      </g>
     </g>
    </g>
    <g id="xtick_12">
     <g id="line2d_27">
      <path d="M 1109.53983 378.939375 
L 1109.53983 21.935625 
" clip-path="url(#pc42fab2e41)" style="fill: none; stroke: #cccccc; stroke-opacity: 0.2; stroke-linecap: round"/>
     </g>
     <g id="text_25">
      <!-- 32.0 -->
      <g style="fill: #262626" transform="translate(1098.836314 396.312969) scale(0.11 -0.11)">
       <use xlink:href="#ArialMT-33"/>
       <use xlink:href="#ArialMT-32" transform="translate(55.615234 0)"/>
       <use xlink:href="#ArialMT-2e" transform="translate(111.230469 0)"/>
       <use xlink:href="#ArialMT-30" transform="translate(139.013672 0)"/>
      </g>
     </g>
    </g>
    <g id="text_26">
     <!-- Model Parameters (Billions) -->
     <g style="fill: #262626" transform="translate(793.957813 411.234844) scale(0.12 -0.12)">
      <use xlink:href="#ArialMT-4d"/>
      <use xlink:href="#ArialMT-6f" transform="translate(83.300781 0)"/>
      <use xlink:href="#ArialMT-64" transform="translate(138.916016 0)"/>
      <use xlink:href="#ArialMT-65" transform="translate(194.53125 0)"/>
      <use xlink:href="#ArialMT-6c" transform="translate(250.146484 0)"/>
      <use xlink:href="#ArialMT-20" transform="translate(272.363281 0)"/>
      <use xlink:href="#ArialMT-50" transform="translate(300.146484 0)"/>
      <use xlink:href="#ArialMT-61" transform="translate(366.845703 0)"/>
      <use xlink:href="#ArialMT-72" transform="translate(422.460938 0)"/>
      <use xlink:href="#ArialMT-61" transform="translate(455.761719 0)"/>
      <use xlink:href="#ArialMT-6d" transform="translate(511.376953 0)"/>
      <use xlink:href="#ArialMT-65" transform="translate(594.677734 0)"/>
      <use xlink:href="#ArialMT-74" transform="translate(650.292969 0)"/>
      <use xlink:href="#ArialMT-65" transform="translate(678.076172 0)"/>
      <use xlink:href="#ArialMT-72" transform="translate(733.691406 0)"/>
      <use xlink:href="#ArialMT-73" transform="translate(766.992188 0)"/>
      <use xlink:href="#ArialMT-20" transform="translate(816.992188 0)"/>
      <use xlink:href="#ArialMT-28" transform="translate(844.775391 0)"/>
      <use xlink:href="#ArialMT-42" transform="translate(878.076172 0)"/>
      <use xlink:href="#ArialMT-69" transform="translate(944.775391 0)"/>
      <use xlink:href="#ArialMT-6c" transform="translate(966.992188 0)"/>
      <use xlink:href="#ArialMT-6c" transform="translate(989.208984 0)"/>
      <use xlink:href="#ArialMT-69" transform="translate(1011.425781 0)"/>
      <use xlink:href="#ArialMT-6f" transform="translate(1033.642578 0)"/>
      <use xlink:href="#ArialMT-6e" transform="translate(1089.257812 0)"/>
      <use xlink:href="#ArialMT-73" transform="translate(1144.873047 0)"/>
      <use xlink:href="#ArialMT-29" transform="translate(1194.873047 0)"/>
     </g>
    </g>
   </g>
   <g id="matplotlib.axis_4">
    <g id="ytick_7">
     <g id="line2d_28">
      <path d="M 601.559375 364.212133 
L 1133.729375 364.212133 
" clip-path="url(#pc42fab2e41)" style="fill: none; stroke: #cccccc; stroke-opacity: 0.2; stroke-linecap: round"/>
     </g>
    </g>
    <g id="ytick_8">
     <g id="line2d_29">
      <path d="M 601.559375 296.424387 
L 1133.729375 296.424387 
" clip-path="url(#pc42fab2e41)" style="fill: none; stroke: #cccccc; stroke-opacity: 0.2; stroke-linecap: round"/>
     </g>
    </g>
    <g id="ytick_9">
     <g id="line2d_30">
      <path d="M 601.559375 228.636642 
L 1133.729375 228.636642 
" clip-path="url(#pc42fab2e41)" style="fill: none; stroke: #cccccc; stroke-opacity: 0.2; stroke-linecap: round"/>
     </g>
    </g>
    <g id="ytick_10">
     <g id="line2d_31">
      <path d="M 601.559375 160.848897 
L 1133.729375 160.848897 
" clip-path="url(#pc42fab2e41)" style="fill: none; stroke: #cccccc; stroke-opacity: 0.2; stroke-linecap: round"/>
     </g>
    </g>
    <g id="ytick_11">
     <g id="line2d_32">
      <path d="M 601.559375 93.061152 
L 1133.729375 93.061152 
" clip-path="url(#pc42fab2e41)" style="fill: none; stroke: #cccccc; stroke-opacity: 0.2; stroke-linecap: round"/>
     </g>
    </g>
    <g id="ytick_12">
     <g id="line2d_33">
      <path d="M 601.559375 25.273407 
L 1133.729375 25.273407 
" clip-path="url(#pc42fab2e41)" style="fill: none; stroke: #cccccc; stroke-opacity: 0.2; stroke-linecap: round"/>
     </g>
    </g>
   </g>
   <g id="FillBetweenPolyCollection_4"/>
   <g id="FillBetweenPolyCollection_5"/>
   <g id="FillBetweenPolyCollection_6"/>
   <g id="PathCollection_2">
    <path d="M 625.74892 356.569494 
C 627.074936 356.569494 628.34682 356.042662 629.284454 355.105027 
C 630.222089 354.167393 630.74892 352.895509 630.74892 351.569494 
C 630.74892 350.243478 630.222089 348.971594 629.284454 348.03396 
C 628.34682 347.096325 627.074936 346.569494 625.74892 346.569494 
C 624.422905 346.569494 623.151021 347.096325 622.213387 348.03396 
C 621.275752 348.971594 620.74892 350.243478 620.74892 351.569494 
C 620.74892 352.895509 621.275752 354.167393 622.213387 355.105027 
C 623.151021 356.042662 624.422905 356.569494 625.74892 356.569494 
z
" clip-path="url(#pc42fab2e41)" style="fill: #2ecc71; stroke: #ffffff; stroke-width: 0.8"/>
    <path d="M 620.74892 334.769049 
L 630.74892 334.769049 
L 630.74892 324.769049 
L 620.74892 324.769049 
z
" clip-path="url(#pc42fab2e41)" style="fill: #f1c40f; stroke: #ffffff; stroke-width: 0.8"/>
    <path d="M 625.74892 320.032128 
L 620.74892 330.032128 
L 630.74892 330.032128 
z
" clip-path="url(#pc42fab2e41)" style="fill: #9b59b6; stroke: #ffffff; stroke-width: 0.8"/>
    <path d="M 722.507102 346.535919 
C 723.833118 346.535919 725.105002 346.009087 726.042636 345.071453 
C 726.980271 344.133818 727.507102 342.861934 727.507102 341.535919 
C 727.507102 340.209903 726.980271 338.938019 726.042636 338.000385 
C 725.105002 337.06275 723.833118 336.535919 722.507102 336.535919 
C 721.181087 336.535919 719.909203 337.06275 718.971568 338.000385 
C 718.033934 338.938019 717.507102 340.209903 717.507102 341.535919 
C 717.507102 342.861934 718.033934 344.133818 718.971568 345.071453 
C 719.909203 346.009087 721.181087 346.535919 722.507102 346.535919 
z
" clip-path="url(#pc42fab2e41)" style="fill: #2ecc71; stroke: #ffffff; stroke-width: 0.8"/>
    <path d="M 717.507102 330.678083 
L 727.507102 330.678083 
L 727.507102 320.678083 
L 717.507102 320.678083 
z
" clip-path="url(#pc42fab2e41)" style="fill: #f1c40f; stroke: #ffffff; stroke-width: 0.8"/>
    <path d="M 722.507102 296.736691 
L 717.507102 306.736691 
L 727.507102 306.736691 
z
" clip-path="url(#pc42fab2e41)" style="fill: #9b59b6; stroke: #ffffff; stroke-width: 0.8"/>
    <path d="M 819.265284 355.487757 
C 820.5913 355.487757 821.863183 354.960926 822.800818 354.023291 
C 823.738453 353.085656 824.265284 351.813773 824.265284 350.487757 
C 824.265284 349.161742 823.738453 347.889858 822.800818 346.952223 
C 821.863183 346.014589 820.5913 345.487757 819.265284 345.487757 
C 817.939269 345.487757 816.667385 346.014589 815.72975 346.952223 
C 814.792116 347.889858 814.265284 349.161742 814.265284 350.487757 
C 814.265284 351.813773 814.792116 353.085656 815.72975 354.023291 
C 816.667385 354.960926 817.939269 355.487757 819.265284 355.487757 
z
" clip-path="url(#pc42fab2e41)" style="fill: #2ecc71; stroke: #ffffff; stroke-width: 0.8"/>
    <path d="M 814.265284 346.234875 
L 824.265284 346.234875 
L 824.265284 336.234875 
L 814.265284 336.234875 
z
" clip-path="url(#pc42fab2e41)" style="fill: #f1c40f; stroke: #ffffff; stroke-width: 0.8"/>
    <path d="M 819.265284 328.059353 
L 814.265284 338.059353 
L 824.265284 338.059353 
z
" clip-path="url(#pc42fab2e41)" style="fill: #9b59b6; stroke: #ffffff; stroke-width: 0.8"/>
    <path d="M 916.023466 364.454161 
C 917.349481 364.454161 918.621365 363.927329 919.559 362.989695 
C 920.496634 362.05206 921.023466 360.780176 921.023466 359.454161 
C 921.023466 358.128145 920.496634 356.856261 919.559 355.918627 
C 918.621365 354.980992 917.349481 354.454161 916.023466 354.454161 
C 914.69745 354.454161 913.425567 354.980992 912.487932 355.918627 
C 911.550297 356.856261 911.023466 358.128145 911.023466 359.454161 
C 911.023466 360.780176 911.550297 362.05206 912.487932 362.989695 
C 913.425567 363.927329 914.69745 364.454161 916.023466 364.454161 
z
" clip-path="url(#pc42fab2e41)" style="fill: #2ecc71; stroke: #ffffff; stroke-width: 0.8"/>
    <path d="M 911.023466 356.277995 
L 921.023466 356.277995 
L 921.023466 346.277995 
L 911.023466 346.277995 
z
" clip-path="url(#pc42fab2e41)" style="fill: #f1c40f; stroke: #ffffff; stroke-width: 0.8"/>
    <path d="M 916.023466 341.086369 
L 911.023466 351.086369 
L 921.023466 351.086369 
z
" clip-path="url(#pc42fab2e41)" style="fill: #9b59b6; stroke: #ffffff; stroke-width: 0.8"/>
    <path d="M 1012.781648 363.169914 
C 1014.107663 363.169914 1015.379547 362.643082 1016.317182 361.705447 
C 1017.254816 360.767813 1017.781648 359.495929 1017.781648 358.169914 
C 1017.781648 356.843898 1017.254816 355.572014 1016.317182 354.63438 
C 1015.379547 353.696745 1014.107663 353.169914 1012.781648 353.169914 
C 1011.455632 353.169914 1010.183748 353.696745 1009.246114 354.63438 
C 1008.308479 355.572014 1007.781648 356.843898 1007.781648 358.169914 
C 1007.781648 359.495929 1008.308479 360.767813 1009.246114 361.705447 
C 1010.183748 362.643082 1011.455632 363.169914 1012.781648 363.169914 
z
" clip-path="url(#pc42fab2e41)" style="fill: #2ecc71; stroke: #ffffff; stroke-width: 0.8"/>
    <path d="M 1007.781648 360.601921 
L 1017.781648 360.601921 
L 1017.781648 350.601921 
L 1007.781648 350.601921 
z
" clip-path="url(#pc42fab2e41)" style="fill: #f1c40f; stroke: #ffffff; stroke-width: 0.8"/>
    <path d="M 1012.781648 345.152456 
L 1007.781648 355.152456 
L 1017.781648 355.152456 
z
" clip-path="url(#pc42fab2e41)" style="fill: #9b59b6; stroke: #ffffff; stroke-width: 0.8"/>
    <path d="M 1109.53983 367.711932 
C 1110.865845 367.711932 1112.137729 367.1851 1113.075363 366.247466 
C 1114.012998 365.309831 1114.53983 364.037947 1114.53983 362.711932 
C 1114.53983 361.385916 1114.012998 360.114032 1113.075363 359.176398 
C 1112.137729 358.238763 1110.865845 357.711932 1109.53983 357.711932 
C 1108.213814 357.711932 1106.94193 358.238763 1106.004296 359.176398 
C 1105.066661 360.114032 1104.53983 361.385916 1104.53983 362.711932 
C 1104.53983 364.037947 1105.066661 365.309831 1106.004296 366.247466 
C 1106.94193 367.1851 1108.213814 367.711932 1109.53983 367.711932 
z
" clip-path="url(#pc42fab2e41)" style="fill: #2ecc71; stroke: #ffffff; stroke-width: 0.8"/>
   </g>
   <g id="line2d_34">
    <path d="M 625.74892 351.569494 
L 722.507102 341.535919 
L 819.265284 350.487757 
L 916.023466 359.454161 
L 1012.781648 358.169914 
L 1109.53983 362.711932 
" clip-path="url(#pc42fab2e41)" style="fill: none; stroke: #2ecc71; stroke-width: 1.5; stroke-linecap: round"/>
   </g>
   <g id="line2d_35">
    <path d="M 625.74892 329.769049 
L 722.507102 325.678083 
L 819.265284 341.234875 
L 916.023466 351.277995 
L 1012.781648 355.601921 
" clip-path="url(#pc42fab2e41)" style="fill: none; stroke: #f1c40f; stroke-width: 1.5; stroke-linecap: round"/>
   </g>
   <g id="line2d_36">
    <path d="M 625.74892 325.032128 
L 722.507102 301.736691 
L 819.265284 333.059353 
L 916.023466 346.086369 
L 1012.781648 350.152456 
" clip-path="url(#pc42fab2e41)" style="fill: none; stroke: #9b59b6; stroke-width: 1.5; stroke-linecap: round"/>
   </g>
   <g id="line2d_37"/>
   <g id="line2d_38"/>
   <g id="line2d_39"/>
   <g id="patch_9">
    <path d="M 601.559375 378.939375 
L 601.559375 21.935625 
" style="fill: none; stroke: #cccccc; stroke-width: 1.25; stroke-linejoin: miter; stroke-linecap: square"/>
   </g>
   <g id="patch_10">
    <path d="M 1133.729375 378.939375 
L 1133.729375 21.935625 
" style="fill: none; stroke: #cccccc; stroke-width: 1.25; stroke-linejoin: miter; stroke-linecap: square"/>
   </g>
   <g id="patch_11">
    <path d="M 601.559375 378.939375 
L 1133.729375 378.939375 
" style="fill: none; stroke: #cccccc; stroke-width: 1.25; stroke-linejoin: miter; stroke-linecap: square"/>
   </g>
   <g id="patch_12">
    <path d="M 601.559375 21.935625 
L 1133.729375 21.935625 
" style="fill: none; stroke: #cccccc; stroke-width: 1.25; stroke-linejoin: miter; stroke-linecap: square"/>
   </g>
   <g id="text_27">
    <!-- Thinking Models: Efficiency -->
    <g style="fill: #262626" transform="translate(795.055625 15.935625) scale(0.12 -0.12)">
     <use xlink:href="#ArialMT-54"/>
     <use xlink:href="#ArialMT-68" transform="translate(61.083984 0)"/>
     <use xlink:href="#ArialMT-69" transform="translate(116.699219 0)"/>
     <use xlink:href="#ArialMT-6e" transform="translate(138.916016 0)"/>
     <use xlink:href="#ArialMT-6b" transform="translate(194.53125 0)"/>
     <use xlink:href="#ArialMT-69" transform="translate(244.53125 0)"/>
     <use xlink:href="#ArialMT-6e" transform="translate(266.748047 0)"/>
     <use xlink:href="#ArialMT-67" transform="translate(322.363281 0)"/>
     <use xlink:href="#ArialMT-20" transform="translate(377.978516 0)"/>
     <use xlink:href="#ArialMT-4d" transform="translate(405.761719 0)"/>
     <use xlink:href="#ArialMT-6f" transform="translate(489.0625 0)"/>
     <use xlink:href="#ArialMT-64" transform="translate(544.677734 0)"/>
     <use xlink:href="#ArialMT-65" transform="translate(600.292969 0)"/>
     <use xlink:href="#ArialMT-6c" transform="translate(655.908203 0)"/>
     <use xlink:href="#ArialMT-73" transform="translate(678.125 0)"/>
     <use xlink:href="#ArialMT-3a" transform="translate(728.125 0)"/>
     <use xlink:href="#ArialMT-20" transform="translate(755.908203 0)"/>
     <use xlink:href="#ArialMT-45" transform="translate(783.691406 0)"/>
     <use xlink:href="#ArialMT-66" transform="translate(850.390625 0)"/>
     <use xlink:href="#ArialMT-66" transform="translate(876.423828 0)"/>
     <use xlink:href="#ArialMT-69" transform="translate(904.207031 0)"/>
     <use xlink:href="#ArialMT-63" transform="translate(926.423828 0)"/>
     <use xlink:href="#ArialMT-69" transform="translate(976.423828 0)"/>
     <use xlink:href="#ArialMT-65" transform="translate(998.640625 0)"/>
     <use xlink:href="#ArialMT-6e" transform="translate(1054.255859 0)"/>
     <use xlink:href="#ArialMT-63" transform="translate(1109.871094 0)"/>
     <use xlink:href="#ArialMT-79" transform="translate(1159.871094 0)"/>
    </g>
   </g>
   <g id="legend_2">
    <g id="patch_13">
     <path d="M 1065.757969 94.030156 
L 1126.029375 94.030156 
Q 1128.229375 94.030156 1128.229375 91.830156 
L 1128.229375 29.635625 
Q 1128.229375 27.435625 1126.029375 27.435625 
L 1065.757969 27.435625 
Q 1063.557969 27.435625 1063.557969 29.635625 
L 1063.557969 91.830156 
Q 1063.557969 94.030156 1065.757969 94.030156 
z
" style="fill: #ffffff; opacity: 0.8; stroke: #cccccc; stroke-linejoin: miter"/>
    </g>
    <g id="text_28">
     <!-- type -->
     <g style="fill: #262626" transform="translate(1084.553672 40.425) scale(0.12 -0.12)">
      <use xlink:href="#ArialMT-74"/>
      <use xlink:href="#ArialMT-79" transform="translate(27.783203 0)"/>
      <use xlink:href="#ArialMT-70" transform="translate(77.783203 0)"/>
      <use xlink:href="#ArialMT-65" transform="translate(133.398438 0)"/>
     </g>
    </g>
    <g id="line2d_40">
     <g>
      <use xlink:href="#me725751c80" x="1078.957969" y="52.474219" style="fill: #2ecc71; stroke: #ffffff; stroke-width: 0.8"/>
     </g>
    </g>
    <g id="text_29">
     <!-- Base -->
     <g style="fill: #262626" transform="translate(1098.757969 56.324219) scale(0.11 -0.11)">
      <use xlink:href="#ArialMT-42"/>
      <use xlink:href="#ArialMT-61" transform="translate(66.699219 0)"/>
      <use xlink:href="#ArialMT-73" transform="translate(122.314453 0)"/>
      <use xlink:href="#ArialMT-65" transform="translate(172.314453 0)"/>
     </g>
    </g>
    <g id="line2d_41">
     <g>
      <use xlink:href="#md7a66bdb0e" x="1078.957969" y="68.034062" style="fill: #f1c40f; stroke: #ffffff; stroke-width: 0.8; stroke-linejoin: miter"/>
     </g>
    </g>
    <g id="text_30">
     <!-- FPar -->
     <g style="fill: #262626" transform="translate(1098.757969 71.884062) scale(0.11 -0.11)">
      <use xlink:href="#ArialMT-46"/>
      <use xlink:href="#ArialMT-50" transform="translate(61.083984 0)"/>
      <use xlink:href="#ArialMT-61" transform="translate(127.783203 0)"/>
      <use xlink:href="#ArialMT-72" transform="translate(183.398438 0)"/>
     </g>
    </g>
    <g id="line2d_42">
     <g>
      <use xlink:href="#m0bb35f1ac8" x="1078.957969" y="83.593906" style="fill: #9b59b6; stroke: #ffffff; stroke-width: 0.8; stroke-linejoin: miter"/>
     </g>
    </g>
    <g id="text_31">
     <!-- GS -->
     <g style="fill: #262626" transform="translate(1098.757969 87.443906) scale(0.11 -0.11)">
      <use xlink:href="#ArialMT-47"/>
      <use xlink:href="#ArialMT-53" transform="translate(77.783203 0)"/>
     </g>
    </g>
   </g>
  </g>
 </g>
 <defs>
  <clipPath id="p1ad6a673d2">
   <rect x="56.429375" y="21.935625" width="532.17" height="357.00375"/>
  </clipPath>
  <clipPath id="pc42fab2e41">
   <rect x="601.559375" y="21.935625" width="532.17" height="357.00375"/>
  </clipPath>
 </defs>
</svg>
