<?xml version="1.0" encoding="utf-8" standalone="no"?>
<!DOCTYPE svg PUBLIC "-//W3C//DTD SVG 1.1//EN"
  "http://www.w3.org/Graphics/SVG/1.1/DTD/svg11.dtd">
<svg xmlns:xlink="http://www.w3.org/1999/xlink" width="709.7pt" height="423.034375pt" viewBox="0 0 709.7 423.034375" xmlns="http://www.w3.org/2000/svg" version="1.1">
 <metadata>
  <rdf:RDF xmlns:dc="http://purl.org/dc/elements/1.1/" xmlns:cc="http://creativecommons.org/ns#" xmlns:rdf="http://www.w3.org/1999/02/22-rdf-syntax-ns#">
   <cc:Work>
    <dc:type rdf:resource="http://purl.org/dc/dcmitype/StillImage"/>
    <dc:date>2026-01-11T14:25:35.704813</dc:date>
    <dc:format>image/svg+xml</dc:format>
    <dc:creator>
     <cc:Agent>
      <dc:title>Matplotlib v3.10.7, https://matplotlib.org/</dc:title>
     </cc:Agent>
    </dc:creator>
   </cc:Work>
  </rdf:RDF>
 </metadata>
 <defs>
  <style type="text/css">*{stroke-linejoin: round; stroke-linecap: butt}</style>
 </defs>
 <g id="figure_1">
  <g id="patch_1">
   <path d="M 0 423.034375 
L 709.7 423.034375 
L 709.7 0 
L 0 0 
z
" style="fill: #ffffff"/>
  </g>
  <g id="axes_1">
   <g id="patch_2">
    <path d="M 53.35 385.478125 
L 702.5 385.478125 
L 702.5 22.318125 
L 53.35 22.318125 
z
" style="fill: #ffffff"/>
   </g>
   <g id="PathCollection_1">
    <path d="M 111.628238 372.533793 
C 112.646769 372.533793 113.623722 372.129126 114.343933 371.408915 
C 115.064144 370.688704 115.468811 369.711752 115.468811 368.69322 
C 115.468811 367.674688 115.064144 366.697736 114.343933 365.977525 
C 113.623722 365.257314 112.646769 364.852647 111.628238 364.852647 
C 110.609706 364.852647 109.632753 365.257314 108.912543 365.977525 
C 108.192332 366.697736 107.787665 367.674688 107.787665 368.69322 
C 107.787665 369.711752 108.192332 370.688704 108.912543 371.408915 
C 109.632753 372.129126 110.609706 372.533793 111.628238 372.533793 
z
" clip-path="url(#p3e06b40abc)" style="fill: #1f77b4; fill-opacity: 0.7; stroke: #1f77b4; stroke-opacity: 0.7"/>
    <path d="M 82.856818 367.265471 
C 83.87535 367.265471 84.852303 366.860804 85.572513 366.140593 
C 86.292724 365.420382 86.697391 364.44343 86.697391 363.424898 
C 86.697391 362.406366 86.292724 361.429413 85.572513 360.709203 
C 84.852303 359.988992 83.87535 359.584325 82.856818 359.584325 
C 81.838286 359.584325 80.861334 359.988992 80.141123 360.709203 
C 79.420912 361.429413 79.016245 362.406366 79.016245 363.424898 
C 79.016245 364.44343 79.420912 365.420382 80.141123 366.140593 
C 80.861334 366.860804 81.838286 367.265471 82.856818 367.265471 
z
" clip-path="url(#p3e06b40abc)" style="fill: #1f77b4; fill-opacity: 0.7; stroke: #1f77b4; stroke-opacity: 0.7"/>
    <path d="M 147.275419 368.169003 
C 148.427603 368.169003 149.532753 367.711235 150.34747 366.896517 
C 151.162188 366.0818 151.619956 364.97665 151.619956 363.824466 
C 151.619956 362.672281 151.162188 361.567132 150.34747 360.752414 
C 149.532753 359.937697 148.427603 359.479929 147.275419 359.479929 
C 146.123234 359.479929 145.018085 359.937697 144.203367 360.752414 
C 143.38865 361.567132 142.930882 362.672281 142.930882 363.824466 
C 142.930882 364.97665 143.38865 366.0818 144.203367 366.896517 
C 145.018085 367.711235 146.123234 368.169003 147.275419 368.169003 
z
" clip-path="url(#p3e06b40abc)" style="fill: #1f77b4; fill-opacity: 0.7; stroke: #1f77b4; stroke-opacity: 0.7"/>
    <path d="M 169.807308 329.566829 
C 170.959492 329.566829 172.064641 329.109061 172.879359 328.294343 
C 173.694077 327.479626 174.151844 326.374477 174.151844 325.222292 
C 174.151844 324.070107 173.694077 322.964958 172.879359 322.150241 
C 172.064641 321.335523 170.959492 320.877755 169.807308 320.877755 
C 168.655123 320.877755 167.549974 321.335523 166.735256 322.150241 
C 165.920539 322.964958 165.462771 324.070107 165.462771 325.222292 
C 165.462771 326.374477 165.920539 327.479626 166.735256 328.294343 
C 167.549974 329.109061 168.655123 329.566829 169.807308 329.566829 
z
" clip-path="url(#p3e06b40abc)" style="fill: #1f77b4; fill-opacity: 0.7; stroke: #1f77b4; stroke-opacity: 0.7"/>
    <path d="M 283.285971 291.014384 
C 284.676708 291.014384 286.010671 290.461839 286.99407 289.478439 
C 287.977469 288.49504 288.530015 287.161077 288.530015 285.77034 
C 288.530015 284.379603 287.977469 283.04564 286.99407 282.062241 
C 286.010671 281.078842 284.676708 280.526296 283.285971 280.526296 
C 281.895234 280.526296 280.561271 281.078842 279.577871 282.062241 
C 278.594472 283.04564 278.041926 284.379603 278.041926 285.77034 
C 278.041926 287.161077 278.594472 288.49504 279.577871 289.478439 
C 280.561271 290.461839 281.895234 291.014384 283.285971 291.014384 
z
" clip-path="url(#p3e06b40abc)" style="fill: #1f77b4; fill-opacity: 0.7; stroke: #1f77b4; stroke-opacity: 0.7"/>
    <path d="M 285.697249 281.632431 
C 287.087986 281.632431 288.421949 281.079886 289.405348 280.096486 
C 290.388748 279.113087 290.941293 277.779124 290.941293 276.388387 
C 290.941293 274.99765 290.388748 273.663687 289.405348 272.680288 
C 288.421949 271.696888 287.087986 271.144343 285.697249 271.144343 
C 284.306512 271.144343 282.972549 271.696888 281.98915 272.680288 
C 281.00575 273.663687 280.453205 274.99765 280.453205 276.388387 
C 280.453205 277.779124 281.00575 279.113087 281.98915 280.096486 
C 282.972549 281.079886 284.306512 281.632431 285.697249 281.632431 
z
" clip-path="url(#p3e06b40abc)" style="fill: #1f77b4; fill-opacity: 0.7; stroke: #1f77b4; stroke-opacity: 0.7"/>
    <path d="M 231.636535 375.490055 
C 233.365448 375.490055 235.023781 374.80315 236.246307 373.580625 
C 237.468833 372.358099 238.155737 370.699765 238.155737 368.970852 
C 238.155737 367.24194 237.468833 365.583606 236.246307 364.36108 
C 235.023781 363.138554 233.365448 362.45165 231.636535 362.45165 
C 229.907622 362.45165 228.249289 363.138554 227.026763 364.36108 
C 225.804237 365.583606 225.117333 367.24194 225.117333 368.970852 
C 225.117333 370.699765 225.804237 372.358099 227.026763 373.580625 
C 228.249289 374.80315 229.907622 375.490055 231.636535 375.490055 
z
" clip-path="url(#p3e06b40abc)" style="fill: #1f77b4; fill-opacity: 0.7; stroke: #1f77b4; stroke-opacity: 0.7"/>
    <path d="M 284.286621 209.170248 
C 286.015534 209.170248 287.673868 208.483344 288.896394 207.260818 
C 290.118919 206.038292 290.805824 204.379958 290.805824 202.651046 
C 290.805824 200.922133 290.118919 199.263799 288.896394 198.041274 
C 287.673868 196.818748 286.015534 196.131843 284.286621 196.131843 
C 282.557709 196.131843 280.899375 196.818748 279.676849 198.041274 
C 278.454323 199.263799 277.767419 200.922133 277.767419 202.651046 
C 277.767419 204.379958 278.454323 206.038292 279.676849 207.260818 
C 280.899375 208.483344 282.557709 209.170248 284.286621 209.170248 
z
" clip-path="url(#p3e06b40abc)" style="fill: #1f77b4; fill-opacity: 0.7; stroke: #1f77b4; stroke-opacity: 0.7"/>
    <path d="M 343.641918 376.870697 
C 345.780054 376.870697 347.830905 376.021207 349.342795 374.509316 
C 350.854686 372.997426 351.704176 370.946575 351.704176 368.808439 
C 351.704176 366.670304 350.854686 364.619452 349.342795 363.107562 
C 347.830905 361.595672 345.780054 360.746182 343.641918 360.746182 
C 341.503783 360.746182 339.452931 361.595672 337.941041 363.107562 
C 336.429151 364.619452 335.579661 366.670304 335.579661 368.808439 
C 335.579661 370.946575 336.429151 372.997426 337.941041 374.509316 
C 339.452931 376.021207 341.503783 376.870697 343.641918 376.870697 
z
" clip-path="url(#p3e06b40abc)" style="fill: #1f77b4; fill-opacity: 0.7; stroke: #1f77b4; stroke-opacity: 0.7"/>
    <path d="M 340.037096 281.304659 
C 342.175232 281.304659 344.226083 280.455168 345.737973 278.943278 
C 347.249863 277.431388 348.099354 275.380537 348.099354 273.242401 
C 348.099354 271.104265 347.249863 269.053414 345.737973 267.541524 
C 344.226083 266.029633 342.175232 265.180143 340.037096 265.180143 
C 337.89896 265.180143 335.848109 266.029633 334.336219 267.541524 
C 332.824329 269.053414 331.974838 271.104265 331.974838 273.242401 
C 331.974838 275.380537 332.824329 277.431388 334.336219 278.943278 
C 335.848109 280.455168 337.89896 281.304659 340.037096 281.304659 
z
" clip-path="url(#p3e06b40abc)" style="fill: #1f77b4; fill-opacity: 0.7; stroke: #1f77b4; stroke-opacity: 0.7"/>
    <path d="M 192.812814 368.63787 
C 195.865531 368.63787 198.793628 367.425013 200.952225 365.266416 
C 203.110822 363.107819 204.323679 360.179722 204.323679 357.127005 
C 204.323679 354.074289 203.110822 351.146192 200.952225 348.987595 
C 198.793628 346.828998 195.865531 345.616141 192.812814 345.616141 
C 189.760098 345.616141 186.832001 346.828998 184.673404 348.987595 
C 182.514807 351.146192 181.30195 354.074289 181.30195 357.127005 
C 181.30195 360.179722 182.514807 363.107819 184.673404 365.266416 
C 186.832001 367.425013 189.760098 368.63787 192.812814 368.63787 
z
" clip-path="url(#p3e06b40abc)" style="fill: #1f77b4; fill-opacity: 0.7; stroke: #1f77b4; stroke-opacity: 0.7"/>
    <path d="M 289.560795 50.336262 
C 292.613512 50.336262 295.541608 49.123405 297.700205 46.964808 
C 299.858802 44.806211 301.071659 41.878115 301.071659 38.825398 
C 301.071659 35.772681 299.858802 32.844584 297.700205 30.685987 
C 295.541608 28.527391 292.613512 27.314533 289.560795 27.314533 
C 286.508078 27.314533 283.579981 28.527391 281.421384 30.685987 
C 279.262788 32.844584 278.04993 35.772681 278.04993 38.825398 
C 278.04993 41.878115 279.262788 44.806211 281.421384 46.964808 
C 283.579981 49.123405 286.508078 50.336262 289.560795 50.336262 
z
" clip-path="url(#p3e06b40abc)" style="fill: #1f77b4; fill-opacity: 0.7; stroke: #1f77b4; stroke-opacity: 0.7"/>
   </g>
   <g id="PathCollection_2">
    <path d="M 206.05514 370.651495 
L 213.736286 370.651495 
L 213.736286 362.970349 
L 206.05514 362.970349 
z
" clip-path="url(#p3e06b40abc)" style="fill: #ff7f0e; fill-opacity: 0.7; stroke: #ff7f0e; stroke-opacity: 0.7"/>
    <path d="M 251.077276 346.704664 
L 258.758422 346.704664 
L 258.758422 339.023518 
L 251.077276 339.023518 
z
" clip-path="url(#p3e06b40abc)" style="fill: #ff7f0e; fill-opacity: 0.7; stroke: #ff7f0e; stroke-opacity: 0.7"/>
    <path d="M 430.642199 371.313482 
L 439.331273 371.313482 
L 439.331273 362.624409 
L 430.642199 362.624409 
z
" clip-path="url(#p3e06b40abc)" style="fill: #ff7f0e; fill-opacity: 0.7; stroke: #ff7f0e; stroke-opacity: 0.7"/>
    <path d="M 464.540714 335.574846 
L 473.229787 335.574846 
L 473.229787 326.885773 
L 464.540714 326.885773 
z
" clip-path="url(#p3e06b40abc)" style="fill: #ff7f0e; fill-opacity: 0.7; stroke: #ff7f0e; stroke-opacity: 0.7"/>
    <path d="M 591.662352 130.059101 
L 602.150441 130.059101 
L 602.150441 119.571013 
L 591.662352 119.571013 
z
" clip-path="url(#p3e06b40abc)" style="fill: #ff7f0e; fill-opacity: 0.7; stroke: #ff7f0e; stroke-opacity: 0.7"/>
    <path d="M 583.086287 109.026531 
L 593.574376 109.026531 
L 593.574376 98.538443 
L 583.086287 98.538443 
z
" clip-path="url(#p3e06b40abc)" style="fill: #ff7f0e; fill-opacity: 0.7; stroke: #ff7f0e; stroke-opacity: 0.7"/>
    <path d="M 548.448821 371.03218 
L 561.487225 371.03218 
L 561.487225 357.993775 
L 548.448821 357.993775 
z
" clip-path="url(#p3e06b40abc)" style="fill: #ff7f0e; fill-opacity: 0.7; stroke: #ff7f0e; stroke-opacity: 0.7"/>
    <path d="M 511.307399 277.545093 
L 524.345804 277.545093 
L 524.345804 264.506688 
L 511.307399 264.506688 
z
" clip-path="url(#p3e06b40abc)" style="fill: #ff7f0e; fill-opacity: 0.7; stroke: #ff7f0e; stroke-opacity: 0.7"/>
    <path d="M 664.930924 371.550618 
L 681.05544 371.550618 
L 681.05544 355.426102 
L 664.930924 355.426102 
z
" clip-path="url(#p3e06b40abc)" style="fill: #ff7f0e; fill-opacity: 0.7; stroke: #ff7f0e; stroke-opacity: 0.7"/>
    <path d="M 608.943271 264.011212 
L 625.067787 264.011212 
L 625.067787 247.886696 
L 608.943271 247.886696 
z
" clip-path="url(#p3e06b40abc)" style="fill: #ff7f0e; fill-opacity: 0.7; stroke: #ff7f0e; stroke-opacity: 0.7"/>
   </g>
   <g id="matplotlib.axis_1">
    <g id="xtick_1">
     <g id="line2d_1">
      <path d="M 82.002666 385.478125 
L 82.002666 22.318125 
" clip-path="url(#p3e06b40abc)" style="fill: none; stroke-dasharray: 2.96,1.28; stroke-dashoffset: 0; stroke: #b0b0b0; stroke-opacity: 0.6; stroke-width: 0.8"/>
     </g>
     <g id="line2d_2">
      <defs>
       <path id="md2af1a69cf" d="M 0 0 
L 0 3.5 
" style="stroke: #000000; stroke-width: 0.8"/>
      </defs>
      <g>
       <use xlink:href="#md2af1a69cf" x="82.002666" y="385.478125" style="stroke: #000000; stroke-width: 0.8"/>
      </g>
     </g>
     <g id="text_1">
      <!-- 0.10 -->
      <g transform="translate(70.869853 400.076562) scale(0.1 -0.1)">
       <defs>
        <path id="DejaVuSans-30" d="M 2034 4250 
Q 1547 4250 1301 3770 
Q 1056 3291 1056 2328 
Q 1056 1369 1301 889 
Q 1547 409 2034 409 
Q 2525 409 2770 889 
Q 3016 1369 3016 2328 
Q 3016 3291 2770 3770 
Q 2525 4250 2034 4250 
z
M 2034 4750 
Q 2819 4750 3233 4129 
Q 3647 3509 3647 2328 
Q 3647 1150 3233 529 
Q 2819 -91 2034 -91 
Q 1250 -91 836 529 
Q 422 1150 422 2328 
Q 422 3509 836 4129 
Q 1250 4750 2034 4750 
z
" transform="scale(0.015625)"/>
        <path id="DejaVuSans-2e" d="M 684 794 
L 1344 794 
L 1344 0 
L 684 0 
L 684 794 
z
" transform="scale(0.015625)"/>
        <path id="DejaVuSans-31" d="M 794 531 
L 1825 531 
L 1825 4091 
L 703 3866 
L 703 4441 
L 1819 4666 
L 2450 4666 
L 2450 531 
L 3481 531 
L 3481 0 
L 794 0 
L 794 531 
z
" transform="scale(0.015625)"/>
       </defs>
       <use xlink:href="#DejaVuSans-30"/>
       <use xlink:href="#DejaVuSans-2e" transform="translate(63.623047 0)"/>
       <use xlink:href="#DejaVuSans-31" transform="translate(95.410156 0)"/>
       <use xlink:href="#DejaVuSans-30" transform="translate(159.033203 0)"/>
      </g>
     </g>
    </g>
    <g id="xtick_2">
     <g id="line2d_3">
      <path d="M 162.337792 385.478125 
L 162.337792 22.318125 
" clip-path="url(#p3e06b40abc)" style="fill: none; stroke-dasharray: 2.96,1.28; stroke-dashoffset: 0; stroke: #b0b0b0; stroke-opacity: 0.6; stroke-width: 0.8"/>
     </g>
     <g id="line2d_4">
      <g>
       <use xlink:href="#md2af1a69cf" x="162.337792" y="385.478125" style="stroke: #000000; stroke-width: 0.8"/>
      </g>
     </g>
     <g id="text_2">
      <!-- 0.15 -->
      <g transform="translate(151.20498 400.076562) scale(0.1 -0.1)">
       <defs>
        <path id="DejaVuSans-35" d="M 691 4666 
L 3169 4666 
L 3169 4134 
L 1269 4134 
L 1269 2991 
Q 1406 3038 1543 3061 
Q 1681 3084 1819 3084 
Q 2600 3084 3056 2656 
Q 3513 2228 3513 1497 
Q 3513 744 3044 326 
Q 2575 -91 1722 -91 
Q 1428 -91 1123 -41 
Q 819 9 494 109 
L 494 744 
Q 775 591 1075 516 
Q 1375 441 1709 441 
Q 2250 441 2565 725 
Q 2881 1009 2881 1497 
Q 2881 1984 2565 2268 
Q 2250 2553 1709 2553 
Q 1456 2553 1204 2497 
Q 953 2441 691 2322 
L 691 4666 
z
" transform="scale(0.015625)"/>
       </defs>
       <use xlink:href="#DejaVuSans-30"/>
       <use xlink:href="#DejaVuSans-2e" transform="translate(63.623047 0)"/>
       <use xlink:href="#DejaVuSans-31" transform="translate(95.410156 0)"/>
       <use xlink:href="#DejaVuSans-35" transform="translate(159.033203 0)"/>
      </g>
     </g>
    </g>
    <g id="xtick_3">
     <g id="line2d_5">
      <path d="M 242.672919 385.478125 
L 242.672919 22.318125 
" clip-path="url(#p3e06b40abc)" style="fill: none; stroke-dasharray: 2.96,1.28; stroke-dashoffset: 0; stroke: #b0b0b0; stroke-opacity: 0.6; stroke-width: 0.8"/>
     </g>
     <g id="line2d_6">
      <g>
       <use xlink:href="#md2af1a69cf" x="242.672919" y="385.478125" style="stroke: #000000; stroke-width: 0.8"/>
      </g>
     </g>
     <g id="text_3">
      <!-- 0.20 -->
      <g transform="translate(231.540106 400.076562) scale(0.1 -0.1)">
       <defs>
        <path id="DejaVuSans-32" d="M 1228 531 
L 3431 531 
L 3431 0 
L 469 0 
L 469 531 
Q 828 903 1448 1529 
Q 2069 2156 2228 2338 
Q 2531 2678 2651 2914 
Q 2772 3150 2772 3378 
Q 2772 3750 2511 3984 
Q 2250 4219 1831 4219 
Q 1534 4219 1204 4116 
Q 875 4013 500 3803 
L 500 4441 
Q 881 4594 1212 4672 
Q 1544 4750 1819 4750 
Q 2544 4750 2975 4387 
Q 3406 4025 3406 3419 
Q 3406 3131 3298 2873 
Q 3191 2616 2906 2266 
Q 2828 2175 2409 1742 
Q 1991 1309 1228 531 
z
" transform="scale(0.015625)"/>
       </defs>
       <use xlink:href="#DejaVuSans-30"/>
       <use xlink:href="#DejaVuSans-2e" transform="translate(63.623047 0)"/>
       <use xlink:href="#DejaVuSans-32" transform="translate(95.410156 0)"/>
       <use xlink:href="#DejaVuSans-30" transform="translate(159.033203 0)"/>
      </g>
     </g>
    </g>
    <g id="xtick_4">
     <g id="line2d_7">
      <path d="M 323.008045 385.478125 
L 323.008045 22.318125 
" clip-path="url(#p3e06b40abc)" style="fill: none; stroke-dasharray: 2.96,1.28; stroke-dashoffset: 0; stroke: #b0b0b0; stroke-opacity: 0.6; stroke-width: 0.8"/>
     </g>
     <g id="line2d_8">
      <g>
       <use xlink:href="#md2af1a69cf" x="323.008045" y="385.478125" style="stroke: #000000; stroke-width: 0.8"/>
      </g>
     </g>
     <g id="text_4">
      <!-- 0.25 -->
      <g transform="translate(311.875233 400.076562) scale(0.1 -0.1)">
       <use xlink:href="#DejaVuSans-30"/>
       <use xlink:href="#DejaVuSans-2e" transform="translate(63.623047 0)"/>
       <use xlink:href="#DejaVuSans-32" transform="translate(95.410156 0)"/>
       <use xlink:href="#DejaVuSans-35" transform="translate(159.033203 0)"/>
      </g>
     </g>
    </g>
    <g id="xtick_5">
     <g id="line2d_9">
      <path d="M 403.343172 385.478125 
L 403.343172 22.318125 
" clip-path="url(#p3e06b40abc)" style="fill: none; stroke-dasharray: 2.96,1.28; stroke-dashoffset: 0; stroke: #b0b0b0; stroke-opacity: 0.6; stroke-width: 0.8"/>
     </g>
     <g id="line2d_10">
      <g>
       <use xlink:href="#md2af1a69cf" x="403.343172" y="385.478125" style="stroke: #000000; stroke-width: 0.8"/>
      </g>
     </g>
     <g id="text_5">
      <!-- 0.30 -->
      <g transform="translate(392.210359 400.076562) scale(0.1 -0.1)">
       <defs>
        <path id="DejaVuSans-33" d="M 2597 2516 
Q 3050 2419 3304 2112 
Q 3559 1806 3559 1356 
Q 3559 666 3084 287 
Q 2609 -91 1734 -91 
Q 1441 -91 1130 -33 
Q 819 25 488 141 
L 488 750 
Q 750 597 1062 519 
Q 1375 441 1716 441 
Q 2309 441 2620 675 
Q 2931 909 2931 1356 
Q 2931 1769 2642 2001 
Q 2353 2234 1838 2234 
L 1294 2234 
L 1294 2753 
L 1863 2753 
Q 2328 2753 2575 2939 
Q 2822 3125 2822 3475 
Q 2822 3834 2567 4026 
Q 2313 4219 1838 4219 
Q 1578 4219 1281 4162 
Q 984 4106 628 3988 
L 628 4550 
Q 988 4650 1302 4700 
Q 1616 4750 1894 4750 
Q 2613 4750 3031 4423 
Q 3450 4097 3450 3541 
Q 3450 3153 3228 2886 
Q 3006 2619 2597 2516 
z
" transform="scale(0.015625)"/>
       </defs>
       <use xlink:href="#DejaVuSans-30"/>
       <use xlink:href="#DejaVuSans-2e" transform="translate(63.623047 0)"/>
       <use xlink:href="#DejaVuSans-33" transform="translate(95.410156 0)"/>
       <use xlink:href="#DejaVuSans-30" transform="translate(159.033203 0)"/>
      </g>
     </g>
    </g>
    <g id="xtick_6">
     <g id="line2d_11">
      <path d="M 483.678298 385.478125 
L 483.678298 22.318125 
" clip-path="url(#p3e06b40abc)" style="fill: none; stroke-dasharray: 2.96,1.28; stroke-dashoffset: 0; stroke: #b0b0b0; stroke-opacity: 0.6; stroke-width: 0.8"/>
     </g>
     <g id="line2d_12">
      <g>
       <use xlink:href="#md2af1a69cf" x="483.678298" y="385.478125" style="stroke: #000000; stroke-width: 0.8"/>
      </g>
     </g>
     <g id="text_6">
      <!-- 0.35 -->
      <g transform="translate(472.545486 400.076562) scale(0.1 -0.1)">
       <use xlink:href="#DejaVuSans-30"/>
       <use xlink:href="#DejaVuSans-2e" transform="translate(63.623047 0)"/>
       <use xlink:href="#DejaVuSans-33" transform="translate(95.410156 0)"/>
       <use xlink:href="#DejaVuSans-35" transform="translate(159.033203 0)"/>
      </g>
     </g>
    </g>
    <g id="xtick_7">
     <g id="line2d_13">
      <path d="M 564.013425 385.478125 
L 564.013425 22.318125 
" clip-path="url(#p3e06b40abc)" style="fill: none; stroke-dasharray: 2.96,1.28; stroke-dashoffset: 0; stroke: #b0b0b0; stroke-opacity: 0.6; stroke-width: 0.8"/>
     </g>
     <g id="line2d_14">
      <g>
       <use xlink:href="#md2af1a69cf" x="564.013425" y="385.478125" style="stroke: #000000; stroke-width: 0.8"/>
      </g>
     </g>
     <g id="text_7">
      <!-- 0.40 -->
      <g transform="translate(552.880612 400.076562) scale(0.1 -0.1)">
       <defs>
        <path id="DejaVuSans-34" d="M 2419 4116 
L 825 1625 
L 2419 1625 
L 2419 4116 
z
M 2253 4666 
L 3047 4666 
L 3047 1625 
L 3713 1625 
L 3713 1100 
L 3047 1100 
L 3047 0 
L 2419 0 
L 2419 1100 
L 313 1100 
L 313 1709 
L 2253 4666 
z
" transform="scale(0.015625)"/>
       </defs>
       <use xlink:href="#DejaVuSans-30"/>
       <use xlink:href="#DejaVuSans-2e" transform="translate(63.623047 0)"/>
       <use xlink:href="#DejaVuSans-34" transform="translate(95.410156 0)"/>
       <use xlink:href="#DejaVuSans-30" transform="translate(159.033203 0)"/>
      </g>
     </g>
    </g>
    <g id="xtick_8">
     <g id="line2d_15">
      <path d="M 644.348551 385.478125 
L 644.348551 22.318125 
" clip-path="url(#p3e06b40abc)" style="fill: none; stroke-dasharray: 2.96,1.28; stroke-dashoffset: 0; stroke: #b0b0b0; stroke-opacity: 0.6; stroke-width: 0.8"/>
     </g>
     <g id="line2d_16">
      <g>
       <use xlink:href="#md2af1a69cf" x="644.348551" y="385.478125" style="stroke: #000000; stroke-width: 0.8"/>
      </g>
     </g>
     <g id="text_8">
      <!-- 0.45 -->
      <g transform="translate(633.215739 400.076562) scale(0.1 -0.1)">
       <use xlink:href="#DejaVuSans-30"/>
       <use xlink:href="#DejaVuSans-2e" transform="translate(63.623047 0)"/>
       <use xlink:href="#DejaVuSans-34" transform="translate(95.410156 0)"/>
       <use xlink:href="#DejaVuSans-35" transform="translate(159.033203 0)"/>
      </g>
     </g>
    </g>
    <g id="text_9">
     <!-- F1 Score -->
     <g transform="translate(356.276563 413.754687) scale(0.1 -0.1)">
      <defs>
       <path id="DejaVuSans-46" d="M 628 4666 
L 3309 4666 
L 3309 4134 
L 1259 4134 
L 1259 2759 
L 3109 2759 
L 3109 2228 
L 1259 2228 
L 1259 0 
L 628 0 
L 628 4666 
z
" transform="scale(0.015625)"/>
       <path id="DejaVuSans-20" transform="scale(0.015625)"/>
       <path id="DejaVuSans-53" d="M 3425 4513 
L 3425 3897 
Q 3066 4069 2747 4153 
Q 2428 4238 2131 4238 
Q 1616 4238 1336 4038 
Q 1056 3838 1056 3469 
Q 1056 3159 1242 3001 
Q 1428 2844 1947 2747 
L 2328 2669 
Q 3034 2534 3370 2195 
Q 3706 1856 3706 1288 
Q 3706 609 3251 259 
Q 2797 -91 1919 -91 
Q 1588 -91 1214 -16 
Q 841 59 441 206 
L 441 856 
Q 825 641 1194 531 
Q 1563 422 1919 422 
Q 2459 422 2753 634 
Q 3047 847 3047 1241 
Q 3047 1584 2836 1778 
Q 2625 1972 2144 2069 
L 1759 2144 
Q 1053 2284 737 2584 
Q 422 2884 422 3419 
Q 422 4038 858 4394 
Q 1294 4750 2059 4750 
Q 2388 4750 2728 4690 
Q 3069 4631 3425 4513 
z
" transform="scale(0.015625)"/>
       <path id="DejaVuSans-63" d="M 3122 3366 
L 3122 2828 
Q 2878 2963 2633 3030 
Q 2388 3097 2138 3097 
Q 1578 3097 1268 2742 
Q 959 2388 959 1747 
Q 959 1106 1268 751 
Q 1578 397 2138 397 
Q 2388 397 2633 464 
Q 2878 531 3122 666 
L 3122 134 
Q 2881 22 2623 -34 
Q 2366 -91 2075 -91 
Q 1284 -91 818 406 
Q 353 903 353 1747 
Q 353 2603 823 3093 
Q 1294 3584 2113 3584 
Q 2378 3584 2631 3529 
Q 2884 3475 3122 3366 
z
" transform="scale(0.015625)"/>
       <path id="DejaVuSans-6f" d="M 1959 3097 
Q 1497 3097 1228 2736 
Q 959 2375 959 1747 
Q 959 1119 1226 758 
Q 1494 397 1959 397 
Q 2419 397 2687 759 
Q 2956 1122 2956 1747 
Q 2956 2369 2687 2733 
Q 2419 3097 1959 3097 
z
M 1959 3584 
Q 2709 3584 3137 3096 
Q 3566 2609 3566 1747 
Q 3566 888 3137 398 
Q 2709 -91 1959 -91 
Q 1206 -91 779 398 
Q 353 888 353 1747 
Q 353 2609 779 3096 
Q 1206 3584 1959 3584 
z
" transform="scale(0.015625)"/>
       <path id="DejaVuSans-72" d="M 2631 2963 
Q 2534 3019 2420 3045 
Q 2306 3072 2169 3072 
Q 1681 3072 1420 2755 
Q 1159 2438 1159 1844 
L 1159 0 
L 581 0 
L 581 3500 
L 1159 3500 
L 1159 2956 
Q 1341 3275 1631 3429 
Q 1922 3584 2338 3584 
Q 2397 3584 2469 3576 
Q 2541 3569 2628 3553 
L 2631 2963 
z
" transform="scale(0.015625)"/>
       <path id="DejaVuSans-65" d="M 3597 1894 
L 3597 1613 
L 953 1613 
Q 991 1019 1311 708 
Q 1631 397 2203 397 
Q 2534 397 2845 478 
Q 3156 559 3463 722 
L 3463 178 
Q 3153 47 2828 -22 
Q 2503 -91 2169 -91 
Q 1331 -91 842 396 
Q 353 884 353 1716 
Q 353 2575 817 3079 
Q 1281 3584 2069 3584 
Q 2775 3584 3186 3129 
Q 3597 2675 3597 1894 
z
M 3022 2063 
Q 3016 2534 2758 2815 
Q 2500 3097 2075 3097 
Q 1594 3097 1305 2825 
Q 1016 2553 972 2059 
L 3022 2063 
z
" transform="scale(0.015625)"/>
      </defs>
      <use xlink:href="#DejaVuSans-46"/>
      <use xlink:href="#DejaVuSans-31" transform="translate(57.519531 0)"/>
      <use xlink:href="#DejaVuSans-20" transform="translate(121.142578 0)"/>
      <use xlink:href="#DejaVuSans-53" transform="translate(152.929688 0)"/>
      <use xlink:href="#DejaVuSans-63" transform="translate(216.40625 0)"/>
      <use xlink:href="#DejaVuSans-6f" transform="translate(271.386719 0)"/>
      <use xlink:href="#DejaVuSans-72" transform="translate(332.568359 0)"/>
      <use xlink:href="#DejaVuSans-65" transform="translate(371.431641 0)"/>
     </g>
    </g>
   </g>
   <g id="matplotlib.axis_2">
    <g id="ytick_1">
     <g id="line2d_17">
      <path d="M 53.35 371.784359 
L 702.5 371.784359 
" clip-path="url(#p3e06b40abc)" style="fill: none; stroke-dasharray: 2.96,1.28; stroke-dashoffset: 0; stroke: #b0b0b0; stroke-opacity: 0.6; stroke-width: 0.8"/>
     </g>
     <g id="line2d_18">
      <defs>
       <path id="m37058722b7" d="M 0 0 
L -3.5 0 
" style="stroke: #000000; stroke-width: 0.8"/>
      </defs>
      <g>
       <use xlink:href="#m37058722b7" x="53.35" y="371.784359" style="stroke: #000000; stroke-width: 0.8"/>
      </g>
     </g>
     <g id="text_10">
      <!-- 0 -->
      <g transform="translate(39.9875 375.583578) scale(0.1 -0.1)">
       <use xlink:href="#DejaVuSans-30"/>
      </g>
     </g>
    </g>
    <g id="ytick_2">
     <g id="line2d_19">
      <path d="M 53.35 297.753724 
L 702.5 297.753724 
" clip-path="url(#p3e06b40abc)" style="fill: none; stroke-dasharray: 2.96,1.28; stroke-dashoffset: 0; stroke: #b0b0b0; stroke-opacity: 0.6; stroke-width: 0.8"/>
     </g>
     <g id="line2d_20">
      <g>
       <use xlink:href="#m37058722b7" x="53.35" y="297.753724" style="stroke: #000000; stroke-width: 0.8"/>
      </g>
     </g>
     <g id="text_11">
      <!-- 500 -->
      <g transform="translate(27.2625 301.552942) scale(0.1 -0.1)">
       <use xlink:href="#DejaVuSans-35"/>
       <use xlink:href="#DejaVuSans-30" transform="translate(63.623047 0)"/>
       <use xlink:href="#DejaVuSans-30" transform="translate(127.246094 0)"/>
      </g>
     </g>
    </g>
    <g id="ytick_3">
     <g id="line2d_21">
      <path d="M 53.35 223.723089 
L 702.5 223.723089 
" clip-path="url(#p3e06b40abc)" style="fill: none; stroke-dasharray: 2.96,1.28; stroke-dashoffset: 0; stroke: #b0b0b0; stroke-opacity: 0.6; stroke-width: 0.8"/>
     </g>
     <g id="line2d_22">
      <g>
       <use xlink:href="#m37058722b7" x="53.35" y="223.723089" style="stroke: #000000; stroke-width: 0.8"/>
      </g>
     </g>
     <g id="text_12">
      <!-- 1000 -->
      <g transform="translate(20.9 227.522307) scale(0.1 -0.1)">
       <use xlink:href="#DejaVuSans-31"/>
       <use xlink:href="#DejaVuSans-30" transform="translate(63.623047 0)"/>
       <use xlink:href="#DejaVuSans-30" transform="translate(127.246094 0)"/>
       <use xlink:href="#DejaVuSans-30" transform="translate(190.869141 0)"/>
      </g>
     </g>
    </g>
    <g id="ytick_4">
     <g id="line2d_23">
      <path d="M 53.35 149.692454 
L 702.5 149.692454 
" clip-path="url(#p3e06b40abc)" style="fill: none; stroke-dasharray: 2.96,1.28; stroke-dashoffset: 0; stroke: #b0b0b0; stroke-opacity: 0.6; stroke-width: 0.8"/>
     </g>
     <g id="line2d_24">
      <g>
       <use xlink:href="#m37058722b7" x="53.35" y="149.692454" style="stroke: #000000; stroke-width: 0.8"/>
      </g>
     </g>
     <g id="text_13">
      <!-- 1500 -->
      <g transform="translate(20.9 153.491672) scale(0.1 -0.1)">
       <use xlink:href="#DejaVuSans-31"/>
       <use xlink:href="#DejaVuSans-35" transform="translate(63.623047 0)"/>
       <use xlink:href="#DejaVuSans-30" transform="translate(127.246094 0)"/>
       <use xlink:href="#DejaVuSans-30" transform="translate(190.869141 0)"/>
      </g>
     </g>
    </g>
    <g id="ytick_5">
     <g id="line2d_25">
      <path d="M 53.35 75.661819 
L 702.5 75.661819 
" clip-path="url(#p3e06b40abc)" style="fill: none; stroke-dasharray: 2.96,1.28; stroke-dashoffset: 0; stroke: #b0b0b0; stroke-opacity: 0.6; stroke-width: 0.8"/>
     </g>
     <g id="line2d_26">
      <g>
       <use xlink:href="#m37058722b7" x="53.35" y="75.661819" style="stroke: #000000; stroke-width: 0.8"/>
      </g>
     </g>
     <g id="text_14">
      <!-- 2000 -->
      <g transform="translate(20.9 79.461037) scale(0.1 -0.1)">
       <use xlink:href="#DejaVuSans-32"/>
       <use xlink:href="#DejaVuSans-30" transform="translate(63.623047 0)"/>
       <use xlink:href="#DejaVuSans-30" transform="translate(127.246094 0)"/>
       <use xlink:href="#DejaVuSans-30" transform="translate(190.869141 0)"/>
      </g>
     </g>
    </g>
    <g id="text_15">
     <!-- Total Emissions (g of $CO_2$) -->
     <g transform="translate(14.8 269.348125) rotate(-90) scale(0.1 -0.1)">
      <defs>
       <path id="DejaVuSans-54" d="M -19 4666 
L 3928 4666 
L 3928 4134 
L 2272 4134 
L 2272 0 
L 1638 0 
L 1638 4134 
L -19 4134 
L -19 4666 
z
" transform="scale(0.015625)"/>
       <path id="DejaVuSans-74" d="M 1172 4494 
L 1172 3500 
L 2356 3500 
L 2356 3053 
L 1172 3053 
L 1172 1153 
Q 1172 725 1289 603 
Q 1406 481 1766 481 
L 2356 481 
L 2356 0 
L 1766 0 
Q 1100 0 847 248 
Q 594 497 594 1153 
L 594 3053 
L 172 3053 
L 172 3500 
L 594 3500 
L 594 4494 
L 1172 4494 
z
" transform="scale(0.015625)"/>
       <path id="DejaVuSans-61" d="M 2194 1759 
Q 1497 1759 1228 1600 
Q 959 1441 959 1056 
Q 959 750 1161 570 
Q 1363 391 1709 391 
Q 2188 391 2477 730 
Q 2766 1069 2766 1631 
L 2766 1759 
L 2194 1759 
z
M 3341 1997 
L 3341 0 
L 2766 0 
L 2766 531 
Q 2569 213 2275 61 
Q 1981 -91 1556 -91 
Q 1019 -91 701 211 
Q 384 513 384 1019 
Q 384 1609 779 1909 
Q 1175 2209 1959 2209 
L 2766 2209 
L 2766 2266 
Q 2766 2663 2505 2880 
Q 2244 3097 1772 3097 
Q 1472 3097 1187 3025 
Q 903 2953 641 2809 
L 641 3341 
Q 956 3463 1253 3523 
Q 1550 3584 1831 3584 
Q 2591 3584 2966 3190 
Q 3341 2797 3341 1997 
z
" transform="scale(0.015625)"/>
       <path id="DejaVuSans-6c" d="M 603 4863 
L 1178 4863 
L 1178 0 
L 603 0 
L 603 4863 
z
" transform="scale(0.015625)"/>
       <path id="DejaVuSans-45" d="M 628 4666 
L 3578 4666 
L 3578 4134 
L 1259 4134 
L 1259 2753 
L 3481 2753 
L 3481 2222 
L 1259 2222 
L 1259 531 
L 3634 531 
L 3634 0 
L 628 0 
L 628 4666 
z
" transform="scale(0.015625)"/>
       <path id="DejaVuSans-6d" d="M 3328 2828 
Q 3544 3216 3844 3400 
Q 4144 3584 4550 3584 
Q 5097 3584 5394 3201 
Q 5691 2819 5691 2113 
L 5691 0 
L 5113 0 
L 5113 2094 
Q 5113 2597 4934 2840 
Q 4756 3084 4391 3084 
Q 3944 3084 3684 2787 
Q 3425 2491 3425 1978 
L 3425 0 
L 2847 0 
L 2847 2094 
Q 2847 2600 2669 2842 
Q 2491 3084 2119 3084 
Q 1678 3084 1418 2786 
Q 1159 2488 1159 1978 
L 1159 0 
L 581 0 
L 581 3500 
L 1159 3500 
L 1159 2956 
Q 1356 3278 1631 3431 
Q 1906 3584 2284 3584 
Q 2666 3584 2933 3390 
Q 3200 3197 3328 2828 
z
" transform="scale(0.015625)"/>
       <path id="DejaVuSans-69" d="M 603 3500 
L 1178 3500 
L 1178 0 
L 603 0 
L 603 3500 
z
M 603 4863 
L 1178 4863 
L 1178 4134 
L 603 4134 
L 603 4863 
z
" transform="scale(0.015625)"/>
       <path id="DejaVuSans-73" d="M 2834 3397 
L 2834 2853 
Q 2591 2978 2328 3040 
Q 2066 3103 1784 3103 
Q 1356 3103 1142 2972 
Q 928 2841 928 2578 
Q 928 2378 1081 2264 
Q 1234 2150 1697 2047 
L 1894 2003 
Q 2506 1872 2764 1633 
Q 3022 1394 3022 966 
Q 3022 478 2636 193 
Q 2250 -91 1575 -91 
Q 1294 -91 989 -36 
Q 684 19 347 128 
L 347 722 
Q 666 556 975 473 
Q 1284 391 1588 391 
Q 1994 391 2212 530 
Q 2431 669 2431 922 
Q 2431 1156 2273 1281 
Q 2116 1406 1581 1522 
L 1381 1569 
Q 847 1681 609 1914 
Q 372 2147 372 2553 
Q 372 3047 722 3315 
Q 1072 3584 1716 3584 
Q 2034 3584 2315 3537 
Q 2597 3491 2834 3397 
z
" transform="scale(0.015625)"/>
       <path id="DejaVuSans-6e" d="M 3513 2113 
L 3513 0 
L 2938 0 
L 2938 2094 
Q 2938 2591 2744 2837 
Q 2550 3084 2163 3084 
Q 1697 3084 1428 2787 
Q 1159 2491 1159 1978 
L 1159 0 
L 581 0 
L 581 3500 
L 1159 3500 
L 1159 2956 
Q 1366 3272 1645 3428 
Q 1925 3584 2291 3584 
Q 2894 3584 3203 3211 
Q 3513 2838 3513 2113 
z
" transform="scale(0.015625)"/>
       <path id="DejaVuSans-28" d="M 1984 4856 
Q 1566 4138 1362 3434 
Q 1159 2731 1159 2009 
Q 1159 1288 1364 580 
Q 1569 -128 1984 -844 
L 1484 -844 
Q 1016 -109 783 600 
Q 550 1309 550 2009 
Q 550 2706 781 3412 
Q 1013 4119 1484 4856 
L 1984 4856 
z
" transform="scale(0.015625)"/>
       <path id="DejaVuSans-67" d="M 2906 1791 
Q 2906 2416 2648 2759 
Q 2391 3103 1925 3103 
Q 1463 3103 1205 2759 
Q 947 2416 947 1791 
Q 947 1169 1205 825 
Q 1463 481 1925 481 
Q 2391 481 2648 825 
Q 2906 1169 2906 1791 
z
M 3481 434 
Q 3481 -459 3084 -895 
Q 2688 -1331 1869 -1331 
Q 1566 -1331 1297 -1286 
Q 1028 -1241 775 -1147 
L 775 -588 
Q 1028 -725 1275 -790 
Q 1522 -856 1778 -856 
Q 2344 -856 2625 -561 
Q 2906 -266 2906 331 
L 2906 616 
Q 2728 306 2450 153 
Q 2172 0 1784 0 
Q 1141 0 747 490 
Q 353 981 353 1791 
Q 353 2603 747 3093 
Q 1141 3584 1784 3584 
Q 2172 3584 2450 3431 
Q 2728 3278 2906 2969 
L 2906 3500 
L 3481 3500 
L 3481 434 
z
" transform="scale(0.015625)"/>
       <path id="DejaVuSans-66" d="M 2375 4863 
L 2375 4384 
L 1825 4384 
Q 1516 4384 1395 4259 
Q 1275 4134 1275 3809 
L 1275 3500 
L 2222 3500 
L 2222 3053 
L 1275 3053 
L 1275 0 
L 697 0 
L 697 3053 
L 147 3053 
L 147 3500 
L 697 3500 
L 697 3744 
Q 697 4328 969 4595 
Q 1241 4863 1831 4863 
L 2375 4863 
z
" transform="scale(0.015625)"/>
       <path id="DejaVuSans-Oblique-43" d="M 4447 4306 
L 4319 3641 
Q 4019 3944 3683 4091 
Q 3347 4238 2956 4238 
Q 2422 4238 2017 3981 
Q 1613 3725 1319 3200 
Q 1131 2863 1032 2486 
Q 934 2109 934 1728 
Q 934 1091 1264 756 
Q 1594 422 2222 422 
Q 2656 422 3056 561 
Q 3456 700 3834 978 
L 3688 231 
Q 3316 72 2936 -9 
Q 2556 -91 2175 -91 
Q 1278 -91 773 396 
Q 269 884 269 1753 
Q 269 2309 461 2846 
Q 653 3384 1013 3828 
Q 1394 4300 1883 4525 
Q 2372 4750 3022 4750 
Q 3422 4750 3780 4639 
Q 4138 4528 4447 4306 
z
" transform="scale(0.015625)"/>
       <path id="DejaVuSans-Oblique-4f" d="M 2919 4238 
Q 2400 4238 2003 3986 
Q 1606 3734 1313 3219 
Q 1125 2891 1026 2522 
Q 928 2153 928 1778 
Q 928 1128 1239 775 
Q 1550 422 2119 422 
Q 2631 422 3032 676 
Q 3434 931 3719 1434 
Q 3909 1772 4009 2142 
Q 4109 2513 4109 2881 
Q 4109 3528 3796 3883 
Q 3484 4238 2919 4238 
z
M 2100 -91 
Q 1241 -91 748 418 
Q 256 928 256 1813 
Q 256 2319 448 2847 
Q 641 3375 978 3788 
Q 1375 4272 1862 4511 
Q 2350 4750 2938 4750 
Q 3794 4750 4287 4245 
Q 4781 3741 4781 2869 
Q 4781 2331 4593 1812 
Q 4406 1294 4056 872 
Q 3656 384 3173 146 
Q 2691 -91 2100 -91 
z
" transform="scale(0.015625)"/>
       <path id="DejaVuSans-29" d="M 513 4856 
L 1013 4856 
Q 1481 4119 1714 3412 
Q 1947 2706 1947 2009 
Q 1947 1309 1714 600 
Q 1481 -109 1013 -844 
L 513 -844 
Q 928 -128 1133 580 
Q 1338 1288 1338 2009 
Q 1338 2731 1133 3434 
Q 928 4138 513 4856 
z
" transform="scale(0.015625)"/>
      </defs>
      <use xlink:href="#DejaVuSans-54" transform="translate(0 0.015625)"/>
      <use xlink:href="#DejaVuSans-6f" transform="translate(61.083984 0.015625)"/>
      <use xlink:href="#DejaVuSans-74" transform="translate(122.265625 0.015625)"/>
      <use xlink:href="#DejaVuSans-61" transform="translate(161.474609 0.015625)"/>
      <use xlink:href="#DejaVuSans-6c" transform="translate(222.753906 0.015625)"/>
      <use xlink:href="#DejaVuSans-20" transform="translate(250.537109 0.015625)"/>
      <use xlink:href="#DejaVuSans-45" transform="translate(282.324219 0.015625)"/>
      <use xlink:href="#DejaVuSans-6d" transform="translate(345.507812 0.015625)"/>
      <use xlink:href="#DejaVuSans-69" transform="translate(442.919922 0.015625)"/>
      <use xlink:href="#DejaVuSans-73" transform="translate(470.703125 0.015625)"/>
      <use xlink:href="#DejaVuSans-73" transform="translate(522.802734 0.015625)"/>
      <use xlink:href="#DejaVuSans-69" transform="translate(574.902344 0.015625)"/>
      <use xlink:href="#DejaVuSans-6f" transform="translate(602.685547 0.015625)"/>
      <use xlink:href="#DejaVuSans-6e" transform="translate(663.867188 0.015625)"/>
      <use xlink:href="#DejaVuSans-73" transform="translate(727.246094 0.015625)"/>
      <use xlink:href="#DejaVuSans-20" transform="translate(779.345703 0.015625)"/>
      <use xlink:href="#DejaVuSans-28" transform="translate(811.132812 0.015625)"/>
      <use xlink:href="#DejaVuSans-67" transform="translate(850.146484 0.015625)"/>
      <use xlink:href="#DejaVuSans-20" transform="translate(913.623047 0.015625)"/>
      <use xlink:href="#DejaVuSans-6f" transform="translate(945.410156 0.015625)"/>
      <use xlink:href="#DejaVuSans-66" transform="translate(1006.591797 0.015625)"/>
      <use xlink:href="#DejaVuSans-20" transform="translate(1041.796875 0.015625)"/>
      <use xlink:href="#DejaVuSans-Oblique-43" transform="translate(1073.583984 0.015625)"/>
      <use xlink:href="#DejaVuSans-Oblique-4f" transform="translate(1143.408203 0.015625)"/>
      <use xlink:href="#DejaVuSans-32" transform="translate(1222.119141 -16.390625) scale(0.7)"/>
      <use xlink:href="#DejaVuSans-29" transform="translate(1269.389648 0.015625)"/>
     </g>
    </g>
   </g>
   <g id="patch_3">
    <path d="M 53.35 385.478125 
L 53.35 22.318125 
" style="fill: none; stroke: #000000; stroke-width: 0.8; stroke-linejoin: miter; stroke-linecap: square"/>
   </g>
   <g id="patch_4">
    <path d="M 702.5 385.478125 
L 702.5 22.318125 
" style="fill: none; stroke: #000000; stroke-width: 0.8; stroke-linejoin: miter; stroke-linecap: square"/>
   </g>
   <g id="patch_5">
    <path d="M 53.35 385.478125 
L 702.5 385.478125 
" style="fill: none; stroke: #000000; stroke-width: 0.8; stroke-linejoin: miter; stroke-linecap: square"/>
   </g>
   <g id="patch_6">
    <path d="M 53.35 22.318125 
L 702.5 22.318125 
" style="fill: none; stroke: #000000; stroke-width: 0.8; stroke-linejoin: miter; stroke-linecap: square"/>
   </g>
   <g id="text_16">
    <!-- HotpotQA: Emissions vs F1 Score -->
    <g transform="translate(278.6175 16.318125) scale(0.12 -0.12)">
     <defs>
      <path id="DejaVuSans-48" d="M 628 4666 
L 1259 4666 
L 1259 2753 
L 3553 2753 
L 3553 4666 
L 4184 4666 
L 4184 0 
L 3553 0 
L 3553 2222 
L 1259 2222 
L 1259 0 
L 628 0 
L 628 4666 
z
" transform="scale(0.015625)"/>
      <path id="DejaVuSans-70" d="M 1159 525 
L 1159 -1331 
L 581 -1331 
L 581 3500 
L 1159 3500 
L 1159 2969 
Q 1341 3281 1617 3432 
Q 1894 3584 2278 3584 
Q 2916 3584 3314 3078 
Q 3713 2572 3713 1747 
Q 3713 922 3314 415 
Q 2916 -91 2278 -91 
Q 1894 -91 1617 61 
Q 1341 213 1159 525 
z
M 3116 1747 
Q 3116 2381 2855 2742 
Q 2594 3103 2138 3103 
Q 1681 3103 1420 2742 
Q 1159 2381 1159 1747 
Q 1159 1113 1420 752 
Q 1681 391 2138 391 
Q 2594 391 2855 752 
Q 3116 1113 3116 1747 
z
" transform="scale(0.015625)"/>
      <path id="DejaVuSans-51" d="M 2522 4238 
Q 1834 4238 1429 3725 
Q 1025 3213 1025 2328 
Q 1025 1447 1429 934 
Q 1834 422 2522 422 
Q 3209 422 3611 934 
Q 4013 1447 4013 2328 
Q 4013 3213 3611 3725 
Q 3209 4238 2522 4238 
z
M 3406 84 
L 4238 -825 
L 3475 -825 
L 2784 -78 
Q 2681 -84 2626 -87 
Q 2572 -91 2522 -91 
Q 1538 -91 948 567 
Q 359 1225 359 2328 
Q 359 3434 948 4092 
Q 1538 4750 2522 4750 
Q 3503 4750 4090 4092 
Q 4678 3434 4678 2328 
Q 4678 1516 4351 937 
Q 4025 359 3406 84 
z
" transform="scale(0.015625)"/>
      <path id="DejaVuSans-41" d="M 2188 4044 
L 1331 1722 
L 3047 1722 
L 2188 4044 
z
M 1831 4666 
L 2547 4666 
L 4325 0 
L 3669 0 
L 3244 1197 
L 1141 1197 
L 716 0 
L 50 0 
L 1831 4666 
z
" transform="scale(0.015625)"/>
      <path id="DejaVuSans-3a" d="M 750 794 
L 1409 794 
L 1409 0 
L 750 0 
L 750 794 
z
M 750 3309 
L 1409 3309 
L 1409 2516 
L 750 2516 
L 750 3309 
z
" transform="scale(0.015625)"/>
      <path id="DejaVuSans-76" d="M 191 3500 
L 800 3500 
L 1894 563 
L 2988 3500 
L 3597 3500 
L 2284 0 
L 1503 0 
L 191 3500 
z
" transform="scale(0.015625)"/>
     </defs>
     <use xlink:href="#DejaVuSans-48"/>
     <use xlink:href="#DejaVuSans-6f" transform="translate(75.195312 0)"/>
     <use xlink:href="#DejaVuSans-74" transform="translate(136.376953 0)"/>
     <use xlink:href="#DejaVuSans-70" transform="translate(175.585938 0)"/>
     <use xlink:href="#DejaVuSans-6f" transform="translate(239.0625 0)"/>
     <use xlink:href="#DejaVuSans-74" transform="translate(300.244141 0)"/>
     <use xlink:href="#DejaVuSans-51" transform="translate(339.453125 0)"/>
     <use xlink:href="#DejaVuSans-41" transform="translate(418.164062 0)"/>
     <use xlink:href="#DejaVuSans-3a" transform="translate(484.822266 0)"/>
     <use xlink:href="#DejaVuSans-20" transform="translate(518.513672 0)"/>
     <use xlink:href="#DejaVuSans-45" transform="translate(550.300781 0)"/>
     <use xlink:href="#DejaVuSans-6d" transform="translate(613.484375 0)"/>
     <use xlink:href="#DejaVuSans-69" transform="translate(710.896484 0)"/>
     <use xlink:href="#DejaVuSans-73" transform="translate(738.679688 0)"/>
     <use xlink:href="#DejaVuSans-73" transform="translate(790.779297 0)"/>
     <use xlink:href="#DejaVuSans-69" transform="translate(842.878906 0)"/>
     <use xlink:href="#DejaVuSans-6f" transform="translate(870.662109 0)"/>
     <use xlink:href="#DejaVuSans-6e" transform="translate(931.84375 0)"/>
     <use xlink:href="#DejaVuSans-73" transform="translate(995.222656 0)"/>
     <use xlink:href="#DejaVuSans-20" transform="translate(1047.322266 0)"/>
     <use xlink:href="#DejaVuSans-76" transform="translate(1079.109375 0)"/>
     <use xlink:href="#DejaVuSans-73" transform="translate(1138.289062 0)"/>
     <use xlink:href="#DejaVuSans-20" transform="translate(1190.388672 0)"/>
     <use xlink:href="#DejaVuSans-46" transform="translate(1222.175781 0)"/>
     <use xlink:href="#DejaVuSans-31" transform="translate(1279.695312 0)"/>
     <use xlink:href="#DejaVuSans-20" transform="translate(1343.318359 0)"/>
     <use xlink:href="#DejaVuSans-53" transform="translate(1375.105469 0)"/>
     <use xlink:href="#DejaVuSans-63" transform="translate(1438.582031 0)"/>
     <use xlink:href="#DejaVuSans-6f" transform="translate(1493.5625 0)"/>
     <use xlink:href="#DejaVuSans-72" transform="translate(1554.744141 0)"/>
     <use xlink:href="#DejaVuSans-65" transform="translate(1593.607422 0)"/>
    </g>
   </g>
   <g id="legend_1">
    <g id="patch_7">
     <path d="M 539.007812 59.674375 
L 695.5 59.674375 
Q 697.5 59.674375 697.5 57.674375 
L 697.5 29.318125 
Q 697.5 27.318125 695.5 27.318125 
L 539.007812 27.318125 
Q 537.007812 27.318125 537.007812 29.318125 
L 537.007812 57.674375 
Q 537.007812 59.674375 539.007812 59.674375 
z
" style="fill: #ffffff; opacity: 0.8; stroke: #cccccc; stroke-linejoin: miter"/>
    </g>
    <g id="PathCollection_3">
     <defs>
      <path id="maf4b67f0cb" d="M 0 8.580501 
C 2.275576 8.580501 4.458256 7.676405 6.067331 6.067331 
C 7.676405 4.458256 8.580501 2.275576 8.580501 0 
C 8.580501 -2.275576 7.676405 -4.458256 6.067331 -6.067331 
C 4.458256 -7.676405 2.275576 -8.580501 0 -8.580501 
C -2.275576 -8.580501 -4.458256 -7.676405 -6.067331 -6.067331 
C -7.676405 -4.458256 -8.580501 -2.275576 -8.580501 0 
C -8.580501 2.275576 -7.676405 4.458256 -6.067331 6.067331 
C -4.458256 7.676405 -2.275576 8.580501 0 8.580501 
z
" style="stroke: #1f77b4; stroke-opacity: 0.7"/>
     </defs>
     <g>
      <use xlink:href="#maf4b67f0cb" x="551.007812" y="36.291562" style="fill: #1f77b4; fill-opacity: 0.7; stroke: #1f77b4; stroke-opacity: 0.7"/>
     </g>
    </g>
    <g id="text_17">
     <!-- Base Model (No Context) -->
     <g transform="translate(569.007812 38.916562) scale(0.1 -0.1)">
      <defs>
       <path id="DejaVuSans-42" d="M 1259 2228 
L 1259 519 
L 2272 519 
Q 2781 519 3026 730 
Q 3272 941 3272 1375 
Q 3272 1813 3026 2020 
Q 2781 2228 2272 2228 
L 1259 2228 
z
M 1259 4147 
L 1259 2741 
L 2194 2741 
Q 2656 2741 2882 2914 
Q 3109 3088 3109 3444 
Q 3109 3797 2882 3972 
Q 2656 4147 2194 4147 
L 1259 4147 
z
M 628 4666 
L 2241 4666 
Q 2963 4666 3353 4366 
Q 3744 4066 3744 3513 
Q 3744 3084 3544 2831 
Q 3344 2578 2956 2516 
Q 3422 2416 3680 2098 
Q 3938 1781 3938 1306 
Q 3938 681 3513 340 
Q 3088 0 2303 0 
L 628 0 
L 628 4666 
z
" transform="scale(0.015625)"/>
       <path id="DejaVuSans-4d" d="M 628 4666 
L 1569 4666 
L 2759 1491 
L 3956 4666 
L 4897 4666 
L 4897 0 
L 4281 0 
L 4281 4097 
L 3078 897 
L 2444 897 
L 1241 4097 
L 1241 0 
L 628 0 
L 628 4666 
z
" transform="scale(0.015625)"/>
       <path id="DejaVuSans-64" d="M 2906 2969 
L 2906 4863 
L 3481 4863 
L 3481 0 
L 2906 0 
L 2906 525 
Q 2725 213 2448 61 
Q 2172 -91 1784 -91 
Q 1150 -91 751 415 
Q 353 922 353 1747 
Q 353 2572 751 3078 
Q 1150 3584 1784 3584 
Q 2172 3584 2448 3432 
Q 2725 3281 2906 2969 
z
M 947 1747 
Q 947 1113 1208 752 
Q 1469 391 1925 391 
Q 2381 391 2643 752 
Q 2906 1113 2906 1747 
Q 2906 2381 2643 2742 
Q 2381 3103 1925 3103 
Q 1469 3103 1208 2742 
Q 947 2381 947 1747 
z
" transform="scale(0.015625)"/>
       <path id="DejaVuSans-4e" d="M 628 4666 
L 1478 4666 
L 3547 763 
L 3547 4666 
L 4159 4666 
L 4159 0 
L 3309 0 
L 1241 3903 
L 1241 0 
L 628 0 
L 628 4666 
z
" transform="scale(0.015625)"/>
       <path id="DejaVuSans-43" d="M 4122 4306 
L 4122 3641 
Q 3803 3938 3442 4084 
Q 3081 4231 2675 4231 
Q 1875 4231 1450 3742 
Q 1025 3253 1025 2328 
Q 1025 1406 1450 917 
Q 1875 428 2675 428 
Q 3081 428 3442 575 
Q 3803 722 4122 1019 
L 4122 359 
Q 3791 134 3420 21 
Q 3050 -91 2638 -91 
Q 1578 -91 968 557 
Q 359 1206 359 2328 
Q 359 3453 968 4101 
Q 1578 4750 2638 4750 
Q 3056 4750 3426 4639 
Q 3797 4528 4122 4306 
z
" transform="scale(0.015625)"/>
       <path id="DejaVuSans-78" d="M 3513 3500 
L 2247 1797 
L 3578 0 
L 2900 0 
L 1881 1375 
L 863 0 
L 184 0 
L 1544 1831 
L 300 3500 
L 978 3500 
L 1906 2253 
L 2834 3500 
L 3513 3500 
z
" transform="scale(0.015625)"/>
      </defs>
      <use xlink:href="#DejaVuSans-42"/>
      <use xlink:href="#DejaVuSans-61" transform="translate(68.603516 0)"/>
      <use xlink:href="#DejaVuSans-73" transform="translate(129.882812 0)"/>
      <use xlink:href="#DejaVuSans-65" transform="translate(181.982422 0)"/>
      <use xlink:href="#DejaVuSans-20" transform="translate(243.505859 0)"/>
      <use xlink:href="#DejaVuSans-4d" transform="translate(275.292969 0)"/>
      <use xlink:href="#DejaVuSans-6f" transform="translate(361.572266 0)"/>
      <use xlink:href="#DejaVuSans-64" transform="translate(422.753906 0)"/>
      <use xlink:href="#DejaVuSans-65" transform="translate(486.230469 0)"/>
      <use xlink:href="#DejaVuSans-6c" transform="translate(547.753906 0)"/>
      <use xlink:href="#DejaVuSans-20" transform="translate(575.537109 0)"/>
      <use xlink:href="#DejaVuSans-28" transform="translate(607.324219 0)"/>
      <use xlink:href="#DejaVuSans-4e" transform="translate(646.337891 0)"/>
      <use xlink:href="#DejaVuSans-6f" transform="translate(721.142578 0)"/>
      <use xlink:href="#DejaVuSans-20" transform="translate(782.324219 0)"/>
      <use xlink:href="#DejaVuSans-43" transform="translate(814.111328 0)"/>
      <use xlink:href="#DejaVuSans-6f" transform="translate(883.935547 0)"/>
      <use xlink:href="#DejaVuSans-6e" transform="translate(945.117188 0)"/>
      <use xlink:href="#DejaVuSans-74" transform="translate(1008.496094 0)"/>
      <use xlink:href="#DejaVuSans-65" transform="translate(1047.705078 0)"/>
      <use xlink:href="#DejaVuSans-78" transform="translate(1107.478516 0)"/>
      <use xlink:href="#DejaVuSans-74" transform="translate(1166.658203 0)"/>
      <use xlink:href="#DejaVuSans-29" transform="translate(1205.867188 0)"/>
     </g>
    </g>
    <g id="PathCollection_4">
     <defs>
      <path id="me8c8937843" d="M -6.314665 6.314665 
L 6.314665 6.314665 
L 6.314665 -6.314665 
L -6.314665 -6.314665 
z
" style="stroke: #ff7f0e; stroke-opacity: 0.7"/>
     </defs>
     <g>
      <use xlink:href="#me8c8937843" x="551.007812" y="50.969687" style="fill: #ff7f0e; fill-opacity: 0.7; stroke: #ff7f0e; stroke-opacity: 0.7"/>
     </g>
    </g>
    <g id="text_18">
     <!-- GS (Context Used) -->
     <g transform="translate(569.007812 53.594687) scale(0.1 -0.1)">
      <defs>
       <path id="DejaVuSans-47" d="M 3809 666 
L 3809 1919 
L 2778 1919 
L 2778 2438 
L 4434 2438 
L 4434 434 
Q 4069 175 3628 42 
Q 3188 -91 2688 -91 
Q 1594 -91 976 548 
Q 359 1188 359 2328 
Q 359 3472 976 4111 
Q 1594 4750 2688 4750 
Q 3144 4750 3555 4637 
Q 3966 4525 4313 4306 
L 4313 3634 
Q 3963 3931 3569 4081 
Q 3175 4231 2741 4231 
Q 1884 4231 1454 3753 
Q 1025 3275 1025 2328 
Q 1025 1384 1454 906 
Q 1884 428 2741 428 
Q 3075 428 3337 486 
Q 3600 544 3809 666 
z
" transform="scale(0.015625)"/>
       <path id="DejaVuSans-55" d="M 556 4666 
L 1191 4666 
L 1191 1831 
Q 1191 1081 1462 751 
Q 1734 422 2344 422 
Q 2950 422 3222 751 
Q 3494 1081 3494 1831 
L 3494 4666 
L 4128 4666 
L 4128 1753 
Q 4128 841 3676 375 
Q 3225 -91 2344 -91 
Q 1459 -91 1007 375 
Q 556 841 556 1753 
L 556 4666 
z
" transform="scale(0.015625)"/>
      </defs>
      <use xlink:href="#DejaVuSans-47"/>
      <use xlink:href="#DejaVuSans-53" transform="translate(77.490234 0)"/>
      <use xlink:href="#DejaVuSans-20" transform="translate(140.966797 0)"/>
      <use xlink:href="#DejaVuSans-28" transform="translate(172.753906 0)"/>
      <use xlink:href="#DejaVuSans-43" transform="translate(211.767578 0)"/>
      <use xlink:href="#DejaVuSans-6f" transform="translate(281.591797 0)"/>
      <use xlink:href="#DejaVuSans-6e" transform="translate(342.773438 0)"/>
      <use xlink:href="#DejaVuSans-74" transform="translate(406.152344 0)"/>
      <use xlink:href="#DejaVuSans-65" transform="translate(445.361328 0)"/>
      <use xlink:href="#DejaVuSans-78" transform="translate(505.134766 0)"/>
      <use xlink:href="#DejaVuSans-74" transform="translate(564.314453 0)"/>
      <use xlink:href="#DejaVuSans-20" transform="translate(603.523438 0)"/>
      <use xlink:href="#DejaVuSans-55" transform="translate(635.310547 0)"/>
      <use xlink:href="#DejaVuSans-73" transform="translate(708.503906 0)"/>
      <use xlink:href="#DejaVuSans-65" transform="translate(760.603516 0)"/>
      <use xlink:href="#DejaVuSans-64" transform="translate(822.126953 0)"/>
      <use xlink:href="#DejaVuSans-29" transform="translate(885.603516 0)"/>
     </g>
    </g>
   </g>
  </g>
 </g>
 <defs>
  <clipPath id="p3e06b40abc">
   <rect x="53.35" y="22.318125" width="649.15" height="363.16"/>
  </clipPath>
 </defs>
</svg>
