<?xml version="1.0" encoding="utf-8" standalone="no"?>
<!DOCTYPE svg PUBLIC "-//W3C//DTD SVG 1.1//EN"
  "http://www.w3.org/Graphics/SVG/1.1/DTD/svg11.dtd">
<svg xmlns:xlink="http://www.w3.org/1999/xlink" width="709.7pt" height="423.034375pt" viewBox="0 0 709.7 423.034375" xmlns="http://www.w3.org/2000/svg" version="1.1">
 <metadata>
  <rdf:RDF xmlns:dc="http://purl.org/dc/elements/1.1/" xmlns:cc="http://creativecommons.org/ns#" xmlns:rdf="http://www.w3.org/1999/02/22-rdf-syntax-ns#">
   <cc:Work>
    <dc:type rdf:resource="http://purl.org/dc/dcmitype/StillImage"/>
    <dc:date>2026-01-11T14:25:35.819590</dc:date>
    <dc:format>image/svg+xml</dc:format>
    <dc:creator>
     <cc:Agent>
      <dc:title>Matplotlib v3.10.7, https://matplotlib.org/</dc:title>
     </cc:Agent>
    </dc:creator>
   </cc:Work>
  </rdf:RDF>
 </metadata>
 <defs>
  <style type="text/css">*{stroke-linejoin: round; stroke-linecap: butt}</style>
 </defs>
 <g id="figure_1">
  <g id="patch_1">
   <path d="M 0 423.034375 
L 709.7 423.034375 
L 709.7 0 
L 0 0 
z
" style="fill: #ffffff"/>
  </g>
  <g id="axes_1">
   <g id="patch_2">
    <path d="M 53.35 385.478125 
L 702.5 385.478125 
L 702.5 22.318125 
L 53.35 22.318125 
z
" style="fill: #ffffff"/>
   </g>
   <g id="PathCollection_1">
    <path d="M 82.856818 369.761803 
C 83.87535 369.761803 84.852303 369.357136 85.572513 368.636925 
C 86.292724 367.916714 86.697391 366.939762 86.697391 365.92123 
C 86.697391 364.902698 86.292724 363.925746 85.572513 363.205535 
C 84.852303 362.485324 83.87535 362.080657 82.856818 362.080657 
C 81.838286 362.080657 80.861334 362.485324 80.141123 363.205535 
C 79.420912 363.925746 79.016245 364.902698 79.016245 365.92123 
C 79.016245 366.939762 79.420912 367.916714 80.141123 368.636925 
C 80.861334 369.357136 81.838286 369.761803 82.856818 369.761803 
z
" clip-path="url(#p4a0e524d72)" style="fill: #1f77b4; fill-opacity: 0.7; stroke: #1f77b4; stroke-opacity: 0.7"/>
    <path d="M 95.56533 359.977859 
C 96.583862 359.977859 97.560814 359.573192 98.281025 358.852981 
C 99.001236 358.13277 99.405903 357.155818 99.405903 356.137286 
C 99.405903 355.118754 99.001236 354.141801 98.281025 353.421591 
C 97.560814 352.70138 96.583862 352.296713 95.56533 352.296713 
C 94.546798 352.296713 93.569845 352.70138 92.849635 353.421591 
C 92.129424 354.141801 91.724757 355.118754 91.724757 356.137286 
C 91.724757 357.155818 92.129424 358.13277 92.849635 358.852981 
C 93.569845 359.573192 94.546798 359.977859 95.56533 359.977859 
z
" clip-path="url(#p4a0e524d72)" style="fill: #1f77b4; fill-opacity: 0.7; stroke: #1f77b4; stroke-opacity: 0.7"/>
    <path d="M 150.91578 373.315389 
C 152.067965 373.315389 153.173114 372.857621 153.987831 372.042904 
C 154.802549 371.228186 155.260317 370.123037 155.260317 368.970852 
C 155.260317 367.818668 154.802549 366.713518 153.987831 365.898801 
C 153.173114 365.084083 152.067965 364.626315 150.91578 364.626315 
C 149.763595 364.626315 148.658446 365.084083 147.843729 365.898801 
C 147.029011 366.713518 146.571243 367.818668 146.571243 368.970852 
C 146.571243 370.123037 147.029011 371.228186 147.843729 372.042904 
C 148.658446 372.857621 149.763595 373.315389 150.91578 373.315389 
z
" clip-path="url(#p4a0e524d72)" style="fill: #1f77b4; fill-opacity: 0.7; stroke: #1f77b4; stroke-opacity: 0.7"/>
    <path d="M 191.296934 359.720959 
C 192.449119 359.720959 193.554268 359.263191 194.368985 358.448474 
C 195.183703 357.633756 195.641471 356.528607 195.641471 355.376422 
C 195.641471 354.224238 195.183703 353.119088 194.368985 352.304371 
C 193.554268 351.489653 192.449119 351.031885 191.296934 351.031885 
C 190.144749 351.031885 189.0396 351.489653 188.224882 352.304371 
C 187.410165 353.119088 186.952397 354.224238 186.952397 355.376422 
C 186.952397 356.528607 187.410165 357.633756 188.224882 358.448474 
C 189.0396 359.263191 190.144749 359.720959 191.296934 359.720959 
z
" clip-path="url(#p4a0e524d72)" style="fill: #1f77b4; fill-opacity: 0.7; stroke: #1f77b4; stroke-opacity: 0.7"/>
    <path d="M 298.128999 337.456584 
C 299.519736 337.456584 300.853699 336.904038 301.837099 335.920639 
C 302.820498 334.93724 303.373044 333.603276 303.373044 332.21254 
C 303.373044 330.821803 302.820498 329.48784 301.837099 328.50444 
C 300.853699 327.521041 299.519736 326.968495 298.128999 326.968495 
C 296.738263 326.968495 295.4043 327.521041 294.4209 328.50444 
C 293.437501 329.48784 292.884955 330.821803 292.884955 332.21254 
C 292.884955 333.603276 293.437501 334.93724 294.4209 335.920639 
C 295.4043 336.904038 296.738263 337.456584 298.128999 337.456584 
z
" clip-path="url(#p4a0e524d72)" style="fill: #1f77b4; fill-opacity: 0.7; stroke: #1f77b4; stroke-opacity: 0.7"/>
    <path d="M 290.84465 336.154243 
C 292.235387 336.154243 293.56935 335.601698 294.55275 334.618298 
C 295.536149 333.634899 296.088695 332.300936 296.088695 330.910199 
C 296.088695 329.519462 295.536149 328.185499 294.55275 327.2021 
C 293.56935 326.218701 292.235387 325.666155 290.84465 325.666155 
C 289.453914 325.666155 288.11995 326.218701 287.136551 327.2021 
C 286.153152 328.185499 285.600606 329.519462 285.600606 330.910199 
C 285.600606 332.300936 286.153152 333.634899 287.136551 334.618298 
C 288.11995 335.601698 289.453914 336.154243 290.84465 336.154243 
z
" clip-path="url(#p4a0e524d72)" style="fill: #1f77b4; fill-opacity: 0.7; stroke: #1f77b4; stroke-opacity: 0.7"/>
    <path d="M 205.994662 373.308044 
C 207.723574 373.308044 209.381908 372.62114 210.604434 371.398614 
C 211.82696 370.176088 212.513864 368.517754 212.513864 366.788842 
C 212.513864 365.059929 211.82696 363.401595 210.604434 362.179069 
C 209.381908 360.956544 207.723574 360.269639 205.994662 360.269639 
C 204.265749 360.269639 202.607415 360.956544 201.384889 362.179069 
C 200.162364 363.401595 199.475459 365.059929 199.475459 366.788842 
C 199.475459 368.517754 200.162364 370.176088 201.384889 371.398614 
C 202.607415 372.62114 204.265749 373.308044 205.994662 373.308044 
z
" clip-path="url(#p4a0e524d72)" style="fill: #1f77b4; fill-opacity: 0.7; stroke: #1f77b4; stroke-opacity: 0.7"/>
    <path d="M 217.31965 288.531189 
C 219.048563 288.531189 220.706897 287.844285 221.929423 286.621759 
C 223.151949 285.399233 223.838853 283.7409 223.838853 282.011987 
C 223.838853 280.283074 223.151949 278.624741 221.929423 277.402215 
C 220.706897 276.179689 219.048563 275.492785 217.31965 275.492785 
C 215.590738 275.492785 213.932404 276.179689 212.709878 277.402215 
C 211.487352 278.624741 210.800448 280.283074 210.800448 282.011987 
C 210.800448 283.7409 211.487352 285.399233 212.709878 286.621759 
C 213.932404 287.844285 215.590738 288.531189 217.31965 288.531189 
z
" clip-path="url(#p4a0e524d72)" style="fill: #1f77b4; fill-opacity: 0.7; stroke: #1f77b4; stroke-opacity: 0.7"/>
    <path d="M 221.613866 374.002051 
C 223.752002 374.002051 225.802853 373.152561 227.314743 371.640671 
C 228.826633 370.12878 229.676124 368.077929 229.676124 365.939794 
C 229.676124 363.801658 228.826633 361.750807 227.314743 360.238917 
C 225.802853 358.727026 223.752002 357.877536 221.613866 357.877536 
C 219.47573 357.877536 217.424879 358.727026 215.912989 360.238917 
C 214.401099 361.750807 213.551608 363.801658 213.551608 365.939794 
C 213.551608 368.077929 214.401099 370.12878 215.912989 371.640671 
C 217.424879 373.152561 219.47573 374.002051 221.613866 374.002051 
z
" clip-path="url(#p4a0e524d72)" style="fill: #1f77b4; fill-opacity: 0.7; stroke: #1f77b4; stroke-opacity: 0.7"/>
    <path d="M 292.365216 286.752266 
C 294.503352 286.752266 296.554203 285.902775 298.066093 284.390885 
C 299.577984 282.878995 300.427474 280.828144 300.427474 278.690008 
C 300.427474 276.551872 299.577984 274.501021 298.066093 272.989131 
C 296.554203 271.47724 294.503352 270.62775 292.365216 270.62775 
C 290.227081 270.62775 288.17623 271.47724 286.664339 272.989131 
C 285.152449 274.501021 284.302959 276.551872 284.302959 278.690008 
C 284.302959 280.828144 285.152449 282.878995 286.664339 284.390885 
C 288.17623 285.902775 290.227081 286.752266 292.365216 286.752266 
z
" clip-path="url(#p4a0e524d72)" style="fill: #1f77b4; fill-opacity: 0.7; stroke: #1f77b4; stroke-opacity: 0.7"/>
    <path d="M 241.789443 371.714942 
C 244.84216 371.714942 247.770257 370.502085 249.928853 368.343488 
C 252.08745 366.184891 253.300308 363.256795 253.300308 360.204078 
C 253.300308 357.151361 252.08745 354.223264 249.928853 352.064668 
C 247.770257 349.906071 244.84216 348.693213 241.789443 348.693213 
C 238.736726 348.693213 235.80863 349.906071 233.650033 352.064668 
C 231.491436 354.223264 230.278579 357.151361 230.278579 360.204078 
C 230.278579 363.256795 231.491436 366.184891 233.650033 368.343488 
C 235.80863 370.502085 238.736726 371.714942 241.789443 371.714942 
z
" clip-path="url(#p4a0e524d72)" style="fill: #1f77b4; fill-opacity: 0.7; stroke: #1f77b4; stroke-opacity: 0.7"/>
    <path d="M 255.592118 50.336262 
C 258.644835 50.336262 261.572931 49.123405 263.731528 46.964808 
C 265.890125 44.806211 267.102982 41.878115 267.102982 38.825398 
C 267.102982 35.772681 265.890125 32.844584 263.731528 30.685987 
C 261.572931 28.527391 258.644835 27.314533 255.592118 27.314533 
C 252.539401 27.314533 249.611305 28.527391 247.452708 30.685987 
C 245.294111 32.844584 244.081254 35.772681 244.081254 38.825398 
C 244.081254 41.878115 245.294111 44.806211 247.452708 46.964808 
C 249.611305 49.123405 252.539401 50.336262 255.592118 50.336262 
z
" clip-path="url(#p4a0e524d72)" style="fill: #1f77b4; fill-opacity: 0.7; stroke: #1f77b4; stroke-opacity: 0.7"/>
   </g>
   <g id="PathCollection_2">
    <path d="M 425.318133 372.004014 
L 432.999278 372.004014 
L 432.999278 364.322868 
L 425.318133 364.322868 
z
" clip-path="url(#p4a0e524d72)" style="fill: #ff7f0e; fill-opacity: 0.7; stroke: #ff7f0e; stroke-opacity: 0.7"/>
    <path d="M 520.649902 349.436378 
L 528.331048 349.436378 
L 528.331048 341.755232 
L 520.649902 341.755232 
z
" clip-path="url(#p4a0e524d72)" style="fill: #ff7f0e; fill-opacity: 0.7; stroke: #ff7f0e; stroke-opacity: 0.7"/>
    <path d="M 570.393976 372.098781 
L 579.083049 372.098781 
L 579.083049 363.409707 
L 570.393976 363.409707 
z
" clip-path="url(#p4a0e524d72)" style="fill: #ff7f0e; fill-opacity: 0.7; stroke: #ff7f0e; stroke-opacity: 0.7"/>
    <path d="M 609.772144 356.794618 
L 618.461218 356.794618 
L 618.461218 348.105545 
L 609.772144 348.105545 
z
" clip-path="url(#p4a0e524d72)" style="fill: #ff7f0e; fill-opacity: 0.7; stroke: #ff7f0e; stroke-opacity: 0.7"/>
    <path d="M 667.749138 328.23986 
L 678.237226 328.23986 
L 678.237226 317.751771 
L 667.749138 317.751771 
z
" clip-path="url(#p4a0e524d72)" style="fill: #ff7f0e; fill-opacity: 0.7; stroke: #ff7f0e; stroke-opacity: 0.7"/>
    <path d="M 660.379577 335.8391 
L 670.867666 335.8391 
L 670.867666 325.351012 
L 660.379577 325.351012 
z
" clip-path="url(#p4a0e524d72)" style="fill: #ff7f0e; fill-opacity: 0.7; stroke: #ff7f0e; stroke-opacity: 0.7"/>
    <path d="M 600.720057 372.82118 
L 613.758462 372.82118 
L 613.758462 359.782775 
L 600.720057 359.782775 
z
" clip-path="url(#p4a0e524d72)" style="fill: #ff7f0e; fill-opacity: 0.7; stroke: #ff7f0e; stroke-opacity: 0.7"/>
    <path d="M 522.853071 321.952372 
L 535.891476 321.952372 
L 535.891476 308.913967 
L 522.853071 308.913967 
z
" clip-path="url(#p4a0e524d72)" style="fill: #ff7f0e; fill-opacity: 0.7; stroke: #ff7f0e; stroke-opacity: 0.7"/>
    <path d="M 557.683422 372.541549 
L 573.807937 372.541549 
L 573.807937 356.417033 
L 557.683422 356.417033 
z
" clip-path="url(#p4a0e524d72)" style="fill: #ff7f0e; fill-opacity: 0.7; stroke: #ff7f0e; stroke-opacity: 0.7"/>
    <path d="M 596.539603 297.567914 
L 612.664118 297.567914 
L 612.664118 281.443399 
L 596.539603 281.443399 
z
" clip-path="url(#p4a0e524d72)" style="fill: #ff7f0e; fill-opacity: 0.7; stroke: #ff7f0e; stroke-opacity: 0.7"/>
   </g>
   <g id="PathCollection_3">
    <path d="M 278.623003 362.808988 
L 274.78243 370.490134 
L 282.463576 370.490134 
z
" clip-path="url(#p4a0e524d72)" style="fill: #2ca02c; fill-opacity: 0.7; stroke: #2ca02c; stroke-opacity: 0.7"/>
    <path d="M 326.79145 348.909813 
L 322.950877 356.590959 
L 330.632023 356.590959 
z
" clip-path="url(#p4a0e524d72)" style="fill: #2ca02c; fill-opacity: 0.7; stroke: #2ca02c; stroke-opacity: 0.7"/>
    <path d="M 394.565289 359.483403 
L 390.220752 368.172476 
L 398.909826 368.172476 
z
" clip-path="url(#p4a0e524d72)" style="fill: #2ca02c; fill-opacity: 0.7; stroke: #2ca02c; stroke-opacity: 0.7"/>
    <path d="M 409.582792 346.359434 
L 405.238256 355.048508 
L 413.927329 355.048508 
z
" clip-path="url(#p4a0e524d72)" style="fill: #2ca02c; fill-opacity: 0.7; stroke: #2ca02c; stroke-opacity: 0.7"/>
    <path d="M 446.029455 329.804641 
L 440.785411 340.292729 
L 451.2735 340.292729 
z
" clip-path="url(#p4a0e524d72)" style="fill: #2ca02c; fill-opacity: 0.7; stroke: #2ca02c; stroke-opacity: 0.7"/>
    <path d="M 432.112552 329.814385 
L 426.868507 340.302473 
L 437.356596 340.302473 
z
" clip-path="url(#p4a0e524d72)" style="fill: #2ca02c; fill-opacity: 0.7; stroke: #2ca02c; stroke-opacity: 0.7"/>
    <path d="M 419.078039 360.114344 
L 412.558836 373.152749 
L 425.597241 373.152749 
z
" clip-path="url(#p4a0e524d72)" style="fill: #2ca02c; fill-opacity: 0.7; stroke: #2ca02c; stroke-opacity: 0.7"/>
    <path d="M 367.85064 309.798386 
L 361.331438 322.836791 
L 374.369843 322.836791 
z
" clip-path="url(#p4a0e524d72)" style="fill: #2ca02c; fill-opacity: 0.7; stroke: #2ca02c; stroke-opacity: 0.7"/>
    <path d="M 409.500261 357.027773 
L 401.438003 373.152288 
L 417.562518 373.152288 
z
" clip-path="url(#p4a0e524d72)" style="fill: #2ca02c; fill-opacity: 0.7; stroke: #2ca02c; stroke-opacity: 0.7"/>
    <path d="M 423.346991 269.222072 
L 415.284733 285.346587 
L 431.409249 285.346587 
z
" clip-path="url(#p4a0e524d72)" style="fill: #2ca02c; fill-opacity: 0.7; stroke: #2ca02c; stroke-opacity: 0.7"/>
   </g>
   <g id="matplotlib.axis_1">
    <g id="xtick_1">
     <g id="line2d_1">
      <path d="M 115.524213 385.478125 
L 115.524213 22.318125 
" clip-path="url(#p4a0e524d72)" style="fill: none; stroke-dasharray: 2.96,1.28; stroke-dashoffset: 0; stroke: #b0b0b0; stroke-opacity: 0.6; stroke-width: 0.8"/>
     </g>
     <g id="line2d_2">
      <defs>
       <path id="m44701b2a37" d="M 0 0 
L 0 3.5 
" style="stroke: #000000; stroke-width: 0.8"/>
      </defs>
      <g>
       <use xlink:href="#m44701b2a37" x="115.524213" y="385.478125" style="stroke: #000000; stroke-width: 0.8"/>
      </g>
     </g>
     <g id="text_1">
      <!-- 0.1 -->
      <g transform="translate(107.57265 400.076562) scale(0.1 -0.1)">
       <defs>
        <path id="DejaVuSans-30" d="M 2034 4250 
Q 1547 4250 1301 3770 
Q 1056 3291 1056 2328 
Q 1056 1369 1301 889 
Q 1547 409 2034 409 
Q 2525 409 2770 889 
Q 3016 1369 3016 2328 
Q 3016 3291 2770 3770 
Q 2525 4250 2034 4250 
z
M 2034 4750 
Q 2819 4750 3233 4129 
Q 3647 3509 3647 2328 
Q 3647 1150 3233 529 
Q 2819 -91 2034 -91 
Q 1250 -91 836 529 
Q 422 1150 422 2328 
Q 422 3509 836 4129 
Q 1250 4750 2034 4750 
z
" transform="scale(0.015625)"/>
        <path id="DejaVuSans-2e" d="M 684 794 
L 1344 794 
L 1344 0 
L 684 0 
L 684 794 
z
" transform="scale(0.015625)"/>
        <path id="DejaVuSans-31" d="M 794 531 
L 1825 531 
L 1825 4091 
L 703 3866 
L 703 4441 
L 1819 4666 
L 2450 4666 
L 2450 531 
L 3481 531 
L 3481 0 
L 794 0 
L 794 531 
z
" transform="scale(0.015625)"/>
       </defs>
       <use xlink:href="#DejaVuSans-30"/>
       <use xlink:href="#DejaVuSans-2e" transform="translate(63.623047 0)"/>
       <use xlink:href="#DejaVuSans-31" transform="translate(95.410156 0)"/>
      </g>
     </g>
    </g>
    <g id="xtick_2">
     <g id="line2d_3">
      <path d="M 244.17861 385.478125 
L 244.17861 22.318125 
" clip-path="url(#p4a0e524d72)" style="fill: none; stroke-dasharray: 2.96,1.28; stroke-dashoffset: 0; stroke: #b0b0b0; stroke-opacity: 0.6; stroke-width: 0.8"/>
     </g>
     <g id="line2d_4">
      <g>
       <use xlink:href="#m44701b2a37" x="244.17861" y="385.478125" style="stroke: #000000; stroke-width: 0.8"/>
      </g>
     </g>
     <g id="text_2">
      <!-- 0.2 -->
      <g transform="translate(236.227047 400.076562) scale(0.1 -0.1)">
       <defs>
        <path id="DejaVuSans-32" d="M 1228 531 
L 3431 531 
L 3431 0 
L 469 0 
L 469 531 
Q 828 903 1448 1529 
Q 2069 2156 2228 2338 
Q 2531 2678 2651 2914 
Q 2772 3150 2772 3378 
Q 2772 3750 2511 3984 
Q 2250 4219 1831 4219 
Q 1534 4219 1204 4116 
Q 875 4013 500 3803 
L 500 4441 
Q 881 4594 1212 4672 
Q 1544 4750 1819 4750 
Q 2544 4750 2975 4387 
Q 3406 4025 3406 3419 
Q 3406 3131 3298 2873 
Q 3191 2616 2906 2266 
Q 2828 2175 2409 1742 
Q 1991 1309 1228 531 
z
" transform="scale(0.015625)"/>
       </defs>
       <use xlink:href="#DejaVuSans-30"/>
       <use xlink:href="#DejaVuSans-2e" transform="translate(63.623047 0)"/>
       <use xlink:href="#DejaVuSans-32" transform="translate(95.410156 0)"/>
      </g>
     </g>
    </g>
    <g id="xtick_3">
     <g id="line2d_5">
      <path d="M 372.833007 385.478125 
L 372.833007 22.318125 
" clip-path="url(#p4a0e524d72)" style="fill: none; stroke-dasharray: 2.96,1.28; stroke-dashoffset: 0; stroke: #b0b0b0; stroke-opacity: 0.6; stroke-width: 0.8"/>
     </g>
     <g id="line2d_6">
      <g>
       <use xlink:href="#m44701b2a37" x="372.833007" y="385.478125" style="stroke: #000000; stroke-width: 0.8"/>
      </g>
     </g>
     <g id="text_3">
      <!-- 0.3 -->
      <g transform="translate(364.881444 400.076562) scale(0.1 -0.1)">
       <defs>
        <path id="DejaVuSans-33" d="M 2597 2516 
Q 3050 2419 3304 2112 
Q 3559 1806 3559 1356 
Q 3559 666 3084 287 
Q 2609 -91 1734 -91 
Q 1441 -91 1130 -33 
Q 819 25 488 141 
L 488 750 
Q 750 597 1062 519 
Q 1375 441 1716 441 
Q 2309 441 2620 675 
Q 2931 909 2931 1356 
Q 2931 1769 2642 2001 
Q 2353 2234 1838 2234 
L 1294 2234 
L 1294 2753 
L 1863 2753 
Q 2328 2753 2575 2939 
Q 2822 3125 2822 3475 
Q 2822 3834 2567 4026 
Q 2313 4219 1838 4219 
Q 1578 4219 1281 4162 
Q 984 4106 628 3988 
L 628 4550 
Q 988 4650 1302 4700 
Q 1616 4750 1894 4750 
Q 2613 4750 3031 4423 
Q 3450 4097 3450 3541 
Q 3450 3153 3228 2886 
Q 3006 2619 2597 2516 
z
" transform="scale(0.015625)"/>
       </defs>
       <use xlink:href="#DejaVuSans-30"/>
       <use xlink:href="#DejaVuSans-2e" transform="translate(63.623047 0)"/>
       <use xlink:href="#DejaVuSans-33" transform="translate(95.410156 0)"/>
      </g>
     </g>
    </g>
    <g id="xtick_4">
     <g id="line2d_7">
      <path d="M 501.487404 385.478125 
L 501.487404 22.318125 
" clip-path="url(#p4a0e524d72)" style="fill: none; stroke-dasharray: 2.96,1.28; stroke-dashoffset: 0; stroke: #b0b0b0; stroke-opacity: 0.6; stroke-width: 0.8"/>
     </g>
     <g id="line2d_8">
      <g>
       <use xlink:href="#m44701b2a37" x="501.487404" y="385.478125" style="stroke: #000000; stroke-width: 0.8"/>
      </g>
     </g>
     <g id="text_4">
      <!-- 0.4 -->
      <g transform="translate(493.535841 400.076562) scale(0.1 -0.1)">
       <defs>
        <path id="DejaVuSans-34" d="M 2419 4116 
L 825 1625 
L 2419 1625 
L 2419 4116 
z
M 2253 4666 
L 3047 4666 
L 3047 1625 
L 3713 1625 
L 3713 1100 
L 3047 1100 
L 3047 0 
L 2419 0 
L 2419 1100 
L 313 1100 
L 313 1709 
L 2253 4666 
z
" transform="scale(0.015625)"/>
       </defs>
       <use xlink:href="#DejaVuSans-30"/>
       <use xlink:href="#DejaVuSans-2e" transform="translate(63.623047 0)"/>
       <use xlink:href="#DejaVuSans-34" transform="translate(95.410156 0)"/>
      </g>
     </g>
    </g>
    <g id="xtick_5">
     <g id="line2d_9">
      <path d="M 630.141801 385.478125 
L 630.141801 22.318125 
" clip-path="url(#p4a0e524d72)" style="fill: none; stroke-dasharray: 2.96,1.28; stroke-dashoffset: 0; stroke: #b0b0b0; stroke-opacity: 0.6; stroke-width: 0.8"/>
     </g>
     <g id="line2d_10">
      <g>
       <use xlink:href="#m44701b2a37" x="630.141801" y="385.478125" style="stroke: #000000; stroke-width: 0.8"/>
      </g>
     </g>
     <g id="text_5">
      <!-- 0.5 -->
      <g transform="translate(622.190238 400.076562) scale(0.1 -0.1)">
       <defs>
        <path id="DejaVuSans-35" d="M 691 4666 
L 3169 4666 
L 3169 4134 
L 1269 4134 
L 1269 2991 
Q 1406 3038 1543 3061 
Q 1681 3084 1819 3084 
Q 2600 3084 3056 2656 
Q 3513 2228 3513 1497 
Q 3513 744 3044 326 
Q 2575 -91 1722 -91 
Q 1428 -91 1123 -41 
Q 819 9 494 109 
L 494 744 
Q 775 591 1075 516 
Q 1375 441 1709 441 
Q 2250 441 2565 725 
Q 2881 1009 2881 1497 
Q 2881 1984 2565 2268 
Q 2250 2553 1709 2553 
Q 1456 2553 1204 2497 
Q 953 2441 691 2322 
L 691 4666 
z
" transform="scale(0.015625)"/>
       </defs>
       <use xlink:href="#DejaVuSans-30"/>
       <use xlink:href="#DejaVuSans-2e" transform="translate(63.623047 0)"/>
       <use xlink:href="#DejaVuSans-35" transform="translate(95.410156 0)"/>
      </g>
     </g>
    </g>
    <g id="text_6">
     <!-- F1 Score -->
     <g transform="translate(356.276563 413.754687) scale(0.1 -0.1)">
      <defs>
       <path id="DejaVuSans-46" d="M 628 4666 
L 3309 4666 
L 3309 4134 
L 1259 4134 
L 1259 2759 
L 3109 2759 
L 3109 2228 
L 1259 2228 
L 1259 0 
L 628 0 
L 628 4666 
z
" transform="scale(0.015625)"/>
       <path id="DejaVuSans-20" transform="scale(0.015625)"/>
       <path id="DejaVuSans-53" d="M 3425 4513 
L 3425 3897 
Q 3066 4069 2747 4153 
Q 2428 4238 2131 4238 
Q 1616 4238 1336 4038 
Q 1056 3838 1056 3469 
Q 1056 3159 1242 3001 
Q 1428 2844 1947 2747 
L 2328 2669 
Q 3034 2534 3370 2195 
Q 3706 1856 3706 1288 
Q 3706 609 3251 259 
Q 2797 -91 1919 -91 
Q 1588 -91 1214 -16 
Q 841 59 441 206 
L 441 856 
Q 825 641 1194 531 
Q 1563 422 1919 422 
Q 2459 422 2753 634 
Q 3047 847 3047 1241 
Q 3047 1584 2836 1778 
Q 2625 1972 2144 2069 
L 1759 2144 
Q 1053 2284 737 2584 
Q 422 2884 422 3419 
Q 422 4038 858 4394 
Q 1294 4750 2059 4750 
Q 2388 4750 2728 4690 
Q 3069 4631 3425 4513 
z
" transform="scale(0.015625)"/>
       <path id="DejaVuSans-63" d="M 3122 3366 
L 3122 2828 
Q 2878 2963 2633 3030 
Q 2388 3097 2138 3097 
Q 1578 3097 1268 2742 
Q 959 2388 959 1747 
Q 959 1106 1268 751 
Q 1578 397 2138 397 
Q 2388 397 2633 464 
Q 2878 531 3122 666 
L 3122 134 
Q 2881 22 2623 -34 
Q 2366 -91 2075 -91 
Q 1284 -91 818 406 
Q 353 903 353 1747 
Q 353 2603 823 3093 
Q 1294 3584 2113 3584 
Q 2378 3584 2631 3529 
Q 2884 3475 3122 3366 
z
" transform="scale(0.015625)"/>
       <path id="DejaVuSans-6f" d="M 1959 3097 
Q 1497 3097 1228 2736 
Q 959 2375 959 1747 
Q 959 1119 1226 758 
Q 1494 397 1959 397 
Q 2419 397 2687 759 
Q 2956 1122 2956 1747 
Q 2956 2369 2687 2733 
Q 2419 3097 1959 3097 
z
M 1959 3584 
Q 2709 3584 3137 3096 
Q 3566 2609 3566 1747 
Q 3566 888 3137 398 
Q 2709 -91 1959 -91 
Q 1206 -91 779 398 
Q 353 888 353 1747 
Q 353 2609 779 3096 
Q 1206 3584 1959 3584 
z
" transform="scale(0.015625)"/>
       <path id="DejaVuSans-72" d="M 2631 2963 
Q 2534 3019 2420 3045 
Q 2306 3072 2169 3072 
Q 1681 3072 1420 2755 
Q 1159 2438 1159 1844 
L 1159 0 
L 581 0 
L 581 3500 
L 1159 3500 
L 1159 2956 
Q 1341 3275 1631 3429 
Q 1922 3584 2338 3584 
Q 2397 3584 2469 3576 
Q 2541 3569 2628 3553 
L 2631 2963 
z
" transform="scale(0.015625)"/>
       <path id="DejaVuSans-65" d="M 3597 1894 
L 3597 1613 
L 953 1613 
Q 991 1019 1311 708 
Q 1631 397 2203 397 
Q 2534 397 2845 478 
Q 3156 559 3463 722 
L 3463 178 
Q 3153 47 2828 -22 
Q 2503 -91 2169 -91 
Q 1331 -91 842 396 
Q 353 884 353 1716 
Q 353 2575 817 3079 
Q 1281 3584 2069 3584 
Q 2775 3584 3186 3129 
Q 3597 2675 3597 1894 
z
M 3022 2063 
Q 3016 2534 2758 2815 
Q 2500 3097 2075 3097 
Q 1594 3097 1305 2825 
Q 1016 2553 972 2059 
L 3022 2063 
z
" transform="scale(0.015625)"/>
      </defs>
      <use xlink:href="#DejaVuSans-46"/>
      <use xlink:href="#DejaVuSans-31" transform="translate(57.519531 0)"/>
      <use xlink:href="#DejaVuSans-20" transform="translate(121.142578 0)"/>
      <use xlink:href="#DejaVuSans-53" transform="translate(152.929688 0)"/>
      <use xlink:href="#DejaVuSans-63" transform="translate(216.40625 0)"/>
      <use xlink:href="#DejaVuSans-6f" transform="translate(271.386719 0)"/>
      <use xlink:href="#DejaVuSans-72" transform="translate(332.568359 0)"/>
      <use xlink:href="#DejaVuSans-65" transform="translate(371.431641 0)"/>
     </g>
    </g>
   </g>
   <g id="matplotlib.axis_2">
    <g id="ytick_1">
     <g id="line2d_11">
      <path d="M 53.35 372.13531 
L 702.5 372.13531 
" clip-path="url(#p4a0e524d72)" style="fill: none; stroke-dasharray: 2.96,1.28; stroke-dashoffset: 0; stroke: #b0b0b0; stroke-opacity: 0.6; stroke-width: 0.8"/>
     </g>
     <g id="line2d_12">
      <defs>
       <path id="m4f68373df7" d="M 0 0 
L -3.5 0 
" style="stroke: #000000; stroke-width: 0.8"/>
      </defs>
      <g>
       <use xlink:href="#m4f68373df7" x="53.35" y="372.13531" style="stroke: #000000; stroke-width: 0.8"/>
      </g>
     </g>
     <g id="text_7">
      <!-- 0 -->
      <g transform="translate(39.9875 375.934529) scale(0.1 -0.1)">
       <use xlink:href="#DejaVuSans-30"/>
      </g>
     </g>
    </g>
    <g id="ytick_2">
     <g id="line2d_13">
      <path d="M 53.35 311.998497 
L 702.5 311.998497 
" clip-path="url(#p4a0e524d72)" style="fill: none; stroke-dasharray: 2.96,1.28; stroke-dashoffset: 0; stroke: #b0b0b0; stroke-opacity: 0.6; stroke-width: 0.8"/>
     </g>
     <g id="line2d_14">
      <g>
       <use xlink:href="#m4f68373df7" x="53.35" y="311.998497" style="stroke: #000000; stroke-width: 0.8"/>
      </g>
     </g>
     <g id="text_8">
      <!-- 500 -->
      <g transform="translate(27.2625 315.797716) scale(0.1 -0.1)">
       <use xlink:href="#DejaVuSans-35"/>
       <use xlink:href="#DejaVuSans-30" transform="translate(63.623047 0)"/>
       <use xlink:href="#DejaVuSans-30" transform="translate(127.246094 0)"/>
      </g>
     </g>
    </g>
    <g id="ytick_3">
     <g id="line2d_15">
      <path d="M 53.35 251.861684 
L 702.5 251.861684 
" clip-path="url(#p4a0e524d72)" style="fill: none; stroke-dasharray: 2.96,1.28; stroke-dashoffset: 0; stroke: #b0b0b0; stroke-opacity: 0.6; stroke-width: 0.8"/>
     </g>
     <g id="line2d_16">
      <g>
       <use xlink:href="#m4f68373df7" x="53.35" y="251.861684" style="stroke: #000000; stroke-width: 0.8"/>
      </g>
     </g>
     <g id="text_9">
      <!-- 1000 -->
      <g transform="translate(20.9 255.660903) scale(0.1 -0.1)">
       <use xlink:href="#DejaVuSans-31"/>
       <use xlink:href="#DejaVuSans-30" transform="translate(63.623047 0)"/>
       <use xlink:href="#DejaVuSans-30" transform="translate(127.246094 0)"/>
       <use xlink:href="#DejaVuSans-30" transform="translate(190.869141 0)"/>
      </g>
     </g>
    </g>
    <g id="ytick_4">
     <g id="line2d_17">
      <path d="M 53.35 191.724871 
L 702.5 191.724871 
" clip-path="url(#p4a0e524d72)" style="fill: none; stroke-dasharray: 2.96,1.28; stroke-dashoffset: 0; stroke: #b0b0b0; stroke-opacity: 0.6; stroke-width: 0.8"/>
     </g>
     <g id="line2d_18">
      <g>
       <use xlink:href="#m4f68373df7" x="53.35" y="191.724871" style="stroke: #000000; stroke-width: 0.8"/>
      </g>
     </g>
     <g id="text_10">
      <!-- 1500 -->
      <g transform="translate(20.9 195.52409) scale(0.1 -0.1)">
       <use xlink:href="#DejaVuSans-31"/>
       <use xlink:href="#DejaVuSans-35" transform="translate(63.623047 0)"/>
       <use xlink:href="#DejaVuSans-30" transform="translate(127.246094 0)"/>
       <use xlink:href="#DejaVuSans-30" transform="translate(190.869141 0)"/>
      </g>
     </g>
    </g>
    <g id="ytick_5">
     <g id="line2d_19">
      <path d="M 53.35 131.588058 
L 702.5 131.588058 
" clip-path="url(#p4a0e524d72)" style="fill: none; stroke-dasharray: 2.96,1.28; stroke-dashoffset: 0; stroke: #b0b0b0; stroke-opacity: 0.6; stroke-width: 0.8"/>
     </g>
     <g id="line2d_20">
      <g>
       <use xlink:href="#m4f68373df7" x="53.35" y="131.588058" style="stroke: #000000; stroke-width: 0.8"/>
      </g>
     </g>
     <g id="text_11">
      <!-- 2000 -->
      <g transform="translate(20.9 135.387276) scale(0.1 -0.1)">
       <use xlink:href="#DejaVuSans-32"/>
       <use xlink:href="#DejaVuSans-30" transform="translate(63.623047 0)"/>
       <use xlink:href="#DejaVuSans-30" transform="translate(127.246094 0)"/>
       <use xlink:href="#DejaVuSans-30" transform="translate(190.869141 0)"/>
      </g>
     </g>
    </g>
    <g id="ytick_6">
     <g id="line2d_21">
      <path d="M 53.35 71.451245 
L 702.5 71.451245 
" clip-path="url(#p4a0e524d72)" style="fill: none; stroke-dasharray: 2.96,1.28; stroke-dashoffset: 0; stroke: #b0b0b0; stroke-opacity: 0.6; stroke-width: 0.8"/>
     </g>
     <g id="line2d_22">
      <g>
       <use xlink:href="#m4f68373df7" x="53.35" y="71.451245" style="stroke: #000000; stroke-width: 0.8"/>
      </g>
     </g>
     <g id="text_12">
      <!-- 2500 -->
      <g transform="translate(20.9 75.250463) scale(0.1 -0.1)">
       <use xlink:href="#DejaVuSans-32"/>
       <use xlink:href="#DejaVuSans-35" transform="translate(63.623047 0)"/>
       <use xlink:href="#DejaVuSans-30" transform="translate(127.246094 0)"/>
       <use xlink:href="#DejaVuSans-30" transform="translate(190.869141 0)"/>
      </g>
     </g>
    </g>
    <g id="text_13">
     <!-- Total Emissions (g of $CO_2$) -->
     <g transform="translate(14.8 269.348125) rotate(-90) scale(0.1 -0.1)">
      <defs>
       <path id="DejaVuSans-54" d="M -19 4666 
L 3928 4666 
L 3928 4134 
L 2272 4134 
L 2272 0 
L 1638 0 
L 1638 4134 
L -19 4134 
L -19 4666 
z
" transform="scale(0.015625)"/>
       <path id="DejaVuSans-74" d="M 1172 4494 
L 1172 3500 
L 2356 3500 
L 2356 3053 
L 1172 3053 
L 1172 1153 
Q 1172 725 1289 603 
Q 1406 481 1766 481 
L 2356 481 
L 2356 0 
L 1766 0 
Q 1100 0 847 248 
Q 594 497 594 1153 
L 594 3053 
L 172 3053 
L 172 3500 
L 594 3500 
L 594 4494 
L 1172 4494 
z
" transform="scale(0.015625)"/>
       <path id="DejaVuSans-61" d="M 2194 1759 
Q 1497 1759 1228 1600 
Q 959 1441 959 1056 
Q 959 750 1161 570 
Q 1363 391 1709 391 
Q 2188 391 2477 730 
Q 2766 1069 2766 1631 
L 2766 1759 
L 2194 1759 
z
M 3341 1997 
L 3341 0 
L 2766 0 
L 2766 531 
Q 2569 213 2275 61 
Q 1981 -91 1556 -91 
Q 1019 -91 701 211 
Q 384 513 384 1019 
Q 384 1609 779 1909 
Q 1175 2209 1959 2209 
L 2766 2209 
L 2766 2266 
Q 2766 2663 2505 2880 
Q 2244 3097 1772 3097 
Q 1472 3097 1187 3025 
Q 903 2953 641 2809 
L 641 3341 
Q 956 3463 1253 3523 
Q 1550 3584 1831 3584 
Q 2591 3584 2966 3190 
Q 3341 2797 3341 1997 
z
" transform="scale(0.015625)"/>
       <path id="DejaVuSans-6c" d="M 603 4863 
L 1178 4863 
L 1178 0 
L 603 0 
L 603 4863 
z
" transform="scale(0.015625)"/>
       <path id="DejaVuSans-45" d="M 628 4666 
L 3578 4666 
L 3578 4134 
L 1259 4134 
L 1259 2753 
L 3481 2753 
L 3481 2222 
L 1259 2222 
L 1259 531 
L 3634 531 
L 3634 0 
L 628 0 
L 628 4666 
z
" transform="scale(0.015625)"/>
       <path id="DejaVuSans-6d" d="M 3328 2828 
Q 3544 3216 3844 3400 
Q 4144 3584 4550 3584 
Q 5097 3584 5394 3201 
Q 5691 2819 5691 2113 
L 5691 0 
L 5113 0 
L 5113 2094 
Q 5113 2597 4934 2840 
Q 4756 3084 4391 3084 
Q 3944 3084 3684 2787 
Q 3425 2491 3425 1978 
L 3425 0 
L 2847 0 
L 2847 2094 
Q 2847 2600 2669 2842 
Q 2491 3084 2119 3084 
Q 1678 3084 1418 2786 
Q 1159 2488 1159 1978 
L 1159 0 
L 581 0 
L 581 3500 
L 1159 3500 
L 1159 2956 
Q 1356 3278 1631 3431 
Q 1906 3584 2284 3584 
Q 2666 3584 2933 3390 
Q 3200 3197 3328 2828 
z
" transform="scale(0.015625)"/>
       <path id="DejaVuSans-69" d="M 603 3500 
L 1178 3500 
L 1178 0 
L 603 0 
L 603 3500 
z
M 603 4863 
L 1178 4863 
L 1178 4134 
L 603 4134 
L 603 4863 
z
" transform="scale(0.015625)"/>
       <path id="DejaVuSans-73" d="M 2834 3397 
L 2834 2853 
Q 2591 2978 2328 3040 
Q 2066 3103 1784 3103 
Q 1356 3103 1142 2972 
Q 928 2841 928 2578 
Q 928 2378 1081 2264 
Q 1234 2150 1697 2047 
L 1894 2003 
Q 2506 1872 2764 1633 
Q 3022 1394 3022 966 
Q 3022 478 2636 193 
Q 2250 -91 1575 -91 
Q 1294 -91 989 -36 
Q 684 19 347 128 
L 347 722 
Q 666 556 975 473 
Q 1284 391 1588 391 
Q 1994 391 2212 530 
Q 2431 669 2431 922 
Q 2431 1156 2273 1281 
Q 2116 1406 1581 1522 
L 1381 1569 
Q 847 1681 609 1914 
Q 372 2147 372 2553 
Q 372 3047 722 3315 
Q 1072 3584 1716 3584 
Q 2034 3584 2315 3537 
Q 2597 3491 2834 3397 
z
" transform="scale(0.015625)"/>
       <path id="DejaVuSans-6e" d="M 3513 2113 
L 3513 0 
L 2938 0 
L 2938 2094 
Q 2938 2591 2744 2837 
Q 2550 3084 2163 3084 
Q 1697 3084 1428 2787 
Q 1159 2491 1159 1978 
L 1159 0 
L 581 0 
L 581 3500 
L 1159 3500 
L 1159 2956 
Q 1366 3272 1645 3428 
Q 1925 3584 2291 3584 
Q 2894 3584 3203 3211 
Q 3513 2838 3513 2113 
z
" transform="scale(0.015625)"/>
       <path id="DejaVuSans-28" d="M 1984 4856 
Q 1566 4138 1362 3434 
Q 1159 2731 1159 2009 
Q 1159 1288 1364 580 
Q 1569 -128 1984 -844 
L 1484 -844 
Q 1016 -109 783 600 
Q 550 1309 550 2009 
Q 550 2706 781 3412 
Q 1013 4119 1484 4856 
L 1984 4856 
z
" transform="scale(0.015625)"/>
       <path id="DejaVuSans-67" d="M 2906 1791 
Q 2906 2416 2648 2759 
Q 2391 3103 1925 3103 
Q 1463 3103 1205 2759 
Q 947 2416 947 1791 
Q 947 1169 1205 825 
Q 1463 481 1925 481 
Q 2391 481 2648 825 
Q 2906 1169 2906 1791 
z
M 3481 434 
Q 3481 -459 3084 -895 
Q 2688 -1331 1869 -1331 
Q 1566 -1331 1297 -1286 
Q 1028 -1241 775 -1147 
L 775 -588 
Q 1028 -725 1275 -790 
Q 1522 -856 1778 -856 
Q 2344 -856 2625 -561 
Q 2906 -266 2906 331 
L 2906 616 
Q 2728 306 2450 153 
Q 2172 0 1784 0 
Q 1141 0 747 490 
Q 353 981 353 1791 
Q 353 2603 747 3093 
Q 1141 3584 1784 3584 
Q 2172 3584 2450 3431 
Q 2728 3278 2906 2969 
L 2906 3500 
L 3481 3500 
L 3481 434 
z
" transform="scale(0.015625)"/>
       <path id="DejaVuSans-66" d="M 2375 4863 
L 2375 4384 
L 1825 4384 
Q 1516 4384 1395 4259 
Q 1275 4134 1275 3809 
L 1275 3500 
L 2222 3500 
L 2222 3053 
L 1275 3053 
L 1275 0 
L 697 0 
L 697 3053 
L 147 3053 
L 147 3500 
L 697 3500 
L 697 3744 
Q 697 4328 969 4595 
Q 1241 4863 1831 4863 
L 2375 4863 
z
" transform="scale(0.015625)"/>
       <path id="DejaVuSans-Oblique-43" d="M 4447 4306 
L 4319 3641 
Q 4019 3944 3683 4091 
Q 3347 4238 2956 4238 
Q 2422 4238 2017 3981 
Q 1613 3725 1319 3200 
Q 1131 2863 1032 2486 
Q 934 2109 934 1728 
Q 934 1091 1264 756 
Q 1594 422 2222 422 
Q 2656 422 3056 561 
Q 3456 700 3834 978 
L 3688 231 
Q 3316 72 2936 -9 
Q 2556 -91 2175 -91 
Q 1278 -91 773 396 
Q 269 884 269 1753 
Q 269 2309 461 2846 
Q 653 3384 1013 3828 
Q 1394 4300 1883 4525 
Q 2372 4750 3022 4750 
Q 3422 4750 3780 4639 
Q 4138 4528 4447 4306 
z
" transform="scale(0.015625)"/>
       <path id="DejaVuSans-Oblique-4f" d="M 2919 4238 
Q 2400 4238 2003 3986 
Q 1606 3734 1313 3219 
Q 1125 2891 1026 2522 
Q 928 2153 928 1778 
Q 928 1128 1239 775 
Q 1550 422 2119 422 
Q 2631 422 3032 676 
Q 3434 931 3719 1434 
Q 3909 1772 4009 2142 
Q 4109 2513 4109 2881 
Q 4109 3528 3796 3883 
Q 3484 4238 2919 4238 
z
M 2100 -91 
Q 1241 -91 748 418 
Q 256 928 256 1813 
Q 256 2319 448 2847 
Q 641 3375 978 3788 
Q 1375 4272 1862 4511 
Q 2350 4750 2938 4750 
Q 3794 4750 4287 4245 
Q 4781 3741 4781 2869 
Q 4781 2331 4593 1812 
Q 4406 1294 4056 872 
Q 3656 384 3173 146 
Q 2691 -91 2100 -91 
z
" transform="scale(0.015625)"/>
       <path id="DejaVuSans-29" d="M 513 4856 
L 1013 4856 
Q 1481 4119 1714 3412 
Q 1947 2706 1947 2009 
Q 1947 1309 1714 600 
Q 1481 -109 1013 -844 
L 513 -844 
Q 928 -128 1133 580 
Q 1338 1288 1338 2009 
Q 1338 2731 1133 3434 
Q 928 4138 513 4856 
z
" transform="scale(0.015625)"/>
      </defs>
      <use xlink:href="#DejaVuSans-54" transform="translate(0 0.015625)"/>
      <use xlink:href="#DejaVuSans-6f" transform="translate(61.083984 0.015625)"/>
      <use xlink:href="#DejaVuSans-74" transform="translate(122.265625 0.015625)"/>
      <use xlink:href="#DejaVuSans-61" transform="translate(161.474609 0.015625)"/>
      <use xlink:href="#DejaVuSans-6c" transform="translate(222.753906 0.015625)"/>
      <use xlink:href="#DejaVuSans-20" transform="translate(250.537109 0.015625)"/>
      <use xlink:href="#DejaVuSans-45" transform="translate(282.324219 0.015625)"/>
      <use xlink:href="#DejaVuSans-6d" transform="translate(345.507812 0.015625)"/>
      <use xlink:href="#DejaVuSans-69" transform="translate(442.919922 0.015625)"/>
      <use xlink:href="#DejaVuSans-73" transform="translate(470.703125 0.015625)"/>
      <use xlink:href="#DejaVuSans-73" transform="translate(522.802734 0.015625)"/>
      <use xlink:href="#DejaVuSans-69" transform="translate(574.902344 0.015625)"/>
      <use xlink:href="#DejaVuSans-6f" transform="translate(602.685547 0.015625)"/>
      <use xlink:href="#DejaVuSans-6e" transform="translate(663.867188 0.015625)"/>
      <use xlink:href="#DejaVuSans-73" transform="translate(727.246094 0.015625)"/>
      <use xlink:href="#DejaVuSans-20" transform="translate(779.345703 0.015625)"/>
      <use xlink:href="#DejaVuSans-28" transform="translate(811.132812 0.015625)"/>
      <use xlink:href="#DejaVuSans-67" transform="translate(850.146484 0.015625)"/>
      <use xlink:href="#DejaVuSans-20" transform="translate(913.623047 0.015625)"/>
      <use xlink:href="#DejaVuSans-6f" transform="translate(945.410156 0.015625)"/>
      <use xlink:href="#DejaVuSans-66" transform="translate(1006.591797 0.015625)"/>
      <use xlink:href="#DejaVuSans-20" transform="translate(1041.796875 0.015625)"/>
      <use xlink:href="#DejaVuSans-Oblique-43" transform="translate(1073.583984 0.015625)"/>
      <use xlink:href="#DejaVuSans-Oblique-4f" transform="translate(1143.408203 0.015625)"/>
      <use xlink:href="#DejaVuSans-32" transform="translate(1222.119141 -16.390625) scale(0.7)"/>
      <use xlink:href="#DejaVuSans-29" transform="translate(1269.389648 0.015625)"/>
     </g>
    </g>
   </g>
   <g id="patch_3">
    <path d="M 53.35 385.478125 
L 53.35 22.318125 
" style="fill: none; stroke: #000000; stroke-width: 0.8; stroke-linejoin: miter; stroke-linecap: square"/>
   </g>
   <g id="patch_4">
    <path d="M 702.5 385.478125 
L 702.5 22.318125 
" style="fill: none; stroke: #000000; stroke-width: 0.8; stroke-linejoin: miter; stroke-linecap: square"/>
   </g>
   <g id="patch_5">
    <path d="M 53.35 385.478125 
L 702.5 385.478125 
" style="fill: none; stroke: #000000; stroke-width: 0.8; stroke-linejoin: miter; stroke-linecap: square"/>
   </g>
   <g id="patch_6">
    <path d="M 53.35 22.318125 
L 702.5 22.318125 
" style="fill: none; stroke: #000000; stroke-width: 0.8; stroke-linejoin: miter; stroke-linecap: square"/>
   </g>
   <g id="text_14">
    <!-- NQ: Emissions vs F1 Score -->
    <g transform="translate(298.49625 16.318125) scale(0.12 -0.12)">
     <defs>
      <path id="DejaVuSans-4e" d="M 628 4666 
L 1478 4666 
L 3547 763 
L 3547 4666 
L 4159 4666 
L 4159 0 
L 3309 0 
L 1241 3903 
L 1241 0 
L 628 0 
L 628 4666 
z
" transform="scale(0.015625)"/>
      <path id="DejaVuSans-51" d="M 2522 4238 
Q 1834 4238 1429 3725 
Q 1025 3213 1025 2328 
Q 1025 1447 1429 934 
Q 1834 422 2522 422 
Q 3209 422 3611 934 
Q 4013 1447 4013 2328 
Q 4013 3213 3611 3725 
Q 3209 4238 2522 4238 
z
M 3406 84 
L 4238 -825 
L 3475 -825 
L 2784 -78 
Q 2681 -84 2626 -87 
Q 2572 -91 2522 -91 
Q 1538 -91 948 567 
Q 359 1225 359 2328 
Q 359 3434 948 4092 
Q 1538 4750 2522 4750 
Q 3503 4750 4090 4092 
Q 4678 3434 4678 2328 
Q 4678 1516 4351 937 
Q 4025 359 3406 84 
z
" transform="scale(0.015625)"/>
      <path id="DejaVuSans-3a" d="M 750 794 
L 1409 794 
L 1409 0 
L 750 0 
L 750 794 
z
M 750 3309 
L 1409 3309 
L 1409 2516 
L 750 2516 
L 750 3309 
z
" transform="scale(0.015625)"/>
      <path id="DejaVuSans-76" d="M 191 3500 
L 800 3500 
L 1894 563 
L 2988 3500 
L 3597 3500 
L 2284 0 
L 1503 0 
L 191 3500 
z
" transform="scale(0.015625)"/>
     </defs>
     <use xlink:href="#DejaVuSans-4e"/>
     <use xlink:href="#DejaVuSans-51" transform="translate(74.804688 0)"/>
     <use xlink:href="#DejaVuSans-3a" transform="translate(153.515625 0)"/>
     <use xlink:href="#DejaVuSans-20" transform="translate(187.207031 0)"/>
     <use xlink:href="#DejaVuSans-45" transform="translate(218.994141 0)"/>
     <use xlink:href="#DejaVuSans-6d" transform="translate(282.177734 0)"/>
     <use xlink:href="#DejaVuSans-69" transform="translate(379.589844 0)"/>
     <use xlink:href="#DejaVuSans-73" transform="translate(407.373047 0)"/>
     <use xlink:href="#DejaVuSans-73" transform="translate(459.472656 0)"/>
     <use xlink:href="#DejaVuSans-69" transform="translate(511.572266 0)"/>
     <use xlink:href="#DejaVuSans-6f" transform="translate(539.355469 0)"/>
     <use xlink:href="#DejaVuSans-6e" transform="translate(600.537109 0)"/>
     <use xlink:href="#DejaVuSans-73" transform="translate(663.916016 0)"/>
     <use xlink:href="#DejaVuSans-20" transform="translate(716.015625 0)"/>
     <use xlink:href="#DejaVuSans-76" transform="translate(747.802734 0)"/>
     <use xlink:href="#DejaVuSans-73" transform="translate(806.982422 0)"/>
     <use xlink:href="#DejaVuSans-20" transform="translate(859.082031 0)"/>
     <use xlink:href="#DejaVuSans-46" transform="translate(890.869141 0)"/>
     <use xlink:href="#DejaVuSans-31" transform="translate(948.388672 0)"/>
     <use xlink:href="#DejaVuSans-20" transform="translate(1012.011719 0)"/>
     <use xlink:href="#DejaVuSans-53" transform="translate(1043.798828 0)"/>
     <use xlink:href="#DejaVuSans-63" transform="translate(1107.275391 0)"/>
     <use xlink:href="#DejaVuSans-6f" transform="translate(1162.255859 0)"/>
     <use xlink:href="#DejaVuSans-72" transform="translate(1223.4375 0)"/>
     <use xlink:href="#DejaVuSans-65" transform="translate(1262.300781 0)"/>
    </g>
   </g>
   <g id="legend_1">
    <g id="patch_7">
     <path d="M 588.05625 74.3525 
L 695.5 74.3525 
Q 697.5 74.3525 697.5 72.3525 
L 697.5 29.318125 
Q 697.5 27.318125 695.5 27.318125 
L 588.05625 27.318125 
Q 586.05625 27.318125 586.05625 29.318125 
L 586.05625 72.3525 
Q 586.05625 74.3525 588.05625 74.3525 
z
" style="fill: #ffffff; opacity: 0.8; stroke: #cccccc; stroke-linejoin: miter"/>
    </g>
    <g id="PathCollection_4">
     <defs>
      <path id="m039e7a20c8" d="M 0 8.580501 
C 2.275576 8.580501 4.458256 7.676405 6.067331 6.067331 
C 7.676405 4.458256 8.580501 2.275576 8.580501 0 
C 8.580501 -2.275576 7.676405 -4.458256 6.067331 -6.067331 
C 4.458256 -7.676405 2.275576 -8.580501 0 -8.580501 
C -2.275576 -8.580501 -4.458256 -7.676405 -6.067331 -6.067331 
C -7.676405 -4.458256 -8.580501 -2.275576 -8.580501 0 
C -8.580501 2.275576 -7.676405 4.458256 -6.067331 6.067331 
C -4.458256 7.676405 -2.275576 8.580501 0 8.580501 
z
" style="stroke: #1f77b4; stroke-opacity: 0.7"/>
     </defs>
     <g>
      <use xlink:href="#m039e7a20c8" x="600.05625" y="36.291562" style="fill: #1f77b4; fill-opacity: 0.7; stroke: #1f77b4; stroke-opacity: 0.7"/>
     </g>
    </g>
    <g id="text_15">
     <!-- Question Only -->
     <g transform="translate(618.05625 38.916562) scale(0.1 -0.1)">
      <defs>
       <path id="DejaVuSans-75" d="M 544 1381 
L 544 3500 
L 1119 3500 
L 1119 1403 
Q 1119 906 1312 657 
Q 1506 409 1894 409 
Q 2359 409 2629 706 
Q 2900 1003 2900 1516 
L 2900 3500 
L 3475 3500 
L 3475 0 
L 2900 0 
L 2900 538 
Q 2691 219 2414 64 
Q 2138 -91 1772 -91 
Q 1169 -91 856 284 
Q 544 659 544 1381 
z
M 1991 3584 
L 1991 3584 
z
" transform="scale(0.015625)"/>
       <path id="DejaVuSans-4f" d="M 2522 4238 
Q 1834 4238 1429 3725 
Q 1025 3213 1025 2328 
Q 1025 1447 1429 934 
Q 1834 422 2522 422 
Q 3209 422 3611 934 
Q 4013 1447 4013 2328 
Q 4013 3213 3611 3725 
Q 3209 4238 2522 4238 
z
M 2522 4750 
Q 3503 4750 4090 4092 
Q 4678 3434 4678 2328 
Q 4678 1225 4090 567 
Q 3503 -91 2522 -91 
Q 1538 -91 948 565 
Q 359 1222 359 2328 
Q 359 3434 948 4092 
Q 1538 4750 2522 4750 
z
" transform="scale(0.015625)"/>
       <path id="DejaVuSans-79" d="M 2059 -325 
Q 1816 -950 1584 -1140 
Q 1353 -1331 966 -1331 
L 506 -1331 
L 506 -850 
L 844 -850 
Q 1081 -850 1212 -737 
Q 1344 -625 1503 -206 
L 1606 56 
L 191 3500 
L 800 3500 
L 1894 763 
L 2988 3500 
L 3597 3500 
L 2059 -325 
z
" transform="scale(0.015625)"/>
      </defs>
      <use xlink:href="#DejaVuSans-51"/>
      <use xlink:href="#DejaVuSans-75" transform="translate(78.710938 0)"/>
      <use xlink:href="#DejaVuSans-65" transform="translate(142.089844 0)"/>
      <use xlink:href="#DejaVuSans-73" transform="translate(203.613281 0)"/>
      <use xlink:href="#DejaVuSans-74" transform="translate(255.712891 0)"/>
      <use xlink:href="#DejaVuSans-69" transform="translate(294.921875 0)"/>
      <use xlink:href="#DejaVuSans-6f" transform="translate(322.705078 0)"/>
      <use xlink:href="#DejaVuSans-6e" transform="translate(383.886719 0)"/>
      <use xlink:href="#DejaVuSans-20" transform="translate(447.265625 0)"/>
      <use xlink:href="#DejaVuSans-4f" transform="translate(479.052734 0)"/>
      <use xlink:href="#DejaVuSans-6e" transform="translate(557.763672 0)"/>
      <use xlink:href="#DejaVuSans-6c" transform="translate(621.142578 0)"/>
      <use xlink:href="#DejaVuSans-79" transform="translate(648.925781 0)"/>
     </g>
    </g>
    <g id="PathCollection_5">
     <defs>
      <path id="m5f8811ccb8" d="M -6.314665 6.314665 
L 6.314665 6.314665 
L 6.314665 -6.314665 
L -6.314665 -6.314665 
z
" style="stroke: #ff7f0e; stroke-opacity: 0.7"/>
     </defs>
     <g>
      <use xlink:href="#m5f8811ccb8" x="600.05625" y="50.969687" style="fill: #ff7f0e; fill-opacity: 0.7; stroke: #ff7f0e; stroke-opacity: 0.7"/>
     </g>
    </g>
    <g id="text_16">
     <!-- GS Paragraph -->
     <g transform="translate(618.05625 53.594687) scale(0.1 -0.1)">
      <defs>
       <path id="DejaVuSans-47" d="M 3809 666 
L 3809 1919 
L 2778 1919 
L 2778 2438 
L 4434 2438 
L 4434 434 
Q 4069 175 3628 42 
Q 3188 -91 2688 -91 
Q 1594 -91 976 548 
Q 359 1188 359 2328 
Q 359 3472 976 4111 
Q 1594 4750 2688 4750 
Q 3144 4750 3555 4637 
Q 3966 4525 4313 4306 
L 4313 3634 
Q 3963 3931 3569 4081 
Q 3175 4231 2741 4231 
Q 1884 4231 1454 3753 
Q 1025 3275 1025 2328 
Q 1025 1384 1454 906 
Q 1884 428 2741 428 
Q 3075 428 3337 486 
Q 3600 544 3809 666 
z
" transform="scale(0.015625)"/>
       <path id="DejaVuSans-50" d="M 1259 4147 
L 1259 2394 
L 2053 2394 
Q 2494 2394 2734 2622 
Q 2975 2850 2975 3272 
Q 2975 3691 2734 3919 
Q 2494 4147 2053 4147 
L 1259 4147 
z
M 628 4666 
L 2053 4666 
Q 2838 4666 3239 4311 
Q 3641 3956 3641 3272 
Q 3641 2581 3239 2228 
Q 2838 1875 2053 1875 
L 1259 1875 
L 1259 0 
L 628 0 
L 628 4666 
z
" transform="scale(0.015625)"/>
       <path id="DejaVuSans-70" d="M 1159 525 
L 1159 -1331 
L 581 -1331 
L 581 3500 
L 1159 3500 
L 1159 2969 
Q 1341 3281 1617 3432 
Q 1894 3584 2278 3584 
Q 2916 3584 3314 3078 
Q 3713 2572 3713 1747 
Q 3713 922 3314 415 
Q 2916 -91 2278 -91 
Q 1894 -91 1617 61 
Q 1341 213 1159 525 
z
M 3116 1747 
Q 3116 2381 2855 2742 
Q 2594 3103 2138 3103 
Q 1681 3103 1420 2742 
Q 1159 2381 1159 1747 
Q 1159 1113 1420 752 
Q 1681 391 2138 391 
Q 2594 391 2855 752 
Q 3116 1113 3116 1747 
z
" transform="scale(0.015625)"/>
       <path id="DejaVuSans-68" d="M 3513 2113 
L 3513 0 
L 2938 0 
L 2938 2094 
Q 2938 2591 2744 2837 
Q 2550 3084 2163 3084 
Q 1697 3084 1428 2787 
Q 1159 2491 1159 1978 
L 1159 0 
L 581 0 
L 581 4863 
L 1159 4863 
L 1159 2956 
Q 1366 3272 1645 3428 
Q 1925 3584 2291 3584 
Q 2894 3584 3203 3211 
Q 3513 2838 3513 2113 
z
" transform="scale(0.015625)"/>
      </defs>
      <use xlink:href="#DejaVuSans-47"/>
      <use xlink:href="#DejaVuSans-53" transform="translate(77.490234 0)"/>
      <use xlink:href="#DejaVuSans-20" transform="translate(140.966797 0)"/>
      <use xlink:href="#DejaVuSans-50" transform="translate(172.753906 0)"/>
      <use xlink:href="#DejaVuSans-61" transform="translate(228.556641 0)"/>
      <use xlink:href="#DejaVuSans-72" transform="translate(289.835938 0)"/>
      <use xlink:href="#DejaVuSans-61" transform="translate(330.949219 0)"/>
      <use xlink:href="#DejaVuSans-67" transform="translate(392.228516 0)"/>
      <use xlink:href="#DejaVuSans-72" transform="translate(455.705078 0)"/>
      <use xlink:href="#DejaVuSans-61" transform="translate(496.818359 0)"/>
      <use xlink:href="#DejaVuSans-70" transform="translate(558.097656 0)"/>
      <use xlink:href="#DejaVuSans-68" transform="translate(621.574219 0)"/>
     </g>
    </g>
    <g id="PathCollection_6">
     <defs>
      <path id="m642ca1b654" d="M 0 -6.314665 
L -6.314665 6.314665 
L 6.314665 6.314665 
z
" style="stroke: #2ca02c; stroke-opacity: 0.7"/>
     </defs>
     <g>
      <use xlink:href="#m642ca1b654" x="600.05625" y="65.647812" style="fill: #2ca02c; fill-opacity: 0.7; stroke: #2ca02c; stroke-opacity: 0.7"/>
     </g>
    </g>
    <g id="text_17">
     <!-- First Paragraph -->
     <g transform="translate(618.05625 68.272812) scale(0.1 -0.1)">
      <use xlink:href="#DejaVuSans-46"/>
      <use xlink:href="#DejaVuSans-69" transform="translate(50.269531 0)"/>
      <use xlink:href="#DejaVuSans-72" transform="translate(78.052734 0)"/>
      <use xlink:href="#DejaVuSans-73" transform="translate(119.166016 0)"/>
      <use xlink:href="#DejaVuSans-74" transform="translate(171.265625 0)"/>
      <use xlink:href="#DejaVuSans-20" transform="translate(210.474609 0)"/>
      <use xlink:href="#DejaVuSans-50" transform="translate(242.261719 0)"/>
      <use xlink:href="#DejaVuSans-61" transform="translate(298.064453 0)"/>
      <use xlink:href="#DejaVuSans-72" transform="translate(359.34375 0)"/>
      <use xlink:href="#DejaVuSans-61" transform="translate(400.457031 0)"/>
      <use xlink:href="#DejaVuSans-67" transform="translate(461.736328 0)"/>
      <use xlink:href="#DejaVuSans-72" transform="translate(525.212891 0)"/>
      <use xlink:href="#DejaVuSans-61" transform="translate(566.326172 0)"/>
      <use xlink:href="#DejaVuSans-70" transform="translate(627.605469 0)"/>
      <use xlink:href="#DejaVuSans-68" transform="translate(691.082031 0)"/>
     </g>
    </g>
   </g>
  </g>
 </g>
 <defs>
  <clipPath id="p4a0e524d72">
   <rect x="53.35" y="22.318125" width="649.15" height="363.16"/>
  </clipPath>
 </defs>
</svg>
