<?xml version="1.0" encoding="utf-8" standalone="no"?>
<!DOCTYPE svg PUBLIC "-//W3C//DTD SVG 1.1//EN"
  "http://www.w3.org/Graphics/SVG/1.1/DTD/svg11.dtd">
<svg xmlns:xlink="http://www.w3.org/1999/xlink" width="995.380625pt" height="633.267375pt" viewBox="0 0 995.380625 633.267375" xmlns="http://www.w3.org/2000/svg" version="1.1">
 <metadata>
  <rdf:RDF xmlns:dc="http://purl.org/dc/elements/1.1/" xmlns:cc="http://creativecommons.org/ns#" xmlns:rdf="http://www.w3.org/1999/02/22-rdf-syntax-ns#">
   <cc:Work>
    <dc:type rdf:resource="http://purl.org/dc/dcmitype/StillImage"/>
    <dc:date>2025-11-27T17:26:24.305678</dc:date>
    <dc:format>image/svg+xml</dc:format>
    <dc:creator>
     <cc:Agent>
      <dc:title>Matplotlib v3.10.7, https://matplotlib.org/</dc:title>
     </cc:Agent>
    </dc:creator>
   </cc:Work>
  </rdf:RDF>
 </metadata>
 <defs>
  <style type="text/css">*{stroke-linejoin: round; stroke-linecap: butt}</style>
 </defs>
 <g id="figure_1">
  <g id="patch_1">
   <path d="M 0 633.267375 
L 995.380625 633.267375 
L 995.380625 0 
L 0 0 
z
" style="fill: #ffffff"/>
  </g>
  <g id="axes_1">
   <g id="patch_2">
    <path d="M 47.860625 586.837687 
L 988.180625 586.837687 
L 988.180625 54.38 
L 47.860625 54.38 
z
" style="fill: #ffffff"/>
   </g>
   <g id="matplotlib.axis_1">
    <g id="xtick_1">
     <g id="line2d_1">
      <path d="M 110.745261 586.837687 
L 110.745261 54.38 
" clip-path="url(#p6c763adbb4)" style="fill: none; stroke-dasharray: 3.7,1.6; stroke-dashoffset: 0; stroke: #cccccc; stroke-opacity: 0.3"/>
     </g>
     <g id="text_1">
      <!-- $\mathdefault{10^{-1}}$ -->
      <g style="fill: #262626" transform="translate(99.855261 607.681437) scale(0.11 -0.11)">
       <defs>
        <path id="ArialMT-31" d="M 2384 0 
L 1822 0 
L 1822 3584 
Q 1619 3391 1289 3197 
Q 959 3003 697 2906 
L 697 3450 
Q 1169 3672 1522 3987 
Q 1875 4303 2022 4600 
L 2384 4600 
L 2384 0 
z
" transform="scale(0.015625)"/>
        <path id="ArialMT-30" d="M 266 2259 
Q 266 3072 433 3567 
Q 600 4063 929 4331 
Q 1259 4600 1759 4600 
Q 2128 4600 2406 4451 
Q 2684 4303 2865 4023 
Q 3047 3744 3150 3342 
Q 3253 2941 3253 2259 
Q 3253 1453 3087 958 
Q 2922 463 2592 192 
Q 2263 -78 1759 -78 
Q 1097 -78 719 397 
Q 266 969 266 2259 
z
M 844 2259 
Q 844 1131 1108 757 
Q 1372 384 1759 384 
Q 2147 384 2411 759 
Q 2675 1134 2675 2259 
Q 2675 3391 2411 3762 
Q 2147 4134 1753 4134 
Q 1366 4134 1134 3806 
Q 844 3388 844 2259 
z
" transform="scale(0.015625)"/>
        <path id="ArialMT-2212" d="M 3381 1997 
L 356 1997 
L 356 2522 
L 3381 2522 
L 3381 1997 
z
" transform="scale(0.015625)"/>
       </defs>
       <use xlink:href="#ArialMT-31" transform="translate(0 0.99375)"/>
       <use xlink:href="#ArialMT-30" transform="translate(55.615234 0.99375)"/>
       <use xlink:href="#ArialMT-2212" transform="translate(112.972813 70.6875) scale(0.7)"/>
       <use xlink:href="#ArialMT-31" transform="translate(153.851719 70.6875) scale(0.7)"/>
      </g>
     </g>
    </g>
    <g id="xtick_2">
     <g id="line2d_2">
      <path d="M 533.398158 586.837687 
L 533.398158 54.38 
" clip-path="url(#p6c763adbb4)" style="fill: none; stroke-dasharray: 3.7,1.6; stroke-dashoffset: 0; stroke: #cccccc; stroke-opacity: 0.3"/>
     </g>
     <g id="text_2">
      <!-- $\mathdefault{10^{0}}$ -->
      <g style="fill: #262626" transform="translate(524.763158 607.681437) scale(0.11 -0.11)">
       <use xlink:href="#ArialMT-31" transform="translate(0 0.99375)"/>
       <use xlink:href="#ArialMT-30" transform="translate(55.615234 0.99375)"/>
       <use xlink:href="#ArialMT-30" transform="translate(112.972813 70.6875) scale(0.7)"/>
      </g>
     </g>
    </g>
    <g id="xtick_3">
     <g id="line2d_3">
      <path d="M 956.051055 586.837687 
L 956.051055 54.38 
" clip-path="url(#p6c763adbb4)" style="fill: none; stroke-dasharray: 3.7,1.6; stroke-dashoffset: 0; stroke: #cccccc; stroke-opacity: 0.3"/>
     </g>
     <g id="text_3">
      <!-- $\mathdefault{10^{1}}$ -->
      <g style="fill: #262626" transform="translate(947.416055 607.681437) scale(0.11 -0.11)">
       <use xlink:href="#ArialMT-31" transform="translate(0 0.99375)"/>
       <use xlink:href="#ArialMT-30" transform="translate(55.615234 0.99375)"/>
       <use xlink:href="#ArialMT-31" transform="translate(112.972813 70.6875) scale(0.7)"/>
      </g>
     </g>
    </g>
    <g id="xtick_4"/>
    <g id="xtick_5"/>
    <g id="xtick_6"/>
    <g id="xtick_7"/>
    <g id="xtick_8"/>
    <g id="xtick_9"/>
    <g id="xtick_10"/>
    <g id="xtick_11"/>
    <g id="xtick_12"/>
    <g id="xtick_13"/>
    <g id="xtick_14"/>
    <g id="xtick_15"/>
    <g id="xtick_16"/>
    <g id="xtick_17"/>
    <g id="xtick_18"/>
    <g id="xtick_19"/>
    <g id="xtick_20"/>
    <g id="xtick_21"/>
    <g id="text_4">
     <!-- Total Energy Consumption (kWh) -->
     <g style="fill: #262626" transform="translate(415.594844 623.331281) scale(0.13 -0.13)">
      <defs>
       <path id="Arial-BoldMT-54" d="M 1497 0 
L 1497 3806 
L 138 3806 
L 138 4581 
L 3778 4581 
L 3778 3806 
L 2422 3806 
L 2422 0 
L 1497 0 
z
" transform="scale(0.015625)"/>
       <path id="Arial-BoldMT-6f" d="M 256 1706 
Q 256 2144 472 2553 
Q 688 2963 1083 3178 
Q 1478 3394 1966 3394 
Q 2719 3394 3200 2905 
Q 3681 2416 3681 1669 
Q 3681 916 3195 420 
Q 2709 -75 1972 -75 
Q 1516 -75 1102 131 
Q 688 338 472 736 
Q 256 1134 256 1706 
z
M 1156 1659 
Q 1156 1166 1390 903 
Q 1625 641 1969 641 
Q 2313 641 2545 903 
Q 2778 1166 2778 1666 
Q 2778 2153 2545 2415 
Q 2313 2678 1969 2678 
Q 1625 2678 1390 2415 
Q 1156 2153 1156 1659 
z
" transform="scale(0.015625)"/>
       <path id="Arial-BoldMT-74" d="M 1981 3319 
L 1981 2619 
L 1381 2619 
L 1381 1281 
Q 1381 875 1398 808 
Q 1416 741 1477 697 
Q 1538 653 1625 653 
Q 1747 653 1978 738 
L 2053 56 
Q 1747 -75 1359 -75 
Q 1122 -75 931 4 
Q 741 84 652 211 
Q 563 338 528 553 
Q 500 706 500 1172 
L 500 2619 
L 97 2619 
L 97 3319 
L 500 3319 
L 500 3978 
L 1381 4491 
L 1381 3319 
L 1981 3319 
z
" transform="scale(0.015625)"/>
       <path id="Arial-BoldMT-61" d="M 1116 2306 
L 319 2450 
Q 453 2931 781 3162 
Q 1109 3394 1756 3394 
Q 2344 3394 2631 3255 
Q 2919 3116 3036 2902 
Q 3153 2688 3153 2116 
L 3144 1091 
Q 3144 653 3186 445 
Q 3228 238 3344 0 
L 2475 0 
Q 2441 88 2391 259 
Q 2369 338 2359 363 
Q 2134 144 1878 34 
Q 1622 -75 1331 -75 
Q 819 -75 523 203 
Q 228 481 228 906 
Q 228 1188 362 1408 
Q 497 1628 739 1745 
Q 981 1863 1438 1950 
Q 2053 2066 2291 2166 
L 2291 2253 
Q 2291 2506 2166 2614 
Q 2041 2722 1694 2722 
Q 1459 2722 1328 2630 
Q 1197 2538 1116 2306 
z
M 2291 1594 
Q 2122 1538 1756 1459 
Q 1391 1381 1278 1306 
Q 1106 1184 1106 997 
Q 1106 813 1243 678 
Q 1381 544 1594 544 
Q 1831 544 2047 700 
Q 2206 819 2256 991 
Q 2291 1103 2291 1419 
L 2291 1594 
z
" transform="scale(0.015625)"/>
       <path id="Arial-BoldMT-6c" d="M 459 0 
L 459 4581 
L 1338 4581 
L 1338 0 
L 459 0 
z
" transform="scale(0.015625)"/>
       <path id="Arial-BoldMT-20" transform="scale(0.015625)"/>
       <path id="Arial-BoldMT-45" d="M 466 0 
L 466 4581 
L 3863 4581 
L 3863 3806 
L 1391 3806 
L 1391 2791 
L 3691 2791 
L 3691 2019 
L 1391 2019 
L 1391 772 
L 3950 772 
L 3950 0 
L 466 0 
z
" transform="scale(0.015625)"/>
       <path id="Arial-BoldMT-6e" d="M 3478 0 
L 2600 0 
L 2600 1694 
Q 2600 2231 2544 2389 
Q 2488 2547 2361 2634 
Q 2234 2722 2056 2722 
Q 1828 2722 1647 2597 
Q 1466 2472 1398 2265 
Q 1331 2059 1331 1503 
L 1331 0 
L 453 0 
L 453 3319 
L 1269 3319 
L 1269 2831 
Q 1703 3394 2363 3394 
Q 2653 3394 2893 3289 
Q 3134 3184 3257 3021 
Q 3381 2859 3429 2653 
Q 3478 2447 3478 2063 
L 3478 0 
z
" transform="scale(0.015625)"/>
       <path id="Arial-BoldMT-65" d="M 2381 1056 
L 3256 909 
Q 3088 428 2723 176 
Q 2359 -75 1813 -75 
Q 947 -75 531 491 
Q 203 944 203 1634 
Q 203 2459 634 2926 
Q 1066 3394 1725 3394 
Q 2466 3394 2894 2905 
Q 3322 2416 3303 1406 
L 1103 1406 
Q 1113 1016 1316 798 
Q 1519 581 1822 581 
Q 2028 581 2168 693 
Q 2309 806 2381 1056 
z
M 2431 1944 
Q 2422 2325 2234 2523 
Q 2047 2722 1778 2722 
Q 1491 2722 1303 2513 
Q 1116 2303 1119 1944 
L 2431 1944 
z
" transform="scale(0.015625)"/>
       <path id="Arial-BoldMT-72" d="M 1300 0 
L 422 0 
L 422 3319 
L 1238 3319 
L 1238 2847 
Q 1447 3181 1614 3287 
Q 1781 3394 1994 3394 
Q 2294 3394 2572 3228 
L 2300 2463 
Q 2078 2606 1888 2606 
Q 1703 2606 1575 2504 
Q 1447 2403 1373 2137 
Q 1300 1872 1300 1025 
L 1300 0 
z
" transform="scale(0.015625)"/>
       <path id="Arial-BoldMT-67" d="M 378 -219 
L 1381 -341 
Q 1406 -516 1497 -581 
Q 1622 -675 1891 -675 
Q 2234 -675 2406 -572 
Q 2522 -503 2581 -350 
Q 2622 -241 2622 53 
L 2622 538 
Q 2228 0 1628 0 
Q 959 0 569 566 
Q 263 1013 263 1678 
Q 263 2513 664 2953 
Q 1066 3394 1663 3394 
Q 2278 3394 2678 2853 
L 2678 3319 
L 3500 3319 
L 3500 341 
Q 3500 -247 3403 -537 
Q 3306 -828 3131 -993 
Q 2956 -1159 2664 -1253 
Q 2372 -1347 1925 -1347 
Q 1081 -1347 728 -1058 
Q 375 -769 375 -325 
Q 375 -281 378 -219 
z
M 1163 1728 
Q 1163 1200 1367 954 
Q 1572 709 1872 709 
Q 2194 709 2416 961 
Q 2638 1213 2638 1706 
Q 2638 2222 2425 2472 
Q 2213 2722 1888 2722 
Q 1572 2722 1367 2476 
Q 1163 2231 1163 1728 
z
" transform="scale(0.015625)"/>
       <path id="Arial-BoldMT-79" d="M 44 3319 
L 978 3319 
L 1772 963 
L 2547 3319 
L 3456 3319 
L 2284 125 
L 2075 -453 
Q 1959 -744 1854 -897 
Q 1750 -1050 1614 -1145 
Q 1478 -1241 1279 -1294 
Q 1081 -1347 831 -1347 
Q 578 -1347 334 -1294 
L 256 -606 
Q 463 -647 628 -647 
Q 934 -647 1081 -467 
Q 1228 -288 1306 -9 
L 44 3319 
z
" transform="scale(0.015625)"/>
       <path id="Arial-BoldMT-43" d="M 3397 1684 
L 4294 1400 
Q 4088 650 3608 286 
Q 3128 -78 2391 -78 
Q 1478 -78 890 545 
Q 303 1169 303 2250 
Q 303 3394 893 4026 
Q 1484 4659 2447 4659 
Q 3288 4659 3813 4163 
Q 4125 3869 4281 3319 
L 3366 3100 
Q 3284 3456 3026 3662 
Q 2769 3869 2400 3869 
Q 1891 3869 1573 3503 
Q 1256 3138 1256 2319 
Q 1256 1450 1568 1081 
Q 1881 713 2381 713 
Q 2750 713 3015 947 
Q 3281 1181 3397 1684 
z
" transform="scale(0.015625)"/>
       <path id="Arial-BoldMT-73" d="M 150 947 
L 1031 1081 
Q 1088 825 1259 692 
Q 1431 559 1741 559 
Q 2081 559 2253 684 
Q 2369 772 2369 919 
Q 2369 1019 2306 1084 
Q 2241 1147 2013 1200 
Q 950 1434 666 1628 
Q 272 1897 272 2375 
Q 272 2806 612 3100 
Q 953 3394 1669 3394 
Q 2350 3394 2681 3172 
Q 3013 2950 3138 2516 
L 2309 2363 
Q 2256 2556 2107 2659 
Q 1959 2763 1684 2763 
Q 1338 2763 1188 2666 
Q 1088 2597 1088 2488 
Q 1088 2394 1175 2328 
Q 1294 2241 1995 2081 
Q 2697 1922 2975 1691 
Q 3250 1456 3250 1038 
Q 3250 581 2869 253 
Q 2488 -75 1741 -75 
Q 1063 -75 667 200 
Q 272 475 150 947 
z
" transform="scale(0.015625)"/>
       <path id="Arial-BoldMT-75" d="M 2644 0 
L 2644 497 
Q 2463 231 2167 78 
Q 1872 -75 1544 -75 
Q 1209 -75 943 72 
Q 678 219 559 484 
Q 441 750 441 1219 
L 441 3319 
L 1319 3319 
L 1319 1794 
Q 1319 1094 1367 936 
Q 1416 778 1544 686 
Q 1672 594 1869 594 
Q 2094 594 2272 717 
Q 2450 841 2515 1023 
Q 2581 1206 2581 1919 
L 2581 3319 
L 3459 3319 
L 3459 0 
L 2644 0 
z
" transform="scale(0.015625)"/>
       <path id="Arial-BoldMT-6d" d="M 394 3319 
L 1203 3319 
L 1203 2866 
Q 1638 3394 2238 3394 
Q 2556 3394 2790 3262 
Q 3025 3131 3175 2866 
Q 3394 3131 3647 3262 
Q 3900 3394 4188 3394 
Q 4553 3394 4806 3245 
Q 5059 3097 5184 2809 
Q 5275 2597 5275 2122 
L 5275 0 
L 4397 0 
L 4397 1897 
Q 4397 2391 4306 2534 
Q 4184 2722 3931 2722 
Q 3747 2722 3584 2609 
Q 3422 2497 3350 2280 
Q 3278 2063 3278 1594 
L 3278 0 
L 2400 0 
L 2400 1819 
Q 2400 2303 2353 2443 
Q 2306 2584 2207 2653 
Q 2109 2722 1941 2722 
Q 1738 2722 1575 2612 
Q 1413 2503 1342 2297 
Q 1272 2091 1272 1613 
L 1272 0 
L 394 0 
L 394 3319 
z
" transform="scale(0.015625)"/>
       <path id="Arial-BoldMT-70" d="M 434 3319 
L 1253 3319 
L 1253 2831 
Q 1413 3081 1684 3237 
Q 1956 3394 2288 3394 
Q 2866 3394 3269 2941 
Q 3672 2488 3672 1678 
Q 3672 847 3265 386 
Q 2859 -75 2281 -75 
Q 2006 -75 1782 34 
Q 1559 144 1313 409 
L 1313 -1263 
L 434 -1263 
L 434 3319 
z
M 1303 1716 
Q 1303 1156 1525 889 
Q 1747 622 2066 622 
Q 2372 622 2575 867 
Q 2778 1113 2778 1672 
Q 2778 2194 2568 2447 
Q 2359 2700 2050 2700 
Q 1728 2700 1515 2451 
Q 1303 2203 1303 1716 
z
" transform="scale(0.015625)"/>
       <path id="Arial-BoldMT-69" d="M 459 3769 
L 459 4581 
L 1338 4581 
L 1338 3769 
L 459 3769 
z
M 459 0 
L 459 3319 
L 1338 3319 
L 1338 0 
L 459 0 
z
" transform="scale(0.015625)"/>
       <path id="Arial-BoldMT-28" d="M 1916 -1347 
L 1313 -1347 
Q 834 -625 584 153 
Q 334 931 334 1659 
Q 334 2563 644 3369 
Q 913 4069 1325 4659 
L 1925 4659 
Q 1497 3713 1336 3048 
Q 1175 2384 1175 1641 
Q 1175 1128 1270 590 
Q 1366 53 1531 -431 
Q 1641 -750 1916 -1347 
z
" transform="scale(0.015625)"/>
       <path id="Arial-BoldMT-6b" d="M 428 0 
L 428 4581 
L 1306 4581 
L 1306 2150 
L 2334 3319 
L 3416 3319 
L 2281 2106 
L 3497 0 
L 2550 0 
L 1716 1491 
L 1306 1063 
L 1306 0 
L 428 0 
z
" transform="scale(0.015625)"/>
       <path id="Arial-BoldMT-57" d="M 1116 0 
L 22 4581 
L 969 4581 
L 1659 1434 
L 2497 4581 
L 3597 4581 
L 4400 1381 
L 5103 4581 
L 6034 4581 
L 4922 0 
L 3941 0 
L 3028 3425 
L 2119 0 
L 1116 0 
z
" transform="scale(0.015625)"/>
       <path id="Arial-BoldMT-68" d="M 1334 4581 
L 1334 2897 
Q 1759 3394 2350 3394 
Q 2653 3394 2897 3281 
Q 3141 3169 3264 2994 
Q 3388 2819 3433 2606 
Q 3478 2394 3478 1947 
L 3478 0 
L 2600 0 
L 2600 1753 
Q 2600 2275 2550 2415 
Q 2500 2556 2373 2639 
Q 2247 2722 2056 2722 
Q 1838 2722 1666 2615 
Q 1494 2509 1414 2295 
Q 1334 2081 1334 1663 
L 1334 0 
L 456 0 
L 456 4581 
L 1334 4581 
z
" transform="scale(0.015625)"/>
       <path id="Arial-BoldMT-29" d="M 216 -1347 
Q 475 -791 581 -494 
Q 688 -197 778 190 
Q 869 578 912 926 
Q 956 1275 956 1641 
Q 956 2384 797 3048 
Q 638 3713 209 4659 
L 806 4659 
Q 1278 3988 1539 3234 
Q 1800 2481 1800 1706 
Q 1800 1053 1594 306 
Q 1359 -531 822 -1347 
L 216 -1347 
z
" transform="scale(0.015625)"/>
      </defs>
      <use xlink:href="#Arial-BoldMT-54"/>
      <use xlink:href="#Arial-BoldMT-6f" transform="translate(53.708984 0)"/>
      <use xlink:href="#Arial-BoldMT-74" transform="translate(114.792969 0)"/>
      <use xlink:href="#Arial-BoldMT-61" transform="translate(148.09375 0)"/>
      <use xlink:href="#Arial-BoldMT-6c" transform="translate(203.708984 0)"/>
      <use xlink:href="#Arial-BoldMT-20" transform="translate(231.492188 0)"/>
      <use xlink:href="#Arial-BoldMT-45" transform="translate(259.275391 0)"/>
      <use xlink:href="#Arial-BoldMT-6e" transform="translate(325.974609 0)"/>
      <use xlink:href="#Arial-BoldMT-65" transform="translate(387.058594 0)"/>
      <use xlink:href="#Arial-BoldMT-72" transform="translate(442.673828 0)"/>
      <use xlink:href="#Arial-BoldMT-67" transform="translate(481.589844 0)"/>
      <use xlink:href="#Arial-BoldMT-79" transform="translate(542.673828 0)"/>
      <use xlink:href="#Arial-BoldMT-20" transform="translate(598.289062 0)"/>
      <use xlink:href="#Arial-BoldMT-43" transform="translate(626.072266 0)"/>
      <use xlink:href="#Arial-BoldMT-6f" transform="translate(698.289062 0)"/>
      <use xlink:href="#Arial-BoldMT-6e" transform="translate(759.373047 0)"/>
      <use xlink:href="#Arial-BoldMT-73" transform="translate(820.457031 0)"/>
      <use xlink:href="#Arial-BoldMT-75" transform="translate(876.072266 0)"/>
      <use xlink:href="#Arial-BoldMT-6d" transform="translate(937.15625 0)"/>
      <use xlink:href="#Arial-BoldMT-70" transform="translate(1026.072266 0)"/>
      <use xlink:href="#Arial-BoldMT-74" transform="translate(1087.15625 0)"/>
      <use xlink:href="#Arial-BoldMT-69" transform="translate(1120.457031 0)"/>
      <use xlink:href="#Arial-BoldMT-6f" transform="translate(1148.240234 0)"/>
      <use xlink:href="#Arial-BoldMT-6e" transform="translate(1209.324219 0)"/>
      <use xlink:href="#Arial-BoldMT-20" transform="translate(1270.408203 0)"/>
      <use xlink:href="#Arial-BoldMT-28" transform="translate(1298.191406 0)"/>
      <use xlink:href="#Arial-BoldMT-6b" transform="translate(1331.492188 0)"/>
      <use xlink:href="#Arial-BoldMT-57" transform="translate(1387.107422 0)"/>
      <use xlink:href="#Arial-BoldMT-68" transform="translate(1481.492188 0)"/>
      <use xlink:href="#Arial-BoldMT-29" transform="translate(1542.576172 0)"/>
     </g>
    </g>
   </g>
   <g id="matplotlib.axis_2">
    <g id="ytick_1">
     <g id="line2d_4">
      <path d="M 47.860625 535.839586 
L 988.180625 535.839586 
" clip-path="url(#p6c763adbb4)" style="fill: none; stroke-dasharray: 3.7,1.6; stroke-dashoffset: 0; stroke: #cccccc; stroke-opacity: 0.3"/>
     </g>
     <g id="text_5">
      <!-- 0.1 -->
      <g style="fill: #262626" transform="translate(23.070625 539.776383) scale(0.11 -0.11)">
       <defs>
        <path id="ArialMT-2e" d="M 581 0 
L 581 641 
L 1222 641 
L 1222 0 
L 581 0 
z
" transform="scale(0.015625)"/>
       </defs>
       <use xlink:href="#ArialMT-30"/>
       <use xlink:href="#ArialMT-2e" transform="translate(55.615234 0)"/>
       <use xlink:href="#ArialMT-31" transform="translate(83.398438 0)"/>
      </g>
     </g>
    </g>
    <g id="ytick_2">
     <g id="line2d_5">
      <path d="M 47.860625 430.312335 
L 988.180625 430.312335 
" clip-path="url(#p6c763adbb4)" style="fill: none; stroke-dasharray: 3.7,1.6; stroke-dashoffset: 0; stroke: #cccccc; stroke-opacity: 0.3"/>
     </g>
     <g id="text_6">
      <!-- 0.2 -->
      <g style="fill: #262626" transform="translate(23.070625 434.249132) scale(0.11 -0.11)">
       <defs>
        <path id="ArialMT-32" d="M 3222 541 
L 3222 0 
L 194 0 
Q 188 203 259 391 
Q 375 700 629 1000 
Q 884 1300 1366 1694 
Q 2113 2306 2375 2664 
Q 2638 3022 2638 3341 
Q 2638 3675 2398 3904 
Q 2159 4134 1775 4134 
Q 1369 4134 1125 3890 
Q 881 3647 878 3216 
L 300 3275 
Q 359 3922 746 4261 
Q 1134 4600 1788 4600 
Q 2447 4600 2831 4234 
Q 3216 3869 3216 3328 
Q 3216 3053 3103 2787 
Q 2991 2522 2730 2228 
Q 2469 1934 1863 1422 
Q 1356 997 1212 845 
Q 1069 694 975 541 
L 3222 541 
z
" transform="scale(0.015625)"/>
       </defs>
       <use xlink:href="#ArialMT-30"/>
       <use xlink:href="#ArialMT-2e" transform="translate(55.615234 0)"/>
       <use xlink:href="#ArialMT-32" transform="translate(83.398438 0)"/>
      </g>
     </g>
    </g>
    <g id="ytick_3">
     <g id="line2d_6">
      <path d="M 47.860625 324.785085 
L 988.180625 324.785085 
" clip-path="url(#p6c763adbb4)" style="fill: none; stroke-dasharray: 3.7,1.6; stroke-dashoffset: 0; stroke: #cccccc; stroke-opacity: 0.3"/>
     </g>
     <g id="text_7">
      <!-- 0.3 -->
      <g style="fill: #262626" transform="translate(23.070625 328.721882) scale(0.11 -0.11)">
       <defs>
        <path id="ArialMT-33" d="M 269 1209 
L 831 1284 
Q 928 806 1161 595 
Q 1394 384 1728 384 
Q 2125 384 2398 659 
Q 2672 934 2672 1341 
Q 2672 1728 2419 1979 
Q 2166 2231 1775 2231 
Q 1616 2231 1378 2169 
L 1441 2663 
Q 1497 2656 1531 2656 
Q 1891 2656 2178 2843 
Q 2466 3031 2466 3422 
Q 2466 3731 2256 3934 
Q 2047 4138 1716 4138 
Q 1388 4138 1169 3931 
Q 950 3725 888 3313 
L 325 3413 
Q 428 3978 793 4289 
Q 1159 4600 1703 4600 
Q 2078 4600 2393 4439 
Q 2709 4278 2876 4000 
Q 3044 3722 3044 3409 
Q 3044 3113 2884 2869 
Q 2725 2625 2413 2481 
Q 2819 2388 3044 2092 
Q 3269 1797 3269 1353 
Q 3269 753 2831 336 
Q 2394 -81 1725 -81 
Q 1122 -81 723 278 
Q 325 638 269 1209 
z
" transform="scale(0.015625)"/>
       </defs>
       <use xlink:href="#ArialMT-30"/>
       <use xlink:href="#ArialMT-2e" transform="translate(55.615234 0)"/>
       <use xlink:href="#ArialMT-33" transform="translate(83.398438 0)"/>
      </g>
     </g>
    </g>
    <g id="ytick_4">
     <g id="line2d_7">
      <path d="M 47.860625 219.257834 
L 988.180625 219.257834 
" clip-path="url(#p6c763adbb4)" style="fill: none; stroke-dasharray: 3.7,1.6; stroke-dashoffset: 0; stroke: #cccccc; stroke-opacity: 0.3"/>
     </g>
     <g id="text_8">
      <!-- 0.4 -->
      <g style="fill: #262626" transform="translate(23.070625 223.194631) scale(0.11 -0.11)">
       <defs>
        <path id="ArialMT-34" d="M 2069 0 
L 2069 1097 
L 81 1097 
L 81 1613 
L 2172 4581 
L 2631 4581 
L 2631 1613 
L 3250 1613 
L 3250 1097 
L 2631 1097 
L 2631 0 
L 2069 0 
z
M 2069 1613 
L 2069 3678 
L 634 1613 
L 2069 1613 
z
" transform="scale(0.015625)"/>
       </defs>
       <use xlink:href="#ArialMT-30"/>
       <use xlink:href="#ArialMT-2e" transform="translate(55.615234 0)"/>
       <use xlink:href="#ArialMT-34" transform="translate(83.398438 0)"/>
      </g>
     </g>
    </g>
    <g id="ytick_5">
     <g id="line2d_8">
      <path d="M 47.860625 113.730584 
L 988.180625 113.730584 
" clip-path="url(#p6c763adbb4)" style="fill: none; stroke-dasharray: 3.7,1.6; stroke-dashoffset: 0; stroke: #cccccc; stroke-opacity: 0.3"/>
     </g>
     <g id="text_9">
      <!-- 0.5 -->
      <g style="fill: #262626" transform="translate(23.070625 117.66738) scale(0.11 -0.11)">
       <defs>
        <path id="ArialMT-35" d="M 266 1200 
L 856 1250 
Q 922 819 1161 601 
Q 1400 384 1738 384 
Q 2144 384 2425 690 
Q 2706 997 2706 1503 
Q 2706 1984 2436 2262 
Q 2166 2541 1728 2541 
Q 1456 2541 1237 2417 
Q 1019 2294 894 2097 
L 366 2166 
L 809 4519 
L 3088 4519 
L 3088 3981 
L 1259 3981 
L 1013 2750 
Q 1425 3038 1878 3038 
Q 2478 3038 2890 2622 
Q 3303 2206 3303 1553 
Q 3303 931 2941 478 
Q 2500 -78 1738 -78 
Q 1113 -78 717 272 
Q 322 622 266 1200 
z
" transform="scale(0.015625)"/>
       </defs>
       <use xlink:href="#ArialMT-30"/>
       <use xlink:href="#ArialMT-2e" transform="translate(55.615234 0)"/>
       <use xlink:href="#ArialMT-35" transform="translate(83.398438 0)"/>
      </g>
     </g>
    </g>
    <g id="text_10">
     <!-- F1 Score -->
     <g style="fill: #262626" transform="translate(16.505156 348.064234) rotate(-90) scale(0.13 -0.13)">
      <defs>
       <path id="Arial-BoldMT-46" d="M 472 0 
L 472 4581 
L 3613 4581 
L 3613 3806 
L 1397 3806 
L 1397 2722 
L 3309 2722 
L 3309 1947 
L 1397 1947 
L 1397 0 
L 472 0 
z
" transform="scale(0.015625)"/>
       <path id="Arial-BoldMT-31" d="M 2519 0 
L 1641 0 
L 1641 3309 
Q 1159 2859 506 2644 
L 506 3441 
Q 850 3553 1253 3867 
Q 1656 4181 1806 4600 
L 2519 4600 
L 2519 0 
z
" transform="scale(0.015625)"/>
       <path id="Arial-BoldMT-53" d="M 231 1491 
L 1131 1578 
Q 1213 1125 1461 912 
Q 1709 700 2131 700 
Q 2578 700 2804 889 
Q 3031 1078 3031 1331 
Q 3031 1494 2936 1608 
Q 2841 1722 2603 1806 
Q 2441 1863 1863 2006 
Q 1119 2191 819 2459 
Q 397 2838 397 3381 
Q 397 3731 595 4036 
Q 794 4341 1167 4500 
Q 1541 4659 2069 4659 
Q 2931 4659 3367 4281 
Q 3803 3903 3825 3272 
L 2900 3231 
Q 2841 3584 2645 3739 
Q 2450 3894 2059 3894 
Q 1656 3894 1428 3728 
Q 1281 3622 1281 3444 
Q 1281 3281 1419 3166 
Q 1594 3019 2269 2859 
Q 2944 2700 3267 2529 
Q 3591 2359 3773 2064 
Q 3956 1769 3956 1334 
Q 3956 941 3737 597 
Q 3519 253 3119 86 
Q 2719 -81 2122 -81 
Q 1253 -81 787 320 
Q 322 722 231 1491 
z
" transform="scale(0.015625)"/>
       <path id="Arial-BoldMT-63" d="M 3353 2338 
L 2488 2181 
Q 2444 2441 2289 2572 
Q 2134 2703 1888 2703 
Q 1559 2703 1364 2476 
Q 1169 2250 1169 1719 
Q 1169 1128 1367 884 
Q 1566 641 1900 641 
Q 2150 641 2309 783 
Q 2469 925 2534 1272 
L 3397 1125 
Q 3263 531 2881 228 
Q 2500 -75 1859 -75 
Q 1131 -75 698 384 
Q 266 844 266 1656 
Q 266 2478 700 2936 
Q 1134 3394 1875 3394 
Q 2481 3394 2839 3133 
Q 3197 2872 3353 2338 
z
" transform="scale(0.015625)"/>
      </defs>
      <use xlink:href="#Arial-BoldMT-46"/>
      <use xlink:href="#Arial-BoldMT-31" transform="translate(61.083984 0)"/>
      <use xlink:href="#Arial-BoldMT-20" transform="translate(116.699219 0)"/>
      <use xlink:href="#Arial-BoldMT-53" transform="translate(144.482422 0)"/>
      <use xlink:href="#Arial-BoldMT-63" transform="translate(211.181641 0)"/>
      <use xlink:href="#Arial-BoldMT-6f" transform="translate(266.796875 0)"/>
      <use xlink:href="#Arial-BoldMT-72" transform="translate(327.880859 0)"/>
      <use xlink:href="#Arial-BoldMT-65" transform="translate(366.796875 0)"/>
     </g>
    </g>
   </g>
   <g id="PathCollection_1">
    <path d="M 214.472266 567.107201 
C 215.65829 567.107201 216.795898 566.635989 217.634544 565.797343 
C 218.473189 564.958697 218.944402 563.82109 218.944402 562.635065 
C 218.944402 561.449041 218.473189 560.311434 217.634544 559.472788 
C 216.795898 558.634142 215.65829 558.162929 214.472266 558.162929 
C 213.286242 558.162929 212.148634 558.634142 211.309988 559.472788 
C 210.471342 560.311434 210.00013 561.449041 210.00013 562.635065 
C 210.00013 563.82109 210.471342 564.958697 211.309988 565.797343 
C 212.148634 566.635989 213.286242 567.107201 214.472266 567.107201 
z
" clip-path="url(#p6c763adbb4)" style="fill: #5d3a9b; fill-opacity: 0.8"/>
   </g>
   <g id="PathCollection_2">
    <path d="M 388.051929 556.683219 
C 389.237954 556.683219 390.375561 556.212007 391.214207 555.373361 
C 392.052853 554.534715 392.524065 553.397108 392.524065 552.211084 
C 392.524065 551.025059 392.052853 549.887452 391.214207 549.048806 
C 390.375561 548.21016 389.237954 547.738948 388.051929 547.738948 
C 386.865905 547.738948 385.728298 548.21016 384.889652 549.048806 
C 384.051006 549.887452 383.579793 551.025059 383.579793 552.211084 
C 383.579793 553.397108 384.051006 554.534715 384.889652 555.373361 
C 385.728298 556.212007 386.865905 556.683219 388.051929 556.683219 
z
" clip-path="url(#p6c763adbb4)" style="fill: #e66100; fill-opacity: 0.8"/>
   </g>
   <g id="PathCollection_3">
    <path d="M 159.397496 406.53166 
L 168.341768 406.53166 
L 168.341768 397.587389 
L 159.397496 397.587389 
z
" clip-path="url(#p6c763adbb4)" style="fill: #5d3a9b; fill-opacity: 0.8"/>
   </g>
   <g id="PathCollection_4">
    <path d="M 92.821787 274.112063 
L 88.349651 283.056335 
L 97.293923 283.056335 
z
" clip-path="url(#p6c763adbb4)" style="fill: #5d3a9b; fill-opacity: 0.8"/>
   </g>
   <g id="PathCollection_5">
    <path d="M 411.39897 367.022258 
L 420.343242 367.022258 
L 420.343242 358.077986 
L 411.39897 358.077986 
z
" clip-path="url(#p6c763adbb4)" style="fill: #e66100; fill-opacity: 0.8"/>
   </g>
   <g id="PathCollection_6">
    <path d="M 475.56553 195.917426 
L 471.093394 204.861698 
L 480.037666 204.861698 
z
" clip-path="url(#p6c763adbb4)" style="fill: #e66100; fill-opacity: 0.8"/>
   </g>
   <g id="PathCollection_7">
    <path d="M 90.602443 511.28223 
C 91.788468 511.28223 92.926075 510.811018 93.764721 509.972372 
C 94.603367 509.133726 95.074579 507.996119 95.074579 506.810095 
C 95.074579 505.62407 94.603367 504.486463 93.764721 503.647817 
C 92.926075 502.809171 91.788468 502.337959 90.602443 502.337959 
C 89.416419 502.337959 88.278811 502.809171 87.440166 503.647817 
C 86.60152 504.486463 86.130307 505.62407 86.130307 506.810095 
C 86.130307 507.996119 86.60152 509.133726 87.440166 509.972372 
C 88.278811 510.811018 89.416419 511.28223 90.602443 511.28223 
z
" clip-path="url(#p6c763adbb4)" style="fill: #5d3a9b; fill-opacity: 0.8"/>
   </g>
   <g id="PathCollection_8">
    <path d="M 396.580506 478.160392 
C 397.76653 478.160392 398.904138 477.68918 399.742784 476.850534 
C 400.581429 476.011888 401.052642 474.874281 401.052642 473.688256 
C 401.052642 472.502232 400.581429 471.364625 399.742784 470.525979 
C 398.904138 469.687333 397.76653 469.21612 396.580506 469.21612 
C 395.394482 469.21612 394.256874 469.687333 393.418228 470.525979 
C 392.579582 471.364625 392.10837 472.502232 392.10837 473.688256 
C 392.10837 474.874281 392.579582 476.011888 393.418228 476.850534 
C 394.256874 477.68918 395.394482 478.160392 396.580506 478.160392 
z
" clip-path="url(#p6c763adbb4)" style="fill: #e66100; fill-opacity: 0.8"/>
   </g>
   <g id="PathCollection_9">
    <path d="M 245.464 311.431557 
L 254.408272 311.431557 
L 254.408272 302.487286 
L 245.464 302.487286 
z
" clip-path="url(#p6c763adbb4)" style="fill: #5d3a9b; fill-opacity: 0.8"/>
   </g>
   <g id="PathCollection_10">
    <path d="M 114.890516 154.702703 
L 110.41838 163.646975 
L 119.362652 163.646975 
z
" clip-path="url(#p6c763adbb4)" style="fill: #5d3a9b; fill-opacity: 0.8"/>
   </g>
   <g id="PathCollection_11">
    <path d="M 430.542639 299.113362 
L 439.486911 299.113362 
L 439.486911 290.16909 
L 430.542639 290.16909 
z
" clip-path="url(#p6c763adbb4)" style="fill: #e66100; fill-opacity: 0.8"/>
   </g>
   <g id="PathCollection_12">
    <path d="M 418.808288 122.402922 
L 414.336152 131.347194 
L 423.280424 131.347194 
z
" clip-path="url(#p6c763adbb4)" style="fill: #e66100; fill-opacity: 0.8"/>
   </g>
   <g id="PathCollection_13">
    <path d="M 555.910195 390.532674 
C 557.096219 390.532674 558.233827 390.061462 559.072473 389.222816 
C 559.911118 388.38417 560.382331 387.246562 560.382331 386.060538 
C 560.382331 384.874514 559.911118 383.736906 559.072473 382.89826 
C 558.233827 382.059615 557.096219 381.588402 555.910195 381.588402 
C 554.724171 381.588402 553.586563 382.059615 552.747917 382.89826 
C 551.909271 383.736906 551.438059 384.874514 551.438059 386.060538 
C 551.438059 387.246562 551.909271 388.38417 552.747917 389.222816 
C 553.586563 390.061462 554.724171 390.532674 555.910195 390.532674 
z
" clip-path="url(#p6c763adbb4)" style="fill: #5d3a9b; fill-opacity: 0.8"/>
   </g>
   <g id="PathCollection_14">
    <path d="M 561.802465 396.507627 
C 562.988489 396.507627 564.126097 396.036414 564.964743 395.197769 
C 565.803389 394.359123 566.274601 393.221515 566.274601 392.035491 
C 566.274601 390.849467 565.803389 389.711859 564.964743 388.873213 
C 564.126097 388.034567 562.988489 387.563355 561.802465 387.563355 
C 560.616441 387.563355 559.478833 388.034567 558.640187 388.873213 
C 557.801542 389.711859 557.330329 390.849467 557.330329 392.035491 
C 557.330329 393.221515 557.801542 394.359123 558.640187 395.197769 
C 559.478833 396.036414 560.616441 396.507627 561.802465 396.507627 
z
" clip-path="url(#p6c763adbb4)" style="fill: #e66100; fill-opacity: 0.8"/>
   </g>
   <g id="PathCollection_15">
    <path d="M 534.066177 269.218547 
L 543.010449 269.218547 
L 543.010449 260.274275 
L 534.066177 260.274275 
z
" clip-path="url(#p6c763adbb4)" style="fill: #5d3a9b; fill-opacity: 0.8"/>
   </g>
   <g id="PathCollection_16">
    <path d="M 591.142901 74.110486 
L 586.670765 83.054758 
L 595.615037 83.054758 
z
" clip-path="url(#p6c763adbb4)" style="fill: #5d3a9b; fill-opacity: 0.8"/>
   </g>
   <g id="PathCollection_17">
    <path d="M 534.016908 280.633429 
L 542.96118 280.633429 
L 542.96118 271.689157 
L 534.016908 271.689157 
z
" clip-path="url(#p6c763adbb4)" style="fill: #e66100; fill-opacity: 0.8"/>
   </g>
   <g id="PathCollection_18">
    <path d="M 559.770886 80.155087 
L 555.29875 89.099359 
L 564.243021 89.099359 
z
" clip-path="url(#p6c763adbb4)" style="fill: #e66100; fill-opacity: 0.8"/>
   </g>
   <g id="PathCollection_19">
    <path d="M 186.869922 466.103904 
C 188.055947 466.103904 189.193554 465.632691 190.0322 464.794046 
C 190.870846 463.9554 191.342058 462.817792 191.342058 461.631768 
C 191.342058 460.445744 190.870846 459.308136 190.0322 458.46949 
C 189.193554 457.630844 188.055947 457.159632 186.869922 457.159632 
C 185.683898 457.159632 184.54629 457.630844 183.707645 458.46949 
C 182.868999 459.308136 182.397786 460.445744 182.397786 461.631768 
C 182.397786 462.817792 182.868999 463.9554 183.707645 464.794046 
C 184.54629 465.632691 185.683898 466.103904 186.869922 466.103904 
z
" clip-path="url(#p6c763adbb4)" style="fill: #5d3a9b; fill-opacity: 0.8"/>
   </g>
   <g id="PathCollection_20">
    <path d="M 705.367308 456.815395 
C 706.553333 456.815395 707.69094 456.344183 708.529586 455.505537 
C 709.368232 454.666891 709.839444 453.529284 709.839444 452.343259 
C 709.839444 451.157235 709.368232 450.019628 708.529586 449.180982 
C 707.69094 448.342336 706.553333 447.871123 705.367308 447.871123 
C 704.181284 447.871123 703.043677 448.342336 702.205031 449.180982 
C 701.366385 450.019628 700.895172 451.157235 700.895172 452.343259 
C 700.895172 453.529284 701.366385 454.666891 702.205031 455.505537 
C 703.043677 456.344183 704.181284 456.815395 705.367308 456.815395 
z
" clip-path="url(#p6c763adbb4)" style="fill: #e66100; fill-opacity: 0.8"/>
   </g>
   <g id="PathCollection_21">
    <path d="M 160.020361 291.32545 
L 168.964633 291.32545 
L 168.964633 282.381179 
L 160.020361 282.381179 
z
" clip-path="url(#p6c763adbb4)" style="fill: #5d3a9b; fill-opacity: 0.8"/>
   </g>
   <g id="PathCollection_22">
    <path d="M 176.921454 128.044409 
L 172.449318 136.988681 
L 181.39359 136.988681 
z
" clip-path="url(#p6c763adbb4)" style="fill: #5d3a9b; fill-opacity: 0.8"/>
   </g>
   <g id="PathCollection_23">
    <path d="M 610.409678 333.344291 
L 619.35395 333.344291 
L 619.35395 324.400019 
L 610.409678 324.400019 
z
" clip-path="url(#p6c763adbb4)" style="fill: #e66100; fill-opacity: 0.8"/>
   </g>
   <g id="PathCollection_24">
    <path d="M 617.807416 191.913722 
L 613.33528 200.857994 
L 622.279552 200.857994 
z
" clip-path="url(#p6c763adbb4)" style="fill: #e66100; fill-opacity: 0.8"/>
   </g>
   <g id="PathCollection_25">
    <path d="M 213.92379 453.292896 
C 215.109815 453.292896 216.247422 452.821683 217.086068 451.983037 
C 217.924714 451.144392 218.395926 450.006784 218.395926 448.82076 
C 218.395926 447.634735 217.924714 446.497128 217.086068 445.658482 
C 216.247422 444.819836 215.109815 444.348624 213.92379 444.348624 
C 212.737766 444.348624 211.600159 444.819836 210.761513 445.658482 
C 209.922867 446.497128 209.451654 447.634735 209.451654 448.82076 
C 209.451654 450.006784 209.922867 451.144392 210.761513 451.983037 
C 211.600159 452.821683 212.737766 453.292896 213.92379 453.292896 
z
" clip-path="url(#p6c763adbb4)" style="fill: #5d3a9b; fill-opacity: 0.8"/>
   </g>
   <g id="PathCollection_26">
    <path d="M 713.259008 395.260295 
C 714.445033 395.260295 715.58264 394.789082 716.421286 393.950437 
C 717.259932 393.111791 717.731144 391.974183 717.731144 390.788159 
C 717.731144 389.602135 717.259932 388.464527 716.421286 387.625881 
C 715.58264 386.787235 714.445033 386.316023 713.259008 386.316023 
C 712.072984 386.316023 710.935377 386.787235 710.096731 387.625881 
C 709.258085 388.464527 708.786872 389.602135 708.786872 390.788159 
C 708.786872 391.974183 709.258085 393.111791 710.096731 393.950437 
C 710.935377 394.789082 712.072984 395.260295 713.259008 395.260295 
z
" clip-path="url(#p6c763adbb4)" style="fill: #e66100; fill-opacity: 0.8"/>
   </g>
   <g id="PathCollection_27">
    <path d="M 211.831095 299.180899 
L 220.775367 299.180899 
L 220.775367 290.236627 
L 211.831095 290.236627 
z
" clip-path="url(#p6c763adbb4)" style="fill: #5d3a9b; fill-opacity: 0.8"/>
   </g>
   <g id="PathCollection_28">
    <path d="M 233.348055 162.079058 
L 228.875919 171.023329 
L 237.820191 171.023329 
z
" clip-path="url(#p6c763adbb4)" style="fill: #5d3a9b; fill-opacity: 0.8"/>
   </g>
   <g id="PathCollection_29">
    <path d="M 709.754628 287.824056 
L 718.6989 287.824056 
L 718.6989 278.879784 
L 709.754628 278.879784 
z
" clip-path="url(#p6c763adbb4)" style="fill: #e66100; fill-opacity: 0.8"/>
   </g>
   <g id="PathCollection_30">
    <path d="M 688.03286 130.207717 
L 683.560724 139.151989 
L 692.504996 139.151989 
z
" clip-path="url(#p6c763adbb4)" style="fill: #e66100; fill-opacity: 0.8"/>
   </g>
   <g id="PathCollection_31">
    <path d="M 334.213589 436.744112 
C 335.399613 436.744112 336.537221 436.2729 337.375867 435.434254 
C 338.214513 434.595608 338.685725 433.458001 338.685725 432.271976 
C 338.685725 431.085952 338.214513 429.948345 337.375867 429.109699 
C 336.537221 428.271053 335.399613 427.79984 334.213589 427.79984 
C 333.027565 427.79984 331.889957 428.271053 331.051311 429.109699 
C 330.212666 429.948345 329.741453 431.085952 329.741453 432.271976 
C 329.741453 433.458001 330.212666 434.595608 331.051311 435.434254 
C 331.889957 436.2729 333.027565 436.744112 334.213589 436.744112 
z
" clip-path="url(#p6c763adbb4)" style="fill: #5d3a9b; fill-opacity: 0.8"/>
   </g>
   <g id="PathCollection_32">
    <path d="M 945.438807 425.423149 
C 946.624831 425.423149 947.762439 424.951936 948.601084 424.113291 
C 949.43973 423.274645 949.910943 422.137037 949.910943 420.951013 
C 949.910943 419.764989 949.43973 418.627381 948.601084 417.788735 
C 947.762439 416.950089 946.624831 416.478877 945.438807 416.478877 
C 944.252782 416.478877 943.115175 416.950089 942.276529 417.788735 
C 941.437883 418.627381 940.966671 419.764989 940.966671 420.951013 
C 940.966671 422.137037 941.437883 423.274645 942.276529 424.113291 
C 943.115175 424.951936 944.252782 425.423149 945.438807 425.423149 
z
" clip-path="url(#p6c763adbb4)" style="fill: #e66100; fill-opacity: 0.8"/>
   </g>
   <g id="patch_3">
    <path d="M 47.860625 586.837687 
L 47.860625 54.38 
" style="fill: none; stroke: #cccccc; stroke-width: 1.25; stroke-linejoin: miter; stroke-linecap: square"/>
   </g>
   <g id="patch_4">
    <path d="M 988.180625 586.837687 
L 988.180625 54.38 
" style="fill: none; stroke: #cccccc; stroke-width: 1.25; stroke-linejoin: miter; stroke-linecap: square"/>
   </g>
   <g id="patch_5">
    <path d="M 47.860625 586.837687 
L 988.180625 586.837687 
" style="fill: none; stroke: #cccccc; stroke-width: 1.25; stroke-linejoin: miter; stroke-linecap: square"/>
   </g>
   <g id="patch_6">
    <path d="M 47.860625 54.38 
L 988.180625 54.38 
" style="fill: none; stroke: #cccccc; stroke-width: 1.25; stroke-linejoin: miter; stroke-linecap: square"/>
   </g>
   <g id="line2d_9">
    <path d="M 90.602443 506.810095 
L 92.821787 278.584199 
L 114.890516 159.174839 
L 176.921454 132.516545 
L 418.808288 126.875058 
L 559.770886 84.627223 
L 591.142901 78.582622 
" clip-path="url(#p6c763adbb4)" style="fill: none; stroke-dasharray: 4,6.6; stroke-dashoffset: 0; stroke: #1a1a1a; stroke-opacity: 0.9; stroke-width: 4"/>
   </g>
   <g id="patch_7">
    <path d="M 117.176315 487.625413 
Q 106.055178 492.819457 97.237777 500.556822 
" style="fill: none; stroke: #000000; stroke-linecap: round"/>
    <path d="M 101.130914 499.535313 
L 97.237777 500.556822 
L 98.756452 496.829407 
" style="fill: none; stroke: #000000; stroke-linecap: round"/>
   </g>
   <g id="text_11">
    <g id="patch_8">
     <path d="M 115.602443 486.298845 
L 188.129787 486.298845 
Q 190.829787 486.298845 190.829787 483.598845 
L 190.829787 475.368063 
Q 190.829787 472.668063 188.129787 472.668063 
L 115.602443 472.668063 
Q 112.902443 472.668063 112.902443 475.368063 
L 112.902443 483.598845 
Q 112.902443 486.298845 115.602443 486.298845 
z
" style="fill: #ffffff; opacity: 0.8; stroke: #ffffff; stroke-linejoin: miter"/>
    </g>
    <!-- 1.7-Base-NoThink -->
    <g style="fill: #262626" transform="translate(115.602443 481.810095) scale(0.09 -0.09)">
     <defs>
      <path id="ArialMT-37" d="M 303 3981 
L 303 4522 
L 3269 4522 
L 3269 4084 
Q 2831 3619 2401 2847 
Q 1972 2075 1738 1259 
Q 1569 684 1522 0 
L 944 0 
Q 953 541 1156 1306 
Q 1359 2072 1739 2783 
Q 2119 3494 2547 3981 
L 303 3981 
z
" transform="scale(0.015625)"/>
      <path id="ArialMT-2d" d="M 203 1375 
L 203 1941 
L 1931 1941 
L 1931 1375 
L 203 1375 
z
" transform="scale(0.015625)"/>
      <path id="ArialMT-42" d="M 469 0 
L 469 4581 
L 2188 4581 
Q 2713 4581 3030 4442 
Q 3347 4303 3526 4014 
Q 3706 3725 3706 3409 
Q 3706 3116 3547 2856 
Q 3388 2597 3066 2438 
Q 3481 2316 3704 2022 
Q 3928 1728 3928 1328 
Q 3928 1006 3792 729 
Q 3656 453 3456 303 
Q 3256 153 2954 76 
Q 2653 0 2216 0 
L 469 0 
z
M 1075 2656 
L 2066 2656 
Q 2469 2656 2644 2709 
Q 2875 2778 2992 2937 
Q 3109 3097 3109 3338 
Q 3109 3566 3000 3739 
Q 2891 3913 2687 3977 
Q 2484 4041 1991 4041 
L 1075 4041 
L 1075 2656 
z
M 1075 541 
L 2216 541 
Q 2509 541 2628 563 
Q 2838 600 2978 687 
Q 3119 775 3209 942 
Q 3300 1109 3300 1328 
Q 3300 1584 3169 1773 
Q 3038 1963 2805 2039 
Q 2572 2116 2134 2116 
L 1075 2116 
L 1075 541 
z
" transform="scale(0.015625)"/>
      <path id="ArialMT-61" d="M 2588 409 
Q 2275 144 1986 34 
Q 1697 -75 1366 -75 
Q 819 -75 525 192 
Q 231 459 231 875 
Q 231 1119 342 1320 
Q 453 1522 633 1644 
Q 813 1766 1038 1828 
Q 1203 1872 1538 1913 
Q 2219 1994 2541 2106 
Q 2544 2222 2544 2253 
Q 2544 2597 2384 2738 
Q 2169 2928 1744 2928 
Q 1347 2928 1158 2789 
Q 969 2650 878 2297 
L 328 2372 
Q 403 2725 575 2942 
Q 747 3159 1072 3276 
Q 1397 3394 1825 3394 
Q 2250 3394 2515 3294 
Q 2781 3194 2906 3042 
Q 3031 2891 3081 2659 
Q 3109 2516 3109 2141 
L 3109 1391 
Q 3109 606 3145 398 
Q 3181 191 3288 0 
L 2700 0 
Q 2613 175 2588 409 
z
M 2541 1666 
Q 2234 1541 1622 1453 
Q 1275 1403 1131 1340 
Q 988 1278 909 1158 
Q 831 1038 831 891 
Q 831 666 1001 516 
Q 1172 366 1500 366 
Q 1825 366 2078 508 
Q 2331 650 2450 897 
Q 2541 1088 2541 1459 
L 2541 1666 
z
" transform="scale(0.015625)"/>
      <path id="ArialMT-73" d="M 197 991 
L 753 1078 
Q 800 744 1014 566 
Q 1228 388 1613 388 
Q 2000 388 2187 545 
Q 2375 703 2375 916 
Q 2375 1106 2209 1216 
Q 2094 1291 1634 1406 
Q 1016 1563 777 1677 
Q 538 1791 414 1992 
Q 291 2194 291 2438 
Q 291 2659 392 2848 
Q 494 3038 669 3163 
Q 800 3259 1026 3326 
Q 1253 3394 1513 3394 
Q 1903 3394 2198 3281 
Q 2494 3169 2634 2976 
Q 2775 2784 2828 2463 
L 2278 2388 
Q 2241 2644 2061 2787 
Q 1881 2931 1553 2931 
Q 1166 2931 1000 2803 
Q 834 2675 834 2503 
Q 834 2394 903 2306 
Q 972 2216 1119 2156 
Q 1203 2125 1616 2013 
Q 2213 1853 2448 1751 
Q 2684 1650 2818 1456 
Q 2953 1263 2953 975 
Q 2953 694 2789 445 
Q 2625 197 2315 61 
Q 2006 -75 1616 -75 
Q 969 -75 630 194 
Q 291 463 197 991 
z
" transform="scale(0.015625)"/>
      <path id="ArialMT-65" d="M 2694 1069 
L 3275 997 
Q 3138 488 2766 206 
Q 2394 -75 1816 -75 
Q 1088 -75 661 373 
Q 234 822 234 1631 
Q 234 2469 665 2931 
Q 1097 3394 1784 3394 
Q 2450 3394 2872 2941 
Q 3294 2488 3294 1666 
Q 3294 1616 3291 1516 
L 816 1516 
Q 847 969 1125 678 
Q 1403 388 1819 388 
Q 2128 388 2347 550 
Q 2566 713 2694 1069 
z
M 847 1978 
L 2700 1978 
Q 2663 2397 2488 2606 
Q 2219 2931 1791 2931 
Q 1403 2931 1139 2672 
Q 875 2413 847 1978 
z
" transform="scale(0.015625)"/>
      <path id="ArialMT-4e" d="M 488 0 
L 488 4581 
L 1109 4581 
L 3516 984 
L 3516 4581 
L 4097 4581 
L 4097 0 
L 3475 0 
L 1069 3600 
L 1069 0 
L 488 0 
z
" transform="scale(0.015625)"/>
      <path id="ArialMT-6f" d="M 213 1659 
Q 213 2581 725 3025 
Q 1153 3394 1769 3394 
Q 2453 3394 2887 2945 
Q 3322 2497 3322 1706 
Q 3322 1066 3130 698 
Q 2938 331 2570 128 
Q 2203 -75 1769 -75 
Q 1072 -75 642 372 
Q 213 819 213 1659 
z
M 791 1659 
Q 791 1022 1069 705 
Q 1347 388 1769 388 
Q 2188 388 2466 706 
Q 2744 1025 2744 1678 
Q 2744 2294 2464 2611 
Q 2184 2928 1769 2928 
Q 1347 2928 1069 2612 
Q 791 2297 791 1659 
z
" transform="scale(0.015625)"/>
      <path id="ArialMT-54" d="M 1659 0 
L 1659 4041 
L 150 4041 
L 150 4581 
L 3781 4581 
L 3781 4041 
L 2266 4041 
L 2266 0 
L 1659 0 
z
" transform="scale(0.015625)"/>
      <path id="ArialMT-68" d="M 422 0 
L 422 4581 
L 984 4581 
L 984 2938 
Q 1378 3394 1978 3394 
Q 2347 3394 2619 3248 
Q 2891 3103 3008 2847 
Q 3125 2591 3125 2103 
L 3125 0 
L 2563 0 
L 2563 2103 
Q 2563 2525 2380 2717 
Q 2197 2909 1863 2909 
Q 1613 2909 1392 2779 
Q 1172 2650 1078 2428 
Q 984 2206 984 1816 
L 984 0 
L 422 0 
z
" transform="scale(0.015625)"/>
      <path id="ArialMT-69" d="M 425 3934 
L 425 4581 
L 988 4581 
L 988 3934 
L 425 3934 
z
M 425 0 
L 425 3319 
L 988 3319 
L 988 0 
L 425 0 
z
" transform="scale(0.015625)"/>
      <path id="ArialMT-6e" d="M 422 0 
L 422 3319 
L 928 3319 
L 928 2847 
Q 1294 3394 1984 3394 
Q 2284 3394 2536 3286 
Q 2788 3178 2913 3003 
Q 3038 2828 3088 2588 
Q 3119 2431 3119 2041 
L 3119 0 
L 2556 0 
L 2556 2019 
Q 2556 2363 2490 2533 
Q 2425 2703 2258 2804 
Q 2091 2906 1866 2906 
Q 1506 2906 1245 2678 
Q 984 2450 984 1813 
L 984 0 
L 422 0 
z
" transform="scale(0.015625)"/>
      <path id="ArialMT-6b" d="M 425 0 
L 425 4581 
L 988 4581 
L 988 1969 
L 2319 3319 
L 3047 3319 
L 1778 2088 
L 3175 0 
L 2481 0 
L 1384 1697 
L 988 1316 
L 988 0 
L 425 0 
z
" transform="scale(0.015625)"/>
     </defs>
     <use xlink:href="#ArialMT-31"/>
     <use xlink:href="#ArialMT-2e" transform="translate(55.615234 0)"/>
     <use xlink:href="#ArialMT-37" transform="translate(83.398438 0)"/>
     <use xlink:href="#ArialMT-2d" transform="translate(139.013672 0)"/>
     <use xlink:href="#ArialMT-42" transform="translate(172.314453 0)"/>
     <use xlink:href="#ArialMT-61" transform="translate(239.013672 0)"/>
     <use xlink:href="#ArialMT-73" transform="translate(294.628906 0)"/>
     <use xlink:href="#ArialMT-65" transform="translate(344.628906 0)"/>
     <use xlink:href="#ArialMT-2d" transform="translate(400.244141 0)"/>
     <use xlink:href="#ArialMT-4e" transform="translate(433.544922 0)"/>
     <use xlink:href="#ArialMT-6f" transform="translate(505.761719 0)"/>
     <use xlink:href="#ArialMT-54" transform="translate(561.376953 0)"/>
     <use xlink:href="#ArialMT-68" transform="translate(622.460938 0)"/>
     <use xlink:href="#ArialMT-69" transform="translate(678.076172 0)"/>
     <use xlink:href="#ArialMT-6e" transform="translate(700.292969 0)"/>
     <use xlink:href="#ArialMT-6b" transform="translate(755.908203 0)"/>
    </g>
   </g>
   <g id="patch_9">
    <path d="M 118.31814 259.422034 
Q 107.647533 264.588516 99.318475 272.19125 
" style="fill: none; stroke: #000000; stroke-linecap: round"/>
    <path d="M 103.190856 271.093676 
L 99.318475 272.19125 
L 100.763845 268.434801 
" style="fill: none; stroke: #000000; stroke-linecap: round"/>
   </g>
   <g id="text_12">
    <g id="patch_10">
     <path d="M 117.821787 258.072949 
L 182.839756 258.072949 
Q 185.539756 258.072949 185.539756 255.372949 
L 185.539756 247.142168 
Q 185.539756 244.442168 182.839756 244.442168 
L 117.821787 244.442168 
Q 115.121787 244.442168 115.121787 247.142168 
L 115.121787 255.372949 
Q 115.121787 258.072949 117.821787 258.072949 
z
" style="fill: #ffffff; opacity: 0.8; stroke: #ffffff; stroke-linejoin: miter"/>
    </g>
    <!-- 0.6-GS-NoThink -->
    <g style="fill: #262626" transform="translate(117.821787 253.584199) scale(0.09 -0.09)">
     <defs>
      <path id="ArialMT-36" d="M 3184 3459 
L 2625 3416 
Q 2550 3747 2413 3897 
Q 2184 4138 1850 4138 
Q 1581 4138 1378 3988 
Q 1113 3794 959 3422 
Q 806 3050 800 2363 
Q 1003 2672 1297 2822 
Q 1591 2972 1913 2972 
Q 2475 2972 2870 2558 
Q 3266 2144 3266 1488 
Q 3266 1056 3080 686 
Q 2894 316 2569 119 
Q 2244 -78 1831 -78 
Q 1128 -78 684 439 
Q 241 956 241 2144 
Q 241 3472 731 4075 
Q 1159 4600 1884 4600 
Q 2425 4600 2770 4297 
Q 3116 3994 3184 3459 
z
M 888 1484 
Q 888 1194 1011 928 
Q 1134 663 1356 523 
Q 1578 384 1822 384 
Q 2178 384 2434 671 
Q 2691 959 2691 1453 
Q 2691 1928 2437 2201 
Q 2184 2475 1800 2475 
Q 1419 2475 1153 2201 
Q 888 1928 888 1484 
z
" transform="scale(0.015625)"/>
      <path id="ArialMT-47" d="M 2638 1797 
L 2638 2334 
L 4578 2338 
L 4578 638 
Q 4131 281 3656 101 
Q 3181 -78 2681 -78 
Q 2006 -78 1454 211 
Q 903 500 622 1047 
Q 341 1594 341 2269 
Q 341 2938 620 3517 
Q 900 4097 1425 4378 
Q 1950 4659 2634 4659 
Q 3131 4659 3532 4498 
Q 3934 4338 4162 4050 
Q 4391 3763 4509 3300 
L 3963 3150 
Q 3859 3500 3706 3700 
Q 3553 3900 3268 4020 
Q 2984 4141 2638 4141 
Q 2222 4141 1919 4014 
Q 1616 3888 1430 3681 
Q 1244 3475 1141 3228 
Q 966 2803 966 2306 
Q 966 1694 1177 1281 
Q 1388 869 1791 669 
Q 2194 469 2647 469 
Q 3041 469 3416 620 
Q 3791 772 3984 944 
L 3984 1797 
L 2638 1797 
z
" transform="scale(0.015625)"/>
      <path id="ArialMT-53" d="M 288 1472 
L 859 1522 
Q 900 1178 1048 958 
Q 1197 738 1509 602 
Q 1822 466 2213 466 
Q 2559 466 2825 569 
Q 3091 672 3220 851 
Q 3350 1031 3350 1244 
Q 3350 1459 3225 1620 
Q 3100 1781 2813 1891 
Q 2628 1963 1997 2114 
Q 1366 2266 1113 2400 
Q 784 2572 623 2826 
Q 463 3081 463 3397 
Q 463 3744 659 4045 
Q 856 4347 1234 4503 
Q 1613 4659 2075 4659 
Q 2584 4659 2973 4495 
Q 3363 4331 3572 4012 
Q 3781 3694 3797 3291 
L 3216 3247 
Q 3169 3681 2898 3903 
Q 2628 4125 2100 4125 
Q 1550 4125 1298 3923 
Q 1047 3722 1047 3438 
Q 1047 3191 1225 3031 
Q 1400 2872 2139 2705 
Q 2878 2538 3153 2413 
Q 3553 2228 3743 1945 
Q 3934 1663 3934 1294 
Q 3934 928 3725 604 
Q 3516 281 3123 101 
Q 2731 -78 2241 -78 
Q 1619 -78 1198 103 
Q 778 284 539 648 
Q 300 1013 288 1472 
z
" transform="scale(0.015625)"/>
     </defs>
     <use xlink:href="#ArialMT-30"/>
     <use xlink:href="#ArialMT-2e" transform="translate(55.615234 0)"/>
     <use xlink:href="#ArialMT-36" transform="translate(83.398438 0)"/>
     <use xlink:href="#ArialMT-2d" transform="translate(139.013672 0)"/>
     <use xlink:href="#ArialMT-47" transform="translate(172.314453 0)"/>
     <use xlink:href="#ArialMT-53" transform="translate(250.097656 0)"/>
     <use xlink:href="#ArialMT-2d" transform="translate(316.796875 0)"/>
     <use xlink:href="#ArialMT-4e" transform="translate(350.097656 0)"/>
     <use xlink:href="#ArialMT-6f" transform="translate(422.314453 0)"/>
     <use xlink:href="#ArialMT-54" transform="translate(477.929688 0)"/>
     <use xlink:href="#ArialMT-68" transform="translate(539.013672 0)"/>
     <use xlink:href="#ArialMT-69" transform="translate(594.628906 0)"/>
     <use xlink:href="#ArialMT-6e" transform="translate(616.845703 0)"/>
     <use xlink:href="#ArialMT-6b" transform="translate(672.460938 0)"/>
    </g>
   </g>
   <g id="patch_11">
    <path d="M 201.253501 113.383099 
Q 191.071777 118.523409 183.263299 125.969039 
" style="fill: none; stroke: #000000; stroke-linecap: round"/>
    <path d="M 187.110863 124.787408 
L 183.263299 125.969039 
L 184.626533 122.182009 
" style="fill: none; stroke: #000000; stroke-linecap: round"/>
   </g>
   <g id="text_13">
    <g id="patch_12">
     <path d="M 201.921454 112.005295 
L 259.434266 112.005295 
Q 262.134266 112.005295 262.134266 109.305295 
L 262.134266 101.074513 
Q 262.134266 98.374513 259.434266 98.374513 
L 201.921454 98.374513 
Q 199.221454 98.374513 199.221454 101.074513 
L 199.221454 109.305295 
Q 199.221454 112.005295 201.921454 112.005295 
z
" style="fill: #ffffff; opacity: 0.8; stroke: #ffffff; stroke-linejoin: miter"/>
    </g>
    <!-- 8-GS-NoThink -->
    <g style="fill: #262626" transform="translate(201.921454 107.516545) scale(0.09 -0.09)">
     <defs>
      <path id="ArialMT-38" d="M 1131 2484 
Q 781 2613 612 2850 
Q 444 3088 444 3419 
Q 444 3919 803 4259 
Q 1163 4600 1759 4600 
Q 2359 4600 2725 4251 
Q 3091 3903 3091 3403 
Q 3091 3084 2923 2848 
Q 2756 2613 2416 2484 
Q 2838 2347 3058 2040 
Q 3278 1734 3278 1309 
Q 3278 722 2862 322 
Q 2447 -78 1769 -78 
Q 1091 -78 675 323 
Q 259 725 259 1325 
Q 259 1772 486 2073 
Q 713 2375 1131 2484 
z
M 1019 3438 
Q 1019 3113 1228 2906 
Q 1438 2700 1772 2700 
Q 2097 2700 2305 2904 
Q 2513 3109 2513 3406 
Q 2513 3716 2298 3927 
Q 2084 4138 1766 4138 
Q 1444 4138 1231 3931 
Q 1019 3725 1019 3438 
z
M 838 1322 
Q 838 1081 952 856 
Q 1066 631 1291 507 
Q 1516 384 1775 384 
Q 2178 384 2440 643 
Q 2703 903 2703 1303 
Q 2703 1709 2433 1975 
Q 2163 2241 1756 2241 
Q 1359 2241 1098 1978 
Q 838 1716 838 1322 
z
" transform="scale(0.015625)"/>
     </defs>
     <use xlink:href="#ArialMT-38"/>
     <use xlink:href="#ArialMT-2d" transform="translate(55.615234 0)"/>
     <use xlink:href="#ArialMT-47" transform="translate(88.916016 0)"/>
     <use xlink:href="#ArialMT-53" transform="translate(166.699219 0)"/>
     <use xlink:href="#ArialMT-2d" transform="translate(233.398438 0)"/>
     <use xlink:href="#ArialMT-4e" transform="translate(266.699219 0)"/>
     <use xlink:href="#ArialMT-6f" transform="translate(338.916016 0)"/>
     <use xlink:href="#ArialMT-54" transform="translate(394.53125 0)"/>
     <use xlink:href="#ArialMT-68" transform="translate(455.615234 0)"/>
     <use xlink:href="#ArialMT-69" transform="translate(511.230469 0)"/>
     <use xlink:href="#ArialMT-6e" transform="translate(533.447266 0)"/>
     <use xlink:href="#ArialMT-6b" transform="translate(589.0625 0)"/>
    </g>
   </g>
   <g id="patch_13">
    <path d="M 583.460857 105.486883 
Q 573.147846 99.819887 565.632476 91.609607 
" style="fill: none; stroke: #000000; stroke-linecap: round"/>
    <path d="M 566.735459 95.48045 
L 565.632476 91.609607 
L 569.39094 93.049726 
" style="fill: none; stroke: #000000; stroke-linecap: round"/>
   </g>
   <g id="text_14">
    <g id="patch_14">
     <path d="M 584.770886 120.558004 
L 630.779167 120.558004 
Q 633.479167 120.558004 633.479167 117.858004 
L 633.479167 109.627223 
Q 633.479167 106.927223 630.779167 106.927223 
L 584.770886 106.927223 
Q 582.070886 106.927223 582.070886 109.627223 
L 582.070886 117.858004 
Q 582.070886 120.558004 584.770886 120.558004 
z
" style="fill: #ffffff; opacity: 0.85; stroke: #ffffff; stroke-linejoin: miter"/>
    </g>
    <!-- 4-GS-Think -->
    <g style="fill: #262626" transform="translate(584.770886 116.069254) scale(0.09 -0.09)">
     <use xlink:href="#ArialMT-34"/>
     <use xlink:href="#ArialMT-2d" transform="translate(55.615234 0)"/>
     <use xlink:href="#ArialMT-47" transform="translate(88.916016 0)"/>
     <use xlink:href="#ArialMT-53" transform="translate(166.699219 0)"/>
     <use xlink:href="#ArialMT-2d" transform="translate(233.398438 0)"/>
     <use xlink:href="#ArialMT-54" transform="translate(266.699219 0)"/>
     <use xlink:href="#ArialMT-68" transform="translate(327.783203 0)"/>
     <use xlink:href="#ArialMT-69" transform="translate(383.398438 0)"/>
     <use xlink:href="#ArialMT-6e" transform="translate(405.615234 0)"/>
     <use xlink:href="#ArialMT-6b" transform="translate(461.230469 0)"/>
    </g>
   </g>
   <g id="patch_15">
    <path d="M 615.474948 59.449177 
Q 605.293224 64.589487 597.484746 72.035117 
" style="fill: none; stroke: #000000; stroke-linecap: round"/>
    <path d="M 601.33231 70.853486 
L 597.484746 72.035117 
L 598.84798 68.248087 
" style="fill: none; stroke: #000000; stroke-linecap: round"/>
   </g>
   <g id="text_15">
    <g id="patch_16">
     <path d="M 616.142901 58.071372 
L 673.655713 58.071372 
Q 676.355713 58.071372 676.355713 55.371372 
L 676.355713 47.140591 
Q 676.355713 44.440591 673.655713 44.440591 
L 616.142901 44.440591 
Q 613.442901 44.440591 613.442901 47.140591 
L 613.442901 55.371372 
Q 613.442901 58.071372 616.142901 58.071372 
z
" style="fill: #ffffff; opacity: 0.8; stroke: #ffffff; stroke-linejoin: miter"/>
    </g>
    <!-- 4-GS-NoThink -->
    <g style="fill: #262626" transform="translate(616.142901 53.582622) scale(0.09 -0.09)">
     <use xlink:href="#ArialMT-34"/>
     <use xlink:href="#ArialMT-2d" transform="translate(55.615234 0)"/>
     <use xlink:href="#ArialMT-47" transform="translate(88.916016 0)"/>
     <use xlink:href="#ArialMT-53" transform="translate(166.699219 0)"/>
     <use xlink:href="#ArialMT-2d" transform="translate(233.398438 0)"/>
     <use xlink:href="#ArialMT-4e" transform="translate(266.699219 0)"/>
     <use xlink:href="#ArialMT-6f" transform="translate(338.916016 0)"/>
     <use xlink:href="#ArialMT-54" transform="translate(394.53125 0)"/>
     <use xlink:href="#ArialMT-68" transform="translate(455.615234 0)"/>
     <use xlink:href="#ArialMT-69" transform="translate(511.230469 0)"/>
     <use xlink:href="#ArialMT-6e" transform="translate(533.447266 0)"/>
     <use xlink:href="#ArialMT-6b" transform="translate(589.0625 0)"/>
    </g>
   </g>
   <g id="patch_17">
    <path d="M 134.943834 177.528649 
Q 126.915115 172.44118 121.261714 166.457576 
" style="fill: none; stroke: #ff0000; stroke-width: 1.5; stroke-linecap: round"/>
    <path d="M 122.555021 170.738622 
L 121.261714 166.457576 
L 125.462535 167.991558 
" style="fill: none; stroke: #ff0000; stroke-width: 1.5; stroke-linecap: round"/>
   </g>
   <g id="text_16">
    <g id="patch_18">
     <path d="M 129.890516 198.320151 
L 202.132703 198.320151 
Q 207.132703 198.320151 207.132703 193.320151 
L 207.132703 184.174839 
Q 207.132703 179.174839 202.132703 179.174839 
L 129.890516 179.174839 
Q 124.890516 179.174839 124.890516 184.174839 
L 124.890516 193.320151 
Q 124.890516 198.320151 129.890516 198.320151 
z
" style="fill: #ffffff; opacity: 0.95; stroke: #000000; stroke-width: 1.2; stroke-linejoin: miter"/>
    </g>
    <!-- 1.7-GS-NoThink -->
    <g style="fill: #262626" transform="translate(129.890516 191.332651) scale(0.1 -0.1)">
     <use xlink:href="#ArialMT-31"/>
     <use xlink:href="#ArialMT-2e" transform="translate(55.615234 0)"/>
     <use xlink:href="#ArialMT-37" transform="translate(83.398438 0)"/>
     <use xlink:href="#ArialMT-2d" transform="translate(139.013672 0)"/>
     <use xlink:href="#ArialMT-47" transform="translate(172.314453 0)"/>
     <use xlink:href="#ArialMT-53" transform="translate(250.097656 0)"/>
     <use xlink:href="#ArialMT-2d" transform="translate(316.796875 0)"/>
     <use xlink:href="#ArialMT-4e" transform="translate(350.097656 0)"/>
     <use xlink:href="#ArialMT-6f" transform="translate(422.314453 0)"/>
     <use xlink:href="#ArialMT-54" transform="translate(477.929688 0)"/>
     <use xlink:href="#ArialMT-68" transform="translate(539.013672 0)"/>
     <use xlink:href="#ArialMT-69" transform="translate(594.628906 0)"/>
     <use xlink:href="#ArialMT-6e" transform="translate(616.845703 0)"/>
     <use xlink:href="#ArialMT-6b" transform="translate(672.460938 0)"/>
    </g>
   </g>
   <g id="patch_19">
    <path d="M 436.776378 145.155556 
Q 429.601853 140.139752 424.776965 134.492838 
" style="fill: none; stroke: #ff0000; stroke-width: 1.5; stroke-linecap: round"/>
    <path d="M 425.85482 138.833141 
L 424.776965 134.492838 
L 428.89592 136.234736 
" style="fill: none; stroke: #ff0000; stroke-width: 1.5; stroke-linecap: round"/>
   </g>
   <g id="text_17">
    <g id="patch_20">
     <path d="M 433.808288 166.02037 
L 493.267663 166.02037 
Q 498.267663 166.02037 498.267663 161.02037 
L 498.267663 151.875058 
Q 498.267663 146.875058 493.267663 146.875058 
L 433.808288 146.875058 
Q 428.808288 146.875058 428.808288 151.875058 
L 428.808288 161.02037 
Q 428.808288 166.02037 433.808288 166.02037 
z
" style="fill: #ffffff; opacity: 0.95; stroke: #000000; stroke-width: 1.2; stroke-linejoin: miter"/>
    </g>
    <!-- 1.7-GS-Think -->
    <g style="fill: #262626" transform="translate(433.808288 159.03287) scale(0.1 -0.1)">
     <use xlink:href="#ArialMT-31"/>
     <use xlink:href="#ArialMT-2e" transform="translate(55.615234 0)"/>
     <use xlink:href="#ArialMT-37" transform="translate(83.398438 0)"/>
     <use xlink:href="#ArialMT-2d" transform="translate(139.013672 0)"/>
     <use xlink:href="#ArialMT-47" transform="translate(172.314453 0)"/>
     <use xlink:href="#ArialMT-53" transform="translate(250.097656 0)"/>
     <use xlink:href="#ArialMT-2d" transform="translate(316.796875 0)"/>
     <use xlink:href="#ArialMT-54" transform="translate(350.097656 0)"/>
     <use xlink:href="#ArialMT-68" transform="translate(411.181641 0)"/>
     <use xlink:href="#ArialMT-69" transform="translate(466.796875 0)"/>
     <use xlink:href="#ArialMT-6e" transform="translate(489.013672 0)"/>
     <use xlink:href="#ArialMT-6b" transform="translate(544.628906 0)"/>
    </g>
   </g>
   <g id="patch_21">
    <path d="M 355.106381 450.651627 
Q 346.730386 445.534909 340.732202 439.421999 
" style="fill: none; stroke: #ff0000; stroke-width: 1.5; stroke-linecap: round"/>
    <path d="M 342.106164 443.677845 
L 340.732202 439.421999 
L 344.961256 440.876337 
" style="fill: none; stroke: #ff0000; stroke-width: 1.5; stroke-linecap: round"/>
   </g>
   <g id="text_18">
    <g id="patch_22">
     <path d="M 349.213589 471.417289 
L 427.021402 471.417289 
Q 432.021402 471.417289 432.021402 466.417289 
L 432.021402 457.271976 
Q 432.021402 452.271976 427.021402 452.271976 
L 349.213589 452.271976 
Q 344.213589 452.271976 344.213589 457.271976 
L 344.213589 466.417289 
Q 344.213589 471.417289 349.213589 471.417289 
z
" style="fill: #ffffff; opacity: 0.95; stroke: #000000; stroke-width: 1.2; stroke-linejoin: miter"/>
    </g>
    <!-- 32-Base-NoThink -->
    <g style="fill: #262626" transform="translate(349.213589 464.429789) scale(0.1 -0.1)">
     <use xlink:href="#ArialMT-33"/>
     <use xlink:href="#ArialMT-32" transform="translate(55.615234 0)"/>
     <use xlink:href="#ArialMT-2d" transform="translate(111.230469 0)"/>
     <use xlink:href="#ArialMT-42" transform="translate(144.53125 0)"/>
     <use xlink:href="#ArialMT-61" transform="translate(211.230469 0)"/>
     <use xlink:href="#ArialMT-73" transform="translate(266.845703 0)"/>
     <use xlink:href="#ArialMT-65" transform="translate(316.845703 0)"/>
     <use xlink:href="#ArialMT-2d" transform="translate(372.460938 0)"/>
     <use xlink:href="#ArialMT-4e" transform="translate(405.761719 0)"/>
     <use xlink:href="#ArialMT-6f" transform="translate(477.978516 0)"/>
     <use xlink:href="#ArialMT-54" transform="translate(533.59375 0)"/>
     <use xlink:href="#ArialMT-68" transform="translate(594.677734 0)"/>
     <use xlink:href="#ArialMT-69" transform="translate(650.292969 0)"/>
     <use xlink:href="#ArialMT-6e" transform="translate(672.509766 0)"/>
     <use xlink:href="#ArialMT-6b" transform="translate(728.125 0)"/>
    </g>
   </g>
   <g id="text_19">
    <!-- Pareto Frontier: F1 Score vs. Total Energy Consumption -->
    <g style="fill: #262626" transform="translate(318.13625 18.119531) scale(0.15 -0.15)">
     <defs>
      <path id="Arial-BoldMT-50" d="M 466 0 
L 466 4581 
L 1950 4581 
Q 2794 4581 3050 4513 
Q 3444 4409 3709 4064 
Q 3975 3719 3975 3172 
Q 3975 2750 3822 2462 
Q 3669 2175 3433 2011 
Q 3197 1847 2953 1794 
Q 2622 1728 1994 1728 
L 1391 1728 
L 1391 0 
L 466 0 
z
M 1391 3806 
L 1391 2506 
L 1897 2506 
Q 2444 2506 2628 2578 
Q 2813 2650 2917 2803 
Q 3022 2956 3022 3159 
Q 3022 3409 2875 3571 
Q 2728 3734 2503 3775 
Q 2338 3806 1838 3806 
L 1391 3806 
z
" transform="scale(0.015625)"/>
      <path id="Arial-BoldMT-3a" d="M 628 2441 
L 628 3319 
L 1506 3319 
L 1506 2441 
L 628 2441 
z
M 628 0 
L 628 878 
L 1506 878 
L 1506 0 
L 628 0 
z
" transform="scale(0.015625)"/>
      <path id="Arial-BoldMT-76" d="M 1372 0 
L 34 3319 
L 956 3319 
L 1581 1625 
L 1763 1059 
Q 1834 1275 1853 1344 
Q 1897 1484 1947 1625 
L 2578 3319 
L 3481 3319 
L 2163 0 
L 1372 0 
z
" transform="scale(0.015625)"/>
      <path id="Arial-BoldMT-2e" d="M 459 0 
L 459 878 
L 1338 878 
L 1338 0 
L 459 0 
z
" transform="scale(0.015625)"/>
     </defs>
     <use xlink:href="#Arial-BoldMT-50"/>
     <use xlink:href="#Arial-BoldMT-61" transform="translate(66.699219 0)"/>
     <use xlink:href="#Arial-BoldMT-72" transform="translate(122.314453 0)"/>
     <use xlink:href="#Arial-BoldMT-65" transform="translate(161.230469 0)"/>
     <use xlink:href="#Arial-BoldMT-74" transform="translate(216.845703 0)"/>
     <use xlink:href="#Arial-BoldMT-6f" transform="translate(250.146484 0)"/>
     <use xlink:href="#Arial-BoldMT-20" transform="translate(311.230469 0)"/>
     <use xlink:href="#Arial-BoldMT-46" transform="translate(339.013672 0)"/>
     <use xlink:href="#Arial-BoldMT-72" transform="translate(400.097656 0)"/>
     <use xlink:href="#Arial-BoldMT-6f" transform="translate(439.013672 0)"/>
     <use xlink:href="#Arial-BoldMT-6e" transform="translate(500.097656 0)"/>
     <use xlink:href="#Arial-BoldMT-74" transform="translate(561.181641 0)"/>
     <use xlink:href="#Arial-BoldMT-69" transform="translate(594.482422 0)"/>
     <use xlink:href="#Arial-BoldMT-65" transform="translate(622.265625 0)"/>
     <use xlink:href="#Arial-BoldMT-72" transform="translate(677.880859 0)"/>
     <use xlink:href="#Arial-BoldMT-3a" transform="translate(716.796875 0)"/>
     <use xlink:href="#Arial-BoldMT-20" transform="translate(750.097656 0)"/>
     <use xlink:href="#Arial-BoldMT-46" transform="translate(777.880859 0)"/>
     <use xlink:href="#Arial-BoldMT-31" transform="translate(838.964844 0)"/>
     <use xlink:href="#Arial-BoldMT-20" transform="translate(894.580078 0)"/>
     <use xlink:href="#Arial-BoldMT-53" transform="translate(922.363281 0)"/>
     <use xlink:href="#Arial-BoldMT-63" transform="translate(989.0625 0)"/>
     <use xlink:href="#Arial-BoldMT-6f" transform="translate(1044.677734 0)"/>
     <use xlink:href="#Arial-BoldMT-72" transform="translate(1105.761719 0)"/>
     <use xlink:href="#Arial-BoldMT-65" transform="translate(1144.677734 0)"/>
     <use xlink:href="#Arial-BoldMT-20" transform="translate(1200.292969 0)"/>
     <use xlink:href="#Arial-BoldMT-76" transform="translate(1228.076172 0)"/>
     <use xlink:href="#Arial-BoldMT-73" transform="translate(1283.691406 0)"/>
     <use xlink:href="#Arial-BoldMT-2e" transform="translate(1339.306641 0)"/>
     <use xlink:href="#Arial-BoldMT-20" transform="translate(1367.089844 0)"/>
     <use xlink:href="#Arial-BoldMT-54" transform="translate(1394.873047 0)"/>
     <use xlink:href="#Arial-BoldMT-6f" transform="translate(1448.582031 0)"/>
     <use xlink:href="#Arial-BoldMT-74" transform="translate(1509.666016 0)"/>
     <use xlink:href="#Arial-BoldMT-61" transform="translate(1542.966797 0)"/>
     <use xlink:href="#Arial-BoldMT-6c" transform="translate(1598.582031 0)"/>
     <use xlink:href="#Arial-BoldMT-20" transform="translate(1626.365234 0)"/>
     <use xlink:href="#Arial-BoldMT-45" transform="translate(1654.148438 0)"/>
     <use xlink:href="#Arial-BoldMT-6e" transform="translate(1720.847656 0)"/>
     <use xlink:href="#Arial-BoldMT-65" transform="translate(1781.931641 0)"/>
     <use xlink:href="#Arial-BoldMT-72" transform="translate(1837.546875 0)"/>
     <use xlink:href="#Arial-BoldMT-67" transform="translate(1876.462891 0)"/>
     <use xlink:href="#Arial-BoldMT-79" transform="translate(1937.546875 0)"/>
     <use xlink:href="#Arial-BoldMT-20" transform="translate(1993.162109 0)"/>
     <use xlink:href="#Arial-BoldMT-43" transform="translate(2020.945312 0)"/>
     <use xlink:href="#Arial-BoldMT-6f" transform="translate(2093.162109 0)"/>
     <use xlink:href="#Arial-BoldMT-6e" transform="translate(2154.246094 0)"/>
     <use xlink:href="#Arial-BoldMT-73" transform="translate(2215.330078 0)"/>
     <use xlink:href="#Arial-BoldMT-75" transform="translate(2270.945312 0)"/>
     <use xlink:href="#Arial-BoldMT-6d" transform="translate(2332.029297 0)"/>
     <use xlink:href="#Arial-BoldMT-70" transform="translate(2420.945312 0)"/>
     <use xlink:href="#Arial-BoldMT-74" transform="translate(2482.029297 0)"/>
     <use xlink:href="#Arial-BoldMT-69" transform="translate(2515.330078 0)"/>
     <use xlink:href="#Arial-BoldMT-6f" transform="translate(2543.113281 0)"/>
     <use xlink:href="#Arial-BoldMT-6e" transform="translate(2604.197266 0)"/>
    </g>
    <!-- Qwen3 Model Family on Natural Questions -->
    <g style="fill: #262626" transform="translate(365.921797 34.38) scale(0.15 -0.15)">
     <defs>
      <path id="Arial-BoldMT-51" d="M 4153 581 
Q 4494 338 4894 194 
L 4553 -459 
Q 4344 -397 4144 -288 
Q 4100 -266 3528 119 
Q 3078 -78 2531 -78 
Q 1475 -78 876 544 
Q 278 1166 278 2291 
Q 278 3413 878 4036 
Q 1478 4659 2506 4659 
Q 3525 4659 4122 4036 
Q 4719 3413 4719 2291 
Q 4719 1697 4553 1247 
Q 4428 903 4153 581 
z
M 3409 1103 
Q 3588 1313 3677 1609 
Q 3766 1906 3766 2291 
Q 3766 3084 3416 3476 
Q 3066 3869 2500 3869 
Q 1934 3869 1582 3475 
Q 1231 3081 1231 2291 
Q 1231 1488 1582 1089 
Q 1934 691 2472 691 
Q 2672 691 2850 756 
Q 2569 941 2278 1044 
L 2538 1572 
Q 2994 1416 3409 1103 
z
" transform="scale(0.015625)"/>
      <path id="Arial-BoldMT-77" d="M 1078 0 
L 28 3319 
L 881 3319 
L 1503 1144 
L 2075 3319 
L 2922 3319 
L 3475 1144 
L 4109 3319 
L 4975 3319 
L 3909 0 
L 3066 0 
L 2494 2134 
L 1931 0 
L 1078 0 
z
" transform="scale(0.015625)"/>
      <path id="Arial-BoldMT-33" d="M 241 1216 
L 1091 1319 
Q 1131 994 1309 822 
Q 1488 650 1741 650 
Q 2013 650 2198 856 
Q 2384 1063 2384 1413 
Q 2384 1744 2206 1937 
Q 2028 2131 1772 2131 
Q 1603 2131 1369 2066 
L 1466 2781 
Q 1822 2772 2009 2936 
Q 2197 3100 2197 3372 
Q 2197 3603 2059 3740 
Q 1922 3878 1694 3878 
Q 1469 3878 1309 3722 
Q 1150 3566 1116 3266 
L 306 3403 
Q 391 3819 561 4067 
Q 731 4316 1036 4458 
Q 1341 4600 1719 4600 
Q 2366 4600 2756 4188 
Q 3078 3850 3078 3425 
Q 3078 2822 2419 2463 
Q 2813 2378 3048 2084 
Q 3284 1791 3284 1375 
Q 3284 772 2843 347 
Q 2403 -78 1747 -78 
Q 1125 -78 715 280 
Q 306 638 241 1216 
z
" transform="scale(0.015625)"/>
      <path id="Arial-BoldMT-4d" d="M 453 0 
L 453 4581 
L 1838 4581 
L 2669 1456 
L 3491 4581 
L 4878 4581 
L 4878 0 
L 4019 0 
L 4019 3606 
L 3109 0 
L 2219 0 
L 1313 3606 
L 1313 0 
L 453 0 
z
" transform="scale(0.015625)"/>
      <path id="Arial-BoldMT-64" d="M 3503 0 
L 2688 0 
L 2688 488 
Q 2484 203 2207 64 
Q 1931 -75 1650 -75 
Q 1078 -75 670 386 
Q 263 847 263 1672 
Q 263 2516 659 2955 
Q 1056 3394 1663 3394 
Q 2219 3394 2625 2931 
L 2625 4581 
L 3503 4581 
L 3503 0 
z
M 1159 1731 
Q 1159 1200 1306 963 
Q 1519 619 1900 619 
Q 2203 619 2415 876 
Q 2628 1134 2628 1647 
Q 2628 2219 2422 2470 
Q 2216 2722 1894 2722 
Q 1581 2722 1370 2473 
Q 1159 2225 1159 1731 
z
" transform="scale(0.015625)"/>
      <path id="Arial-BoldMT-4e" d="M 475 0 
L 475 4581 
L 1375 4581 
L 3250 1522 
L 3250 4581 
L 4109 4581 
L 4109 0 
L 3181 0 
L 1334 2988 
L 1334 0 
L 475 0 
z
" transform="scale(0.015625)"/>
     </defs>
     <use xlink:href="#Arial-BoldMT-51"/>
     <use xlink:href="#Arial-BoldMT-77" transform="translate(77.783203 0)"/>
     <use xlink:href="#Arial-BoldMT-65" transform="translate(155.566406 0)"/>
     <use xlink:href="#Arial-BoldMT-6e" transform="translate(211.181641 0)"/>
     <use xlink:href="#Arial-BoldMT-33" transform="translate(272.265625 0)"/>
     <use xlink:href="#Arial-BoldMT-20" transform="translate(327.880859 0)"/>
     <use xlink:href="#Arial-BoldMT-4d" transform="translate(355.664062 0)"/>
     <use xlink:href="#Arial-BoldMT-6f" transform="translate(438.964844 0)"/>
     <use xlink:href="#Arial-BoldMT-64" transform="translate(500.048828 0)"/>
     <use xlink:href="#Arial-BoldMT-65" transform="translate(561.132812 0)"/>
     <use xlink:href="#Arial-BoldMT-6c" transform="translate(616.748047 0)"/>
     <use xlink:href="#Arial-BoldMT-20" transform="translate(644.53125 0)"/>
     <use xlink:href="#Arial-BoldMT-46" transform="translate(672.314453 0)"/>
     <use xlink:href="#Arial-BoldMT-61" transform="translate(733.398438 0)"/>
     <use xlink:href="#Arial-BoldMT-6d" transform="translate(789.013672 0)"/>
     <use xlink:href="#Arial-BoldMT-69" transform="translate(877.929688 0)"/>
     <use xlink:href="#Arial-BoldMT-6c" transform="translate(905.712891 0)"/>
     <use xlink:href="#Arial-BoldMT-79" transform="translate(933.496094 0)"/>
     <use xlink:href="#Arial-BoldMT-20" transform="translate(989.111328 0)"/>
     <use xlink:href="#Arial-BoldMT-6f" transform="translate(1016.894531 0)"/>
     <use xlink:href="#Arial-BoldMT-6e" transform="translate(1077.978516 0)"/>
     <use xlink:href="#Arial-BoldMT-20" transform="translate(1139.0625 0)"/>
     <use xlink:href="#Arial-BoldMT-4e" transform="translate(1166.845703 0)"/>
     <use xlink:href="#Arial-BoldMT-61" transform="translate(1239.0625 0)"/>
     <use xlink:href="#Arial-BoldMT-74" transform="translate(1294.677734 0)"/>
     <use xlink:href="#Arial-BoldMT-75" transform="translate(1327.978516 0)"/>
     <use xlink:href="#Arial-BoldMT-72" transform="translate(1389.0625 0)"/>
     <use xlink:href="#Arial-BoldMT-61" transform="translate(1427.978516 0)"/>
     <use xlink:href="#Arial-BoldMT-6c" transform="translate(1483.59375 0)"/>
     <use xlink:href="#Arial-BoldMT-20" transform="translate(1511.376953 0)"/>
     <use xlink:href="#Arial-BoldMT-51" transform="translate(1539.160156 0)"/>
     <use xlink:href="#Arial-BoldMT-75" transform="translate(1616.943359 0)"/>
     <use xlink:href="#Arial-BoldMT-65" transform="translate(1678.027344 0)"/>
     <use xlink:href="#Arial-BoldMT-73" transform="translate(1733.642578 0)"/>
     <use xlink:href="#Arial-BoldMT-74" transform="translate(1789.257812 0)"/>
     <use xlink:href="#Arial-BoldMT-69" transform="translate(1822.558594 0)"/>
     <use xlink:href="#Arial-BoldMT-6f" transform="translate(1850.341797 0)"/>
     <use xlink:href="#Arial-BoldMT-6e" transform="translate(1911.425781 0)"/>
     <use xlink:href="#Arial-BoldMT-73" transform="translate(1972.509766 0)"/>
    </g>
   </g>
   <g id="PathCollection_33">
    <defs>
     <path id="m861eabcfd4" d="M 0 6.123724 
C 1.624031 6.123724 3.181764 5.47849 4.330127 4.330127 
C 5.47849 3.181764 6.123724 1.624031 6.123724 0 
C 6.123724 -1.624031 5.47849 -3.181764 4.330127 -4.330127 
C 3.181764 -5.47849 1.624031 -6.123724 0 -6.123724 
C -1.624031 -6.123724 -3.181764 -5.47849 -4.330127 -4.330127 
C -5.47849 -3.181764 -6.123724 -1.624031 -6.123724 0 
C -6.123724 1.624031 -5.47849 3.181764 -4.330127 4.330127 
C -3.181764 5.47849 -1.624031 6.123724 0 6.123724 
z
" style="stroke: #000000; stroke-width: 1.5"/>
    </defs>
    <g clip-path="url(#p6c763adbb4)">
     <use xlink:href="#m861eabcfd4" x="90.602443" y="506.810095" style="fill: #5d3a9b; stroke: #000000; stroke-width: 1.5"/>
    </g>
   </g>
   <g id="PathCollection_34">
    <defs>
     <path id="m1bf0bc48c8" d="M 0 -6.123724 
L -6.123724 6.123724 
L 6.123724 6.123724 
z
" style="stroke: #000000; stroke-width: 1.5"/>
    </defs>
    <g clip-path="url(#p6c763adbb4)">
     <use xlink:href="#m1bf0bc48c8" x="92.821787" y="278.584199" style="fill: #5d3a9b; stroke: #000000; stroke-width: 1.5"/>
    </g>
   </g>
   <g id="PathCollection_35">
    <g clip-path="url(#p6c763adbb4)">
     <use xlink:href="#m1bf0bc48c8" x="114.890516" y="159.174839" style="fill: #5d3a9b; stroke: #000000; stroke-width: 1.5"/>
    </g>
   </g>
   <g id="PathCollection_36">
    <g clip-path="url(#p6c763adbb4)">
     <use xlink:href="#m1bf0bc48c8" x="176.921454" y="132.516545" style="fill: #5d3a9b; stroke: #000000; stroke-width: 1.5"/>
    </g>
   </g>
   <g id="PathCollection_37">
    <defs>
     <path id="m2557aa5a0f" d="M 0 -6.123724 
L -6.123724 6.123724 
L 6.123724 6.123724 
z
" style="stroke: #000000; stroke-width: 1.5"/>
    </defs>
    <g clip-path="url(#p6c763adbb4)">
     <use xlink:href="#m2557aa5a0f" x="418.808288" y="126.875058" style="fill: #e66100; stroke: #000000; stroke-width: 1.5"/>
    </g>
   </g>
   <g id="PathCollection_38">
    <g clip-path="url(#p6c763adbb4)">
     <use xlink:href="#m2557aa5a0f" x="559.770886" y="84.627223" style="fill: #e66100; stroke: #000000; stroke-width: 1.5"/>
    </g>
   </g>
   <g id="PathCollection_39">
    <g clip-path="url(#p6c763adbb4)">
     <use xlink:href="#m1bf0bc48c8" x="591.142901" y="78.582622" style="fill: #5d3a9b; stroke: #000000; stroke-width: 1.5"/>
    </g>
   </g>
   <g id="legend_1">
    <g id="patch_23">
     <path d="M 835.85125 581.337687 
L 980.480625 581.337687 
Q 982.680625 581.337687 982.680625 579.137687 
L 982.680625 470.920031 
Q 982.680625 468.720031 980.480625 468.720031 
L 835.85125 468.720031 
Q 833.65125 468.720031 833.65125 470.920031 
L 833.65125 579.137687 
Q 833.65125 581.337687 835.85125 581.337687 
z
" style="fill: #ffffff; opacity: 0.9; stroke: #cccccc; stroke-linejoin: miter"/>
    </g>
    <g id="line2d_10">
     <path d="M 838.05125 477.143625 
L 849.05125 477.143625 
L 860.05125 477.143625 
" style="fill: none; stroke: #ffffff; stroke-width: 1.5; stroke-linecap: round"/>
     <defs>
      <path id="ma8d5ca67a1" d="M 0 5 
C 1.326016 5 2.597899 4.473168 3.535534 3.535534 
C 4.473168 2.597899 5 1.326016 5 0 
C 5 -1.326016 4.473168 -2.597899 3.535534 -3.535534 
C 2.597899 -4.473168 1.326016 -5 0 -5 
C -1.326016 -5 -2.597899 -4.473168 -3.535534 -3.535534 
C -4.473168 -2.597899 -5 -1.326016 -5 0 
C -5 1.326016 -4.473168 2.597899 -3.535534 3.535534 
C -2.597899 4.473168 -1.326016 5 0 5 
z
" style="stroke: #ffffff"/>
     </defs>
     <g>
      <use xlink:href="#ma8d5ca67a1" x="849.05125" y="477.143625" style="fill: #5d3a9b; stroke: #ffffff"/>
     </g>
    </g>
    <g id="text_20">
     <!-- Non-Thinking -->
     <g style="fill: #262626" transform="translate(868.85125 480.993625) scale(0.11 -0.11)">
      <defs>
       <path id="ArialMT-67" d="M 319 -275 
L 866 -356 
Q 900 -609 1056 -725 
Q 1266 -881 1628 -881 
Q 2019 -881 2231 -725 
Q 2444 -569 2519 -288 
Q 2563 -116 2559 434 
Q 2191 0 1641 0 
Q 956 0 581 494 
Q 206 988 206 1678 
Q 206 2153 378 2554 
Q 550 2956 876 3175 
Q 1203 3394 1644 3394 
Q 2231 3394 2613 2919 
L 2613 3319 
L 3131 3319 
L 3131 450 
Q 3131 -325 2973 -648 
Q 2816 -972 2473 -1159 
Q 2131 -1347 1631 -1347 
Q 1038 -1347 672 -1080 
Q 306 -813 319 -275 
z
M 784 1719 
Q 784 1066 1043 766 
Q 1303 466 1694 466 
Q 2081 466 2343 764 
Q 2606 1063 2606 1700 
Q 2606 2309 2336 2618 
Q 2066 2928 1684 2928 
Q 1309 2928 1046 2623 
Q 784 2319 784 1719 
z
" transform="scale(0.015625)"/>
      </defs>
      <use xlink:href="#ArialMT-4e"/>
      <use xlink:href="#ArialMT-6f" transform="translate(72.216797 0)"/>
      <use xlink:href="#ArialMT-6e" transform="translate(127.832031 0)"/>
      <use xlink:href="#ArialMT-2d" transform="translate(183.447266 0)"/>
      <use xlink:href="#ArialMT-54" transform="translate(216.748047 0)"/>
      <use xlink:href="#ArialMT-68" transform="translate(277.832031 0)"/>
      <use xlink:href="#ArialMT-69" transform="translate(333.447266 0)"/>
      <use xlink:href="#ArialMT-6e" transform="translate(355.664062 0)"/>
      <use xlink:href="#ArialMT-6b" transform="translate(411.279297 0)"/>
      <use xlink:href="#ArialMT-69" transform="translate(461.279297 0)"/>
      <use xlink:href="#ArialMT-6e" transform="translate(483.496094 0)"/>
      <use xlink:href="#ArialMT-67" transform="translate(539.111328 0)"/>
     </g>
    </g>
    <g id="line2d_11">
     <path d="M 838.05125 492.832375 
L 849.05125 492.832375 
L 860.05125 492.832375 
" style="fill: none; stroke: #ffffff; stroke-width: 1.5; stroke-linecap: round"/>
     <defs>
      <path id="md84ab5638d" d="M 0 5 
C 1.326016 5 2.597899 4.473168 3.535534 3.535534 
C 4.473168 2.597899 5 1.326016 5 0 
C 5 -1.326016 4.473168 -2.597899 3.535534 -3.535534 
C 2.597899 -4.473168 1.326016 -5 0 -5 
C -1.326016 -5 -2.597899 -4.473168 -3.535534 -3.535534 
C -4.473168 -2.597899 -5 -1.326016 -5 0 
C -5 1.326016 -4.473168 2.597899 -3.535534 3.535534 
C -2.597899 4.473168 -1.326016 5 0 5 
z
" style="stroke: #ffffff"/>
     </defs>
     <g>
      <use xlink:href="#md84ab5638d" x="849.05125" y="492.832375" style="fill: #e66100; stroke: #ffffff"/>
     </g>
    </g>
    <g id="text_21">
     <!-- Thinking -->
     <g style="fill: #262626" transform="translate(868.85125 496.682375) scale(0.11 -0.11)">
      <use xlink:href="#ArialMT-54"/>
      <use xlink:href="#ArialMT-68" transform="translate(61.083984 0)"/>
      <use xlink:href="#ArialMT-69" transform="translate(116.699219 0)"/>
      <use xlink:href="#ArialMT-6e" transform="translate(138.916016 0)"/>
      <use xlink:href="#ArialMT-6b" transform="translate(194.53125 0)"/>
      <use xlink:href="#ArialMT-69" transform="translate(244.53125 0)"/>
      <use xlink:href="#ArialMT-6e" transform="translate(266.748047 0)"/>
      <use xlink:href="#ArialMT-67" transform="translate(322.363281 0)"/>
     </g>
    </g>
    <g id="line2d_12">
     <path d="M 838.05125 508.521125 
L 849.05125 508.521125 
L 860.05125 508.521125 
" style="fill: none; stroke: #ffffff; stroke-width: 1.5; stroke-linecap: round"/>
     <defs>
      <path id="mbf64ce43e8" d="M 0 5 
C 1.326016 5 2.597899 4.473168 3.535534 3.535534 
C 4.473168 2.597899 5 1.326016 5 0 
C 5 -1.326016 4.473168 -2.597899 3.535534 -3.535534 
C 2.597899 -4.473168 1.326016 -5 0 -5 
C -1.326016 -5 -2.597899 -4.473168 -3.535534 -3.535534 
C -4.473168 -2.597899 -5 -1.326016 -5 0 
C -5 1.326016 -4.473168 2.597899 -3.535534 3.535534 
C -2.597899 4.473168 -1.326016 5 0 5 
z
" style="stroke: #1a1a1a"/>
     </defs>
     <g>
      <use xlink:href="#mbf64ce43e8" x="849.05125" y="508.521125" style="fill: #ffffff; stroke: #1a1a1a"/>
     </g>
    </g>
    <g id="text_22">
     <!-- Base -->
     <g style="fill: #262626" transform="translate(868.85125 512.371125) scale(0.11 -0.11)">
      <use xlink:href="#ArialMT-42"/>
      <use xlink:href="#ArialMT-61" transform="translate(66.699219 0)"/>
      <use xlink:href="#ArialMT-73" transform="translate(122.314453 0)"/>
      <use xlink:href="#ArialMT-65" transform="translate(172.314453 0)"/>
     </g>
    </g>
    <g id="line2d_13">
     <path d="M 838.05125 524.080969 
L 849.05125 524.080969 
L 860.05125 524.080969 
" style="fill: none; stroke: #ffffff; stroke-width: 1.5; stroke-linecap: round"/>
     <defs>
      <path id="mdd14dbb21b" d="M 0 -5 
L -5 5 
L 5 5 
z
" style="stroke: #1a1a1a; stroke-linejoin: miter"/>
     </defs>
     <g>
      <use xlink:href="#mdd14dbb21b" x="849.05125" y="524.080969" style="fill: #ffffff; stroke: #1a1a1a; stroke-linejoin: miter"/>
     </g>
    </g>
    <g id="text_23">
     <!-- GS -->
     <g style="fill: #262626" transform="translate(868.85125 527.930969) scale(0.11 -0.11)">
      <use xlink:href="#ArialMT-47"/>
      <use xlink:href="#ArialMT-53" transform="translate(77.783203 0)"/>
     </g>
    </g>
    <g id="line2d_14">
     <path d="M 838.05125 539.640812 
L 849.05125 539.640812 
L 860.05125 539.640812 
" style="fill: none; stroke: #ffffff; stroke-width: 1.5; stroke-linecap: round"/>
     <defs>
      <path id="mf70563abca" d="M -5 5 
L 5 5 
L 5 -5 
L -5 -5 
z
" style="stroke: #1a1a1a; stroke-linejoin: miter"/>
     </defs>
     <g>
      <use xlink:href="#mf70563abca" x="849.05125" y="539.640812" style="fill: #ffffff; stroke: #1a1a1a; stroke-linejoin: miter"/>
     </g>
    </g>
    <g id="text_24">
     <!-- FP -->
     <g style="fill: #262626" transform="translate(868.85125 543.490812) scale(0.11 -0.11)">
      <defs>
       <path id="ArialMT-46" d="M 525 0 
L 525 4581 
L 3616 4581 
L 3616 4041 
L 1131 4041 
L 1131 2622 
L 3281 2622 
L 3281 2081 
L 1131 2081 
L 1131 0 
L 525 0 
z
" transform="scale(0.015625)"/>
       <path id="ArialMT-50" d="M 494 0 
L 494 4581 
L 2222 4581 
Q 2678 4581 2919 4538 
Q 3256 4481 3484 4323 
Q 3713 4166 3852 3881 
Q 3991 3597 3991 3256 
Q 3991 2672 3619 2267 
Q 3247 1863 2275 1863 
L 1100 1863 
L 1100 0 
L 494 0 
z
M 1100 2403 
L 2284 2403 
Q 2872 2403 3119 2622 
Q 3366 2841 3366 3238 
Q 3366 3525 3220 3729 
Q 3075 3934 2838 4000 
Q 2684 4041 2272 4041 
L 1100 4041 
L 1100 2403 
z
" transform="scale(0.015625)"/>
      </defs>
      <use xlink:href="#ArialMT-46"/>
      <use xlink:href="#ArialMT-50" transform="translate(61.083984 0)"/>
     </g>
    </g>
    <g id="line2d_15">
     <path d="M 838.05125 555.200656 
L 849.05125 555.200656 
L 860.05125 555.200656 
" style="fill: none; stroke-dasharray: 2,3.3; stroke-dashoffset: 0; stroke: #1a1a1a; stroke-width: 2"/>
    </g>
    <g id="text_25">
     <!-- Pareto Frontier -->
     <g style="fill: #262626" transform="translate(868.85125 559.050656) scale(0.11 -0.11)">
      <defs>
       <path id="ArialMT-72" d="M 416 0 
L 416 3319 
L 922 3319 
L 922 2816 
Q 1116 3169 1280 3281 
Q 1444 3394 1641 3394 
Q 1925 3394 2219 3213 
L 2025 2691 
Q 1819 2813 1613 2813 
Q 1428 2813 1281 2702 
Q 1134 2591 1072 2394 
Q 978 2094 978 1738 
L 978 0 
L 416 0 
z
" transform="scale(0.015625)"/>
       <path id="ArialMT-74" d="M 1650 503 
L 1731 6 
Q 1494 -44 1306 -44 
Q 1000 -44 831 53 
Q 663 150 594 308 
Q 525 466 525 972 
L 525 2881 
L 113 2881 
L 113 3319 
L 525 3319 
L 525 4141 
L 1084 4478 
L 1084 3319 
L 1650 3319 
L 1650 2881 
L 1084 2881 
L 1084 941 
Q 1084 700 1114 631 
Q 1144 563 1211 522 
Q 1278 481 1403 481 
Q 1497 481 1650 503 
z
" transform="scale(0.015625)"/>
       <path id="ArialMT-20" transform="scale(0.015625)"/>
      </defs>
      <use xlink:href="#ArialMT-50"/>
      <use xlink:href="#ArialMT-61" transform="translate(66.699219 0)"/>
      <use xlink:href="#ArialMT-72" transform="translate(122.314453 0)"/>
      <use xlink:href="#ArialMT-65" transform="translate(155.615234 0)"/>
      <use xlink:href="#ArialMT-74" transform="translate(211.230469 0)"/>
      <use xlink:href="#ArialMT-6f" transform="translate(239.013672 0)"/>
      <use xlink:href="#ArialMT-20" transform="translate(294.628906 0)"/>
      <use xlink:href="#ArialMT-46" transform="translate(322.412109 0)"/>
      <use xlink:href="#ArialMT-72" transform="translate(383.496094 0)"/>
      <use xlink:href="#ArialMT-6f" transform="translate(416.796875 0)"/>
      <use xlink:href="#ArialMT-6e" transform="translate(472.412109 0)"/>
      <use xlink:href="#ArialMT-74" transform="translate(528.027344 0)"/>
      <use xlink:href="#ArialMT-69" transform="translate(555.810547 0)"/>
      <use xlink:href="#ArialMT-65" transform="translate(578.027344 0)"/>
      <use xlink:href="#ArialMT-72" transform="translate(633.642578 0)"/>
     </g>
    </g>
    <g id="line2d_16">
     <path d="M 838.05125 570.901437 
L 849.05125 570.901437 
L 860.05125 570.901437 
" style="fill: none; stroke: #ffffff; stroke-width: 1.5; stroke-linecap: round"/>
     <defs>
      <path id="m5229e50312" d="M 0 5 
C 1.326016 5 2.597899 4.473168 3.535534 3.535534 
C 4.473168 2.597899 5 1.326016 5 0 
C 5 -1.326016 4.473168 -2.597899 3.535534 -3.535534 
C 2.597899 -4.473168 1.326016 -5 0 -5 
C -1.326016 -5 -2.597899 -4.473168 -3.535534 -3.535534 
C -4.473168 -2.597899 -5 -1.326016 -5 0 
C -5 1.326016 -4.473168 2.597899 -3.535534 3.535534 
C -2.597899 4.473168 -1.326016 5 0 5 
z
" style="stroke: #000000"/>
     </defs>
     <g>
      <use xlink:href="#m5229e50312" x="849.05125" y="570.901437" style="fill-opacity: 0; stroke: #000000"/>
     </g>
    </g>
    <g id="text_26">
     <!-- Pareto Optimal Border -->
     <g style="fill: #262626" transform="translate(868.85125 574.751437) scale(0.11 -0.11)">
      <defs>
       <path id="ArialMT-4f" d="M 309 2231 
Q 309 3372 921 4017 
Q 1534 4663 2503 4663 
Q 3138 4663 3647 4359 
Q 4156 4056 4423 3514 
Q 4691 2972 4691 2284 
Q 4691 1588 4409 1038 
Q 4128 488 3612 205 
Q 3097 -78 2500 -78 
Q 1853 -78 1343 234 
Q 834 547 571 1087 
Q 309 1628 309 2231 
z
M 934 2222 
Q 934 1394 1379 917 
Q 1825 441 2497 441 
Q 3181 441 3623 922 
Q 4066 1403 4066 2288 
Q 4066 2847 3877 3264 
Q 3688 3681 3323 3911 
Q 2959 4141 2506 4141 
Q 1863 4141 1398 3698 
Q 934 3256 934 2222 
z
" transform="scale(0.015625)"/>
       <path id="ArialMT-70" d="M 422 -1272 
L 422 3319 
L 934 3319 
L 934 2888 
Q 1116 3141 1344 3267 
Q 1572 3394 1897 3394 
Q 2322 3394 2647 3175 
Q 2972 2956 3137 2557 
Q 3303 2159 3303 1684 
Q 3303 1175 3120 767 
Q 2938 359 2589 142 
Q 2241 -75 1856 -75 
Q 1575 -75 1351 44 
Q 1128 163 984 344 
L 984 -1272 
L 422 -1272 
z
M 931 1641 
Q 931 1000 1190 694 
Q 1450 388 1819 388 
Q 2194 388 2461 705 
Q 2728 1022 2728 1688 
Q 2728 2322 2467 2637 
Q 2206 2953 1844 2953 
Q 1484 2953 1207 2617 
Q 931 2281 931 1641 
z
" transform="scale(0.015625)"/>
       <path id="ArialMT-6d" d="M 422 0 
L 422 3319 
L 925 3319 
L 925 2853 
Q 1081 3097 1340 3245 
Q 1600 3394 1931 3394 
Q 2300 3394 2536 3241 
Q 2772 3088 2869 2813 
Q 3263 3394 3894 3394 
Q 4388 3394 4653 3120 
Q 4919 2847 4919 2278 
L 4919 0 
L 4359 0 
L 4359 2091 
Q 4359 2428 4304 2576 
Q 4250 2725 4106 2815 
Q 3963 2906 3769 2906 
Q 3419 2906 3187 2673 
Q 2956 2441 2956 1928 
L 2956 0 
L 2394 0 
L 2394 2156 
Q 2394 2531 2256 2718 
Q 2119 2906 1806 2906 
Q 1569 2906 1367 2781 
Q 1166 2656 1075 2415 
Q 984 2175 984 1722 
L 984 0 
L 422 0 
z
" transform="scale(0.015625)"/>
       <path id="ArialMT-6c" d="M 409 0 
L 409 4581 
L 972 4581 
L 972 0 
L 409 0 
z
" transform="scale(0.015625)"/>
       <path id="ArialMT-64" d="M 2575 0 
L 2575 419 
Q 2259 -75 1647 -75 
Q 1250 -75 917 144 
Q 584 363 401 755 
Q 219 1147 219 1656 
Q 219 2153 384 2558 
Q 550 2963 881 3178 
Q 1213 3394 1622 3394 
Q 1922 3394 2156 3267 
Q 2391 3141 2538 2938 
L 2538 4581 
L 3097 4581 
L 3097 0 
L 2575 0 
z
M 797 1656 
Q 797 1019 1065 703 
Q 1334 388 1700 388 
Q 2069 388 2326 689 
Q 2584 991 2584 1609 
Q 2584 2291 2321 2609 
Q 2059 2928 1675 2928 
Q 1300 2928 1048 2622 
Q 797 2316 797 1656 
z
" transform="scale(0.015625)"/>
      </defs>
      <use xlink:href="#ArialMT-50"/>
      <use xlink:href="#ArialMT-61" transform="translate(66.699219 0)"/>
      <use xlink:href="#ArialMT-72" transform="translate(122.314453 0)"/>
      <use xlink:href="#ArialMT-65" transform="translate(155.615234 0)"/>
      <use xlink:href="#ArialMT-74" transform="translate(211.230469 0)"/>
      <use xlink:href="#ArialMT-6f" transform="translate(239.013672 0)"/>
      <use xlink:href="#ArialMT-20" transform="translate(294.628906 0)"/>
      <use xlink:href="#ArialMT-4f" transform="translate(322.412109 0)"/>
      <use xlink:href="#ArialMT-70" transform="translate(400.195312 0)"/>
      <use xlink:href="#ArialMT-74" transform="translate(455.810547 0)"/>
      <use xlink:href="#ArialMT-69" transform="translate(483.59375 0)"/>
      <use xlink:href="#ArialMT-6d" transform="translate(505.810547 0)"/>
      <use xlink:href="#ArialMT-61" transform="translate(589.111328 0)"/>
      <use xlink:href="#ArialMT-6c" transform="translate(644.726562 0)"/>
      <use xlink:href="#ArialMT-20" transform="translate(666.943359 0)"/>
      <use xlink:href="#ArialMT-42" transform="translate(694.726562 0)"/>
      <use xlink:href="#ArialMT-6f" transform="translate(761.425781 0)"/>
      <use xlink:href="#ArialMT-72" transform="translate(817.041016 0)"/>
      <use xlink:href="#ArialMT-64" transform="translate(850.341797 0)"/>
      <use xlink:href="#ArialMT-65" transform="translate(905.957031 0)"/>
      <use xlink:href="#ArialMT-72" transform="translate(961.572266 0)"/>
     </g>
    </g>
   </g>
  </g>
 </g>
 <defs>
  <clipPath id="p6c763adbb4">
   <rect x="47.860625" y="54.38" width="940.32" height="532.457688"/>
  </clipPath>
 </defs>
</svg>
