<?xml version="1.0" encoding="utf-8" standalone="no"?>
<!DOCTYPE svg PUBLIC "-//W3C//DTD SVG 1.1//EN"
  "http://www.w3.org/Graphics/SVG/1.1/DTD/svg11.dtd">
<svg xmlns:xlink="http://www.w3.org/1999/xlink" width="1068.674062pt" height="348.921094pt" viewBox="0 0 1068.674062 348.921094" xmlns="http://www.w3.org/2000/svg" version="1.1">
 <metadata>
  <rdf:RDF xmlns:dc="http://purl.org/dc/elements/1.1/" xmlns:cc="http://creativecommons.org/ns#" xmlns:rdf="http://www.w3.org/1999/02/22-rdf-syntax-ns#">
   <cc:Work>
    <dc:type rdf:resource="http://purl.org/dc/dcmitype/StillImage"/>
    <dc:date>2025-11-27T16:04:46.643599</dc:date>
    <dc:format>image/svg+xml</dc:format>
    <dc:creator>
     <cc:Agent>
      <dc:title>Matplotlib v3.10.7, https://matplotlib.org/</dc:title>
     </cc:Agent>
    </dc:creator>
   </cc:Work>
  </rdf:RDF>
 </metadata>
 <defs>
  <style type="text/css">*{stroke-linejoin: round; stroke-linecap: butt}</style>
 </defs>
 <g id="figure_1">
  <g id="patch_1">
   <path d="M 0 348.921094 
L 1068.674062 348.921094 
L 1068.674062 0 
L 0 0 
z
" style="fill: #ffffff"/>
  </g>
  <g id="axes_1">
   <g id="patch_2">
    <path d="M 59.234063 306.9 
L 353.686884 306.9 
L 353.686884 7.2 
L 59.234063 7.2 
z
" style="fill: #ffffff"/>
   </g>
   <g id="matplotlib.axis_1">
    <g id="xtick_1">
     <g id="line2d_1">
      <path d="M 67.503293 306.9 
L 67.503293 7.2 
" clip-path="url(#pcb7a43ec5b)" style="fill: none; stroke: #cccccc; stroke-opacity: 0.3; stroke-linecap: round"/>
     </g>
     <g id="text_1">
      <!-- 0 -->
      <g style="fill: #262626" transform="translate(64.444778 324.273594) scale(0.11 -0.11)">
       <defs>
        <path id="ArialMT-30" d="M 266 2259 
Q 266 3072 433 3567 
Q 600 4063 929 4331 
Q 1259 4600 1759 4600 
Q 2128 4600 2406 4451 
Q 2684 4303 2865 4023 
Q 3047 3744 3150 3342 
Q 3253 2941 3253 2259 
Q 3253 1453 3087 958 
Q 2922 463 2592 192 
Q 2263 -78 1759 -78 
Q 1097 -78 719 397 
Q 266 969 266 2259 
z
M 844 2259 
Q 844 1131 1108 757 
Q 1372 384 1759 384 
Q 2147 384 2411 759 
Q 2675 1134 2675 2259 
Q 2675 3391 2411 3762 
Q 2147 4134 1753 4134 
Q 1366 4134 1134 3806 
Q 844 3388 844 2259 
z
" transform="scale(0.015625)"/>
       </defs>
       <use xlink:href="#ArialMT-30"/>
      </g>
     </g>
    </g>
    <g id="xtick_2">
     <g id="line2d_2">
      <path d="M 110.128195 306.9 
L 110.128195 7.2 
" clip-path="url(#pcb7a43ec5b)" style="fill: none; stroke: #cccccc; stroke-opacity: 0.3; stroke-linecap: round"/>
     </g>
     <g id="text_2">
      <!-- 5 -->
      <g style="fill: #262626" transform="translate(107.06968 324.273594) scale(0.11 -0.11)">
       <defs>
        <path id="ArialMT-35" d="M 266 1200 
L 856 1250 
Q 922 819 1161 601 
Q 1400 384 1738 384 
Q 2144 384 2425 690 
Q 2706 997 2706 1503 
Q 2706 1984 2436 2262 
Q 2166 2541 1728 2541 
Q 1456 2541 1237 2417 
Q 1019 2294 894 2097 
L 366 2166 
L 809 4519 
L 3088 4519 
L 3088 3981 
L 1259 3981 
L 1013 2750 
Q 1425 3038 1878 3038 
Q 2478 3038 2890 2622 
Q 3303 2206 3303 1553 
Q 3303 931 2941 478 
Q 2500 -78 1738 -78 
Q 1113 -78 717 272 
Q 322 622 266 1200 
z
" transform="scale(0.015625)"/>
       </defs>
       <use xlink:href="#ArialMT-35"/>
      </g>
     </g>
    </g>
    <g id="xtick_3">
     <g id="line2d_3">
      <path d="M 152.753097 306.9 
L 152.753097 7.2 
" clip-path="url(#pcb7a43ec5b)" style="fill: none; stroke: #cccccc; stroke-opacity: 0.3; stroke-linecap: round"/>
     </g>
     <g id="text_3">
      <!-- 10 -->
      <g style="fill: #262626" transform="translate(146.636066 324.273594) scale(0.11 -0.11)">
       <defs>
        <path id="ArialMT-31" d="M 2384 0 
L 1822 0 
L 1822 3584 
Q 1619 3391 1289 3197 
Q 959 3003 697 2906 
L 697 3450 
Q 1169 3672 1522 3987 
Q 1875 4303 2022 4600 
L 2384 4600 
L 2384 0 
z
" transform="scale(0.015625)"/>
       </defs>
       <use xlink:href="#ArialMT-31"/>
       <use xlink:href="#ArialMT-30" transform="translate(55.615234 0)"/>
      </g>
     </g>
    </g>
    <g id="xtick_4">
     <g id="line2d_4">
      <path d="M 195.377999 306.9 
L 195.377999 7.2 
" clip-path="url(#pcb7a43ec5b)" style="fill: none; stroke: #cccccc; stroke-opacity: 0.3; stroke-linecap: round"/>
     </g>
     <g id="text_4">
      <!-- 15 -->
      <g style="fill: #262626" transform="translate(189.260968 324.273594) scale(0.11 -0.11)">
       <use xlink:href="#ArialMT-31"/>
       <use xlink:href="#ArialMT-35" transform="translate(55.615234 0)"/>
      </g>
     </g>
    </g>
    <g id="xtick_5">
     <g id="line2d_5">
      <path d="M 238.002901 306.9 
L 238.002901 7.2 
" clip-path="url(#pcb7a43ec5b)" style="fill: none; stroke: #cccccc; stroke-opacity: 0.3; stroke-linecap: round"/>
     </g>
     <g id="text_5">
      <!-- 20 -->
      <g style="fill: #262626" transform="translate(231.88587 324.273594) scale(0.11 -0.11)">
       <defs>
        <path id="ArialMT-32" d="M 3222 541 
L 3222 0 
L 194 0 
Q 188 203 259 391 
Q 375 700 629 1000 
Q 884 1300 1366 1694 
Q 2113 2306 2375 2664 
Q 2638 3022 2638 3341 
Q 2638 3675 2398 3904 
Q 2159 4134 1775 4134 
Q 1369 4134 1125 3890 
Q 881 3647 878 3216 
L 300 3275 
Q 359 3922 746 4261 
Q 1134 4600 1788 4600 
Q 2447 4600 2831 4234 
Q 3216 3869 3216 3328 
Q 3216 3053 3103 2787 
Q 2991 2522 2730 2228 
Q 2469 1934 1863 1422 
Q 1356 997 1212 845 
Q 1069 694 975 541 
L 3222 541 
z
" transform="scale(0.015625)"/>
       </defs>
       <use xlink:href="#ArialMT-32"/>
       <use xlink:href="#ArialMT-30" transform="translate(55.615234 0)"/>
      </g>
     </g>
    </g>
    <g id="xtick_6">
     <g id="line2d_6">
      <path d="M 280.627803 306.9 
L 280.627803 7.2 
" clip-path="url(#pcb7a43ec5b)" style="fill: none; stroke: #cccccc; stroke-opacity: 0.3; stroke-linecap: round"/>
     </g>
     <g id="text_6">
      <!-- 25 -->
      <g style="fill: #262626" transform="translate(274.510771 324.273594) scale(0.11 -0.11)">
       <use xlink:href="#ArialMT-32"/>
       <use xlink:href="#ArialMT-35" transform="translate(55.615234 0)"/>
      </g>
     </g>
    </g>
    <g id="xtick_7">
     <g id="line2d_7">
      <path d="M 323.252704 306.9 
L 323.252704 7.2 
" clip-path="url(#pcb7a43ec5b)" style="fill: none; stroke: #cccccc; stroke-opacity: 0.3; stroke-linecap: round"/>
     </g>
     <g id="text_7">
      <!-- 30 -->
      <g style="fill: #262626" transform="translate(317.135673 324.273594) scale(0.11 -0.11)">
       <defs>
        <path id="ArialMT-33" d="M 269 1209 
L 831 1284 
Q 928 806 1161 595 
Q 1394 384 1728 384 
Q 2125 384 2398 659 
Q 2672 934 2672 1341 
Q 2672 1728 2419 1979 
Q 2166 2231 1775 2231 
Q 1616 2231 1378 2169 
L 1441 2663 
Q 1497 2656 1531 2656 
Q 1891 2656 2178 2843 
Q 2466 3031 2466 3422 
Q 2466 3731 2256 3934 
Q 2047 4138 1716 4138 
Q 1388 4138 1169 3931 
Q 950 3725 888 3313 
L 325 3413 
Q 428 3978 793 4289 
Q 1159 4600 1703 4600 
Q 2078 4600 2393 4439 
Q 2709 4278 2876 4000 
Q 3044 3722 3044 3409 
Q 3044 3113 2884 2869 
Q 2725 2625 2413 2481 
Q 2819 2388 3044 2092 
Q 3269 1797 3269 1353 
Q 3269 753 2831 336 
Q 2394 -81 1725 -81 
Q 1122 -81 723 278 
Q 325 638 269 1209 
z
" transform="scale(0.015625)"/>
       </defs>
       <use xlink:href="#ArialMT-33"/>
       <use xlink:href="#ArialMT-30" transform="translate(55.615234 0)"/>
      </g>
     </g>
    </g>
    <g id="text_8">
     <!-- Model Size (B) -->
     <g style="fill: #262626" transform="translate(167.116411 339.195469) scale(0.12 -0.12)">
      <defs>
       <path id="ArialMT-4d" d="M 475 0 
L 475 4581 
L 1388 4581 
L 2472 1338 
Q 2622 884 2691 659 
Q 2769 909 2934 1394 
L 4031 4581 
L 4847 4581 
L 4847 0 
L 4263 0 
L 4263 3834 
L 2931 0 
L 2384 0 
L 1059 3900 
L 1059 0 
L 475 0 
z
" transform="scale(0.015625)"/>
       <path id="ArialMT-6f" d="M 213 1659 
Q 213 2581 725 3025 
Q 1153 3394 1769 3394 
Q 2453 3394 2887 2945 
Q 3322 2497 3322 1706 
Q 3322 1066 3130 698 
Q 2938 331 2570 128 
Q 2203 -75 1769 -75 
Q 1072 -75 642 372 
Q 213 819 213 1659 
z
M 791 1659 
Q 791 1022 1069 705 
Q 1347 388 1769 388 
Q 2188 388 2466 706 
Q 2744 1025 2744 1678 
Q 2744 2294 2464 2611 
Q 2184 2928 1769 2928 
Q 1347 2928 1069 2612 
Q 791 2297 791 1659 
z
" transform="scale(0.015625)"/>
       <path id="ArialMT-64" d="M 2575 0 
L 2575 419 
Q 2259 -75 1647 -75 
Q 1250 -75 917 144 
Q 584 363 401 755 
Q 219 1147 219 1656 
Q 219 2153 384 2558 
Q 550 2963 881 3178 
Q 1213 3394 1622 3394 
Q 1922 3394 2156 3267 
Q 2391 3141 2538 2938 
L 2538 4581 
L 3097 4581 
L 3097 0 
L 2575 0 
z
M 797 1656 
Q 797 1019 1065 703 
Q 1334 388 1700 388 
Q 2069 388 2326 689 
Q 2584 991 2584 1609 
Q 2584 2291 2321 2609 
Q 2059 2928 1675 2928 
Q 1300 2928 1048 2622 
Q 797 2316 797 1656 
z
" transform="scale(0.015625)"/>
       <path id="ArialMT-65" d="M 2694 1069 
L 3275 997 
Q 3138 488 2766 206 
Q 2394 -75 1816 -75 
Q 1088 -75 661 373 
Q 234 822 234 1631 
Q 234 2469 665 2931 
Q 1097 3394 1784 3394 
Q 2450 3394 2872 2941 
Q 3294 2488 3294 1666 
Q 3294 1616 3291 1516 
L 816 1516 
Q 847 969 1125 678 
Q 1403 388 1819 388 
Q 2128 388 2347 550 
Q 2566 713 2694 1069 
z
M 847 1978 
L 2700 1978 
Q 2663 2397 2488 2606 
Q 2219 2931 1791 2931 
Q 1403 2931 1139 2672 
Q 875 2413 847 1978 
z
" transform="scale(0.015625)"/>
       <path id="ArialMT-6c" d="M 409 0 
L 409 4581 
L 972 4581 
L 972 0 
L 409 0 
z
" transform="scale(0.015625)"/>
       <path id="ArialMT-20" transform="scale(0.015625)"/>
       <path id="ArialMT-53" d="M 288 1472 
L 859 1522 
Q 900 1178 1048 958 
Q 1197 738 1509 602 
Q 1822 466 2213 466 
Q 2559 466 2825 569 
Q 3091 672 3220 851 
Q 3350 1031 3350 1244 
Q 3350 1459 3225 1620 
Q 3100 1781 2813 1891 
Q 2628 1963 1997 2114 
Q 1366 2266 1113 2400 
Q 784 2572 623 2826 
Q 463 3081 463 3397 
Q 463 3744 659 4045 
Q 856 4347 1234 4503 
Q 1613 4659 2075 4659 
Q 2584 4659 2973 4495 
Q 3363 4331 3572 4012 
Q 3781 3694 3797 3291 
L 3216 3247 
Q 3169 3681 2898 3903 
Q 2628 4125 2100 4125 
Q 1550 4125 1298 3923 
Q 1047 3722 1047 3438 
Q 1047 3191 1225 3031 
Q 1400 2872 2139 2705 
Q 2878 2538 3153 2413 
Q 3553 2228 3743 1945 
Q 3934 1663 3934 1294 
Q 3934 928 3725 604 
Q 3516 281 3123 101 
Q 2731 -78 2241 -78 
Q 1619 -78 1198 103 
Q 778 284 539 648 
Q 300 1013 288 1472 
z
" transform="scale(0.015625)"/>
       <path id="ArialMT-69" d="M 425 3934 
L 425 4581 
L 988 4581 
L 988 3934 
L 425 3934 
z
M 425 0 
L 425 3319 
L 988 3319 
L 988 0 
L 425 0 
z
" transform="scale(0.015625)"/>
       <path id="ArialMT-7a" d="M 125 0 
L 125 456 
L 2238 2881 
Q 1878 2863 1603 2863 
L 250 2863 
L 250 3319 
L 2963 3319 
L 2963 2947 
L 1166 841 
L 819 456 
Q 1197 484 1528 484 
L 3063 484 
L 3063 0 
L 125 0 
z
" transform="scale(0.015625)"/>
       <path id="ArialMT-28" d="M 1497 -1347 
Q 1031 -759 709 28 
Q 388 816 388 1659 
Q 388 2403 628 3084 
Q 909 3875 1497 4659 
L 1900 4659 
Q 1522 4009 1400 3731 
Q 1209 3300 1100 2831 
Q 966 2247 966 1656 
Q 966 153 1900 -1347 
L 1497 -1347 
z
" transform="scale(0.015625)"/>
       <path id="ArialMT-42" d="M 469 0 
L 469 4581 
L 2188 4581 
Q 2713 4581 3030 4442 
Q 3347 4303 3526 4014 
Q 3706 3725 3706 3409 
Q 3706 3116 3547 2856 
Q 3388 2597 3066 2438 
Q 3481 2316 3704 2022 
Q 3928 1728 3928 1328 
Q 3928 1006 3792 729 
Q 3656 453 3456 303 
Q 3256 153 2954 76 
Q 2653 0 2216 0 
L 469 0 
z
M 1075 2656 
L 2066 2656 
Q 2469 2656 2644 2709 
Q 2875 2778 2992 2937 
Q 3109 3097 3109 3338 
Q 3109 3566 3000 3739 
Q 2891 3913 2687 3977 
Q 2484 4041 1991 4041 
L 1075 4041 
L 1075 2656 
z
M 1075 541 
L 2216 541 
Q 2509 541 2628 563 
Q 2838 600 2978 687 
Q 3119 775 3209 942 
Q 3300 1109 3300 1328 
Q 3300 1584 3169 1773 
Q 3038 1963 2805 2039 
Q 2572 2116 2134 2116 
L 1075 2116 
L 1075 541 
z
" transform="scale(0.015625)"/>
       <path id="ArialMT-29" d="M 791 -1347 
L 388 -1347 
Q 1322 153 1322 1656 
Q 1322 2244 1188 2822 
Q 1081 3291 891 3722 
Q 769 4003 388 4659 
L 791 4659 
Q 1378 3875 1659 3084 
Q 1900 2403 1900 1659 
Q 1900 816 1576 28 
Q 1253 -759 791 -1347 
z
" transform="scale(0.015625)"/>
      </defs>
      <use xlink:href="#ArialMT-4d"/>
      <use xlink:href="#ArialMT-6f" transform="translate(83.300781 0)"/>
      <use xlink:href="#ArialMT-64" transform="translate(138.916016 0)"/>
      <use xlink:href="#ArialMT-65" transform="translate(194.53125 0)"/>
      <use xlink:href="#ArialMT-6c" transform="translate(250.146484 0)"/>
      <use xlink:href="#ArialMT-20" transform="translate(272.363281 0)"/>
      <use xlink:href="#ArialMT-53" transform="translate(300.146484 0)"/>
      <use xlink:href="#ArialMT-69" transform="translate(366.845703 0)"/>
      <use xlink:href="#ArialMT-7a" transform="translate(389.0625 0)"/>
      <use xlink:href="#ArialMT-65" transform="translate(439.0625 0)"/>
      <use xlink:href="#ArialMT-20" transform="translate(494.677734 0)"/>
      <use xlink:href="#ArialMT-28" transform="translate(522.460938 0)"/>
      <use xlink:href="#ArialMT-42" transform="translate(555.761719 0)"/>
      <use xlink:href="#ArialMT-29" transform="translate(622.460938 0)"/>
     </g>
    </g>
   </g>
   <g id="matplotlib.axis_2">
    <g id="ytick_1">
     <g id="line2d_8">
      <path d="M 59.234063 295.163286 
L 353.686884 295.163286 
" clip-path="url(#pcb7a43ec5b)" style="fill: none; stroke: #cccccc; stroke-opacity: 0.3; stroke-linecap: round"/>
     </g>
     <g id="text_9">
      <!-- 0.000 -->
      <g style="fill: #262626" transform="translate(22.21 299.100083) scale(0.11 -0.11)">
       <defs>
        <path id="ArialMT-2e" d="M 581 0 
L 581 641 
L 1222 641 
L 1222 0 
L 581 0 
z
" transform="scale(0.015625)"/>
       </defs>
       <use xlink:href="#ArialMT-30"/>
       <use xlink:href="#ArialMT-2e" transform="translate(55.615234 0)"/>
       <use xlink:href="#ArialMT-30" transform="translate(83.398438 0)"/>
       <use xlink:href="#ArialMT-30" transform="translate(139.013672 0)"/>
       <use xlink:href="#ArialMT-30" transform="translate(194.628906 0)"/>
      </g>
     </g>
    </g>
    <g id="ytick_2">
     <g id="line2d_9">
      <path d="M 59.234063 255.732564 
L 353.686884 255.732564 
" clip-path="url(#pcb7a43ec5b)" style="fill: none; stroke: #cccccc; stroke-opacity: 0.3; stroke-linecap: round"/>
     </g>
     <g id="text_10">
      <!-- 0.005 -->
      <g style="fill: #262626" transform="translate(22.21 259.669361) scale(0.11 -0.11)">
       <use xlink:href="#ArialMT-30"/>
       <use xlink:href="#ArialMT-2e" transform="translate(55.615234 0)"/>
       <use xlink:href="#ArialMT-30" transform="translate(83.398438 0)"/>
       <use xlink:href="#ArialMT-30" transform="translate(139.013672 0)"/>
       <use xlink:href="#ArialMT-35" transform="translate(194.628906 0)"/>
      </g>
     </g>
    </g>
    <g id="ytick_3">
     <g id="line2d_10">
      <path d="M 59.234063 216.301843 
L 353.686884 216.301843 
" clip-path="url(#pcb7a43ec5b)" style="fill: none; stroke: #cccccc; stroke-opacity: 0.3; stroke-linecap: round"/>
     </g>
     <g id="text_11">
      <!-- 0.010 -->
      <g style="fill: #262626" transform="translate(22.21 220.23864) scale(0.11 -0.11)">
       <use xlink:href="#ArialMT-30"/>
       <use xlink:href="#ArialMT-2e" transform="translate(55.615234 0)"/>
       <use xlink:href="#ArialMT-30" transform="translate(83.398438 0)"/>
       <use xlink:href="#ArialMT-31" transform="translate(139.013672 0)"/>
       <use xlink:href="#ArialMT-30" transform="translate(194.628906 0)"/>
      </g>
     </g>
    </g>
    <g id="ytick_4">
     <g id="line2d_11">
      <path d="M 59.234063 176.871121 
L 353.686884 176.871121 
" clip-path="url(#pcb7a43ec5b)" style="fill: none; stroke: #cccccc; stroke-opacity: 0.3; stroke-linecap: round"/>
     </g>
     <g id="text_12">
      <!-- 0.015 -->
      <g style="fill: #262626" transform="translate(22.21 180.807918) scale(0.11 -0.11)">
       <use xlink:href="#ArialMT-30"/>
       <use xlink:href="#ArialMT-2e" transform="translate(55.615234 0)"/>
       <use xlink:href="#ArialMT-30" transform="translate(83.398438 0)"/>
       <use xlink:href="#ArialMT-31" transform="translate(139.013672 0)"/>
       <use xlink:href="#ArialMT-35" transform="translate(194.628906 0)"/>
      </g>
     </g>
    </g>
    <g id="ytick_5">
     <g id="line2d_12">
      <path d="M 59.234063 137.4404 
L 353.686884 137.4404 
" clip-path="url(#pcb7a43ec5b)" style="fill: none; stroke: #cccccc; stroke-opacity: 0.3; stroke-linecap: round"/>
     </g>
     <g id="text_13">
      <!-- 0.020 -->
      <g style="fill: #262626" transform="translate(22.21 141.377196) scale(0.11 -0.11)">
       <use xlink:href="#ArialMT-30"/>
       <use xlink:href="#ArialMT-2e" transform="translate(55.615234 0)"/>
       <use xlink:href="#ArialMT-30" transform="translate(83.398438 0)"/>
       <use xlink:href="#ArialMT-32" transform="translate(139.013672 0)"/>
       <use xlink:href="#ArialMT-30" transform="translate(194.628906 0)"/>
      </g>
     </g>
    </g>
    <g id="ytick_6">
     <g id="line2d_13">
      <path d="M 59.234063 98.009678 
L 353.686884 98.009678 
" clip-path="url(#pcb7a43ec5b)" style="fill: none; stroke: #cccccc; stroke-opacity: 0.3; stroke-linecap: round"/>
     </g>
     <g id="text_14">
      <!-- 0.025 -->
      <g style="fill: #262626" transform="translate(22.21 101.946475) scale(0.11 -0.11)">
       <use xlink:href="#ArialMT-30"/>
       <use xlink:href="#ArialMT-2e" transform="translate(55.615234 0)"/>
       <use xlink:href="#ArialMT-30" transform="translate(83.398438 0)"/>
       <use xlink:href="#ArialMT-32" transform="translate(139.013672 0)"/>
       <use xlink:href="#ArialMT-35" transform="translate(194.628906 0)"/>
      </g>
     </g>
    </g>
    <g id="ytick_7">
     <g id="line2d_14">
      <path d="M 59.234063 58.578957 
L 353.686884 58.578957 
" clip-path="url(#pcb7a43ec5b)" style="fill: none; stroke: #cccccc; stroke-opacity: 0.3; stroke-linecap: round"/>
     </g>
     <g id="text_15">
      <!-- 0.030 -->
      <g style="fill: #262626" transform="translate(22.21 62.515753) scale(0.11 -0.11)">
       <use xlink:href="#ArialMT-30"/>
       <use xlink:href="#ArialMT-2e" transform="translate(55.615234 0)"/>
       <use xlink:href="#ArialMT-30" transform="translate(83.398438 0)"/>
       <use xlink:href="#ArialMT-33" transform="translate(139.013672 0)"/>
       <use xlink:href="#ArialMT-30" transform="translate(194.628906 0)"/>
      </g>
     </g>
    </g>
    <g id="ytick_8">
     <g id="line2d_15">
      <path d="M 59.234063 19.148235 
L 353.686884 19.148235 
" clip-path="url(#pcb7a43ec5b)" style="fill: none; stroke: #cccccc; stroke-opacity: 0.3; stroke-linecap: round"/>
     </g>
     <g id="text_16">
      <!-- 0.035 -->
      <g style="fill: #262626" transform="translate(22.21 23.085032) scale(0.11 -0.11)">
       <use xlink:href="#ArialMT-30"/>
       <use xlink:href="#ArialMT-2e" transform="translate(55.615234 0)"/>
       <use xlink:href="#ArialMT-30" transform="translate(83.398438 0)"/>
       <use xlink:href="#ArialMT-33" transform="translate(139.013672 0)"/>
       <use xlink:href="#ArialMT-35" transform="translate(194.628906 0)"/>
      </g>
     </g>
    </g>
    <g id="text_17">
     <!-- F1 per Token -->
     <g style="fill: #262626" transform="translate(15.825 191.957812) rotate(-90) scale(0.12 -0.12)">
      <defs>
       <path id="ArialMT-46" d="M 525 0 
L 525 4581 
L 3616 4581 
L 3616 4041 
L 1131 4041 
L 1131 2622 
L 3281 2622 
L 3281 2081 
L 1131 2081 
L 1131 0 
L 525 0 
z
" transform="scale(0.015625)"/>
       <path id="ArialMT-70" d="M 422 -1272 
L 422 3319 
L 934 3319 
L 934 2888 
Q 1116 3141 1344 3267 
Q 1572 3394 1897 3394 
Q 2322 3394 2647 3175 
Q 2972 2956 3137 2557 
Q 3303 2159 3303 1684 
Q 3303 1175 3120 767 
Q 2938 359 2589 142 
Q 2241 -75 1856 -75 
Q 1575 -75 1351 44 
Q 1128 163 984 344 
L 984 -1272 
L 422 -1272 
z
M 931 1641 
Q 931 1000 1190 694 
Q 1450 388 1819 388 
Q 2194 388 2461 705 
Q 2728 1022 2728 1688 
Q 2728 2322 2467 2637 
Q 2206 2953 1844 2953 
Q 1484 2953 1207 2617 
Q 931 2281 931 1641 
z
" transform="scale(0.015625)"/>
       <path id="ArialMT-72" d="M 416 0 
L 416 3319 
L 922 3319 
L 922 2816 
Q 1116 3169 1280 3281 
Q 1444 3394 1641 3394 
Q 1925 3394 2219 3213 
L 2025 2691 
Q 1819 2813 1613 2813 
Q 1428 2813 1281 2702 
Q 1134 2591 1072 2394 
Q 978 2094 978 1738 
L 978 0 
L 416 0 
z
" transform="scale(0.015625)"/>
       <path id="ArialMT-54" d="M 1659 0 
L 1659 4041 
L 150 4041 
L 150 4581 
L 3781 4581 
L 3781 4041 
L 2266 4041 
L 2266 0 
L 1659 0 
z
" transform="scale(0.015625)"/>
       <path id="ArialMT-6b" d="M 425 0 
L 425 4581 
L 988 4581 
L 988 1969 
L 2319 3319 
L 3047 3319 
L 1778 2088 
L 3175 0 
L 2481 0 
L 1384 1697 
L 988 1316 
L 988 0 
L 425 0 
z
" transform="scale(0.015625)"/>
       <path id="ArialMT-6e" d="M 422 0 
L 422 3319 
L 928 3319 
L 928 2847 
Q 1294 3394 1984 3394 
Q 2284 3394 2536 3286 
Q 2788 3178 2913 3003 
Q 3038 2828 3088 2588 
Q 3119 2431 3119 2041 
L 3119 0 
L 2556 0 
L 2556 2019 
Q 2556 2363 2490 2533 
Q 2425 2703 2258 2804 
Q 2091 2906 1866 2906 
Q 1506 2906 1245 2678 
Q 984 2450 984 1813 
L 984 0 
L 422 0 
z
" transform="scale(0.015625)"/>
      </defs>
      <use xlink:href="#ArialMT-46"/>
      <use xlink:href="#ArialMT-31" transform="translate(61.083984 0)"/>
      <use xlink:href="#ArialMT-20" transform="translate(116.699219 0)"/>
      <use xlink:href="#ArialMT-70" transform="translate(144.482422 0)"/>
      <use xlink:href="#ArialMT-65" transform="translate(200.097656 0)"/>
      <use xlink:href="#ArialMT-72" transform="translate(255.712891 0)"/>
      <use xlink:href="#ArialMT-20" transform="translate(289.013672 0)"/>
      <use xlink:href="#ArialMT-54" transform="translate(315.046875 0)"/>
      <use xlink:href="#ArialMT-6f" transform="translate(365.005859 0)"/>
      <use xlink:href="#ArialMT-6b" transform="translate(420.621094 0)"/>
      <use xlink:href="#ArialMT-65" transform="translate(470.621094 0)"/>
      <use xlink:href="#ArialMT-6e" transform="translate(526.236328 0)"/>
     </g>
    </g>
   </g>
   <g id="line2d_16">
    <path d="M 72.618282 289.160251 
L 72.618282 259.036897 
L 72.618282 84.050797 
L 81.99576 228.52615 
L 81.99576 263.197463 
L 81.99576 20.822727 
L 101.603215 291.44857 
L 101.603215 289.132181 
L 101.603215 288.108126 
L 135.703136 246.555607 
L 135.703136 137.709895 
L 135.703136 64.039295 
L 186.853019 229.829387 
L 186.853019 157.628443 
L 186.853019 105.178862 
L 340.302665 234.326833 
" clip-path="url(#pcb7a43ec5b)" style="fill: none; stroke: #4c72b0; stroke-width: 2; stroke-linecap: round"/>
    <defs>
     <path id="m0aa8b8a48c" d="M 0 3 
C 0.795609 3 1.55874 2.683901 2.12132 2.12132 
C 2.683901 1.55874 3 0.795609 3 0 
C 3 -0.795609 2.683901 -1.55874 2.12132 -2.12132 
C 1.55874 -2.683901 0.795609 -3 0 -3 
C -0.795609 -3 -1.55874 -2.683901 -2.12132 -2.12132 
C -2.683901 -1.55874 -3 -0.795609 -3 0 
C -3 0.795609 -2.683901 1.55874 -2.12132 2.12132 
C -1.55874 2.683901 -0.795609 3 0 3 
z
" style="stroke: #4c72b0"/>
    </defs>
    <g clip-path="url(#pcb7a43ec5b)">
     <use xlink:href="#m0aa8b8a48c" x="72.618282" y="289.160251" style="fill: #4c72b0; stroke: #4c72b0"/>
     <use xlink:href="#m0aa8b8a48c" x="72.618282" y="259.036897" style="fill: #4c72b0; stroke: #4c72b0"/>
     <use xlink:href="#m0aa8b8a48c" x="72.618282" y="84.050797" style="fill: #4c72b0; stroke: #4c72b0"/>
     <use xlink:href="#m0aa8b8a48c" x="81.99576" y="228.52615" style="fill: #4c72b0; stroke: #4c72b0"/>
     <use xlink:href="#m0aa8b8a48c" x="81.99576" y="263.197463" style="fill: #4c72b0; stroke: #4c72b0"/>
     <use xlink:href="#m0aa8b8a48c" x="81.99576" y="20.822727" style="fill: #4c72b0; stroke: #4c72b0"/>
     <use xlink:href="#m0aa8b8a48c" x="101.603215" y="291.44857" style="fill: #4c72b0; stroke: #4c72b0"/>
     <use xlink:href="#m0aa8b8a48c" x="101.603215" y="289.132181" style="fill: #4c72b0; stroke: #4c72b0"/>
     <use xlink:href="#m0aa8b8a48c" x="101.603215" y="288.108126" style="fill: #4c72b0; stroke: #4c72b0"/>
     <use xlink:href="#m0aa8b8a48c" x="135.703136" y="246.555607" style="fill: #4c72b0; stroke: #4c72b0"/>
     <use xlink:href="#m0aa8b8a48c" x="135.703136" y="137.709895" style="fill: #4c72b0; stroke: #4c72b0"/>
     <use xlink:href="#m0aa8b8a48c" x="135.703136" y="64.039295" style="fill: #4c72b0; stroke: #4c72b0"/>
     <use xlink:href="#m0aa8b8a48c" x="186.853019" y="229.829387" style="fill: #4c72b0; stroke: #4c72b0"/>
     <use xlink:href="#m0aa8b8a48c" x="186.853019" y="157.628443" style="fill: #4c72b0; stroke: #4c72b0"/>
     <use xlink:href="#m0aa8b8a48c" x="186.853019" y="105.178862" style="fill: #4c72b0; stroke: #4c72b0"/>
     <use xlink:href="#m0aa8b8a48c" x="340.302665" y="234.326833" style="fill: #4c72b0; stroke: #4c72b0"/>
    </g>
   </g>
   <g id="line2d_17">
    <path d="M 72.618282 293.268102 
L 72.618282 290.547631 
L 72.618282 289.124378 
L 81.99576 291.270836 
L 81.99576 288.541129 
L 81.99576 283.795109 
L 101.603215 291.667099 
L 101.603215 289.349163 
L 101.603215 286.926926 
L 135.703136 293.277273 
L 135.703136 290.103694 
L 135.703136 287.784943 
L 186.853019 291.484003 
L 186.853019 289.846307 
L 186.853019 286.271431 
L 340.302665 292.987449 
" clip-path="url(#pcb7a43ec5b)" style="fill: none; stroke: #dd8452; stroke-width: 2; stroke-linecap: round"/>
    <defs>
     <path id="m06af346870" d="M 0 3 
C 0.795609 3 1.55874 2.683901 2.12132 2.12132 
C 2.683901 1.55874 3 0.795609 3 0 
C 3 -0.795609 2.683901 -1.55874 2.12132 -2.12132 
C 1.55874 -2.683901 0.795609 -3 0 -3 
C -0.795609 -3 -1.55874 -2.683901 -2.12132 -2.12132 
C -2.683901 -1.55874 -3 -0.795609 -3 0 
C -3 0.795609 -2.683901 1.55874 -2.12132 2.12132 
C -1.55874 2.683901 -0.795609 3 0 3 
z
" style="stroke: #dd8452"/>
    </defs>
    <g clip-path="url(#pcb7a43ec5b)">
     <use xlink:href="#m06af346870" x="72.618282" y="293.268102" style="fill: #dd8452; stroke: #dd8452"/>
     <use xlink:href="#m06af346870" x="72.618282" y="290.547631" style="fill: #dd8452; stroke: #dd8452"/>
     <use xlink:href="#m06af346870" x="72.618282" y="289.124378" style="fill: #dd8452; stroke: #dd8452"/>
     <use xlink:href="#m06af346870" x="81.99576" y="291.270836" style="fill: #dd8452; stroke: #dd8452"/>
     <use xlink:href="#m06af346870" x="81.99576" y="288.541129" style="fill: #dd8452; stroke: #dd8452"/>
     <use xlink:href="#m06af346870" x="81.99576" y="283.795109" style="fill: #dd8452; stroke: #dd8452"/>
     <use xlink:href="#m06af346870" x="101.603215" y="291.667099" style="fill: #dd8452; stroke: #dd8452"/>
     <use xlink:href="#m06af346870" x="101.603215" y="289.349163" style="fill: #dd8452; stroke: #dd8452"/>
     <use xlink:href="#m06af346870" x="101.603215" y="286.926926" style="fill: #dd8452; stroke: #dd8452"/>
     <use xlink:href="#m06af346870" x="135.703136" y="293.277273" style="fill: #dd8452; stroke: #dd8452"/>
     <use xlink:href="#m06af346870" x="135.703136" y="290.103694" style="fill: #dd8452; stroke: #dd8452"/>
     <use xlink:href="#m06af346870" x="135.703136" y="287.784943" style="fill: #dd8452; stroke: #dd8452"/>
     <use xlink:href="#m06af346870" x="186.853019" y="291.484003" style="fill: #dd8452; stroke: #dd8452"/>
     <use xlink:href="#m06af346870" x="186.853019" y="289.846307" style="fill: #dd8452; stroke: #dd8452"/>
     <use xlink:href="#m06af346870" x="186.853019" y="286.271431" style="fill: #dd8452; stroke: #dd8452"/>
     <use xlink:href="#m06af346870" x="340.302665" y="292.987449" style="fill: #dd8452; stroke: #dd8452"/>
    </g>
   </g>
   <g id="patch_3">
    <path d="M 59.234063 306.9 
L 59.234063 7.2 
" style="fill: none; stroke: #cccccc; stroke-width: 1.25; stroke-linejoin: miter; stroke-linecap: square"/>
   </g>
   <g id="patch_4">
    <path d="M 353.686884 306.9 
L 353.686884 7.2 
" style="fill: none; stroke: #cccccc; stroke-width: 1.25; stroke-linejoin: miter; stroke-linecap: square"/>
   </g>
   <g id="patch_5">
    <path d="M 59.234063 306.9 
L 353.686884 306.9 
" style="fill: none; stroke: #cccccc; stroke-width: 1.25; stroke-linejoin: miter; stroke-linecap: square"/>
   </g>
   <g id="patch_6">
    <path d="M 59.234063 7.2 
L 353.686884 7.2 
" style="fill: none; stroke: #cccccc; stroke-width: 1.25; stroke-linejoin: miter; stroke-linecap: square"/>
   </g>
   <g id="legend_1">
    <g id="patch_7">
     <path d="M 236.203447 47.3775 
L 345.986884 47.3775 
Q 348.186884 47.3775 348.186884 45.1775 
L 348.186884 14.9 
Q 348.186884 12.7 345.986884 12.7 
L 236.203447 12.7 
Q 234.003447 12.7 234.003447 14.9 
L 234.003447 45.1775 
Q 234.003447 47.3775 236.203447 47.3775 
z
" style="fill: #ffffff; opacity: 0.8; stroke: #cccccc; stroke-linejoin: miter"/>
    </g>
    <g id="line2d_18">
     <path d="M 238.403447 21.123594 
L 249.403447 21.123594 
L 260.403447 21.123594 
" style="fill: none; stroke: #4c72b0; stroke-width: 2; stroke-linecap: round"/>
     <g>
      <use xlink:href="#m0aa8b8a48c" x="249.403447" y="21.123594" style="fill: #4c72b0; stroke: #4c72b0"/>
     </g>
    </g>
    <g id="text_18">
     <!-- Thinking: False -->
     <g style="fill: #262626" transform="translate(269.203447 24.973594) scale(0.11 -0.11)">
      <defs>
       <path id="ArialMT-68" d="M 422 0 
L 422 4581 
L 984 4581 
L 984 2938 
Q 1378 3394 1978 3394 
Q 2347 3394 2619 3248 
Q 2891 3103 3008 2847 
Q 3125 2591 3125 2103 
L 3125 0 
L 2563 0 
L 2563 2103 
Q 2563 2525 2380 2717 
Q 2197 2909 1863 2909 
Q 1613 2909 1392 2779 
Q 1172 2650 1078 2428 
Q 984 2206 984 1816 
L 984 0 
L 422 0 
z
" transform="scale(0.015625)"/>
       <path id="ArialMT-67" d="M 319 -275 
L 866 -356 
Q 900 -609 1056 -725 
Q 1266 -881 1628 -881 
Q 2019 -881 2231 -725 
Q 2444 -569 2519 -288 
Q 2563 -116 2559 434 
Q 2191 0 1641 0 
Q 956 0 581 494 
Q 206 988 206 1678 
Q 206 2153 378 2554 
Q 550 2956 876 3175 
Q 1203 3394 1644 3394 
Q 2231 3394 2613 2919 
L 2613 3319 
L 3131 3319 
L 3131 450 
Q 3131 -325 2973 -648 
Q 2816 -972 2473 -1159 
Q 2131 -1347 1631 -1347 
Q 1038 -1347 672 -1080 
Q 306 -813 319 -275 
z
M 784 1719 
Q 784 1066 1043 766 
Q 1303 466 1694 466 
Q 2081 466 2343 764 
Q 2606 1063 2606 1700 
Q 2606 2309 2336 2618 
Q 2066 2928 1684 2928 
Q 1309 2928 1046 2623 
Q 784 2319 784 1719 
z
" transform="scale(0.015625)"/>
       <path id="ArialMT-3a" d="M 578 2678 
L 578 3319 
L 1219 3319 
L 1219 2678 
L 578 2678 
z
M 578 0 
L 578 641 
L 1219 641 
L 1219 0 
L 578 0 
z
" transform="scale(0.015625)"/>
       <path id="ArialMT-61" d="M 2588 409 
Q 2275 144 1986 34 
Q 1697 -75 1366 -75 
Q 819 -75 525 192 
Q 231 459 231 875 
Q 231 1119 342 1320 
Q 453 1522 633 1644 
Q 813 1766 1038 1828 
Q 1203 1872 1538 1913 
Q 2219 1994 2541 2106 
Q 2544 2222 2544 2253 
Q 2544 2597 2384 2738 
Q 2169 2928 1744 2928 
Q 1347 2928 1158 2789 
Q 969 2650 878 2297 
L 328 2372 
Q 403 2725 575 2942 
Q 747 3159 1072 3276 
Q 1397 3394 1825 3394 
Q 2250 3394 2515 3294 
Q 2781 3194 2906 3042 
Q 3031 2891 3081 2659 
Q 3109 2516 3109 2141 
L 3109 1391 
Q 3109 606 3145 398 
Q 3181 191 3288 0 
L 2700 0 
Q 2613 175 2588 409 
z
M 2541 1666 
Q 2234 1541 1622 1453 
Q 1275 1403 1131 1340 
Q 988 1278 909 1158 
Q 831 1038 831 891 
Q 831 666 1001 516 
Q 1172 366 1500 366 
Q 1825 366 2078 508 
Q 2331 650 2450 897 
Q 2541 1088 2541 1459 
L 2541 1666 
z
" transform="scale(0.015625)"/>
       <path id="ArialMT-73" d="M 197 991 
L 753 1078 
Q 800 744 1014 566 
Q 1228 388 1613 388 
Q 2000 388 2187 545 
Q 2375 703 2375 916 
Q 2375 1106 2209 1216 
Q 2094 1291 1634 1406 
Q 1016 1563 777 1677 
Q 538 1791 414 1992 
Q 291 2194 291 2438 
Q 291 2659 392 2848 
Q 494 3038 669 3163 
Q 800 3259 1026 3326 
Q 1253 3394 1513 3394 
Q 1903 3394 2198 3281 
Q 2494 3169 2634 2976 
Q 2775 2784 2828 2463 
L 2278 2388 
Q 2241 2644 2061 2787 
Q 1881 2931 1553 2931 
Q 1166 2931 1000 2803 
Q 834 2675 834 2503 
Q 834 2394 903 2306 
Q 972 2216 1119 2156 
Q 1203 2125 1616 2013 
Q 2213 1853 2448 1751 
Q 2684 1650 2818 1456 
Q 2953 1263 2953 975 
Q 2953 694 2789 445 
Q 2625 197 2315 61 
Q 2006 -75 1616 -75 
Q 969 -75 630 194 
Q 291 463 197 991 
z
" transform="scale(0.015625)"/>
      </defs>
      <use xlink:href="#ArialMT-54"/>
      <use xlink:href="#ArialMT-68" transform="translate(61.083984 0)"/>
      <use xlink:href="#ArialMT-69" transform="translate(116.699219 0)"/>
      <use xlink:href="#ArialMT-6e" transform="translate(138.916016 0)"/>
      <use xlink:href="#ArialMT-6b" transform="translate(194.53125 0)"/>
      <use xlink:href="#ArialMT-69" transform="translate(244.53125 0)"/>
      <use xlink:href="#ArialMT-6e" transform="translate(266.748047 0)"/>
      <use xlink:href="#ArialMT-67" transform="translate(322.363281 0)"/>
      <use xlink:href="#ArialMT-3a" transform="translate(377.978516 0)"/>
      <use xlink:href="#ArialMT-20" transform="translate(405.761719 0)"/>
      <use xlink:href="#ArialMT-46" transform="translate(433.544922 0)"/>
      <use xlink:href="#ArialMT-61" transform="translate(494.628906 0)"/>
      <use xlink:href="#ArialMT-6c" transform="translate(550.244141 0)"/>
      <use xlink:href="#ArialMT-73" transform="translate(572.460938 0)"/>
      <use xlink:href="#ArialMT-65" transform="translate(622.460938 0)"/>
     </g>
    </g>
    <g id="line2d_19">
     <path d="M 238.403447 36.812344 
L 249.403447 36.812344 
L 260.403447 36.812344 
" style="fill: none; stroke: #dd8452; stroke-width: 2; stroke-linecap: round"/>
     <g>
      <use xlink:href="#m06af346870" x="249.403447" y="36.812344" style="fill: #dd8452; stroke: #dd8452"/>
     </g>
    </g>
    <g id="text_19">
     <!-- Thinking: True -->
     <g style="fill: #262626" transform="translate(269.203447 40.662344) scale(0.11 -0.11)">
      <defs>
       <path id="ArialMT-75" d="M 2597 0 
L 2597 488 
Q 2209 -75 1544 -75 
Q 1250 -75 995 37 
Q 741 150 617 320 
Q 494 491 444 738 
Q 409 903 409 1263 
L 409 3319 
L 972 3319 
L 972 1478 
Q 972 1038 1006 884 
Q 1059 663 1231 536 
Q 1403 409 1656 409 
Q 1909 409 2131 539 
Q 2353 669 2445 892 
Q 2538 1116 2538 1541 
L 2538 3319 
L 3100 3319 
L 3100 0 
L 2597 0 
z
" transform="scale(0.015625)"/>
      </defs>
      <use xlink:href="#ArialMT-54"/>
      <use xlink:href="#ArialMT-68" transform="translate(61.083984 0)"/>
      <use xlink:href="#ArialMT-69" transform="translate(116.699219 0)"/>
      <use xlink:href="#ArialMT-6e" transform="translate(138.916016 0)"/>
      <use xlink:href="#ArialMT-6b" transform="translate(194.53125 0)"/>
      <use xlink:href="#ArialMT-69" transform="translate(244.53125 0)"/>
      <use xlink:href="#ArialMT-6e" transform="translate(266.748047 0)"/>
      <use xlink:href="#ArialMT-67" transform="translate(322.363281 0)"/>
      <use xlink:href="#ArialMT-3a" transform="translate(377.978516 0)"/>
      <use xlink:href="#ArialMT-20" transform="translate(405.761719 0)"/>
      <use xlink:href="#ArialMT-54" transform="translate(431.794922 0)"/>
      <use xlink:href="#ArialMT-72" transform="translate(489.128906 0)"/>
      <use xlink:href="#ArialMT-75" transform="translate(522.429688 0)"/>
      <use xlink:href="#ArialMT-65" transform="translate(578.044922 0)"/>
     </g>
    </g>
   </g>
  </g>
  <g id="axes_2">
   <g id="patch_8">
    <path d="M 413.127652 306.9 
L 707.580473 306.9 
L 707.580473 7.2 
L 413.127652 7.2 
z
" style="fill: #ffffff"/>
   </g>
   <g id="matplotlib.axis_3">
    <g id="xtick_8">
     <g id="line2d_20">
      <path d="M 421.396883 306.9 
L 421.396883 7.2 
" clip-path="url(#p21b5d57576)" style="fill: none; stroke: #cccccc; stroke-opacity: 0.3; stroke-linecap: round"/>
     </g>
     <g id="text_20">
      <!-- 0 -->
      <g style="fill: #262626" transform="translate(418.338367 324.273594) scale(0.11 -0.11)">
       <use xlink:href="#ArialMT-30"/>
      </g>
     </g>
    </g>
    <g id="xtick_9">
     <g id="line2d_21">
      <path d="M 464.021784 306.9 
L 464.021784 7.2 
" clip-path="url(#p21b5d57576)" style="fill: none; stroke: #cccccc; stroke-opacity: 0.3; stroke-linecap: round"/>
     </g>
     <g id="text_21">
      <!-- 5 -->
      <g style="fill: #262626" transform="translate(460.963269 324.273594) scale(0.11 -0.11)">
       <use xlink:href="#ArialMT-35"/>
      </g>
     </g>
    </g>
    <g id="xtick_10">
     <g id="line2d_22">
      <path d="M 506.646686 306.9 
L 506.646686 7.2 
" clip-path="url(#p21b5d57576)" style="fill: none; stroke: #cccccc; stroke-opacity: 0.3; stroke-linecap: round"/>
     </g>
     <g id="text_22">
      <!-- 10 -->
      <g style="fill: #262626" transform="translate(500.529655 324.273594) scale(0.11 -0.11)">
       <use xlink:href="#ArialMT-31"/>
       <use xlink:href="#ArialMT-30" transform="translate(55.615234 0)"/>
      </g>
     </g>
    </g>
    <g id="xtick_11">
     <g id="line2d_23">
      <path d="M 549.271588 306.9 
L 549.271588 7.2 
" clip-path="url(#p21b5d57576)" style="fill: none; stroke: #cccccc; stroke-opacity: 0.3; stroke-linecap: round"/>
     </g>
     <g id="text_23">
      <!-- 15 -->
      <g style="fill: #262626" transform="translate(543.154557 324.273594) scale(0.11 -0.11)">
       <use xlink:href="#ArialMT-31"/>
       <use xlink:href="#ArialMT-35" transform="translate(55.615234 0)"/>
      </g>
     </g>
    </g>
    <g id="xtick_12">
     <g id="line2d_24">
      <path d="M 591.89649 306.9 
L 591.89649 7.2 
" clip-path="url(#p21b5d57576)" style="fill: none; stroke: #cccccc; stroke-opacity: 0.3; stroke-linecap: round"/>
     </g>
     <g id="text_24">
      <!-- 20 -->
      <g style="fill: #262626" transform="translate(585.779459 324.273594) scale(0.11 -0.11)">
       <use xlink:href="#ArialMT-32"/>
       <use xlink:href="#ArialMT-30" transform="translate(55.615234 0)"/>
      </g>
     </g>
    </g>
    <g id="xtick_13">
     <g id="line2d_25">
      <path d="M 634.521392 306.9 
L 634.521392 7.2 
" clip-path="url(#p21b5d57576)" style="fill: none; stroke: #cccccc; stroke-opacity: 0.3; stroke-linecap: round"/>
     </g>
     <g id="text_25">
      <!-- 25 -->
      <g style="fill: #262626" transform="translate(628.40436 324.273594) scale(0.11 -0.11)">
       <use xlink:href="#ArialMT-32"/>
       <use xlink:href="#ArialMT-35" transform="translate(55.615234 0)"/>
      </g>
     </g>
    </g>
    <g id="xtick_14">
     <g id="line2d_26">
      <path d="M 677.146294 306.9 
L 677.146294 7.2 
" clip-path="url(#p21b5d57576)" style="fill: none; stroke: #cccccc; stroke-opacity: 0.3; stroke-linecap: round"/>
     </g>
     <g id="text_26">
      <!-- 30 -->
      <g style="fill: #262626" transform="translate(671.029262 324.273594) scale(0.11 -0.11)">
       <use xlink:href="#ArialMT-33"/>
       <use xlink:href="#ArialMT-30" transform="translate(55.615234 0)"/>
      </g>
     </g>
    </g>
    <g id="text_27">
     <!-- Model Size (B) -->
     <g style="fill: #262626" transform="translate(521.01 339.195469) scale(0.12 -0.12)">
      <use xlink:href="#ArialMT-4d"/>
      <use xlink:href="#ArialMT-6f" transform="translate(83.300781 0)"/>
      <use xlink:href="#ArialMT-64" transform="translate(138.916016 0)"/>
      <use xlink:href="#ArialMT-65" transform="translate(194.53125 0)"/>
      <use xlink:href="#ArialMT-6c" transform="translate(250.146484 0)"/>
      <use xlink:href="#ArialMT-20" transform="translate(272.363281 0)"/>
      <use xlink:href="#ArialMT-53" transform="translate(300.146484 0)"/>
      <use xlink:href="#ArialMT-69" transform="translate(366.845703 0)"/>
      <use xlink:href="#ArialMT-7a" transform="translate(389.0625 0)"/>
      <use xlink:href="#ArialMT-65" transform="translate(439.0625 0)"/>
      <use xlink:href="#ArialMT-20" transform="translate(494.677734 0)"/>
      <use xlink:href="#ArialMT-28" transform="translate(522.460938 0)"/>
      <use xlink:href="#ArialMT-42" transform="translate(555.761719 0)"/>
      <use xlink:href="#ArialMT-29" transform="translate(622.460938 0)"/>
     </g>
    </g>
   </g>
   <g id="matplotlib.axis_4">
    <g id="ytick_9">
     <g id="line2d_27">
      <path d="M 413.127652 283.189237 
L 707.580473 283.189237 
" clip-path="url(#p21b5d57576)" style="fill: none; stroke: #cccccc; stroke-opacity: 0.3; stroke-linecap: round"/>
     </g>
     <g id="text_28">
      <!-- $\mathdefault{10^{-2}}$ -->
      <g style="fill: #262626" transform="translate(381.847652 288.861112) scale(0.11 -0.11)">
       <defs>
        <path id="ArialMT-2212" d="M 3381 1997 
L 356 1997 
L 356 2522 
L 3381 2522 
L 3381 1997 
z
" transform="scale(0.015625)"/>
       </defs>
       <use xlink:href="#ArialMT-31" transform="translate(0 0.99375)"/>
       <use xlink:href="#ArialMT-30" transform="translate(55.615234 0.99375)"/>
       <use xlink:href="#ArialMT-2212" transform="translate(112.972813 70.6875) scale(0.7)"/>
       <use xlink:href="#ArialMT-32" transform="translate(153.851719 70.6875) scale(0.7)"/>
      </g>
     </g>
    </g>
    <g id="ytick_10">
     <g id="line2d_28">
      <path d="M 413.127652 160.290635 
L 707.580473 160.290635 
" clip-path="url(#p21b5d57576)" style="fill: none; stroke: #cccccc; stroke-opacity: 0.3; stroke-linecap: round"/>
     </g>
     <g id="text_29">
      <!-- $\mathdefault{10^{-1}}$ -->
      <g style="fill: #262626" transform="translate(381.847652 165.96251) scale(0.11 -0.11)">
       <use xlink:href="#ArialMT-31" transform="translate(0 0.99375)"/>
       <use xlink:href="#ArialMT-30" transform="translate(55.615234 0.99375)"/>
       <use xlink:href="#ArialMT-2212" transform="translate(112.972813 70.6875) scale(0.7)"/>
       <use xlink:href="#ArialMT-31" transform="translate(153.851719 70.6875) scale(0.7)"/>
      </g>
     </g>
    </g>
    <g id="ytick_11">
     <g id="line2d_29">
      <path d="M 413.127652 37.392032 
L 707.580473 37.392032 
" clip-path="url(#p21b5d57576)" style="fill: none; stroke: #cccccc; stroke-opacity: 0.3; stroke-linecap: round"/>
     </g>
     <g id="text_30">
      <!-- $\mathdefault{10^{0}}$ -->
      <g style="fill: #262626" transform="translate(386.357652 43.063907) scale(0.11 -0.11)">
       <use xlink:href="#ArialMT-31" transform="translate(0 0.99375)"/>
       <use xlink:href="#ArialMT-30" transform="translate(55.615234 0.99375)"/>
       <use xlink:href="#ArialMT-30" transform="translate(112.972813 70.6875) scale(0.7)"/>
      </g>
     </g>
    </g>
    <g id="ytick_12"/>
    <g id="ytick_13"/>
    <g id="ytick_14"/>
    <g id="ytick_15"/>
    <g id="ytick_16"/>
    <g id="ytick_17"/>
    <g id="ytick_18"/>
    <g id="ytick_19"/>
    <g id="ytick_20"/>
    <g id="ytick_21"/>
    <g id="ytick_22"/>
    <g id="ytick_23"/>
    <g id="ytick_24"/>
    <g id="ytick_25"/>
    <g id="ytick_26"/>
    <g id="ytick_27"/>
    <g id="ytick_28"/>
    <g id="ytick_29"/>
    <g id="ytick_30"/>
    <g id="text_31">
     <!-- F1 per Second -->
     <g style="fill: #262626" transform="translate(375.462652 196.404375) rotate(-90) scale(0.12 -0.12)">
      <defs>
       <path id="ArialMT-63" d="M 2588 1216 
L 3141 1144 
Q 3050 572 2676 248 
Q 2303 -75 1759 -75 
Q 1078 -75 664 370 
Q 250 816 250 1647 
Q 250 2184 428 2587 
Q 606 2991 970 3192 
Q 1334 3394 1763 3394 
Q 2303 3394 2647 3120 
Q 2991 2847 3088 2344 
L 2541 2259 
Q 2463 2594 2264 2762 
Q 2066 2931 1784 2931 
Q 1359 2931 1093 2626 
Q 828 2322 828 1663 
Q 828 994 1084 691 
Q 1341 388 1753 388 
Q 2084 388 2306 591 
Q 2528 794 2588 1216 
z
" transform="scale(0.015625)"/>
      </defs>
      <use xlink:href="#ArialMT-46"/>
      <use xlink:href="#ArialMT-31" transform="translate(61.083984 0)"/>
      <use xlink:href="#ArialMT-20" transform="translate(116.699219 0)"/>
      <use xlink:href="#ArialMT-70" transform="translate(144.482422 0)"/>
      <use xlink:href="#ArialMT-65" transform="translate(200.097656 0)"/>
      <use xlink:href="#ArialMT-72" transform="translate(255.712891 0)"/>
      <use xlink:href="#ArialMT-20" transform="translate(289.013672 0)"/>
      <use xlink:href="#ArialMT-53" transform="translate(316.796875 0)"/>
      <use xlink:href="#ArialMT-65" transform="translate(383.496094 0)"/>
      <use xlink:href="#ArialMT-63" transform="translate(439.111328 0)"/>
      <use xlink:href="#ArialMT-6f" transform="translate(489.111328 0)"/>
      <use xlink:href="#ArialMT-6e" transform="translate(544.726562 0)"/>
      <use xlink:href="#ArialMT-64" transform="translate(600.341797 0)"/>
     </g>
    </g>
   </g>
   <g id="line2d_30">
    <path d="M 426.511871 147.260991 
L 426.511871 71.520021 
L 426.511871 29.893058 
L 435.889349 86.090529 
L 435.889349 76.645591 
L 435.889349 20.822727 
L 455.496804 176.88863 
L 455.496804 150.803228 
L 455.496804 144.202693 
L 489.596725 94.042164 
L 489.596725 50.096152 
L 489.596725 33.723176 
L 540.746608 97.158007 
L 540.746608 64.538974 
L 540.746608 51.883843 
L 694.196254 123.590012 
" clip-path="url(#p21b5d57576)" style="fill: none; stroke: #4c72b0; stroke-width: 2; stroke-linecap: round"/>
    <g clip-path="url(#p21b5d57576)">
     <use xlink:href="#m0aa8b8a48c" x="426.511871" y="147.260991" style="fill: #4c72b0; stroke: #4c72b0"/>
     <use xlink:href="#m0aa8b8a48c" x="426.511871" y="71.520021" style="fill: #4c72b0; stroke: #4c72b0"/>
     <use xlink:href="#m0aa8b8a48c" x="426.511871" y="29.893058" style="fill: #4c72b0; stroke: #4c72b0"/>
     <use xlink:href="#m0aa8b8a48c" x="435.889349" y="86.090529" style="fill: #4c72b0; stroke: #4c72b0"/>
     <use xlink:href="#m0aa8b8a48c" x="435.889349" y="76.645591" style="fill: #4c72b0; stroke: #4c72b0"/>
     <use xlink:href="#m0aa8b8a48c" x="435.889349" y="20.822727" style="fill: #4c72b0; stroke: #4c72b0"/>
     <use xlink:href="#m0aa8b8a48c" x="455.496804" y="176.88863" style="fill: #4c72b0; stroke: #4c72b0"/>
     <use xlink:href="#m0aa8b8a48c" x="455.496804" y="150.803228" style="fill: #4c72b0; stroke: #4c72b0"/>
     <use xlink:href="#m0aa8b8a48c" x="455.496804" y="144.202693" style="fill: #4c72b0; stroke: #4c72b0"/>
     <use xlink:href="#m0aa8b8a48c" x="489.596725" y="94.042164" style="fill: #4c72b0; stroke: #4c72b0"/>
     <use xlink:href="#m0aa8b8a48c" x="489.596725" y="50.096152" style="fill: #4c72b0; stroke: #4c72b0"/>
     <use xlink:href="#m0aa8b8a48c" x="489.596725" y="33.723176" style="fill: #4c72b0; stroke: #4c72b0"/>
     <use xlink:href="#m0aa8b8a48c" x="540.746608" y="97.158007" style="fill: #4c72b0; stroke: #4c72b0"/>
     <use xlink:href="#m0aa8b8a48c" x="540.746608" y="64.538974" style="fill: #4c72b0; stroke: #4c72b0"/>
     <use xlink:href="#m0aa8b8a48c" x="540.746608" y="51.883843" style="fill: #4c72b0; stroke: #4c72b0"/>
     <use xlink:href="#m0aa8b8a48c" x="694.196254" y="123.590012" style="fill: #4c72b0; stroke: #4c72b0"/>
    </g>
   </g>
   <g id="line2d_31">
    <path d="M 426.511871 189.264541 
L 426.511871 135.521188 
L 426.511871 128.01364 
L 435.889349 156.16446 
L 435.889349 127.499821 
L 435.889349 101.833015 
L 455.496804 180.032037 
L 455.496804 152.695044 
L 455.496804 136.242395 
L 489.596725 234.179192 
L 489.596725 181.46583 
L 489.596725 163.387704 
L 540.746608 220.536088 
L 540.746608 201.690994 
L 540.746608 175.547995 
L 694.196254 293.277273 
" clip-path="url(#p21b5d57576)" style="fill: none; stroke: #dd8452; stroke-width: 2; stroke-linecap: round"/>
    <g clip-path="url(#p21b5d57576)">
     <use xlink:href="#m06af346870" x="426.511871" y="189.264541" style="fill: #dd8452; stroke: #dd8452"/>
     <use xlink:href="#m06af346870" x="426.511871" y="135.521188" style="fill: #dd8452; stroke: #dd8452"/>
     <use xlink:href="#m06af346870" x="426.511871" y="128.01364" style="fill: #dd8452; stroke: #dd8452"/>
     <use xlink:href="#m06af346870" x="435.889349" y="156.16446" style="fill: #dd8452; stroke: #dd8452"/>
     <use xlink:href="#m06af346870" x="435.889349" y="127.499821" style="fill: #dd8452; stroke: #dd8452"/>
     <use xlink:href="#m06af346870" x="435.889349" y="101.833015" style="fill: #dd8452; stroke: #dd8452"/>
     <use xlink:href="#m06af346870" x="455.496804" y="180.032037" style="fill: #dd8452; stroke: #dd8452"/>
     <use xlink:href="#m06af346870" x="455.496804" y="152.695044" style="fill: #dd8452; stroke: #dd8452"/>
     <use xlink:href="#m06af346870" x="455.496804" y="136.242395" style="fill: #dd8452; stroke: #dd8452"/>
     <use xlink:href="#m06af346870" x="489.596725" y="234.179192" style="fill: #dd8452; stroke: #dd8452"/>
     <use xlink:href="#m06af346870" x="489.596725" y="181.46583" style="fill: #dd8452; stroke: #dd8452"/>
     <use xlink:href="#m06af346870" x="489.596725" y="163.387704" style="fill: #dd8452; stroke: #dd8452"/>
     <use xlink:href="#m06af346870" x="540.746608" y="220.536088" style="fill: #dd8452; stroke: #dd8452"/>
     <use xlink:href="#m06af346870" x="540.746608" y="201.690994" style="fill: #dd8452; stroke: #dd8452"/>
     <use xlink:href="#m06af346870" x="540.746608" y="175.547995" style="fill: #dd8452; stroke: #dd8452"/>
     <use xlink:href="#m06af346870" x="694.196254" y="293.277273" style="fill: #dd8452; stroke: #dd8452"/>
    </g>
   </g>
   <g id="patch_9">
    <path d="M 413.127652 306.9 
L 413.127652 7.2 
" style="fill: none; stroke: #cccccc; stroke-width: 1.25; stroke-linejoin: miter; stroke-linecap: square"/>
   </g>
   <g id="patch_10">
    <path d="M 707.580473 306.9 
L 707.580473 7.2 
" style="fill: none; stroke: #cccccc; stroke-width: 1.25; stroke-linejoin: miter; stroke-linecap: square"/>
   </g>
   <g id="patch_11">
    <path d="M 413.127652 306.9 
L 707.580473 306.9 
" style="fill: none; stroke: #cccccc; stroke-width: 1.25; stroke-linejoin: miter; stroke-linecap: square"/>
   </g>
   <g id="patch_12">
    <path d="M 413.127652 7.2 
L 707.580473 7.2 
" style="fill: none; stroke: #cccccc; stroke-width: 1.25; stroke-linejoin: miter; stroke-linecap: square"/>
   </g>
   <g id="legend_2">
    <g id="patch_13">
     <path d="M 590.097036 47.3775 
L 699.880473 47.3775 
Q 702.080473 47.3775 702.080473 45.1775 
L 702.080473 14.9 
Q 702.080473 12.7 699.880473 12.7 
L 590.097036 12.7 
Q 587.897036 12.7 587.897036 14.9 
L 587.897036 45.1775 
Q 587.897036 47.3775 590.097036 47.3775 
z
" style="fill: #ffffff; opacity: 0.8; stroke: #cccccc; stroke-linejoin: miter"/>
    </g>
    <g id="line2d_32">
     <path d="M 592.297036 21.123594 
L 603.297036 21.123594 
L 614.297036 21.123594 
" style="fill: none; stroke: #4c72b0; stroke-width: 2; stroke-linecap: round"/>
     <g>
      <use xlink:href="#m0aa8b8a48c" x="603.297036" y="21.123594" style="fill: #4c72b0; stroke: #4c72b0"/>
     </g>
    </g>
    <g id="text_32">
     <!-- Thinking: False -->
     <g style="fill: #262626" transform="translate(623.097036 24.973594) scale(0.11 -0.11)">
      <use xlink:href="#ArialMT-54"/>
      <use xlink:href="#ArialMT-68" transform="translate(61.083984 0)"/>
      <use xlink:href="#ArialMT-69" transform="translate(116.699219 0)"/>
      <use xlink:href="#ArialMT-6e" transform="translate(138.916016 0)"/>
      <use xlink:href="#ArialMT-6b" transform="translate(194.53125 0)"/>
      <use xlink:href="#ArialMT-69" transform="translate(244.53125 0)"/>
      <use xlink:href="#ArialMT-6e" transform="translate(266.748047 0)"/>
      <use xlink:href="#ArialMT-67" transform="translate(322.363281 0)"/>
      <use xlink:href="#ArialMT-3a" transform="translate(377.978516 0)"/>
      <use xlink:href="#ArialMT-20" transform="translate(405.761719 0)"/>
      <use xlink:href="#ArialMT-46" transform="translate(433.544922 0)"/>
      <use xlink:href="#ArialMT-61" transform="translate(494.628906 0)"/>
      <use xlink:href="#ArialMT-6c" transform="translate(550.244141 0)"/>
      <use xlink:href="#ArialMT-73" transform="translate(572.460938 0)"/>
      <use xlink:href="#ArialMT-65" transform="translate(622.460938 0)"/>
     </g>
    </g>
    <g id="line2d_33">
     <path d="M 592.297036 36.812344 
L 603.297036 36.812344 
L 614.297036 36.812344 
" style="fill: none; stroke: #dd8452; stroke-width: 2; stroke-linecap: round"/>
     <g>
      <use xlink:href="#m06af346870" x="603.297036" y="36.812344" style="fill: #dd8452; stroke: #dd8452"/>
     </g>
    </g>
    <g id="text_33">
     <!-- Thinking: True -->
     <g style="fill: #262626" transform="translate(623.097036 40.662344) scale(0.11 -0.11)">
      <use xlink:href="#ArialMT-54"/>
      <use xlink:href="#ArialMT-68" transform="translate(61.083984 0)"/>
      <use xlink:href="#ArialMT-69" transform="translate(116.699219 0)"/>
      <use xlink:href="#ArialMT-6e" transform="translate(138.916016 0)"/>
      <use xlink:href="#ArialMT-6b" transform="translate(194.53125 0)"/>
      <use xlink:href="#ArialMT-69" transform="translate(244.53125 0)"/>
      <use xlink:href="#ArialMT-6e" transform="translate(266.748047 0)"/>
      <use xlink:href="#ArialMT-67" transform="translate(322.363281 0)"/>
      <use xlink:href="#ArialMT-3a" transform="translate(377.978516 0)"/>
      <use xlink:href="#ArialMT-20" transform="translate(405.761719 0)"/>
      <use xlink:href="#ArialMT-54" transform="translate(431.794922 0)"/>
      <use xlink:href="#ArialMT-72" transform="translate(489.128906 0)"/>
      <use xlink:href="#ArialMT-75" transform="translate(522.429688 0)"/>
      <use xlink:href="#ArialMT-65" transform="translate(578.044922 0)"/>
     </g>
    </g>
   </g>
  </g>
  <g id="axes_3">
   <g id="patch_14">
    <path d="M 767.021241 306.9 
L 1061.474062 306.9 
L 1061.474062 7.2 
L 767.021241 7.2 
z
" style="fill: #ffffff"/>
   </g>
   <g id="matplotlib.axis_5">
    <g id="xtick_15">
     <g id="line2d_34">
      <path d="M 775.290472 306.9 
L 775.290472 7.2 
" clip-path="url(#p5af3618c67)" style="fill: none; stroke: #cccccc; stroke-opacity: 0.3; stroke-linecap: round"/>
     </g>
     <g id="text_34">
      <!-- 0 -->
      <g style="fill: #262626" transform="translate(772.231956 324.273594) scale(0.11 -0.11)">
       <use xlink:href="#ArialMT-30"/>
      </g>
     </g>
    </g>
    <g id="xtick_16">
     <g id="line2d_35">
      <path d="M 817.915373 306.9 
L 817.915373 7.2 
" clip-path="url(#p5af3618c67)" style="fill: none; stroke: #cccccc; stroke-opacity: 0.3; stroke-linecap: round"/>
     </g>
     <g id="text_35">
      <!-- 5 -->
      <g style="fill: #262626" transform="translate(814.856858 324.273594) scale(0.11 -0.11)">
       <use xlink:href="#ArialMT-35"/>
      </g>
     </g>
    </g>
    <g id="xtick_17">
     <g id="line2d_36">
      <path d="M 860.540275 306.9 
L 860.540275 7.2 
" clip-path="url(#p5af3618c67)" style="fill: none; stroke: #cccccc; stroke-opacity: 0.3; stroke-linecap: round"/>
     </g>
     <g id="text_36">
      <!-- 10 -->
      <g style="fill: #262626" transform="translate(854.423244 324.273594) scale(0.11 -0.11)">
       <use xlink:href="#ArialMT-31"/>
       <use xlink:href="#ArialMT-30" transform="translate(55.615234 0)"/>
      </g>
     </g>
    </g>
    <g id="xtick_18">
     <g id="line2d_37">
      <path d="M 903.165177 306.9 
L 903.165177 7.2 
" clip-path="url(#p5af3618c67)" style="fill: none; stroke: #cccccc; stroke-opacity: 0.3; stroke-linecap: round"/>
     </g>
     <g id="text_37">
      <!-- 15 -->
      <g style="fill: #262626" transform="translate(897.048146 324.273594) scale(0.11 -0.11)">
       <use xlink:href="#ArialMT-31"/>
       <use xlink:href="#ArialMT-35" transform="translate(55.615234 0)"/>
      </g>
     </g>
    </g>
    <g id="xtick_19">
     <g id="line2d_38">
      <path d="M 945.790079 306.9 
L 945.790079 7.2 
" clip-path="url(#p5af3618c67)" style="fill: none; stroke: #cccccc; stroke-opacity: 0.3; stroke-linecap: round"/>
     </g>
     <g id="text_38">
      <!-- 20 -->
      <g style="fill: #262626" transform="translate(939.673048 324.273594) scale(0.11 -0.11)">
       <use xlink:href="#ArialMT-32"/>
       <use xlink:href="#ArialMT-30" transform="translate(55.615234 0)"/>
      </g>
     </g>
    </g>
    <g id="xtick_20">
     <g id="line2d_39">
      <path d="M 988.414981 306.9 
L 988.414981 7.2 
" clip-path="url(#p5af3618c67)" style="fill: none; stroke: #cccccc; stroke-opacity: 0.3; stroke-linecap: round"/>
     </g>
     <g id="text_39">
      <!-- 25 -->
      <g style="fill: #262626" transform="translate(982.29795 324.273594) scale(0.11 -0.11)">
       <use xlink:href="#ArialMT-32"/>
       <use xlink:href="#ArialMT-35" transform="translate(55.615234 0)"/>
      </g>
     </g>
    </g>
    <g id="xtick_21">
     <g id="line2d_40">
      <path d="M 1031.039883 306.9 
L 1031.039883 7.2 
" clip-path="url(#p5af3618c67)" style="fill: none; stroke: #cccccc; stroke-opacity: 0.3; stroke-linecap: round"/>
     </g>
     <g id="text_40">
      <!-- 30 -->
      <g style="fill: #262626" transform="translate(1024.922851 324.273594) scale(0.11 -0.11)">
       <use xlink:href="#ArialMT-33"/>
       <use xlink:href="#ArialMT-30" transform="translate(55.615234 0)"/>
      </g>
     </g>
    </g>
    <g id="text_41">
     <!-- Model Size (B) -->
     <g style="fill: #262626" transform="translate(874.903589 339.195469) scale(0.12 -0.12)">
      <use xlink:href="#ArialMT-4d"/>
      <use xlink:href="#ArialMT-6f" transform="translate(83.300781 0)"/>
      <use xlink:href="#ArialMT-64" transform="translate(138.916016 0)"/>
      <use xlink:href="#ArialMT-65" transform="translate(194.53125 0)"/>
      <use xlink:href="#ArialMT-6c" transform="translate(250.146484 0)"/>
      <use xlink:href="#ArialMT-20" transform="translate(272.363281 0)"/>
      <use xlink:href="#ArialMT-53" transform="translate(300.146484 0)"/>
      <use xlink:href="#ArialMT-69" transform="translate(366.845703 0)"/>
      <use xlink:href="#ArialMT-7a" transform="translate(389.0625 0)"/>
      <use xlink:href="#ArialMT-65" transform="translate(439.0625 0)"/>
      <use xlink:href="#ArialMT-20" transform="translate(494.677734 0)"/>
      <use xlink:href="#ArialMT-28" transform="translate(522.460938 0)"/>
      <use xlink:href="#ArialMT-42" transform="translate(555.761719 0)"/>
      <use xlink:href="#ArialMT-29" transform="translate(622.460938 0)"/>
     </g>
    </g>
   </g>
   <g id="matplotlib.axis_6">
    <g id="ytick_31">
     <g id="line2d_41">
      <path d="M 767.021241 278.956265 
L 1061.474062 278.956265 
" clip-path="url(#p5af3618c67)" style="fill: none; stroke: #cccccc; stroke-opacity: 0.3; stroke-linecap: round"/>
     </g>
     <g id="text_42">
      <!-- $\mathdefault{10^{2}}$ -->
      <g style="fill: #262626" transform="translate(740.251241 284.62814) scale(0.11 -0.11)">
       <use xlink:href="#ArialMT-31" transform="translate(0 0.99375)"/>
       <use xlink:href="#ArialMT-30" transform="translate(55.615234 0.99375)"/>
       <use xlink:href="#ArialMT-32" transform="translate(112.972813 70.6875) scale(0.7)"/>
      </g>
     </g>
    </g>
    <g id="ytick_32">
     <g id="line2d_42">
      <path d="M 767.021241 162.296145 
L 1061.474062 162.296145 
" clip-path="url(#p5af3618c67)" style="fill: none; stroke: #cccccc; stroke-opacity: 0.3; stroke-linecap: round"/>
     </g>
     <g id="text_43">
      <!-- $\mathdefault{10^{3}}$ -->
      <g style="fill: #262626" transform="translate(740.251241 167.96802) scale(0.11 -0.11)">
       <use xlink:href="#ArialMT-31" transform="translate(0 0.99375)"/>
       <use xlink:href="#ArialMT-30" transform="translate(55.615234 0.99375)"/>
       <use xlink:href="#ArialMT-33" transform="translate(112.972813 70.6875) scale(0.7)"/>
      </g>
     </g>
    </g>
    <g id="ytick_33">
     <g id="line2d_43">
      <path d="M 767.021241 45.636025 
L 1061.474062 45.636025 
" clip-path="url(#p5af3618c67)" style="fill: none; stroke: #cccccc; stroke-opacity: 0.3; stroke-linecap: round"/>
     </g>
     <g id="text_44">
      <!-- $\mathdefault{10^{4}}$ -->
      <g style="fill: #262626" transform="translate(740.251241 51.2529) scale(0.11 -0.11)">
       <defs>
        <path id="ArialMT-34" d="M 2069 0 
L 2069 1097 
L 81 1097 
L 81 1613 
L 2172 4581 
L 2631 4581 
L 2631 1613 
L 3250 1613 
L 3250 1097 
L 2631 1097 
L 2631 0 
L 2069 0 
z
M 2069 1613 
L 2069 3678 
L 634 1613 
L 2069 1613 
z
" transform="scale(0.015625)"/>
       </defs>
       <use xlink:href="#ArialMT-31" transform="translate(0 0.201563)"/>
       <use xlink:href="#ArialMT-30" transform="translate(55.615234 0.201563)"/>
       <use xlink:href="#ArialMT-34" transform="translate(112.972813 69.895313) scale(0.7)"/>
      </g>
     </g>
    </g>
    <g id="ytick_34"/>
    <g id="ytick_35"/>
    <g id="ytick_36"/>
    <g id="ytick_37"/>
    <g id="ytick_38"/>
    <g id="ytick_39"/>
    <g id="ytick_40"/>
    <g id="ytick_41"/>
    <g id="ytick_42"/>
    <g id="ytick_43"/>
    <g id="ytick_44"/>
    <g id="ytick_45"/>
    <g id="ytick_46"/>
    <g id="ytick_47"/>
    <g id="ytick_48"/>
    <g id="ytick_49"/>
    <g id="ytick_50"/>
    <g id="ytick_51"/>
    <g id="ytick_52"/>
    <g id="ytick_53"/>
    <g id="ytick_54"/>
    <g id="text_45">
     <!-- F1 per kg CO2 -->
     <g style="fill: #262626" transform="translate(733.725616 196.395937) rotate(-90) scale(0.12 -0.12)">
      <defs>
       <path id="ArialMT-43" d="M 3763 1606 
L 4369 1453 
Q 4178 706 3683 314 
Q 3188 -78 2472 -78 
Q 1731 -78 1267 223 
Q 803 525 561 1097 
Q 319 1669 319 2325 
Q 319 3041 592 3573 
Q 866 4106 1370 4382 
Q 1875 4659 2481 4659 
Q 3169 4659 3637 4309 
Q 4106 3959 4291 3325 
L 3694 3184 
Q 3534 3684 3231 3912 
Q 2928 4141 2469 4141 
Q 1941 4141 1586 3887 
Q 1231 3634 1087 3207 
Q 944 2781 944 2328 
Q 944 1744 1114 1308 
Q 1284 872 1643 656 
Q 2003 441 2422 441 
Q 2931 441 3284 734 
Q 3638 1028 3763 1606 
z
" transform="scale(0.015625)"/>
       <path id="ArialMT-4f" d="M 309 2231 
Q 309 3372 921 4017 
Q 1534 4663 2503 4663 
Q 3138 4663 3647 4359 
Q 4156 4056 4423 3514 
Q 4691 2972 4691 2284 
Q 4691 1588 4409 1038 
Q 4128 488 3612 205 
Q 3097 -78 2500 -78 
Q 1853 -78 1343 234 
Q 834 547 571 1087 
Q 309 1628 309 2231 
z
M 934 2222 
Q 934 1394 1379 917 
Q 1825 441 2497 441 
Q 3181 441 3623 922 
Q 4066 1403 4066 2288 
Q 4066 2847 3877 3264 
Q 3688 3681 3323 3911 
Q 2959 4141 2506 4141 
Q 1863 4141 1398 3698 
Q 934 3256 934 2222 
z
" transform="scale(0.015625)"/>
      </defs>
      <use xlink:href="#ArialMT-46"/>
      <use xlink:href="#ArialMT-31" transform="translate(61.083984 0)"/>
      <use xlink:href="#ArialMT-20" transform="translate(116.699219 0)"/>
      <use xlink:href="#ArialMT-70" transform="translate(144.482422 0)"/>
      <use xlink:href="#ArialMT-65" transform="translate(200.097656 0)"/>
      <use xlink:href="#ArialMT-72" transform="translate(255.712891 0)"/>
      <use xlink:href="#ArialMT-20" transform="translate(289.013672 0)"/>
      <use xlink:href="#ArialMT-6b" transform="translate(316.796875 0)"/>
      <use xlink:href="#ArialMT-67" transform="translate(366.796875 0)"/>
      <use xlink:href="#ArialMT-20" transform="translate(422.412109 0)"/>
      <use xlink:href="#ArialMT-43" transform="translate(450.195312 0)"/>
      <use xlink:href="#ArialMT-4f" transform="translate(522.412109 0)"/>
      <use xlink:href="#ArialMT-32" transform="translate(600.195312 0)"/>
     </g>
    </g>
   </g>
   <g id="line2d_44">
    <path d="M 780.40546 144.005932 
L 780.40546 70.439177 
L 780.40546 29.497047 
L 789.782938 81.734459 
L 789.782938 78.816328 
L 789.782938 20.822727 
L 809.390393 178.33005 
L 809.390393 153.497873 
L 809.390393 147.723279 
L 843.490315 93.721516 
L 843.490315 50.527997 
L 843.490315 36.167258 
L 894.640197 98.696932 
L 894.640197 66.918717 
L 894.640197 55.809055 
L 1048.089843 127.141372 
" clip-path="url(#p5af3618c67)" style="fill: none; stroke: #4c72b0; stroke-width: 2; stroke-linecap: round"/>
    <g clip-path="url(#p5af3618c67)">
     <use xlink:href="#m0aa8b8a48c" x="780.40546" y="144.005932" style="fill: #4c72b0; stroke: #4c72b0"/>
     <use xlink:href="#m0aa8b8a48c" x="780.40546" y="70.439177" style="fill: #4c72b0; stroke: #4c72b0"/>
     <use xlink:href="#m0aa8b8a48c" x="780.40546" y="29.497047" style="fill: #4c72b0; stroke: #4c72b0"/>
     <use xlink:href="#m0aa8b8a48c" x="789.782938" y="81.734459" style="fill: #4c72b0; stroke: #4c72b0"/>
     <use xlink:href="#m0aa8b8a48c" x="789.782938" y="78.816328" style="fill: #4c72b0; stroke: #4c72b0"/>
     <use xlink:href="#m0aa8b8a48c" x="789.782938" y="20.822727" style="fill: #4c72b0; stroke: #4c72b0"/>
     <use xlink:href="#m0aa8b8a48c" x="809.390393" y="178.33005" style="fill: #4c72b0; stroke: #4c72b0"/>
     <use xlink:href="#m0aa8b8a48c" x="809.390393" y="153.497873" style="fill: #4c72b0; stroke: #4c72b0"/>
     <use xlink:href="#m0aa8b8a48c" x="809.390393" y="147.723279" style="fill: #4c72b0; stroke: #4c72b0"/>
     <use xlink:href="#m0aa8b8a48c" x="843.490315" y="93.721516" style="fill: #4c72b0; stroke: #4c72b0"/>
     <use xlink:href="#m0aa8b8a48c" x="843.490315" y="50.527997" style="fill: #4c72b0; stroke: #4c72b0"/>
     <use xlink:href="#m0aa8b8a48c" x="843.490315" y="36.167258" style="fill: #4c72b0; stroke: #4c72b0"/>
     <use xlink:href="#m0aa8b8a48c" x="894.640197" y="98.696932" style="fill: #4c72b0; stroke: #4c72b0"/>
     <use xlink:href="#m0aa8b8a48c" x="894.640197" y="66.918717" style="fill: #4c72b0; stroke: #4c72b0"/>
     <use xlink:href="#m0aa8b8a48c" x="894.640197" y="55.809055" style="fill: #4c72b0; stroke: #4c72b0"/>
     <use xlink:href="#m0aa8b8a48c" x="1048.089843" y="127.141372" style="fill: #4c72b0; stroke: #4c72b0"/>
    </g>
   </g>
   <g id="line2d_45">
    <path d="M 780.40546 185.285993 
L 780.40546 134.617044 
L 780.40546 127.914573 
L 789.782938 155.518406 
L 789.782938 128.911241 
L 789.782938 104.23649 
L 809.390393 181.181303 
L 809.390393 155.057212 
L 809.390393 139.587366 
L 843.490315 234.780632 
L 843.490315 184.168382 
L 843.490315 167.033032 
L 894.640197 222.35762 
L 894.640197 204.475557 
L 894.640197 179.852869 
L 1048.089843 293.277273 
" clip-path="url(#p5af3618c67)" style="fill: none; stroke: #dd8452; stroke-width: 2; stroke-linecap: round"/>
    <g clip-path="url(#p5af3618c67)">
     <use xlink:href="#m06af346870" x="780.40546" y="185.285993" style="fill: #dd8452; stroke: #dd8452"/>
     <use xlink:href="#m06af346870" x="780.40546" y="134.617044" style="fill: #dd8452; stroke: #dd8452"/>
     <use xlink:href="#m06af346870" x="780.40546" y="127.914573" style="fill: #dd8452; stroke: #dd8452"/>
     <use xlink:href="#m06af346870" x="789.782938" y="155.518406" style="fill: #dd8452; stroke: #dd8452"/>
     <use xlink:href="#m06af346870" x="789.782938" y="128.911241" style="fill: #dd8452; stroke: #dd8452"/>
     <use xlink:href="#m06af346870" x="789.782938" y="104.23649" style="fill: #dd8452; stroke: #dd8452"/>
     <use xlink:href="#m06af346870" x="809.390393" y="181.181303" style="fill: #dd8452; stroke: #dd8452"/>
     <use xlink:href="#m06af346870" x="809.390393" y="155.057212" style="fill: #dd8452; stroke: #dd8452"/>
     <use xlink:href="#m06af346870" x="809.390393" y="139.587366" style="fill: #dd8452; stroke: #dd8452"/>
     <use xlink:href="#m06af346870" x="843.490315" y="234.780632" style="fill: #dd8452; stroke: #dd8452"/>
     <use xlink:href="#m06af346870" x="843.490315" y="184.168382" style="fill: #dd8452; stroke: #dd8452"/>
     <use xlink:href="#m06af346870" x="843.490315" y="167.033032" style="fill: #dd8452; stroke: #dd8452"/>
     <use xlink:href="#m06af346870" x="894.640197" y="222.35762" style="fill: #dd8452; stroke: #dd8452"/>
     <use xlink:href="#m06af346870" x="894.640197" y="204.475557" style="fill: #dd8452; stroke: #dd8452"/>
     <use xlink:href="#m06af346870" x="894.640197" y="179.852869" style="fill: #dd8452; stroke: #dd8452"/>
     <use xlink:href="#m06af346870" x="1048.089843" y="293.277273" style="fill: #dd8452; stroke: #dd8452"/>
    </g>
   </g>
   <g id="patch_15">
    <path d="M 767.021241 306.9 
L 767.021241 7.2 
" style="fill: none; stroke: #cccccc; stroke-width: 1.25; stroke-linejoin: miter; stroke-linecap: square"/>
   </g>
   <g id="patch_16">
    <path d="M 1061.474062 306.9 
L 1061.474062 7.2 
" style="fill: none; stroke: #cccccc; stroke-width: 1.25; stroke-linejoin: miter; stroke-linecap: square"/>
   </g>
   <g id="patch_17">
    <path d="M 767.021241 306.9 
L 1061.474062 306.9 
" style="fill: none; stroke: #cccccc; stroke-width: 1.25; stroke-linejoin: miter; stroke-linecap: square"/>
   </g>
   <g id="patch_18">
    <path d="M 767.021241 7.2 
L 1061.474062 7.2 
" style="fill: none; stroke: #cccccc; stroke-width: 1.25; stroke-linejoin: miter; stroke-linecap: square"/>
   </g>
   <g id="legend_3">
    <g id="patch_19">
     <path d="M 943.990625 47.3775 
L 1053.774062 47.3775 
Q 1055.974062 47.3775 1055.974062 45.1775 
L 1055.974062 14.9 
Q 1055.974062 12.7 1053.774062 12.7 
L 943.990625 12.7 
Q 941.790625 12.7 941.790625 14.9 
L 941.790625 45.1775 
Q 941.790625 47.3775 943.990625 47.3775 
z
" style="fill: #ffffff; opacity: 0.8; stroke: #cccccc; stroke-linejoin: miter"/>
    </g>
    <g id="line2d_46">
     <path d="M 946.190625 21.123594 
L 957.190625 21.123594 
L 968.190625 21.123594 
" style="fill: none; stroke: #4c72b0; stroke-width: 2; stroke-linecap: round"/>
     <g>
      <use xlink:href="#m0aa8b8a48c" x="957.190625" y="21.123594" style="fill: #4c72b0; stroke: #4c72b0"/>
     </g>
    </g>
    <g id="text_46">
     <!-- Thinking: False -->
     <g style="fill: #262626" transform="translate(976.990625 24.973594) scale(0.11 -0.11)">
      <use xlink:href="#ArialMT-54"/>
      <use xlink:href="#ArialMT-68" transform="translate(61.083984 0)"/>
      <use xlink:href="#ArialMT-69" transform="translate(116.699219 0)"/>
      <use xlink:href="#ArialMT-6e" transform="translate(138.916016 0)"/>
      <use xlink:href="#ArialMT-6b" transform="translate(194.53125 0)"/>
      <use xlink:href="#ArialMT-69" transform="translate(244.53125 0)"/>
      <use xlink:href="#ArialMT-6e" transform="translate(266.748047 0)"/>
      <use xlink:href="#ArialMT-67" transform="translate(322.363281 0)"/>
      <use xlink:href="#ArialMT-3a" transform="translate(377.978516 0)"/>
      <use xlink:href="#ArialMT-20" transform="translate(405.761719 0)"/>
      <use xlink:href="#ArialMT-46" transform="translate(433.544922 0)"/>
      <use xlink:href="#ArialMT-61" transform="translate(494.628906 0)"/>
      <use xlink:href="#ArialMT-6c" transform="translate(550.244141 0)"/>
      <use xlink:href="#ArialMT-73" transform="translate(572.460938 0)"/>
      <use xlink:href="#ArialMT-65" transform="translate(622.460938 0)"/>
     </g>
    </g>
    <g id="line2d_47">
     <path d="M 946.190625 36.812344 
L 957.190625 36.812344 
L 968.190625 36.812344 
" style="fill: none; stroke: #dd8452; stroke-width: 2; stroke-linecap: round"/>
     <g>
      <use xlink:href="#m06af346870" x="957.190625" y="36.812344" style="fill: #dd8452; stroke: #dd8452"/>
     </g>
    </g>
    <g id="text_47">
     <!-- Thinking: True -->
     <g style="fill: #262626" transform="translate(976.990625 40.662344) scale(0.11 -0.11)">
      <use xlink:href="#ArialMT-54"/>
      <use xlink:href="#ArialMT-68" transform="translate(61.083984 0)"/>
      <use xlink:href="#ArialMT-69" transform="translate(116.699219 0)"/>
      <use xlink:href="#ArialMT-6e" transform="translate(138.916016 0)"/>
      <use xlink:href="#ArialMT-6b" transform="translate(194.53125 0)"/>
      <use xlink:href="#ArialMT-69" transform="translate(244.53125 0)"/>
      <use xlink:href="#ArialMT-6e" transform="translate(266.748047 0)"/>
      <use xlink:href="#ArialMT-67" transform="translate(322.363281 0)"/>
      <use xlink:href="#ArialMT-3a" transform="translate(377.978516 0)"/>
      <use xlink:href="#ArialMT-20" transform="translate(405.761719 0)"/>
      <use xlink:href="#ArialMT-54" transform="translate(431.794922 0)"/>
      <use xlink:href="#ArialMT-72" transform="translate(489.128906 0)"/>
      <use xlink:href="#ArialMT-75" transform="translate(522.429688 0)"/>
      <use xlink:href="#ArialMT-65" transform="translate(578.044922 0)"/>
     </g>
    </g>
   </g>
  </g>
 </g>
 <defs>
  <clipPath id="pcb7a43ec5b">
   <rect x="59.234063" y="7.2" width="294.452822" height="299.7"/>
  </clipPath>
  <clipPath id="p21b5d57576">
   <rect x="413.127652" y="7.2" width="294.452822" height="299.7"/>
  </clipPath>
  <clipPath id="p5af3618c67">
   <rect x="767.021241" y="7.2" width="294.452822" height="299.7"/>
  </clipPath>
 </defs>
</svg>
